<svg xmlns="http://www.w3.org/2000/svg" viewBox="0 0 350 180"><path d="M30 60.6c.2-.3.6-.4.8-.7.2-.3.6-.5.8-.8.2-.3.4-.6.7-.8.2-.3.3-.7.6-.9.2-.3.5-.5.7-.8.2-.3.4-.6.7-.8.2-.3.5-.5.7-.8.2-.3.6-.4.8-.7.2-.3.5-.5.8-.8.2-.3.4-.6.7-.9.2-.3.5-.5.8-.8.2-.3.4-.6.7-.9.2-.3.5-.6.7-.8.2-.3.5-.5.7-.8.3-.3.5-.5.8-.7.3-.3.6-.5.8-.7.3-.3.5-.5.7-.8.3-.3.5-.6.7-.8.3-.3.7-.3 1-.6.3-.3.4-.6.7-.8.3-.2.6-.4.9-.7.3-.2.5-.5.8-.7.3-.2.4-.7.6-.9.3-.2.7-.3 1-.5.3-.2.4-.6.7-.8.3-.2.4-.6.7-.9.3-.2.7-.3 1-.5.3-.2.5-.6.8-.8.3-.2.7-.3 1-.5.3-.2.4-.6.7-.8.3-.2.7-.3.9-.5.3-.2.5-.6.7-.8.3-.2.7-.3 1-.5l.9-.6c.3-.2.4-.7.7-.9l.9-.6c.3-.2.7-.2 1-.4.3-.2.7-.2 1-.4.3-.2.4-.7.7-.9.3-.2.8-.2 1.1-.4.3-.2.5-.6.8-.8.3-.2.7-.2 1-.4.3-.2.5-.6.8-.8l.9-.6c.3-.2.8-.1 1.1-.3.3-.2.5-.6.8-.7.3-.2.8-.1 1.1-.3.3-.2.6-.3 1-.5.3-.2.6-.3 1-.5.3-.2.7-.2 1-.4.3-.1.6-.4 1-.5.3-.1.5-.6.9-.7.3-.1.8 0 1.1-.2.3-.1.6-.3 1-.4.3-.1.7-.1 1.1-.2.3-.1.6-.4 1-.5.3-.1.7-.2 1-.3.3-.1.6-.4 1-.5.3-.1.8.1 1.1 0 .4-.1.7-.3 1-.4.4-.1.7-.1 1.1-.2.4-.1.7.1 1.1 0 .4-.1.7-.1 1.1-.2.4 0 .7 0 1.1-.1.4 0 .7-.2 1.1-.2.4 0 .7-.1 1.1-.1.4 0 .7-.3 1.1-.3.4 0 .7.1 1.1.1.4 0 .7.3 1.1.3.4 0 .7 0 1.1.1.4 0 .7.1 1.1.2.4.1.8-.1 1.1-.1.4.1.7.2 1 .3.3.1.6.4 1 .6.3.1.7.2 1 .3.3.1.6.4.9.5.3.2.8.1 1.1.3l.9.6c.3.2.6.5.8.7.3.2.5.5.8.8.3.2.7.3.9.6l.8.8c.2.3.2.7.4 1 .2.3.6.5.8.8.2.3.4.6.5 1l.6.9c.1.3.1.7.3 1.1.1.3.4.6.5 1 .1.3.1.7.2 1.1.1.3-.1.7 0 1.1.1.4.4.7.5 1 0 .4-.2.7-.2 1.1 0 .4.3.7.3 1.1v1.1c0 .4-.2.7-.2 1.1 0 .4-.1.7-.2 1.1 0 .4-.1.7-.1 1.1-.1.4 0 .7-.1 1.1-.1.3-.3.7-.4 1-.1.3.1.8 0 1.1-.1.3-.4.6-.5 1-.1.3 0 .8-.1 1.1-.1.3-.2.7-.3 1-.1.3-.4.6-.5 1-.1.3-.1.7-.2 1.1-.1.3-.6.5-.7.9-.1.3-.1.7-.3 1.1-.2.3-.2.7-.4 1-.2.3-.3.7-.5 1-.2.3-.5.6-.6.9-.2.3-.3.7-.5 1-.2.3-.6.5-.8.8l-.6.9c-.2.3-.3.7-.5 1l-.6.9-.6.9-.6.9c-.2.3-.2.7-.4 1-.2.3-.6.5-.8.7l-.6.9-.6.9c-.2.3-.5.5-.7.8-.2.3-.5.5-.7.8-.2.3-.4.6-.7.8l-.6.9c-.2.3-.4.6-.7.8-.2.3-.5.5-.7.8l-.6.9c-.3.3-.6.5-.8.7-.3.2-.5.5-.8.7-.3.2-.5.6-.7.8-.3.2-.5.5-.8.7-.3.2-.5.5-.8.7-.3.2-.6.3-.9.6l-.9.6c-.3.2-.5.6-.7.8l-.9.6c-.3.2-.6.3-.9.5-.3.2-.5.5-.8.7-.3.2-.7.2-1 .4-.3.2-.5.5-.8.7l-.9.6c-.3.2-.6.3-.9.5-.3.2-.7.3-1 .4-.3.2-.6.3-.9.5-.3.2-.5.5-.8.7-.3.2-.6.3-.9.5-.3.2-.8 0-1.1.2-.3.2-.6.4-.9.5-.3.1-.6.3-1 .5-.3.1-.6.3-1 .5-.3.1-.7.3-1 .4-.3.1-.6.3-1 .5-.3.1-.7.3-1 .4-.4.1-.8 0-1.1.1-.4.1-.7.4-1 .5-.4.1-.7.3-1 .4-.6.2-1 0-1.1 0-.3.1-.7-.1-1-.1-.3 0-.7.1-1 0l-.9-.3c-.3-.1-.6-.4-.8-.6-.3-.2-.6-.4-.8-.6-.2-.3-.3-.6-.5-.9-.1-.3-.1-.6-.2-1-1-.6-1-.9-1-1.3 0-.3-.2-.7-.2-1 .1-.3.3-.6.4-.9.1-.3.4-.5.6-.8.2-.3.5-.5.7-.7.3-.2.5-.4.8-.6.3-.1.6-.3.9-.3 0 0 .3-.2 1-.4.3-.1.6-.1 1-.3.3-.1.7-.1 1-.3.3-.1.7-.2 1-.3.3-.1.6-.4.9-.6.3-.1.7-.2 1-.3.3-.1.8 0 1.1-.1.3-.1.5-.7.8-.8.3-.1.8 0 1.1-.1.3-.2.6-.3.9-.5.3-.2.6-.3.9-.5.3-.2.5-.6.8-.8.3-.2.8 0 1.1-.2.3-.2.5-.5.8-.7.3-.2.6-.3.9-.5l.9-.6c.3-.2.5-.5.8-.7l.9-.6c.3-.2.7-.2 1-.5.3-.2.4-.7.7-.9.3-.2.5-.5.7-.8.3-.2.6-.3.9-.6.3-.2.5-.5.8-.7.3-.2.6-.3.9-.6.3-.2.4-.6.6-.9.3-.2.5-.5.8-.7.2-.3.5-.5.7-.8.2-.3.6-.4.8-.7l.6-.9c.2-.3.3-.6.6-.9.2-.3.6-.4.8-.7.2-.3.5-.5.7-.8.2-.3.3-.7.5-1 .2-.3.5-.5.7-.8.2-.3.3-.6.5-.9.2-.3.6-.4.8-.7l.6-.9c.2-.3.3-.7.5-1 .2-.3.3-.7.5-1 .2-.3.4-.6.5-1 .2-.3.5-.5.7-.9.2-.3.3-.7.5-1 .2-.3.4-.6.5-1 .2-.3.4-.6.5-1 .2-.3.3-.7.4-1 .1-.3 0-.8.1-1.1.1-.3.6-.6.7-.9.1-.3 0-.8.1-1.1.1-.4.4-.6.5-1 .1-.4.1-.7.2-1.1.1-.4.1-.7.2-1.1.1-.4.1-.7.1-1.1 0-.4.2-.7.2-1.1 0-.4-.1-.7-.1-1.1 0-.4-.1-.7-.1-1.1-.1-.4-.2-.7-.3-1-.1-.4-.1-.8-.2-1.1-.1-.3-.3-.7-.5-1-.2-.3-.5-.6-.7-.8-.2-.3-.7-.3-1-.5-.3-.2-.4-.6-.7-.8-.3-.2-.7-.1-1.1-.2-.3-.1-.6-.5-.9-.6-.3-.1-.7-.1-1.1-.1-.3-.1-.7.1-1.1.1-.3 0-.7-.4-1-.5-.3 0-.7.3-1.1.3H87c-.4 0-.7.1-1.1.2-.3 0-.7-.2-1.1-.2-.3.1-.7.3-1 .4-.3.1-.7-.1-1.1 0-.3.1-.7.3-1 .4-.3.1-.7.3-1 .4-.3.1-.7.2-1 .4-.3.1-.6.3-1 .4-.3.1-.7.1-1.1.2-.3.1-.6.4-.9.6 0 .1-.4.1-.7.2-.3.1-.7.1-1.1.2-.3.1-.6.3-1 .5-.3.2-.5.5-.9.7-.3.2-.6.3-1 .5-.3.2-.6.3-1 .5-.3.2-.7.2-1 .4-.3.2-.6.5-.9.6l-.9.6c-.3.2-.7.3-1 .5l-.9.6-.9.6-.9.6c-.3.2-.6.5-.9.7-.3.2-.7.2-1 .4-.3.2-.6.5-.8.7-.3.2-.5.5-.8.8-.3.2-.6.3-.9.6-.3.2-.5.6-.8.8-.3.2-.7.3-.9.5-.3.2-.6.4-.8.7-.3.2-.5.5-.8.7-.3.2-.5.5-.8.8-.3.2-.6.4-.8.7-.3.2-.5.5-.8.8-.3.2-.8.2-1 .5-.3.2-.3.8-.5 1-.3.2-.5.5-.8.7-.3.2-.5.5-.8.8-.3.2-.8.2-1 .5-.3.2-.3.8-.5 1-.3.2-.8.2-1 .5l-.8.8c-.3.3-.5.5-.7.8l-.8.8c-.2.3-.4.7-.6.9-.2.3-.6.4-.9.7-.2.3-.5.5-.8.8-.2.3-.5.6-.7.8-.2.3-.3.7-.5 1-.2.3-.6.4-.8.7-.2.3-.5.5-.7.8-.2.3-.5.5-.8.8-.2.3-.3.7-.5 1-.2.3-.6.5-.8.7-.2.3-.5.5-.8.8-.2.3-.5.6-.7.8l-.6.9c-.2.3-.4.6-.7.9-.2.3-.6.5-.8.7-.2.3-.2.7-.5 1l-.6.9c-.2.3-.5.5-.8.8l-.6.9c-.2.3-.6.5-.8.7-.2.3-.3.7-.5 1l-.6.9-.6.9-.6.9c-.2.3-.5.5-.7.8-.2.3-.5.5-.7.8-.2.3-.4.6-.5.9l-.6.9c-.2.3-.5.5-.7.8-.2.3-.3.7-.4 1-.2.3-.5.5-.7.8-.2.3-.3.6-.5 1-.2.3-.3.7-.5 1-.2.3-.2.7-.4 1-.2.3-.6.5-.8.8-.2.3-.3.7-.4 1-.2.3-.2.7-.4 1-.2.3-.2.7-.3 1-.2.3-.5.5-.7.9-.2.3-.2.7-.3 1-.1.3-.2.7-.4 1-.1.3-.2.7-.3 1-.1.3-.3.6-.5 1-.1.3-.6.6-.7.9-.1.3-.2.7-.3 1-.1.3-.2.7-.3 1-.1.3-.3.7-.4 1-.1.3-.1.7-.2 1-.1.3.1.8 0 1.1-.1.3-.4.6-.5 1-.1.4.1.8 0 1.1-.1.4-.1.7-.1 1.1-.1.4-.4.7-.4 1-.1.4-.3.7-.3 1-.1.4 0 .7 0 1.1v2.2c0 .4-.3.7-.3 1.1 0 .4.1.7.1 1.1 0 .4-.1.7-.1 1.1 0 .4.3.7.4 1 0 .4-.2.8-.2 1.1.1.4.2.7.3 1 .1.4.3.7.3 1 .1.4.1.7.2 1.1.1.3.3.7.4 1 .1.3.3.6.5 1 .2.3.5.6.6.9.2.3.1.8.3 1.1.2.3.6.5.8.8.2.3.4.6.7.9.3.3.7.3 1 .5.3.2.5.5.8.7l.9.6c.3.2.7.2 1 .3.3.1.6.4.9.6.3.1.7.3 1 .4.3.1.7.2 1.1.3.4.1.7-.2 1.1-.2h1.1c.4 0 .7.3 1.1.3.4 0 .7-.1 1.1-.2.4 0 .7-.2 1-.3.3-.1.7-.3 1-.3.3-.1.7-.2 1-.3.3-.1.7 0 1.1-.1.3-.1.7-.1 1-.3.3-.1.6-.5.9-.7.3-.1.8 0 1.1-.2.3-.1.5-.5.9-.7.3-.2.7-.2 1-.4l.9-.6c.3-.2.7-.2 1-.3.3-.2.5-.5.8-.7.3-.2.7-.3 1-.5l.9-.6c.3-.2.8-.1 1.1-.3l.9-.6c.3-.2.4-.6.7-.9l.9-.6.9-.6c.3-.2.6-.4.8-.7.3-.2.4-.6.7-.8l.9-.6c.3-.2.4-.6.7-.8.3-.2.6-.4.8-.7.3-.2.7-.3.9-.6.3-.3.6-.4.8-.7.3-.3.4-.6.7-.8.2-.3.6-.4.8-.7.2-.3.2-.8.4-1.1.2-.3.4-.6.7-.8.2-.3.6-.4.9-.7.2-.3.6-.4.8-.6.3-.2.5-.5.8-.7.3-.1.7-.1 1-.2.3-.1.6-.3 1-.3.3 0 .6.2 1 .3.3.1.8-.1 1.1.1.3.1.6.4.8.6.3.2.3.7.5 1 .2.3.5.5.7.8.1.3.4.6.4 1 .1.3.1.7.1 1 0 .3-.2.7-.3 1-.1.3-.2.7-.3 1-.2.5-.3.5-.5 1s-.3.4-.6.9c-.2.5 0 .6-.3 1.1-.2.5-.5.4-.7.8-.2.5 0 .6-.3 1.1-.2.5-.5.4-.7.8-.2.5-.3.5-.5.9-.2.5-.3.5-.5.9l-.4 1-.4 1c-.2.5-.1.6-.3 1-.2.5-.3.4-.6.9-.2.5-.2.5-.5 1l-.4 1c-.2.5-.2.5-.5 1-.2.5-.4.4-.6.9-.2.5 0 .6-.3 1.1-.2.5-.3.5-.5.9-.2.5-.4.4-.6.9-.2.5-.3.4-.6.9-.2.5-.1.5-.4 1-.2.5-.3.5-.5.9-.2.5-.1.6-.3 1-.2.5-.4.4-.6.9l-.4 1-.4 1c-.2.5-.1.6-.3 1-.2.5-.3.4-.6.9-.2.5-.4.4-.7.9l-.4 1c-.2.5-.1.5-.3 1-.2.5-.3.4-.5.9s-.1.5-.3 1c-.2.5-.5.3-.8.8-.2.5-.1.5-.3 1-.2.5-.4.4-.6.9l-.4 1c-.2.5-.1.5-.4 1-.2.5-.4.4-.7.9-.2.5 0 .6-.2 1.1-.2.5-.3.5-.5 1s-.2.5-.5.9c-.2.5-.4.4-.6.9-.2.5-.1.6-.3 1l-.4 1c-.2.5-.5.3-.8.8-.2.5.1.7-.1 1.1-.2.5-.4.4-.7.9-.2.5-.2.5-.5 1-.2.5-.3.5-.5.9l-.4 1c-.2.5-.3.4-.5.9s-.3.4-.6.9c-.2.5-.1.5-.4 1-.2.5-.1.5-.4 1-.2.5-.5.3-.7.8-.2.5 0 .6-.3 1.1-.2.5-.3.4-.5.9s-.1.6-.3 1c-.2.3-.6.5-.8.8-.2.3-.4.7-.7.9-.3.2-.7.2-1.1.3-.3.1-.7.2-1 .2-.4 0-.7.3-1.1.3-.4 0-.6-.4-1-.5-.3-.1-.7-.1-1-.3-.3-.2-.7-.3-1-.6-.3-.3-.2-.7-.4-1.1-.2-.3-.7-.5-.7-.9-.1-.3.2-.7.3-1.1 0-.3-.1-.7.1-1.1.1-.3.2-.7.4-1 .2-.5.1-.6.3-1 .2-.5.4-.4.6-.9.2-.5.1-.6.3-1 .2-.5.5-.3.8-.8.2-.5.2-.5.5-1 .2-.5 0-.6.2-1.1.2-.5.5-.4.7-.8.2-.5.3-.4.6-.9.2-.5 0-.6.2-1.1.2-.5.3-.5.5-.9l.4-1c.2-.5.3-.5.5-.9.2-.5.4-.4.6-.9.2-.5.1-.5.4-1 .2-.5.4-.4.6-.9.2-.5.2-.5.5-1 .2-.5.1-.5.4-1 .2-.5.3-.5.5-.9.2-.5.1-.5.4-1l.4-1c.2-.5.5-.3.8-.8l.4-1c.2-.5.4-.4.6-.9.2-.5-.1-.7.1-1.1.2-.5.6-.3.8-.8.2-.5-.1-.6.2-1.1.2-.5.4-.4.6-.9.2-.5.3-.4.6-.9.2-.5.2-.5.5-1 .2-.5.3-.5.5-.9.2-.5 0-.6.2-1.1.2-.5.4-.4.6-.9.2-.5.1-.6.3-1 .2-.5.6-.3.8-.8.2-.5.3-.5.5-.9s-.1-.9-.4-1.1c-.3-.3-.6-.2-1 0-.3.2-.7.1-1 .3-.3.2-.6.4-.9.5-.3.1-.7.2-1 .3-.3.1-.6.4-.9.5-.3.1-.7 0-1 .1-.3.1-.5.5-.9.6-.3.1-.8-.1-1.1 0-.3.1-.6.4-1 .5-.3.1-.7 0-1.1.1-.3.1-.6.5-1 .5-.3.1-.7-.1-1.1 0-.3.1-.7.2-1 .2-.4.1-.7.3-1 .4-.4 0-.7.1-1.1.1-.4 0-.7-.2-1.1-.2-.4 0-.7.3-1 .3-.4 0-.7-.2-1.1-.3h-1.1c-.4 0-.7-.1-1-.2h-1.1c-.3-.1-.7 0-1.1-.1-.3-.1-.7-.1-1-.2-.3-.1-.6-.5-.9-.6-.3-.1-.7-.1-1-.2-.3-.1-.7-.2-1-.3-.3-.1-.6-.3-1-.5-.3-.2-.6-.4-.9-.5-.3-.2-.7-.3-1-.5l-.9-.6c-.3-.2-.5-.5-.8-.7-.3-.2-.4-.7-.6-.9-.3-.2-.5-.4-.8-.7-.3-.3-.7-.3-.9-.6-.2-.3-.2-.7-.4-1l-.6-.9c-.2-.3-.7-.4-.9-.7-.2-.3-.2-.7-.4-1-.2-.3-.5-.5-.7-.8-.2-.3-.1-.7-.2-1.1-.2-.3-.5-.5-.7-.9-.1-.3-.1-.7-.2-1.1-.1-.3-.1-.7-.2-1.1-.1-.3-.4-.6-.5-1-.1-.3-.4-.6-.5-1-.1-.3.1-.8 0-1.1-.1-.3-.3-.7-.4-1-.1-.3.2-.7.1-1.1 0-.4-.2-.7-.2-1.1 0-.4-.3-.7-.3-1 0-.4-.1-.7-.1-1.1 0-.4.1-.7.1-1.1 0-.4.1-.7.1-1.1 0-.4.1-.7.1-1.1 0-.4-.1-.7-.1-1.1 0-.4 0-.7.1-1.1 0-.4 0-.7.1-1.1 0-.4.2-.7.2-1 .1-.3 0-.7.1-1.1.1-.3.3-.7.4-1 .1-.3-.1-.7 0-1.1.1-.3.1-.7.2-1.1.1-.3.1-.7.2-1.1.1-.3.3-.7.4-1 .1-.3.4-.6.5-1 .1-.3 0-.7.1-1.1.1-.3.2-.7.3-1 .1-.3.4-.6.6-.9.1-.3.1-.7.2-1.1.1-.3.3-.6.5-1 .1-.3.2-.7.4-1 .1-.3.4-.6.5-.9.1-.3 0-.8.1-1.1.1-.3.4-.6.5-.9.1-.3.4-.6.6-.9.1-.3.2-.7.3-1l.6-.9c.2-.3.2-.7.3-1 .2-.3.3-.7.4-1 .2-.3.3-.6.5-1 .2-.3.5-.5.7-.8.2-.3.4-.6.5-.9.2-.3.4-.6.5-.9.2-.3.3-.6.5-.9.2-.3.5-.6.7-.9.2-.3.2-.7.4-1 .2-.3.4-.6.5-.9l.6-.9c.2-.3.5-.5.7-.8l.6-.9c.2-.3.3-.7.5-1 .2-.3.5-.5.7-.8.2-.3.3-.7.5-.9.2-.3.6-.4.8-.7l.6-.9c.2-.3.3-.7.5-1 .2-.3.5-.5.7-.8l.6-.9c.2-.3.5-.5.7-.8.2-.3.5-.5.8-.8.2-.3.2-.8.4-1.1.2-.3.5-.5.8-.8 0-.9.1-1.2.3-1.5m269.8-46c.1.4.3.8.5 1.1.2.3.4.8.7 1 .4.3.9.4 1.1.7.3.4.3.9.5 1.2.2.4.5.8.6 1.2.1.4.2.9.2 1.3s-.1.9-.2 1.3-.3.9-.5 1.2c-.2.4-.4.9-.6 1.2-.3.5-.6.8-.8 1.1-.3.4-.6.7-.7 1.2-.2.4-.2.9-.2 1.4 0 .5-.3 1-.1 1.4.1.4.3.9.6 1.3.2.4.6.7 1 1 .3.3.7.4 1.1.6.4.2.7.5 1.1.5.4.1.8-.1 1.2-.2.4-.1.8 0 1.2-.2.3-.1.6-.4.9-.6.3-.2.6-.5.8-.8.3-.3.5-.7.8-1 .2-.3.3-.8.5-1.2.2-.4.6-.6.8-1 .2-.4.3-.8.5-1.2.2-.4.4-.7.6-1.2.1-.4.3-.8.4-1.2.1-.4 0-.9.1-1.3s.3-.8.4-1.2c0-.4-.3-.9-.3-1.3s0-.8-.1-1.3c0-.4-.1-.8-.1-1.2-.1-.4-.1-.8-.3-1.2-.1-.4.1-.9-.1-1.3-.1-.4-.5-.7-.7-1.1-.2-.4-.4-.7-.6-1.1-.2-.4-.5-.6-.8-1-.2-.3-.3-.8-.6-1.2l-.9-.9c-.3-.3-.8-.3-1.1-.6-.4-.3-.7-.6-1.1-.8-.2-.2-.6-.2-1-.3-.5-.1-.9-.4-1.4-.3-.5.1-1 .1-1.4.4-.4.2-.6.8-.9 1.1-.3.3-.7.5-.8.9-.2.4-.4.8-.5 1.2-.1.4-.1.9-.1 1.3 0 .3.2.7.3 1.1zm-22.2 65.9c-.5-.2-1.1-.4-1.6-.8-.5-.3-.9-.7-1.3-1.2s-.8-1-1-1.6c-.3-.6-.4-1.2-.5-1.8-.1-.6 0-1.2 0-1.9 0-.6 0-1.2.2-1.8.1-.6.2-1.2.4-1.8l.6-1.8c.2-.6.5-1.1.7-1.7.2-.6.4-1.2.7-1.7.3-.6.6-1.1.9-1.7.3-.5.6-1.1.9-1.6.3-.5.5-1.2.8-1.7.3-.5.5-1.1.8-1.7.3-.5.8-1 1.1-1.5.3-.5.5-1.1.8-1.7.3-.5.4-1 .7-1.5.3-.5.6-1 .8-1.5.3-.5.5-1 .8-1.5.3-.5.4-1 .7-1.6.3-.5.6-.9.9-1.5.3-.5.4-1.1.7-1.6.4-.8.3-1.5-.3-1.9-.5-.4-1.4-.5-2.1 0-.4.3-.9.7-1.4 1.2-.4.4-.9.8-1.4 1.2-.4.4-1 .7-1.4 1.2-.4.4-.7 1-1.2 1.4-.4.4-.9.8-1.3 1.3-.4.4-1 .8-1.4 1.2-.4.4-.6 1.1-1 1.6-.4.4-1 .8-1.4 1.2-.4.5-.8.9-1.3 1.4-.4.5-.5 1.1-1 1.6-.4.5-1 .7-1.4 1.2-.4.5-.6 1.1-1 1.6s-1 .8-1.4 1.3l-1.2 1.5c-.4.5-.7 1.1-1 1.6-.4.5-.7 1-1.1 1.5l-1.2 1.5c-.4.5-.7 1.1-1.1 1.6-.4.5-.9.9-1.2 1.4-.4.5-.6 1.1-1 1.6s-.8 1-1.1 1.5l-1.2 1.5c-.4.5-.6 1.1-.9 1.6-.4.5-.7 1-1.1 1.5-.4.5-.6 1.1-1 1.6l-1.2 1.5c-.4.5-.8 1-1.1 1.5-.4.6-.6 1.2-.9 1.6-.4.6-.7 1.1-1 1.6-.6 1-.9 1.6-.9 1.6-.3.5-.8 1-1.3 1.4-.5.3-1.1.5-1.7.7-.6.1-1.2.1-1.8 0-.6-.1-1.1-.4-1.7-.8-.5-.3-.8-.8-1-1.2-.3-.5-.7-.9-.8-1.4-.1-.5-.1-1.1 0-1.7.1-.5.4-1 .7-1.5.3-.7.2-.8.5-1.5.3-.6.2-1.2-.2-1.5-.4-.3-1.2-.4-1.7 0-.4.4-.7 1-1.2 1.4-.4.4-.9.8-1.4 1.2-.4.4-.8.9-1.2 1.3-.5.4-1 .7-1.4 1.1-.5.4-.9.8-1.3 1.2-.5.4-1.1.6-1.6.9-.5.4-1 .7-1.5 1-.5.3-.9.8-1.4 1.1-.5.3-1 .7-1.5.9-.5.3-1.2.4-1.7.6-.6.2-1.1.6-1.6.7-.4.1-1 .4-1.8.5-.5.1-1.2.3-1.8.4-.6.1-1.2.1-1.8.1-.6 0-1.2-.2-1.8-.3-.6-.1-1.2-.2-1.8-.4-.6-.2-1.2-.4-1.7-.8-.5-.3-.9-.8-1.3-1.3s-.6-1.2-.8-1.7c-.2-.6-.5-1.2-.6-1.8-.1-.6.1-1.2.1-1.9 0-.6-.2-1.3 0-1.9.1-.6.5-1.2.7-1.8.2-.6.3-1.2.5-1.8.2-.6.5-1.1.8-1.7.2-.6.3-1.2.6-1.8.3-.6.8-1 1.1-1.6.3-.6.4-1.2.7-1.8.3-.5.7-1 1-1.6.3-.5.4-1.2.8-1.7.3-.5.9-.9 1.2-1.5.3-.5.6-1.1.9-1.7.3-.5.5-1.1.8-1.7.3-.5.7-1 1-1.6.3-.5.4-1.2.7-1.8.3-.5.8-1 1.1-1.5.3-.6.5-1.2.8-1.7.4-.8 0-1.4-.5-1.9-.5-.4-1.3-.8-2-.3-.4.3-.8.9-1.3 1.3-.4.4-1 .6-1.5 1.1-.4.4-.6 1-1.1 1.5-.4.4-1 .7-1.4 1.1-.4.4-.9.8-1.3 1.3-.4.4-.9.8-1.3 1.3-.4.4-.8.9-1.2 1.4-.4.4-.7 1-1.1 1.5-.4.4-.9.8-1.4 1.2-.4.5-.5 1.1-.9 1.6s-1 .8-1.4 1.2c-.4.5-.7 1-1.1 1.5-.4.5-.8.9-1.2 1.4-.4.5-.8.9-1.2 1.4-.4.5-.7 1.1-1.1 1.6-.4.5-.6 1.1-1 1.6s-.8.9-1.2 1.4c-.4.5-.7 1-1.1 1.5-.4.5-.8 1-1.1 1.5-.4.5-.8 1-1.1 1.5-.4.5-.8 1-1.1 1.5-.4.5-.8 1-1.1 1.5-.4.5-.5 1.2-.9 1.7s-.8 1-1.1 1.5c-.4.5-.8 1-1.1 1.5-.4.5-.6 1.1-1 1.6s-.9.9-1.3 1.4c-.4.6-.4 1.3-.7 1.8-.4.6-.8 1.1-1.1 1.5-.6 1-1 1.6-1 1.6-.3.5-.8 1-1.3 1.3-.5.3-1.1.5-1.7.6-.6.1-1.2.2-1.8.1-.6-.1-1.2-.4-1.7-.8-.5-.3-.9-.7-1.1-1.2-.3-.5-.6-1-.7-1.5-.1-.5.1-1.1.1-1.6.1-.5.4-1 .6-1.5.6-1.2.4-1.3 1-2.5.3-.6.1-1.1-.3-1.4-.4-.3-1.1-.5-1.6-.1-.4.4-.9.8-1.3 1.2-.4.4-.8.9-1.2 1.3-.4.4-.9.7-1.4 1.1-.5.4-.9.8-1.4 1.1-.5.4-.8.9-1.3 1.2-.5.4-1.1.5-1.6.9s-.9.8-1.4 1.1c-.5.3-.9.7-1.4 1.1-.5.3-.9.7-1.4 1.1-.5.3-1.1.4-1.6.8l-1.5.9c-.5.3-1.1.6-1.6.9-.5.3-1.1.6-1.6.9-.6.3-1.1.5-1.6.8-.6.3-1 .7-1.6 1-.6.2-1.1.5-1.7.7-.6.2-1.2.2-1.8.4-.6.2-1.2.3-1.8.4-.6.1-1.2.4-1.8.5-.6.1-1.2 0-1.8 0-.6 0-1.2-.1-1.8-.1-.6 0-1.3.1-1.8 0-.6-.1-1.2-.4-1.7-.5-.6-.2-1.1-.6-1.6-.9-.6-.3-1.2-.5-1.6-.9-.6-.5-1.4-.5-2-.1-.5.3-1.1.5-1.7.8-.5.3-.9.8-1.5 1.1-.5.3-1.1.5-1.7.8-.5.3-.9.9-1.4 1.2-.5.3-1.1.6-1.6.9-.5.3-1.1.5-1.7.8-.5.3-1.2.4-1.7.7-.6.3-1.1.5-1.7.8-.6.3-1.1.6-1.7.8-.6.2-1.2.3-1.8.5-.6.2-1.2.3-1.8.5-.6.2-1.1.5-1.7.6-.6.2-1.2.4-1.8.5-.6.1-1.2 0-1.8.1-.6.1-1.2.1-1.8.2-.6 0-1.2.2-1.7.2-.6 0-1.2-.2-1.7-.3-.6 0-1.2 0-1.7-.1-.6-.1-1.2 0-1.7-.2-.6-.2-1.3-.4-1.9-.7-.6-.3-1.1-.7-1.7-1-.6-.3-1.1-.7-1.6-1.1-.5-.4-1-.9-1.4-1.3-.5-.5-.9-1-1.2-1.5-.4-.5-1-.9-1.3-1.5-.3-.6-.3-1.3-.5-1.9l-.2.1c-.2-.5-.6-1-1.1-1.1-.5-.1-1 .1-1.5.5s-1 .8-1.4 1.2c-.5.4-1 .8-1.4 1.2-.5.4-1 .7-1.5 1.1-.5.4-1 .8-1.4 1.2-.5.4-1 .8-1.4 1.2-.5.4-.9 1-1.3 1.3-.5.5-1.1.8-1.5 1.1-.8.6-1.3 1-1.5 1.1-.5.4-.9.8-1.5.9-.6.2-1.2.4-1.8.3-.6-.1-1.2-.3-1.7-.6s-.8-.8-1.2-1.3-.6-1-.7-1.5c-.2-.6-.5-1.1-.5-1.7.1-.6.3-1.2.6-1.7s.6-1.1 1.1-1.4c0 0 .5-.4 1.4-1.2.4-.3 1-.5 1.5-.9.4-.3.7-.9 1.2-1.4.4-.4 1-.6 1.5-1 .4-.4.8-.8 1.3-1.2.4-.4.8-.8 1.3-1.2.4-.4 1-.6 1.5-1l1.3-1.3c.4-.4 1-.7 1.5-1.1.4-.4.9-.8 1.3-1.2.4-.4.8-.9 1.3-1.3.4-.4 1-.7 1.4-1.1.4-.4 1-.6 1.5-1 .4-.4.7-1 1.1-1.4.3-.2.4-.5.5-.9.1-.6.6-1.1.7-1.7.2-.6.3-1.2.5-1.8.2-.6.4-1.2.5-1.8.2-.6.4-1.2.6-1.7.2-.6.3-1.2.5-1.8.2-.6.6-1.1.8-1.7.2-.6.2-1.3.4-1.8.2-.6.7-1.1.9-1.6.2-.6.4-1.2.6-1.7.3-.6.5-1.1.7-1.7.3-.6.7-1 1-1.6.3-.6.4-1.2.6-1.7.3-.5.8-1 1.1-1.5.3-.5.4-1.2.7-1.7.3-.5.7-1 .9-1.6.3-.5.6-1.1.9-1.6.3-.5.4-1.2.7-1.7.3-.5.7-1 1.1-1.5.3-.5.6-1.1.9-1.6.3-.5.5-1.1.9-1.6.3-.5.6-1 1-1.6.3-.5.7-1 1.1-1.5.3-.5.6-1.1.9-1.6.3-.5.6-1.1 1-1.6.3-.5.6-1.1.9-1.6.3-.5.7-1 1-1.5.3-.5.6-1.1 1-1.6.3-.5.9-.9 1.3-1.4.4-.5.5-1.2.9-1.7s.8-.9 1.2-1.4l1.2-1.5c.4-.5.7-1.1 1-1.5.4-.5.8-1 1.2-1.4.4-.5.7-1 1.1-1.5.4-.5.8-.9 1.2-1.4.4-.5.7-1.1 1.1-1.5.4-.5.9-.9 1.3-1.3.4-.5 1-.8 1.4-1.2.5-.4 1-.7 1.5-1.1.5-.4.9-.8 1.4-1.2.5-.4.9-.8 1.4-1.2.5-.4 1-.7 1.5-1.1.5-.3 1-.8 1.5-1.1.6-.3 1.2-.4 1.8-.6.6-.2 1.1-.5 1.7-.7.6-.2 1.2-.2 1.8-.3.6 0 1.3-.1 1.9 0 .6.1 1.2.3 1.8.5.6.2 1.1.5 1.6.9.5.3.9.9 1.3 1.4.4.4 1.1.7 1.4 1.3.3.5.3 1.2.6 1.8.2.6.6 1.1.7 1.7.1.6.1 1.2.1 1.9 0 .6-.1 1.2-.2 1.9 0 .6-.1 1.2-.3 1.8-.1.6-.1 1.2-.3 1.8-.1.6-.3 1.2-.5 1.8-.2.6-.3 1.2-.6 1.8-.2.6-.3 1.2-.6 1.8-.2.6-.5 1.2-.7 1.7-.3.6-.7 1.1-.9 1.6-.3.5-.7 1-1 1.6-.3.5-.6 1.1-.9 1.6-.3.5-.6 1.1-.9 1.6-.3.5-.8.9-1.1 1.5-.3.5-.6 1-1 1.5s-.7 1-1.1 1.5c-.4.5-.7 1-1.1 1.5-.4.5-.8.9-1.2 1.4-.4.5-.6 1.1-1 1.6s-1 .8-1.4 1.2c-.4.5-.7 1-1.1 1.5-.4.5-.8.9-1.2 1.4-.4.5-.7 1-1.1 1.5-.4.5-.8.9-1.2 1.4-.4.5-1 .8-1.4 1.2l-1.3 1.3c-.4.4-.8 1-1.2 1.4-.4.4-.9.8-1.3 1.3-.4.4-.8.9-1.3 1.3-.4.4-.9.8-1.4 1.2-.4.4-.8 1-1.2 1.4-.4.4-.9.8-1.4 1.3-.4.4-.8 1-1.2 1.4-.4.4-.8.9-1.3 1.3-.4.4-1 .8-1.4 1.2-.4.4-.8 1-1.2 1.4-.4.4-1.1.7-1.5 1.1-.4.4-.8.9-1.3 1.3-.4.4-1 .8-1.4 1.2-.4.4-.8 1-1.2 1.4-.4.4-.8.9-1.3 1.3s-1 .7-1.5 1.1c-.5.4-.9.8-1.4 1.2-.5.4-.7 1.1-1.2 1.5-.5.4-1 .7-1.4 1.2-.4.5-.8 1-1 1.6-.3.6-.5 1.2-.6 1.8-.1.6.1 1.3 0 1.9 0 .6-.2 1.3-.1 1.9.1.4.3.8.4 1.2.2.6.4 1.2.8 1.6.4.5 1 .6 1.5.9.5.3 1 .5 1.6.7.6.2 1.1.4 1.8.5.6 0 1.2-.1 1.8-.1.6 0 1.2.2 1.9.1.6-.1 1.1-.5 1.7-.7.6-.1 1.3 0 1.9-.2.6-.2 1.1-.5 1.7-.7.6-.2 1.1-.6 1.6-.8.6-.2 1.2-.4 1.7-.6.5-.3 1-.7 1.6-1 .5-.3 1.2-.3 1.8-.6.5-.3.9-.8 1.5-1.1.5-.3 1.1-.5 1.6-.8.5-.3 1.1-.6 1.6-.9.5-.3.9-.8 1.4-1.2.5-.3 1.1-.6 1.6-.9.5-.3 1-.7 1.5-1 .5-.3.6-1 .6-1.6v-1.8c0-.6 0-1.2.1-1.8.1-.6.4-1.1.6-1.8.1-.6.1-1.2.2-1.8.1-.6.3-1.2.5-1.8.2-.6.4-1.1.6-1.7.2-.6.4-1.1.6-1.7.2-.6.3-1.2.5-1.8.2-.6.6-1.1.9-1.6.3-.5.4-1.1.7-1.7.3-.5.6-1.1.8-1.6.3-.5.5-1.1.9-1.6.3-.5.7-1 1-1.5.3-.5.6-1.1.9-1.6.3-.5.7-1 1.1-1.5.3-.4.5-1 .9-1.6.3-.5.8-.9 1.2-1.4.3-.5.7-1 1.1-1.5.4-.5.7-1 1.1-1.5.4-.5.7-1 1.1-1.5.4-.5.8-.9 1.2-1.3.4-.4.9-.8 1.3-1.2.4-.4.8-.9 1.3-1.3s.9-.8 1.4-1.2c.5-.4 1-.8 1.5-1.1.5-.3 1.1-.6 1.6-.9.5-.3 1.1-.5 1.7-.7.6-.2 1.1-.5 1.7-.6.6-.2 1.2-.5 1.8-.6.6-.1 1.2.1 1.8.2.6.1 1.2.3 1.8.5.6.2 1.1.5 1.6.8.5.3 1.1.5 1.5.9.4.4.8.9 1.2 1.3.3.5.7 1 .9 1.5.2.5.3 1.1.4 1.7.1.6.3 1.1.3 1.7 0 .6-.1 1.2-.1 1.8 0 .6.2 1.2.2 1.8-.1.6-.3 1.1-.4 1.7-.1.6-.4 1.1-.6 1.7-.2.5-.6 1-.8 1.6-.2.5-.3 1.2-.5 1.7-.3.5-.7.9-1 1.5-.3.5-.7.9-1 1.4-.3.5-.7.9-1.1 1.4-.3.5-.5 1.1-.9 1.6s-.9.8-1.3 1.3-.5 1.1-.9 1.5c-.4.4-.9.8-1.3 1.3-.4.4-.7.9-1.2 1.4l-1.3 1.3c-.4.4-.7 1-1.1 1.4-.4.4-1 .7-1.4 1.1-.4.4-.8.9-1.2 1.3-.4.4-.8.9-1.2 1.3-.4.4-.9.8-1.3 1.2-.4.4-.7 1-1.2 1.4-.4.4-.9.8-1.3 1.2-.4.4-1 .7-1.4 1.1-.5.4-.6 1-.5 1.5.1.6.4 1 .8 1.3.4.3 1 .6 1.6.4.5-.2 1-.5 1.6-.7.5-.2 1.1-.4 1.6-.7.5-.2 1-.6 1.5-.9.5-.3 1-.5 1.5-.8.5-.3 1-.6 1.6-1 .5-.3 1-.7 1.5-1.1.5-.3 1-.6 1.5-1s.9-.9 1.4-1.2c.5-.4 1.1-.6 1.6-1s1-.7 1.5-1.1c.5-.4.8-1 1.2-1.4.5-.4 1.1-.6 1.6-1s.8-.9 1.3-1.3 1-.8 1.4-1.2c.4-.4.8-.9 1.3-1.3.4-.4.8-.9 1.3-1.3.4-.4 1-.7 1.4-1.1.4-.4.8-1 1.2-1.4.4-.4.9-.8 1.4-1.2.4-.4.8-1 1.2-1.4.4-.4.8-1 1.2-1.4.4-.5.7-1 1.1-1.5.4-.5.9-.8 1.3-1.3s.9-.8 1.3-1.3.7-1 1.1-1.5c.4-.5.8-1 1.2-1.4.4-.5.9-.9 1.3-1.3.4-.5.9-.9 1.2-1.4.4-.5.5-1.1.9-1.6s.9-.8 1.3-1.3.8-1 1.1-1.4c.4-.5.7-1 1.1-1.5.4-.5.7-1 1-1.5.4-.5.7-1 1.1-1.5.4-.5.7-1.1 1-1.5.4-.5 1-.8 1.3-1.3.4-.5.7-1.1 1-1.5.4-.6.6-1.2.9-1.6.6-.9 1.1-1.4 1.1-1.5.3-.5.7-1.1 1.2-1.4.5-.3 1.2-.3 1.8-.5.6-.1 1.1-.1 1.7 0 .6.1 1.3.1 1.8.5.6.5 1 1.2 1.3 1.8.3.7.6 1.4.6 2.1 0 1 .9 1.4 1.6.8.5-.4.9-.9 1.3-1.4.5-.4 1.2-.6 1.6-1 .5-.4.9-.9 1.4-1.3.5-.4 1.1-.6 1.7-.9.5-.4.9-.9 1.4-1.3.6-.3 1.2-.4 1.8-.7.6-.3 1.1-.8 1.6-1 .6-.2 1.3-.3 1.8-.4.6-.2 1.2-.3 1.8-.3.6-.1 1.2.1 1.9.1.7.1 1.3 0 1.8.2.6.2 1.2.5 1.7.7.6.4.9.9 1.3 1.3.5.5.8 1 1 1.5.3.5.7 1 .9 1.6.1.6.2 1.2.2 1.8 0 .6-.1 1.2-.2 1.8l-.3 1.8c-.1.6-.5 1.1-.7 1.6-.2.5-.4 1.1-.7 1.7-.2.5-.4 1.1-.7 1.6-.2.5-.3 1.2-.5 1.7-.3.5-.8.9-1.1 1.5-.3.5-.4 1.1-.7 1.6-.3.5-.5 1-.8 1.6l-.9 1.5c-.3.5-.4 1.1-.7 1.7-.3.5-.9.9-1.2 1.4-.3.5-.4 1.2-.7 1.8-.3.5-.8 1-1.1 1.6-.3.6-.5 1.2-.8 1.7-.3.6-.7 1.1-.9 1.7-.3.6-.5 1.2-.8 1.8-.3.6-.7 1.1-.9 1.7-.4.8 0 1.6.5 2 .5.5 1.2.6 2 .2.5-.3 1.1-.5 1.6-.9.5-.3 1-.7 1.5-1.1.5-.4.9-.8 1.4-1.2.5-.4 1.1-.6 1.6-1s.9-.8 1.4-1.2c.4-.4.7-1 1.2-1.4.4-.4.9-.8 1.3-1.3.4-.4 1-.7 1.5-1.1.4-.4.8-1 1.2-1.4.4-.4.7-1 1.2-1.4.4-.4.9-.8 1.4-1.3.4-.4.8-1 1.2-1.4.4-.5.8-1 1.2-1.4.4-.5.9-.8 1.3-1.3s.7-1 1.1-1.5c.4-.5 1-.7 1.4-1.2.4-.5.6-1.1 1-1.5.4-.5.8-.9 1.2-1.4.4-.5.7-1 1.1-1.5.4-.5.8-.9 1.2-1.4.4-.5.9-.9 1.3-1.3.4-.5.8-1 1.1-1.5.4-.5.8-1 1.1-1.4.4-.5.9-.9 1.2-1.4.4-.5.8-1 1.1-1.5.4-.5.7-1 1-1.5.4-.5.8-.9 1.2-1.4.4-.5.7-1 1.1-1.5.4-.5.7-1 1.1-1.5.4-.5.6-1.1 1-1.6s1-.8 1.3-1.3c.4-.5.5-1.2.8-1.7.4-.5.8-1 1.2-1.4.4-.5.9-.8 1.4-1.1.5-.3 1-.6 1.6-.7.6-.1 1.2-.1 1.8.1.6.1 1.2.3 1.7.7.6.5 1.1 1.1 1.4 1.6.3.7.1 1.4.1 2.1 0 1 1.2 1.4 1.9.7.5-.4 1.1-.6 1.6-1s.9-.9 1.4-1.3c.5-.4.9-.9 1.4-1.3.5-.4 1.1-.6 1.6-.9.5-.4 1-.8 1.5-1.1.6-.3 1-.7 1.6-1 .6-.3 1.3-.3 1.8-.5.6-.2 1.2-.5 1.8-.6.6-.2 1.2-.2 1.9-.2.6-.1 1.2-.1 1.9-.1.7.1 1.3.1 1.8.3.6.2 1.1.6 1.5.9.6.4 1.2.5 1.6.9.5.5.8 1.1 1.1 1.5.3.5.4 1.2.6 1.7.1.6.3 1.2.3 1.8 0 .6-.3 1.2-.4 1.8-.1.6.1 1.2-.1 1.8-.1.6-.4 1.1-.6 1.7-.2.6-.5 1.1-.7 1.7-.2.5-.3 1.2-.5 1.8-.2.5-.8.9-1.1 1.5-.3.5-.3 1.2-.6 1.7s-.6 1-.9 1.6c-.3.5-.5 1.1-.8 1.6-.3.5-.6 1.1-.9 1.6-.3.5-.5 1.1-.8 1.6-.3.5-.6 1.1-.9 1.6-.3.5-.7 1-1 1.6-.3.5-.6 1.1-.9 1.7-.3.6-.5 1.2-.8 1.7-.3.6-.7 1.1-.9 1.7-.3.6-.5 1.2-.8 1.7-.3.6-.7 1.1-.9 1.7-.3.6-.2 1.2.1 1.7.3.5.9 1 1.5 1s1.2-.1 1.6.1c.5.2.9.7 1.3 1.1.4.4.8.7 1.1 1.3.3.6.2 1.2.2 1.9 0 .6 0 1.3-.3 1.8-.3.6-.7 1.1-1.2 1.5-.5.4-1 .7-1.6.9-.4.1-1 .2-1.7.4-.5.1-1.1.3-1.7.4-.6.1-1.2.1-1.8.1-.6 0-1.2.1-1.8 0-.5-.6-1.1-.8-1.6-1zm-166.3-7.4c.4.3 1 .3 1.4-.1.4-.4.8-1 1.2-1.4.4-.4 1.1-.6 1.5-1.1.4-.4.7-1.1 1.1-1.5.4-.4.9-.8 1.4-1.2.4-.4 1-.7 1.4-1.2.4-.4.8-.9 1.2-1.4.4-.4.8-.9 1.3-1.3.4-.4.7-1 1.1-1.4.4-.4.8-.9 1.2-1.4.4-.5 1.1-.7 1.5-1.1.4-.5.6-1.1 1-1.6s1-.7 1.4-1.2c.4-.5.8-1 1.1-1.4.4-.5.7-1 1.1-1.5.4-.5.9-.8 1.3-1.3s.7-1 1-1.5c.4-.5.7-1.1 1-1.5.4-.5 1-.8 1.3-1.3.4-.5.7-1 1-1.5.4-.5.8-1 1.1-1.5.4-.6.6-1.2 1-1.7.4-.6.6-1.2.9-1.8.3-.6.8-1.1 1.1-1.7.3-.6.3-1.4.5-1.9.3-.7.5-1.3.7-1.8.2-.6.3-1.1.1-1.5-.2-.5-.5-.9-1-1.2-.5-.3-.9-.7-1.5-.7-.5 0-.9.5-1.4.8-.4.4-1 .7-1.5 1.2-.4.4-.9.8-1.4 1.3-.4.4-.7 1-1.2 1.5-.4.4-1.1.7-1.5 1.2-.4.5-.6 1.1-1 1.6s-.9.9-1.3 1.4c-.4.5-.7 1-1.1 1.5-.4.5-.7 1-1.1 1.5-.4.5-.7 1.1-1 1.6-.4.5-.7 1-1.1 1.6-.3.5-.8 1-1.2 1.5-.3.5-.6 1-1 1.5-.3.5-.6 1.1-.9 1.6-.3.5-.7 1-1 1.5-.3.5-.6 1.1-.9 1.6-.3.5-.7 1-1 1.5-.3.5-.7 1-1 1.5-.3.5-.8 1-1.1 1.5-.3.5-.4 1.2-.7 1.7-.3.5-.8 1-1.1 1.5-.3.5-.4 1.1-.7 1.7-.3.5-.7 1-1 1.5-.3.5-.4 1.1-.7 1.7-.3.5-.6 1.1-.9 1.6-.3.5-.6 1.1-.9 1.6-.2.2 0 .7.3 1zm38.7 7.3c.4-.4.8-.9 1.2-1.4.4-.5 1.1-.7 1.5-1.2.4-.5.6-1.1 1.1-1.6.4-.5.9-.9 1.3-1.3.4-.5.9-.9 1.3-1.3.4-.5.7-1.1 1-1.6.4-.5 1.1-.8 1.4-1.2.4-.5.6-1.2.9-1.6.4-.5.8-1 1.1-1.5.4-.6.7-1.1.9-1.6.4-.7.6-1.3.8-1.9.3-.8.4-1.4.4-2 .1-.8-.6-1.4-1.4-1-.4.2-1 .4-1.5.8-.4.3-.9.7-1.3 1.1-.4.4-.8.8-1.2 1.3l-1.2 1.2c-.4.4-.7.9-1.1 1.4-.4.4-.8.8-1.2 1.3-.3.4-.7.9-1.1 1.4-.3.5-.8.9-1.1 1.4-.3.5-.4 1.1-.8 1.6-.3.5-.8.9-1.1 1.4-.3.5-.5 1.1-.8 1.6-.3.5-.7 1-1 1.5-.3.5-.4 1.1-.7 1.6-.3.5-.6 1.1-.8 1.6-.3.6-.5 1.1-.8 1.6-.4.9.6 1.5 1.3.8.5-.4.9-.9 1.3-1.3.6-.3 1.1-.7 1.6-1.1zm192.1-37.8c.1-.4 0-.9 0-1.3s-.1-.9-.1-1.3-.2-.9-.2-1.3 0-.9-.1-1.3-.1-.9-.2-1.3-.3-.8-.5-1.2c-.2-.4-.2-.9-.4-1.3s-.6-.7-.8-1.1c-.2-.4-.5-.7-.7-1.1-.3-.4-.6-.6-.9-.9-.3-.4-.5-.9-.7-1.1-.3-.3-.6-.6-1-.9-.4-.3-.9-.3-1.2-.5-.4-.2-.7-.5-1.1-.7-.4-.2-.8-.3-1.2-.4-.4-.1-.7-.5-1.2-.6-.4-.1-.9-.1-1.3-.1-.4-.1-.9 0-1.3 0s-.9-.3-1.3-.3-.9.2-1.3.2-.9 0-1.3.1-.8.2-1.3.3c-.4.1-.9.1-1.3.2s-.8.4-1.2.5c-.4.2-.8.3-1.2.5-.4.2-.7.6-1.1.8-.4.2-.7.5-1 .8-.3.2-.8.3-1.2.6-.3.3-.6.6-.9 1-.3.3-.7.5-1 .9-.3.3-.5.7-.8 1.1-.3.3-.5.7-.7 1.1-.2.3-.4.8-.7 1.1-.2.4-.4.7-.7 1.1-.2.4-.5.7-.7 1.1-.2.4-.2.8-.4 1.3-.2.4-.2.8-.3 1.3-.1.4-.4.8-.5 1.2-.1.4-.1.9-.2 1.3s-.4.8-.5 1.3c-.1.4 0 .9 0 1.3s-.3.8-.3 1.3c0 .4.2.9.2 1.3v1.3c0 .4-.2.9-.2 1.3s.3.9.3 1.3 0 .9.1 1.3c0 .4-.1.9 0 1.3s.2.9.3 1.3c.1.4.2.8.3 1.3.1.4.2.9.3 1.3.1.4.1.9.2 1.3s.2.8.3 1.3c.1.4.4.8.6 1.2.1.4.3.8.5 1.2.1.4.2.9.3 1.3.1.4.1.9.3 1.3.1.4.4.8.6 1.2.2.4.1.9.3 1.3l.6 1.2.6 1.2c.2.4.3.8.5 1.2l.6 1.2c.2.4.4.8.5 1.2.1.4.2.8.4 1.2.1.4.2.8.4 1.2.1.4.2.9.3 1.3.1.4.3.8.4 1.2.1.4.1.9.2 1.3s.4.8.4 1.2c.1.4 0 .9.1 1.3s0 .9.1 1.3.3.8.4 1.3c0 .4.1.9.1 1.3s-.3.9-.3 1.3.2.9.2 1.3-.2.9-.3 1.3c0 .4 0 .9-.1 1.3s.1.9.1 1.3c-.1.4-.4.8-.5 1.2-.1.4-.1.9-.2 1.3s-.1.9-.3 1.3c-.1.4-.5.8-.6 1.2-.2.4-.2.9-.3 1.3-.2.4-.3.8-.6 1.2-.2.4-.5.7-.8 1.1-.2.4-.4.8-.6 1.1-.3.4-.7.6-.9.9-.3.3-.4.8-.7 1.1l-.9.9c-.3.3-.7.6-1 .9-.3.3-.8.4-1.2.7-.4.3-.5.8-.9 1-.4.2-.9.2-1.3.5l-1.2.6c-.4.2-.8.3-1.2.5-.4.2-.8.4-1.2.5-.4.1-.8.3-1.2.4-.4.1-.9.2-1.3.2-.4.1-.8.3-1.3.3-.4.1-.9 0-1.3.1-.4 0-.9.3-1.3.3s-.9-.1-1.3-.1-.9-.3-1.3-.3c-.4-.1-.9-.1-1.3-.2s-.9-.1-1.3-.2-.7-.5-1.1-.7c-.4-.2-.9-.1-1.3-.3-.4-.2-.6-.7-.9-1l-.9-.9-.9-.9c-.3-.3-.7-.5-1-.9-.2-.4-.2-.9-.3-1.3-.2-.4-.5-.7-.6-1.2-.1-.4-.4-.8-.5-1.2-.1-.4-.2-.9-.3-1.3-.1-.4-.1-.9-.2-1.3 0-.4-.1-.9-.1-1.3s.2-.9.3-1.3c0-.4-.1-.9-.1-1.3 0-.5.2-1 .1-1.4-.1-.5-.4-.9-.6-1.3-.2-.4-.6-.7-.9-1-.4-.3-.6-.8-1.1-1-.4-.2-.9-.2-1.4-.2-.5 0-.9.1-1.4.2-.5.1-.9.3-1.3.5s-.9.4-1.2.8c-.3.4-.4.9-.5 1.3-.2.4-.4.8-.4 1.3 0 .4-.1.9-.1 1.3s-.2.9-.2 1.3.1.9.1 1.3-.1.9-.1 1.3.3.9.4 1.3c.1.4.2.9.3 1.3.1.4.1.9.2 1.3s0 .9.1 1.3.4.8.6 1.2c.1.4.3.8.5 1.2l.6 1.2c.2.4.5.7.7 1.1.2.4.2.9.4 1.3s.6.7.9 1c.3.3.7.5 1 .9.3.3.4.8.8 1.1.3.3.7.6 1 .8.3.3.6.7.9 1 .4.3.8.3 1.2.6.4.2.7.5 1.1.7.4.2.7.6 1.1.7.4.2.9.2 1.3.4s.8.4 1.2.5c.4.1.8.3 1.3.4.4.1.9.1 1.3.1.4.1.9.2 1.3.3.4.1.9.1 1.3.1h1.3c.4 0 .9.2 1.3.2h1.3c.4 0 .9-.1 1.3-.1h1.3c.4-.1.8-.3 1.3-.4.4-.1.8-.3 1.3-.4.4-.1.9.1 1.4 0 .4-.1.9-.3 1.3-.4.4-.1.7-.6 1.1-.8.4-.2.9-.1 1.3-.3.4-.2.9-.3 1.3-.5s.7-.6 1.1-.8c.4-.2.7-.5 1.1-.7.4-.2.7-.6 1.1-.8.4-.2.9-.3 1.2-.6.4-.3.6-.7.9-1 .3-.3.8-.4 1.1-.7.3-.3.7-.5 1-.8l.9-.9c.3-.3.5-.7.8-1 .3-.3.4-.8.7-1.2.3-.3.7-.5 1-.9.2-.3.4-.8.7-1.1l.6-1.2c.2-.4.4-.7.6-1.1.2-.4.6-.7.8-1.1.2-.4.4-.8.5-1.2.2-.4.3-.8.4-1.2.2-.4.3-.8.4-1.2.1-.4.2-.8.3-1.3.1-.4.5-.7.6-1.2.1-.4-.1-.9 0-1.3s.2-.8.3-1.3c.1-.4.4-.8.4-1.3.1-.4 0-.9 0-1.3s.2-.9.3-1.3c0-.4-.1-.9-.1-1.3v-1.3c0-.4.2-.9.1-1.3 0-.4-.3-.9-.3-1.3v-1.3c0-.4 0-.9-.1-1.3s-.3-.8-.3-1.3c-.1-.4 0-.9-.1-1.3s.1-.9 0-1.3-.4-.8-.5-1.2c-.1-.4-.3-.8-.4-1.3-.1-.4-.2-.8-.3-1.3-.1-.4-.1-.9-.3-1.3-.1-.4-.3-.8-.4-1.2-.1-.4-.1-.9-.2-1.3s-.5-.8-.6-1.2c-.2-.4-.3-.8-.5-1.2-.2-.4-.2-.9-.4-1.3s-.5-.7-.7-1.1c-.2-.4-.2-.9-.3-1.3-.2-.4-.5-.7-.7-1.1-.2-.4-.2-.9-.3-1.3-.2-.4-.2-.8-.4-1.3-.1-.4-.3-.8-.4-1.2-.1-.4-.2-.9-.3-1.3-.1-.4-.3-.8-.4-1.2-.1-.4-.4-.8-.5-1.2-.1-.4-.3-.8-.4-1.2-.1-.4.1-.9 0-1.3s-.2-.9-.2-1.3c-.1-.4-.1-.9-.2-1.3 0-.4-.3-.9-.3-1.3s-.1-.9-.1-1.3.1-.9.1-1.3v-1.3c0-.4.1-.9.2-1.3s.1-.9.1-1.3c.1-.4.3-.8.4-1.2.1-.4.3-.8.5-1.2.2-.4.1-.9.3-1.3.2-.4.4-.8.7-1.1.2-.4.5-.7.8-1 .3-.3.5-.7.9-1 .3-.3.7-.5 1-.8.3-.2.7-.5 1-.7.4-.2.8-.3 1.2-.4.4-.1.7-.4 1.1-.5.4-.1.8 0 1.2 0 .4 0 .8 0 1.2.1.4.1.8.1 1.2.3.4.2.6.6.9.8.3.3.6.6.8.9.2.3.4.7.5 1.1.1.4.1.8.1 1.2v1.2c0 .4.1.8 0 1.3-.1.4-.3.8-.4 1.2-.1.4-.1.8-.2 1.2-.1.4-.2.8-.4 1.2-.2.4-.4.7-.6 1.1-.2.4-.5.7-.7 1-.2.4-.4.7-.6 1.1-.2.4-.3.8-.4 1.2-.1.4.1.8.1 1.2 0 .4-.1.8 0 1.2.1.4.2.8.4 1.2.2.3.5.7.8.9.3.3.8.3 1.2.5.4.2.8.6 1.3.6.5.1 1 0 1.4-.1.4-.1.9-.2 1.4-.4.4-.2.8-.6 1.1-.9.3-.3.4-.8.7-1.2.2-.4.4-.8.6-1.1.2-.4.5-.7.7-1.1.2-.4.5-.7.6-1.1.2-.4.5-.7.6-1.1.2-.4.3-.8.4-1.2.1-.4.1-.9.2-1.3s.4-.8.5-1.2c.1-.4-.1-.9 0-1.3.5-.2.9-.5 1-.9zM89.6 140.8c0-.3-.3-.5-.6-.4-.4.1-.4.1-.9.2-.4.1-.4.1-.9.2-.4.1-.4 0-.9.1-.4.1-.4.1-.9.2-.4.1-.4 0-.9.1-.4.1-.4.2-.8.2-.4.1-.4.1-.9.2-.4.1-.4 0-.9.1-.4.1-.4.1-.9.1-.4.1-.4.1-.9.2-.4.1-.4.1-.9.2-.4.1-.5 0-.9.1s-.4.2-.8.3c-.2 0-.4.2-.4.4v.9c0 .4-.1.4-.1.9v.9c0 .4-.1.4-.1.9 0 .4-.1.4-.1.9 0 .4.1.5 0 .9 0 .5-.1.4-.1.9s0 .4-.1.9c0 .4 0 .4-.1.9v.9c0 .5 0 .5-.1.9 0 .5 0 .5-.1.9 0 .4-.1.4-.1.9s0 .5-.1.9v.9c0 .5-.1.4-.1.9v.9c0 .3.2.5.5.4.5-.1.5-.1.9-.1.5-.1.5-.1.9-.2.5-.1.5 0 .9-.1.2 0 .4-.2.4-.4v-.9c0-.5.1-.5.1-.9 0-.5 0-.5.1-.9v-.9c0-.5.1-.5.1-.9v-.9c0-.2.2-.3.4-.3.4-.1.4-.1.9-.2.4-.1.4-.1.9-.2.4-.1.5 0 .9-.1s.4-.2.9-.3c.4-.1.4-.1.9-.2.4-.1.5 0 .9-.1s.4-.1.9-.1c.4-.1.4-.1.9-.2.2 0 .3-.2.3-.4 0-.4.1-.4.1-.8v-.8c0-.4.1-.4.1-.8 0-.3-.3-.5-.6-.5-.4.1-.4 0-.8.1l-.8.2c-.4.1-.4 0-.8.1s-.4.1-.8.1l-.8.2-.8.2c-.4.1-.4 0-.8.1s-.4.2-.8.2c-.3.1-.5-.2-.5-.5v-2.4c0-.2.2-.4.4-.4.4-.1.4-.1.9-.2.4-.1.4 0 .9-.1l.8-.2c.4-.1.4-.1.9-.1.4-.1.4-.1.9-.2.4-.1.4-.1.9-.2.4-.1.4-.1.9-.2.4-.1.4-.1.9-.1.4-.1.4-.1.9-.2.2 0 .3-.2.4-.4 0-.4.1-.4.1-.8v-.8c.1-.7.2-.7.2-1.1zm25.6 9.9c.1.3 0 .5-.3.5l-.8.2c-.4.1-.4.1-.8.1-.4.1-.4.2-.8.3-.4.1-.4 0-.8 0-.2 0-.4 0-.5-.3-.1-.5-.1-.5-.3-1-.1-.5-.2-.5-.4-.9l-.2-1c-.1-.2-.3-.3-.5-.3l-.8.2c-.4.1-.4 0-.8 0-.4.1-.4.2-.8.2-.4.1-.4 0-.8.1l-.8.2c-.4.1-.4.1-.8.1-.1 0-.3.1-.3.3-.2.4-.2.4-.4.7-.2.4-.1.4-.3.8-.2.4-.2.4-.3.7-.2.4-.1.4-.3.8-.2.4-.2.4-.4.7-.1.1-.1.3-.3.3l-1 .2-1 .2c-.5.1-.5 0-1 .1-.4.1-.7-.3-.5-.6l.4-.8.4-.8.4-.8.4-.8.4-.8c.2-.4.1-.4.3-.9.2-.4.3-.4.4-.8.2-.4.1-.4.3-.9l.4-.8.4-.8.4-.8.4-.8c.2-.4.1-.4.3-.8.2-.4.3-.4.4-.8.2-.4.1-.4.3-.9l.4-.8.4-.8c.2-.4.2-.4.3-.8l.4-.8.4-.8c.1-.1.2-.2.3-.2.5-.1.5-.2.9-.3s.5 0 1-.1l1-.2c.2 0 .4.1.5.3.1.4.1.4.3.8l.4.8c.1.4.1.4.3.8.1.4.2.4.3.8.1.4.1.4.2.9.1.4.2.4.4.8.1.4.1.4.2.9.1.4.2.4.3.8.1.4.1.4.3.8.1.4.1.4.3.8l.2.8c.1.4.2.4.3.8.1.4.2.4.4.8.1.4.1.4.3.8.1.4.2.4.3.8.1.4.1.4.2.9-.1.7-.1.7.1 1.1zm-6-5.8c-.2-.5-.2-.5-.3-1-.2-.5-.1-.5-.2-1-.1-.3-.3-.6-.4-.9-.1-.3-.1-.6-.2-.9-.2.3-.1.3-.3.7-.1.3-.1.4-.2.7-.1.3-.1.3-.3.7-.1.3-.2.3-.3.7-.1.3-.2.3-.3.7-.1.3-.1.4-.2.7-.1.3.1.7.5.6l1-.2 1-.2c.1-.1.2-.4.2-.6zm32.9.5c.1.3-.1.6-.4.6-.4.1-.4.2-.7.2-.4.1-.4.1-.8.1-.4.1-.4.1-.8.1l-.8.2c-.2 0-.4-.1-.5-.2-.2-.4-.1-.4-.3-.8-.2-.4-.2-.4-.4-.7-.2-.4-.3-.3-.5-.7-.2-.4-.1-.4-.3-.8-.2-.4-.2-.4-.4-.7-.2-.4-.2-.4-.4-.7-.2-.4-.3-.3-.5-.7-.1-.2-.3-.2-.4-.2-.3.1-.3 0-.7.1-.3.1-.3.1-.7.2-.2 0-.4.2-.4.4v1.6c0 .4-.2.4-.2.8v.8c0 .4-.1.4-.1.8v.8c0 .4-.1.4-.1.8 0 .2-.2.4-.4.4-.5.1-.5.1-.9.2-.5.1-.5.1-.9.2-.5.1-.5.1-.9.2-.3.1-.6-.2-.6-.5 0-.5.1-.5.1-.9v-.9c0-.5 0-.5.1-.9 0-.5.1-.5.1-.9s.1-.4.1-.9v-1.8c0-.5 0-.5.1-.9 0-.4.1-.4.1-.9 0-.4.1-.4.1-.9s.1-.4.1-.9v-.9c0-.4.1-.4.1-.9 0-.4-.1-.5 0-.9 0-.5.1-.4.2-.9s-.1-.5 0-.9.1-.4.1-.9c0-.2.1-.3.3-.4l.8-.2c.4-.1.4-.1.8-.1l.8-.2.8-.2.8-.2c.4-.1.4 0 .8-.1s.4-.2.8-.2c.4-.1.4-.1.8-.1.3-.1.6-.2.9-.2h1.8c.3 0 .6.1.9.2.3.1.5.3.8.5.3.2.5.3.7.6.2.2.3.5.4.8.1.3.1.6.2.9v.9c0 .3-.1.6-.1.9-.1.3-.1.6-.3.9-.1.3-.2.6-.4.8-.2.3-.4.5-.6.7-.2.2-.4.5-.6.7-.2.2-.5.4-.7.6-.2.2-.5.3-.8.5-.2.1-.3.4-.2.6.2.4.2.4.4.7.2.4.3.3.5.7.2.4.2.4.4.7.2.4.2.4.4.7.2.4.2.4.3.7.2.4.2.4.4.7.5.6.6.6.8.9zm-2.8-10c0-.4.1-.7-.1-1-.1-.3-.4-.4-.8-.5-.3-.1-.6 0-1 0-.4.1-.4 0-.8.1s-.4.2-.8.2c-.4.1-.4 0-.8.1l-.8.2c-.2 0-.4.2-.4.4 0 .5 0 .5-.1.9v.9c0 .5 0 .5-.1.9 0 .3.2.5.5.5l.8-.2c.4-.1.4-.1.8-.1.4-.1.4 0 .8-.1s.4-.1.8-.1c.3-.1.6-.1.8-.2.3-.1.5-.4.7-.5.2-.2.4-.4.5-.7-.1-.2 0-.5 0-.8zm34.4.8c0-.4 0-.4.1-.9v-.9c0-.5.1-.4.1-.9 0-.4 0-.4.1-.9v-.9c0-.5 0-.5.1-.9 0-.5.1-.4.1-.9s0-.5.1-.9c0-.4.1-.4.1-.9s.1-.4.1-.9-.1-.5 0-.9c0-.5.1-.4.2-.9 0-.5-.1-.5 0-.9 0-.3-.2-.5-.5-.4l-.8.2c-.4.1-.4 0-.8.1s-.4.1-.8.1c-.4.1-.4.1-.8.1-.1 0-.3.1-.3.3-.2.4-.1.4-.3.8l-.4.8c-.2.4-.1.4-.3.8l-.4.8-.4.8c-.2.4-.1.5-.3.9l-.4.8-.4.8-.4.8-.4.8c-.2.4-.2.4-.3.8l-.4.8c-.2.4-.1.5-.3.9-.2.4-.3.4-.4.8-.2.4-.7.4-.8 0-.2-.4-.2-.4-.3-.9-.2-.4-.1-.4-.3-.9-.2-.4-.1-.4-.3-.9-.2-.4-.2-.4-.3-.9-.2-.4-.1-.5-.2-.9-.2-.4-.2-.4-.3-.9-.1-.4-.2-.4-.4-.8s-.2-.4-.3-.9c-.2-.4-.1-.4-.3-.9-.2-.4-.2-.4-.3-.9-.2-.4-.1-.4-.3-.9-.1-.2-.3-.3-.5-.3l-.8.2c-.4.1-.4 0-.8.1l-.8.2c-.4.1-.4.1-.8.1-.2 0-.3.2-.3.4 0 .4-.1.4-.2.9s0 .5-.1.9 0 .5-.1.9v.9c0 .4-.1.4-.1.9v.9c0 .5-.1.4-.1.9v.9c0 .4-.1.4-.1.9s-.1.4-.1.9v1.8c0 .4-.1.4-.1.9s0 .5-.1.9c0 .5 0 .5-.1.9 0 .5-.1.4-.1.9v.9c0 .3.2.6.5.5.4-.1.4-.2.9-.3.4-.1.5 0 .9-.1s.4-.1.9-.2c.2 0 .4-.2.4-.4 0-.4 0-.4.1-.9s0-.4.1-.9v-.9c0-.4.1-.4.1-.8s0-.4.1-.9c0-.4 0-.4.1-.9 0-.4-.1-.4 0-.9 0-.4.1-.4.2-.8v-.9c0-.4-.4-.7 0-.9.4-.1.1.4.2.8s.1.4.2.7c.1.4.1.4.2.7.1.4.2.4.3.8l.2.8c.1.4.1.4.3.8.1.4.2.4.3.8l.2.8c.1.4.2.4.4.8.1.4.2.4.3.8.1.2.2.3.5.3.5-.1.5-.1.9-.2.5-.1.5 0 .9-.1.5-.1.5 0 .9-.1.1 0 .2-.2.3-.3l.4-.8.4-.8c.2-.4.2-.4.4-.9.2-.4.3-.4.5-.8s.1-.5.3-.9l.4-.8.4-.8.4-.8h.1c.2-.4.1-.5.2-.9l.4-.8c.2-.4-.2-1 .3-.9.4.1 0 .5 0 .9 0 .5-.1.5-.1.9 0 .5-.1.5-.1.9 0 .5-.1.5-.1.9v.9c0 .5 0 .5-.1.9 0 .5 0 .5-.1.9v.9c0 .5 0 .5-.1.9 0 .3.2.5.5.5.4-.1.4-.1.9-.2.4-.1.5 0 .9-.1s.4-.2.9-.3c.2 0 .4-.2.4-.4 0-.4 0-.5.1-.9s0-.5 0-.9c0-.5.1-.4.1-.9-.4.3-.4.3-.4-.1zm25.8-2.6c0-.4 0-.4.1-.8 0-.3-.2-.6-.5-.5-.4.1-.4.1-.9.2-.4.1-.4.2-.8.3-.4.1-.4 0-.9.1-.4.1-.4.2-.8.2-.4.1-.4 0-.9.1-.4.1-.4.1-.9.2-.4.1-.4.1-.9.2-.4.1-.4.1-.9.2-.3.1-.6-.1-.6-.4 0-.4.1-.4.2-.8 0-.4 0-.4.1-.9s0-.4 0-.9c0-.2.2-.3.4-.4.4-.1.4-.2.8-.2.4-.1.4 0 .8-.1l.8-.2c.4-.1.4 0 .8-.1s.4-.2.8-.2c.4-.1.4 0 .8-.1s.4-.1.8-.1l.8-.2c.2 0 .3-.2.4-.4 0-.4.1-.4.1-.8v-1.6c0-.3-.2-.5-.5-.5-.4.1-.4.1-.9.2-.4.1-.4 0-.9.1-.4.1-.4.1-.9.2-.4.1-.4 0-.9.1-.4.1-.4.1-.9.2-.4.1-.5 0-.9.1s-.4.1-.9.2c-.3.1-.5-.2-.5-.5 0-.5.1-.5.1-1s0-.5.1-1c0-.2.1-.3.3-.4.5-.1.5-.1.9-.2.5-.1.5-.1.9-.2.5-.1.5-.1.9-.2.5-.1.5-.1.9-.2.5-.1.5-.1.9-.1.5-.1.4-.2.9-.3.5-.1.5-.1.9-.1.5-.1.5 0 .9-.1.2 0 .4-.2.4-.4 0-.4-.1-.4 0-.8 0-.4.1-.4.1-.8v-.8c0-.3-.2-.5-.5-.4-.4.1-.5 0-.9.1s-.4.1-.9.2c-.4.1-.4.1-.9.2-.4.1-.5 0-.9.1s-.4.2-.9.3c-.4.1-.5 0-.9.1s-.4.1-.9.2c-.4.1-.5.1-.9.1-.4.1-.4.2-.9.3-.5.1-.5.1-.9.2-.5.1-.5.1-.9.2-.5.1-.5 0-.9.1-.2 0-.4.2-.4.4v1.8c0 .5-.1.4-.1.9 0 .4-.1.4-.1.9v.9c0 .4-.1.4-.1.9s0 .4-.1.9v.9c0 .4 0 .5-.1.9 0 .5-.1.4-.1.9s.1.5 0 .9c0 .5-.1.4-.1.9v.9c0 .5 0 .5-.1.9 0 .5-.1.4-.1.9s-.1.5-.1.9c0 .5-.1.5-.1.9 0 .3.3.6.6.5l.8-.2c.4-.1.4 0 .8-.1l.8-.2.8-.2c.4-.1.4 0 .8-.1s.4-.2.8-.3l.8-.2.8-.2.8-.2c.4-.1.4 0 .8-.1l.8-.2c.4-.1.4 0 .9-.1.4-.1.4-.2.8-.3.2 0 .4-.2.4-.4v-.8c.8-.2.8-.2.8-.6zm26.7-3.9c.1.3 0 .7-.3.7-.4.1-.4.1-.8.1-.4.1-.4 0-.8 0-.4.1-.4.2-.7.3-.4.1-.4.1-.8.1-.2 0-.4-.1-.5-.3-.2-.4-.2-.4-.4-.7-.2-.4-.1-.4-.3-.8-.2-.4-.3-.3-.5-.7-.2-.4-.1-.4-.3-.8-.2-.4-.3-.3-.5-.7-.2-.4-.2-.4-.4-.7-.2-.4-.1-.4-.3-.8-.1-.2-.3-.3-.5-.3-.3.1-.3.2-.6.2-.3.1-.3 0-.7.1-.2 0-.3.2-.3.4 0 .4 0 .4-.1.8 0 .4 0 .4-.1.8 0 .4-.1.4-.1.8s-.1.4-.1.8.1.4 0 .8c0 .4-.1.4-.1.8s-.1.4-.1.8c0 .2-.1.4-.3.4-.5.1-.5.1-.9.1-.5.1-.5.1-.9.2-.5.1-.5.1-.9.2-.3.1-.5-.1-.5-.4 0-.5-.1-.5 0-.9 0-.5.2-.4.2-.9s-.1-.5 0-.9c0-.5.1-.5.1-.9s0-.4.1-.9c0-.5 0-.5.1-.9v-.9c0-.5 0-.5.1-.9 0-.4 0-.5.1-.9 0-.5.1-.4.1-.9s0-.5.1-.9c0-.4.1-.4.1-.9v-.9c0-.4.1-.4.1-.9s0-.5.1-.9v-.9c0-.4.1-.4.1-.9 0-.2.2-.4.4-.5.4-.1.4-.1.8-.1l.8-.2c.4-.1.4 0 .8-.1l.8-.2c.4-.1.4 0 .8-.1l.8-.2c.4-.1.4-.2.8-.2.4-.1.4 0 .8-.1.3-.1.6-.1.9-.1h.9c.3 0 .6-.1.9 0 .3 0 .6.1.9.2.3.1.6.2.8.4.3.2.4.4.6.7.2.2.3.5.4.8.1.3.2.6.2.9v.9c0 .3 0 .6-.1.9l-.3.9c-.1.3-.2.6-.4.8-.2.3-.4.5-.6.7-.2.2-.4.5-.6.7-.2.2-.5.3-.8.5-.2.2-.5.4-.7.6-.2.1-.2.4-.1.6.2.4.1.4.3.8.2.4.3.3.5.7.2.4.2.4.4.7.2.4.2.3.4.7.2.4.1.4.3.8.2.4.3.3.5.7.2.5.1.5.3.9zm-2.7-10.1c0-.4 0-.7-.1-1-.1-.3-.4-.4-.8-.5-.3-.1-.6 0-1 0l-.8.2c-.4.1-.4 0-.8.1l-.8.2-.8.2c-.2 0-.4.2-.4.4v.9c0 .5 0 .5-.1.9v.9c0 .3.2.6.5.5l.8-.2c.4-.1.4 0 .8-.1l.8-.2.8-.2c.3-.1.6-.1.8-.2.3-.1.5-.3.6-.5.2-.2.4-.4.5-.7-.1-.1 0-.4 0-.7zm29.8 0c0-.3-.1-.6-.2-.9-.1-.3-.2-.6-.4-.8-.2-.2-.5-.4-.7-.5-.2-.2-.5-.3-.8-.4-.3-.1-.5-.2-.9-.3-.3-.1-.6-.1-.9-.1-.3 0-.6-.1-.9-.1-.3 0-.6.1-.9.1-.3 0-.6-.1-.8-.2-.3 0-.6-.1-.8-.2-.3-.1-.6-.2-.8-.3-.2-.2-.3-.4-.3-.7 0-.3.1-.6.3-.8l.6-.6c.2-.2.5-.2.8-.3.3-.1.5-.3.8-.3.3-.1.7-.1 1-.1.3 0 .6.2.9.3.3.1.6.3.8.5.2.2.3.5.5.9.1.3.4.4.7.2.4-.3.3-.3.7-.6.4-.3.4-.3.7-.5.4-.3.3-.3.7-.6.2-.1.2-.3.1-.5-.1-.3-.1-.6-.3-.8-.2-.3-.4-.4-.6-.7l-.6-.6c-.2-.2-.5-.4-.7-.5-.3-.1-.6-.2-.9-.2-.3-.1-.6 0-.9 0-.3 0-.6-.1-.9-.1-.3 0-.6.1-.9.1-.3.1-.6.1-1 .2-.3.1-.6.3-.9.4-.3.1-.6.3-.9.4-.3.2-.6.3-.8.5-.3.2-.5.4-.7.7-.2.2-.5.3-.6.6-.2.2-.3.5-.5.7-.1.2-.3.5-.4.7-.1.3-.2.5-.2.8-.1.3-.1.5-.1.8v.9c0 .3 0 .6.1.9.1.3.3.5.5.7.2.2.4.5.6.6.2.2.5.2.8.3.3.1.5.2.8.3.3.1.6.2.9.2h1.8c.3 0 .6.1.9.1.3.1.6.2.8.3.3.1.5.3.6.5.1.2.2.5.2.8 0 .3-.1.6-.2.8l-.6.6c-.2.2-.5.3-.8.4-.3.1-.5.2-.8.2-.3.1-.6.1-.9.1-.3 0-.6-.1-.9-.2-.3-.1-.6-.2-.8-.4-.2-.2-.4-.5-.6-.8-.1-.3-.1-.6-.2-.9-.1-.3-.5-.4-.7-.2l-.8.6c-.4.3-.4.2-.9.5l-.8.6c-.2.1-.3.3-.2.5.1.3.1.6.2.8.1.3.3.5.4.7.1.3.3.5.5.7l.6.6c.2.2.5.3.7.4.2.1.5.3.8.4.3.1.5.1.8.1h.8c.3 0 .6.1.9 0 .3 0 .5-.1.8-.2.3-.1.6 0 .9-.1.3-.1.6-.2.8-.3.3-.1.5-.2.8-.3.3-.1.5-.3.7-.5.2-.2.5-.3.7-.5l.6-.6c.2-.2.4-.5.6-.7.2-.2.4-.4.6-.7.2-.3.3-.5.4-.8l.3-.9c.1-.3.1-.6.1-.9-.1-.2-.1-.5-.1-.8z" fill="#66ad43"/></svg>