<svg xmlns="http://www.w3.org/2000/svg" viewBox="0 0 200 160"><path d="M.1 92.8C.6 60 30.7 31.3 63.5 32.4c15.7-.7 30.4 6.1 42.5 15.7-5.1 5.8-10.4 11.4-16.1 16.7-14.4-10-35-12.8-49.5-1.3-20.7 14.3-21.6 48.1-1.7 63.4 19.3 17.5 55.9 8.8 61.2-18-12.1-.2-24.3 0-36.4-.4 0-7.2-.1-14.4 0-21.7 20.2-.1 40.5-.1 60.8.1 1.2 17-1 35.1-11.5 49.1-15.8 22.3-47.6 28.7-72.3 19.2C15.6 145.8-2 119.5.1 92.8zm163.7-24.2h18.1c0 6 .1 12.1.1 18.2 6 .1 12.1.1 18.2.1V105c-6 .1-12.1.1-18.2.2-.1 6.1-.1 12.1-.1 18.2h-18.1c-.1-6-.1-12.1-.1-18.1-6-.1-12.1-.1-18.2-.2V87c6-.1 12.1-.1 18.2-.1-.1-6.2 0-12.3.1-18.3z" fill="#DC4E41"/></svg>