<?xml version="1.0" encoding="utf-8"?>
<!-- Generator: Adobe Illustrator 22.1.0, SVG Export Plug-In . SVG Version: 6.00 Build 0)  -->
<!DOCTYPE svg PUBLIC "-//W3C//DTD SVG 1.1//EN" "http://www.w3.org/Graphics/SVG/1.1/DTD/svg11.dtd">
<svg version="1.1" id="Blue" xmlns="http://www.w3.org/2000/svg" xmlns:xlink="http://www.w3.org/1999/xlink" x="0px" y="0px"
	 viewBox="0 0 200 160" style="enable-background:new 0 0 200 160;" xml:space="preserve">
<style type="text/css">
	.st0{fill-rule:evenodd;clip-rule:evenodd;fill:#25D366;}
</style>
<g id="WA_Logo">
	<g>
		<path class="st0" d="M154.3,25.4C139.9,11,120.7,3.1,100.3,3.1c-42,0-76.2,34.2-76.2,76.2c0,13.4,3.5,26.6,10.2,38.1l-10.8,39.5
			l40.4-10.6c11.1,6.1,23.7,9.3,36.4,9.3h0c0,0,0,0,0,0c42,0,76.2-34.2,76.2-76.2C176.6,59,168.7,39.8,154.3,25.4z M100.3,142.7
			L100.3,142.7c-11.4,0-22.6-3.1-32.3-8.8l-2.3-1.4l-24,6.3l6.4-23.4l-1.5-2.4c-6.3-10.1-9.7-21.8-9.7-33.7
			c0-34.9,28.4-63.4,63.4-63.4c16.9,0,32.8,6.6,44.8,18.6c12,12,18.6,27.9,18.5,44.8C163.7,114.3,135.3,142.7,100.3,142.7z
			 M135.1,95.3c-1.9-1-11.3-5.6-13-6.2c-1.7-0.6-3-1-4.3,1c-1.3,1.9-4.9,6.2-6,7.5c-1.1,1.3-2.2,1.4-4.1,0.5c-1.9-1-8-3-15.3-9.5
			c-5.7-5.1-9.5-11.3-10.6-13.2c-1.1-1.9-0.1-2.9,0.8-3.9c0.9-0.9,1.9-2.2,2.9-3.3c1-1.1,1.3-1.9,1.9-3.2c0.6-1.3,0.3-2.4-0.2-3.3
			c-0.5-1-4.3-10.3-5.9-14.1c-1.5-3.7-3.1-3.2-4.3-3.3c-1.1-0.1-2.4-0.1-3.7-0.1c-1.3,0-3.3,0.5-5.1,2.4c-1.7,1.9-6.7,6.5-6.7,15.9
			c0,9.4,6.8,18.4,7.8,19.7c1,1.3,13.4,20.5,32.5,28.8c4.5,2,8.1,3.1,10.9,4c4.6,1.5,8.7,1.2,12,0.8c3.7-0.5,11.3-4.6,12.9-9.1
			c1.6-4.5,1.6-8.3,1.1-9.1C138.3,96.7,137,96.2,135.1,95.3z"/>
	</g>
</g>
</svg>
