<?xml version="1.0" encoding="utf-8"?>
<!-- Generator: Adobe Illustrator 22.1.0, SVG Export Plug-In . SVG Version: 6.00 Build 0)  -->
<!DOCTYPE svg PUBLIC "-//W3C//DTD SVG 1.1//EN" "http://www.w3.org/Graphics/SVG/1.1/DTD/svg11.dtd">
<svg version="1.1" id="Layer_1" xmlns="http://www.w3.org/2000/svg" xmlns:xlink="http://www.w3.org/1999/xlink" x="0px" y="0px"
	 viewBox="0 0 350 180" style="enable-background:new 0 0 350 180;" xml:space="preserve">
<style type="text/css">
	.st0{fill:#66AD43;}
</style>
<path class="st0" d="M30,60.6c0.2-0.3,0.6-0.4,0.8-0.7c0.2-0.3,0.6-0.5,0.8-0.8c0.2-0.3,0.4-0.6,0.7-0.8c0.2-0.3,0.3-0.7,0.6-0.9
	c0.2-0.3,0.5-0.5,0.7-0.8c0.2-0.3,0.4-0.6,0.7-0.8c0.2-0.3,0.5-0.5,0.7-0.8c0.2-0.3,0.6-0.4,0.8-0.7c0.2-0.3,0.5-0.5,0.8-0.8
	c0.2-0.3,0.4-0.6,0.7-0.9c0.2-0.3,0.5-0.5,0.8-0.8c0.2-0.3,0.4-0.6,0.7-0.9c0.2-0.3,0.5-0.6,0.7-0.8c0.2-0.3,0.5-0.5,0.7-0.8
	c0.3-0.3,0.5-0.5,0.8-0.7c0.3-0.3,0.6-0.5,0.8-0.7c0.3-0.3,0.5-0.5,0.7-0.8c0.3-0.3,0.5-0.6,0.7-0.8c0.3-0.3,0.7-0.3,1-0.6
	c0.3-0.3,0.4-0.6,0.7-0.8c0.3-0.2,0.6-0.4,0.9-0.7c0.3-0.2,0.5-0.5,0.8-0.7c0.3-0.2,0.4-0.7,0.6-0.9c0.3-0.2,0.7-0.3,1-0.5
	c0.3-0.2,0.4-0.6,0.7-0.8c0.3-0.2,0.4-0.6,0.7-0.9c0.3-0.2,0.7-0.3,1-0.5c0.3-0.2,0.5-0.6,0.8-0.8c0.3-0.2,0.7-0.3,1-0.5
	c0.3-0.2,0.4-0.6,0.7-0.8c0.3-0.2,0.7-0.3,0.9-0.5c0.3-0.2,0.5-0.6,0.7-0.8c0.3-0.2,0.7-0.3,1-0.5c0.3-0.2,0.6-0.4,0.9-0.6
	c0.3-0.2,0.4-0.7,0.7-0.9c0.3-0.2,0.6-0.4,0.9-0.6c0.3-0.2,0.7-0.2,1-0.4c0.3-0.2,0.7-0.2,1-0.4c0.3-0.2,0.4-0.7,0.7-0.9
	c0.3-0.2,0.8-0.2,1.1-0.4c0.3-0.2,0.5-0.6,0.8-0.8c0.3-0.2,0.7-0.2,1-0.4c0.3-0.2,0.5-0.6,0.8-0.8c0.3-0.2,0.6-0.4,0.9-0.6
	c0.3-0.2,0.8-0.1,1.1-0.3c0.3-0.2,0.5-0.6,0.8-0.7c0.3-0.2,0.8-0.1,1.1-0.3c0.3-0.2,0.6-0.3,1-0.5c0.3-0.2,0.6-0.3,1-0.5
	c0.3-0.2,0.7-0.2,1-0.4c0.3-0.1,0.6-0.4,1-0.5c0.3-0.1,0.5-0.6,0.9-0.7c0.3-0.1,0.8,0,1.1-0.2c0.3-0.1,0.6-0.3,1-0.4
	c0.3-0.1,0.7-0.1,1.1-0.2c0.3-0.1,0.6-0.4,1-0.5c0.3-0.1,0.7-0.2,1-0.3c0.3-0.1,0.6-0.4,1-0.5c0.3-0.1,0.8,0.1,1.1,0
	c0.4-0.1,0.7-0.3,1-0.4c0.4-0.1,0.7-0.1,1.1-0.2c0.4-0.1,0.7,0.1,1.1,0c0.4-0.1,0.7-0.1,1.1-0.2c0.4,0,0.7,0,1.1-0.1
	c0.4,0,0.7-0.2,1.1-0.2c0.4,0,0.7-0.1,1.1-0.1c0.4,0,0.7-0.3,1.1-0.3c0.4,0,0.7,0.1,1.1,0.1c0.4,0,0.7,0.3,1.1,0.3
	c0.4,0,0.7,0,1.1,0.1c0.4,0,0.7,0.1,1.1,0.2c0.4,0.1,0.8-0.1,1.1-0.1c0.4,0.1,0.7,0.2,1,0.3c0.3,0.1,0.6,0.4,1,0.6
	c0.3,0.1,0.7,0.2,1,0.3c0.3,0.1,0.6,0.4,0.9,0.5c0.3,0.2,0.8,0.1,1.1,0.3c0.3,0.2,0.6,0.4,0.9,0.6c0.3,0.2,0.6,0.5,0.8,0.7
	c0.3,0.2,0.5,0.5,0.8,0.8c0.3,0.2,0.7,0.3,0.9,0.6c0.3,0.3,0.5,0.5,0.8,0.8c0.2,0.3,0.2,0.7,0.4,1c0.2,0.3,0.6,0.5,0.8,0.8
	c0.2,0.3,0.4,0.6,0.5,1c0.2,0.3,0.4,0.6,0.6,0.9c0.1,0.3,0.1,0.7,0.3,1.1c0.1,0.3,0.4,0.6,0.5,1c0.1,0.3,0.1,0.7,0.2,1.1
	c0.1,0.3-0.1,0.7,0,1.1c0.1,0.4,0.4,0.7,0.5,1c0,0.4-0.2,0.7-0.2,1.1c0,0.4,0.3,0.7,0.3,1.1c0,0.4,0,0.7,0,1.1
	c0,0.4-0.2,0.7-0.2,1.1c0,0.4-0.1,0.7-0.2,1.1c0,0.4-0.1,0.7-0.1,1.1c-0.1,0.4,0,0.7-0.1,1.1c-0.1,0.3-0.3,0.7-0.4,1
	c-0.1,0.3,0.1,0.8,0,1.1c-0.1,0.3-0.4,0.6-0.5,1c-0.1,0.3,0,0.8-0.1,1.1c-0.1,0.3-0.2,0.7-0.3,1c-0.1,0.3-0.4,0.6-0.5,1
	c-0.1,0.3-0.1,0.7-0.2,1.1c-0.1,0.3-0.6,0.5-0.7,0.9c-0.1,0.3-0.1,0.7-0.3,1.1c-0.2,0.3-0.2,0.7-0.4,1c-0.2,0.3-0.3,0.7-0.5,1
	c-0.2,0.3-0.5,0.6-0.6,0.9c-0.2,0.3-0.3,0.7-0.5,1c-0.2,0.3-0.6,0.5-0.8,0.8c-0.2,0.3-0.4,0.6-0.6,0.9c-0.2,0.3-0.3,0.7-0.5,1
	c-0.2,0.3-0.4,0.6-0.6,0.9c-0.2,0.3-0.4,0.6-0.6,0.9c-0.2,0.3-0.4,0.6-0.6,0.9c-0.2,0.3-0.2,0.7-0.4,1c-0.2,0.3-0.6,0.5-0.8,0.7
	c-0.2,0.3-0.4,0.6-0.6,0.9c-0.2,0.3-0.4,0.6-0.6,0.9c-0.2,0.3-0.5,0.5-0.7,0.8c-0.2,0.3-0.5,0.5-0.7,0.8c-0.2,0.3-0.4,0.6-0.7,0.8
	c-0.2,0.3-0.4,0.6-0.6,0.9c-0.2,0.3-0.4,0.6-0.7,0.8c-0.2,0.3-0.5,0.5-0.7,0.8c-0.2,0.3-0.4,0.6-0.6,0.9c-0.3,0.3-0.6,0.5-0.8,0.7
	c-0.3,0.2-0.5,0.5-0.8,0.7c-0.3,0.2-0.5,0.6-0.7,0.8c-0.3,0.2-0.5,0.5-0.8,0.7c-0.3,0.2-0.5,0.5-0.8,0.7c-0.3,0.2-0.6,0.3-0.9,0.6
	c-0.3,0.2-0.6,0.4-0.9,0.6c-0.3,0.2-0.5,0.6-0.7,0.8c-0.3,0.2-0.6,0.4-0.9,0.6c-0.3,0.2-0.6,0.3-0.9,0.5c-0.3,0.2-0.5,0.5-0.8,0.7
	c-0.3,0.2-0.7,0.2-1,0.4c-0.3,0.2-0.5,0.5-0.8,0.7c-0.3,0.2-0.6,0.4-0.9,0.6c-0.3,0.2-0.6,0.3-0.9,0.5c-0.3,0.2-0.7,0.3-1,0.4
	c-0.3,0.2-0.6,0.3-0.9,0.5c-0.3,0.2-0.5,0.5-0.8,0.7c-0.3,0.2-0.6,0.3-0.9,0.5c-0.3,0.2-0.8,0-1.1,0.2c-0.3,0.2-0.6,0.4-0.9,0.5
	c-0.3,0.1-0.6,0.3-1,0.5c-0.3,0.1-0.6,0.3-1,0.5c-0.3,0.1-0.7,0.3-1,0.4c-0.3,0.1-0.6,0.3-1,0.5c-0.3,0.1-0.7,0.3-1,0.4
	c-0.4,0.1-0.8,0-1.1,0.1c-0.4,0.1-0.7,0.4-1,0.5c-0.4,0.1-0.7,0.3-1,0.4c-0.6,0.2-1,0-1.1,0c-0.3,0.1-0.7-0.1-1-0.1
	c-0.3,0-0.7,0.1-1,0c-0.3-0.1-0.6-0.2-0.9-0.3c-0.3-0.1-0.6-0.4-0.8-0.6c-0.3-0.2-0.6-0.4-0.8-0.6c-0.2-0.3-0.3-0.6-0.5-0.9
	c-0.1-0.3-0.1-0.6-0.2-1C58,84,58,83.7,58,83.3c0-0.3-0.2-0.7-0.2-1c0.1-0.3,0.3-0.6,0.4-0.9c0.1-0.3,0.4-0.5,0.6-0.8
	c0.2-0.3,0.5-0.5,0.7-0.7c0.3-0.2,0.5-0.4,0.8-0.6c0.3-0.1,0.6-0.3,0.9-0.3c0,0,0.3-0.2,1-0.4c0.3-0.1,0.6-0.1,1-0.3
	c0.3-0.1,0.7-0.1,1-0.3c0.3-0.1,0.7-0.2,1-0.3c0.3-0.1,0.6-0.4,0.9-0.6c0.3-0.1,0.7-0.2,1-0.3c0.3-0.1,0.8,0,1.1-0.1
	c0.3-0.1,0.5-0.7,0.8-0.8c0.3-0.1,0.8,0,1.1-0.1c0.3-0.2,0.6-0.3,0.9-0.5c0.3-0.2,0.6-0.3,0.9-0.5c0.3-0.2,0.5-0.6,0.8-0.8
	c0.3-0.2,0.8,0,1.1-0.2c0.3-0.2,0.5-0.5,0.8-0.7c0.3-0.2,0.6-0.3,0.9-0.5c0.3-0.2,0.6-0.4,0.9-0.6c0.3-0.2,0.5-0.5,0.8-0.7
	c0.3-0.2,0.6-0.4,0.9-0.6c0.3-0.2,0.7-0.2,1-0.5c0.3-0.2,0.4-0.7,0.7-0.9c0.3-0.2,0.5-0.5,0.7-0.8c0.3-0.2,0.6-0.3,0.9-0.6
	c0.3-0.2,0.5-0.5,0.8-0.7c0.3-0.2,0.6-0.3,0.9-0.6c0.3-0.2,0.4-0.6,0.6-0.9c0.3-0.2,0.5-0.5,0.8-0.7c0.2-0.3,0.5-0.5,0.7-0.8
	c0.2-0.3,0.6-0.4,0.8-0.7c0.2-0.3,0.4-0.6,0.6-0.9c0.2-0.3,0.3-0.6,0.6-0.9c0.2-0.3,0.6-0.4,0.8-0.7c0.2-0.3,0.5-0.5,0.7-0.8
	c0.2-0.3,0.3-0.7,0.5-1c0.2-0.3,0.5-0.5,0.7-0.8c0.2-0.3,0.3-0.6,0.5-0.9c0.2-0.3,0.6-0.4,0.8-0.7c0.2-0.3,0.4-0.6,0.6-0.9
	c0.2-0.3,0.3-0.7,0.5-1c0.2-0.3,0.3-0.7,0.5-1c0.2-0.3,0.4-0.6,0.5-1c0.2-0.3,0.5-0.5,0.7-0.9c0.2-0.3,0.3-0.7,0.5-1
	c0.2-0.3,0.4-0.6,0.5-1c0.2-0.3,0.4-0.6,0.5-1c0.2-0.3,0.3-0.7,0.4-1c0.1-0.3,0-0.8,0.1-1.1c0.1-0.3,0.6-0.6,0.7-0.9
	c0.1-0.3,0-0.8,0.1-1.1c0.1-0.4,0.4-0.6,0.5-1c0.1-0.4,0.1-0.7,0.2-1.1c0.1-0.4,0.1-0.7,0.2-1.1c0.1-0.4,0.1-0.7,0.1-1.1
	c0-0.4,0.2-0.7,0.2-1.1c0-0.4-0.1-0.7-0.1-1.1c0-0.4-0.1-0.7-0.1-1.1c-0.1-0.4-0.2-0.7-0.3-1c-0.1-0.4-0.1-0.8-0.2-1.1
	c-0.1-0.3-0.3-0.7-0.5-1c-0.2-0.3-0.5-0.6-0.7-0.8c-0.2-0.3-0.7-0.3-1-0.5c-0.3-0.2-0.4-0.6-0.7-0.8c-0.3-0.2-0.7-0.1-1.1-0.2
	c-0.3-0.1-0.6-0.5-0.9-0.6c-0.3-0.1-0.7-0.1-1.1-0.1c-0.3-0.1-0.7,0.1-1.1,0.1c-0.3,0-0.7-0.4-1-0.5c-0.3,0-0.7,0.3-1.1,0.3
	c-0.3,0-0.7,0-1.1,0c-0.4,0-0.7,0.1-1.1,0.2c-0.3,0-0.7-0.2-1.1-0.2c-0.3,0.1-0.7,0.3-1,0.4c-0.3,0.1-0.7-0.1-1.1,0
	c-0.3,0.1-0.7,0.3-1,0.4c-0.3,0.1-0.7,0.3-1,0.4c-0.3,0.1-0.7,0.2-1,0.4c-0.3,0.1-0.6,0.3-1,0.4c-0.3,0.1-0.7,0.1-1.1,0.2
	c-0.3,0.1-0.6,0.4-0.9,0.6C76.7,34,76.3,34,76,34.1c-0.3,0.1-0.7,0.1-1.1,0.2c-0.3,0.1-0.6,0.3-1,0.5c-0.3,0.2-0.5,0.5-0.9,0.7
	c-0.3,0.2-0.6,0.3-1,0.5c-0.3,0.2-0.6,0.3-1,0.5c-0.3,0.2-0.7,0.2-1,0.4c-0.3,0.2-0.6,0.5-0.9,0.6c-0.3,0.2-0.6,0.4-0.9,0.6
	c-0.3,0.2-0.7,0.3-1,0.5c-0.3,0.2-0.6,0.4-0.9,0.6c-0.3,0.2-0.6,0.4-0.9,0.6c-0.3,0.2-0.6,0.4-0.9,0.6c-0.3,0.2-0.6,0.5-0.9,0.7
	c-0.3,0.2-0.7,0.2-1,0.4c-0.3,0.2-0.6,0.5-0.8,0.7c-0.3,0.2-0.5,0.5-0.8,0.8c-0.3,0.2-0.6,0.3-0.9,0.6c-0.3,0.2-0.5,0.6-0.8,0.8
	c-0.3,0.2-0.7,0.3-0.9,0.5c-0.3,0.2-0.6,0.4-0.8,0.7c-0.3,0.2-0.5,0.5-0.8,0.7c-0.3,0.2-0.5,0.5-0.8,0.8c-0.3,0.2-0.6,0.4-0.8,0.7
	c-0.3,0.2-0.5,0.5-0.8,0.8c-0.3,0.2-0.8,0.2-1,0.5c-0.3,0.2-0.3,0.8-0.5,1c-0.3,0.2-0.5,0.5-0.8,0.7c-0.3,0.2-0.5,0.5-0.8,0.8
	c-0.3,0.2-0.8,0.2-1,0.5c-0.3,0.2-0.3,0.8-0.5,1c-0.3,0.2-0.8,0.2-1,0.5c-0.3,0.3-0.5,0.5-0.8,0.8c-0.3,0.3-0.5,0.5-0.7,0.8
	c-0.3,0.3-0.5,0.5-0.8,0.8c-0.2,0.3-0.4,0.7-0.6,0.9c-0.2,0.3-0.6,0.4-0.9,0.7c-0.2,0.3-0.5,0.5-0.8,0.8c-0.2,0.3-0.5,0.6-0.7,0.8
	c-0.2,0.3-0.3,0.7-0.5,1c-0.2,0.3-0.6,0.4-0.8,0.7c-0.2,0.3-0.5,0.5-0.7,0.8c-0.2,0.3-0.5,0.5-0.8,0.8c-0.2,0.3-0.3,0.7-0.5,1
	c-0.2,0.3-0.6,0.5-0.8,0.7c-0.2,0.3-0.5,0.5-0.8,0.8c-0.2,0.3-0.5,0.6-0.7,0.8c-0.2,0.3-0.4,0.6-0.6,0.9c-0.2,0.3-0.4,0.6-0.7,0.9
	c-0.2,0.3-0.6,0.5-0.8,0.7c-0.2,0.3-0.2,0.7-0.5,1c-0.2,0.3-0.4,0.6-0.6,0.9c-0.2,0.3-0.5,0.5-0.8,0.8c-0.2,0.3-0.4,0.6-0.6,0.9
	c-0.2,0.3-0.6,0.5-0.8,0.7c-0.2,0.3-0.3,0.7-0.5,1c-0.2,0.3-0.4,0.6-0.6,0.9c-0.2,0.3-0.4,0.6-0.6,0.9c-0.2,0.3-0.4,0.6-0.6,0.9
	c-0.2,0.3-0.5,0.5-0.7,0.8c-0.2,0.3-0.5,0.5-0.7,0.8c-0.2,0.3-0.4,0.6-0.5,0.9c-0.2,0.3-0.4,0.6-0.6,0.9c-0.2,0.3-0.5,0.5-0.7,0.8
	c-0.2,0.3-0.3,0.7-0.4,1c-0.2,0.3-0.5,0.5-0.7,0.8c-0.2,0.3-0.3,0.6-0.5,1c-0.2,0.3-0.3,0.7-0.5,1c-0.2,0.3-0.2,0.7-0.4,1
	c-0.2,0.3-0.6,0.5-0.8,0.8c-0.2,0.3-0.3,0.7-0.4,1c-0.2,0.3-0.2,0.7-0.4,1c-0.2,0.3-0.2,0.7-0.3,1c-0.2,0.3-0.5,0.5-0.7,0.9
	c-0.2,0.3-0.2,0.7-0.3,1c-0.1,0.3-0.2,0.7-0.4,1c-0.1,0.3-0.2,0.7-0.3,1c-0.1,0.3-0.3,0.6-0.5,1c-0.1,0.3-0.6,0.6-0.7,0.9
	c-0.1,0.3-0.2,0.7-0.3,1c-0.1,0.3-0.2,0.7-0.3,1c-0.1,0.3-0.3,0.7-0.4,1c-0.1,0.3-0.1,0.7-0.2,1c-0.1,0.3,0.1,0.8,0,1.1
	c-0.1,0.3-0.4,0.6-0.5,1c-0.1,0.4,0.1,0.8,0,1.1c-0.1,0.4-0.1,0.7-0.1,1.1c-0.1,0.4-0.4,0.7-0.4,1c-0.1,0.4-0.3,0.7-0.3,1
	c-0.1,0.4,0,0.7,0,1.1c0,0.4,0,0.7,0,1.1c0,0.4,0,0.7,0,1.1c0,0.4-0.3,0.7-0.3,1.1c0,0.4,0.1,0.7,0.1,1.1c0,0.4-0.1,0.7-0.1,1.1
	c0,0.4,0.3,0.7,0.4,1c0,0.4-0.2,0.8-0.2,1.1c0.1,0.4,0.2,0.7,0.3,1c0.1,0.4,0.3,0.7,0.3,1c0.1,0.4,0.1,0.7,0.2,1.1
	c0.1,0.3,0.3,0.7,0.4,1c0.1,0.3,0.3,0.6,0.5,1c0.2,0.3,0.5,0.6,0.6,0.9c0.2,0.3,0.1,0.8,0.3,1.1c0.2,0.3,0.6,0.5,0.8,0.8
	c0.2,0.3,0.4,0.6,0.7,0.9c0.3,0.3,0.7,0.3,1,0.5c0.3,0.2,0.5,0.5,0.8,0.7c0.3,0.2,0.6,0.4,0.9,0.6c0.3,0.2,0.7,0.2,1,0.3
	c0.3,0.1,0.6,0.4,0.9,0.6c0.3,0.1,0.7,0.3,1,0.4c0.3,0.1,0.7,0.2,1.1,0.3c0.4,0.1,0.7-0.2,1.1-0.2c0.4,0,0.7,0,1.1,0
	c0.4,0,0.7,0.3,1.1,0.3c0.4,0,0.7-0.1,1.1-0.2c0.4,0,0.7-0.2,1-0.3c0.3-0.1,0.7-0.3,1-0.3c0.3-0.1,0.7-0.2,1-0.3
	c0.3-0.1,0.7,0,1.1-0.1c0.3-0.1,0.7-0.1,1-0.3c0.3-0.1,0.6-0.5,0.9-0.7c0.3-0.1,0.8,0,1.1-0.2c0.3-0.1,0.5-0.5,0.9-0.7
	c0.3-0.2,0.7-0.2,1-0.4c0.3-0.2,0.6-0.4,0.9-0.6c0.3-0.2,0.7-0.2,1-0.3c0.3-0.2,0.5-0.5,0.8-0.7c0.3-0.2,0.7-0.3,1-0.5
	c0.3-0.2,0.6-0.4,0.9-0.6c0.3-0.2,0.8-0.1,1.1-0.3c0.3-0.2,0.6-0.4,0.9-0.6c0.3-0.2,0.4-0.6,0.7-0.9c0.3-0.2,0.6-0.4,0.9-0.6
	c0.3-0.2,0.6-0.4,0.9-0.6c0.3-0.2,0.6-0.4,0.8-0.7c0.3-0.2,0.4-0.6,0.7-0.8c0.3-0.2,0.6-0.4,0.9-0.6c0.3-0.2,0.4-0.6,0.7-0.8
	c0.3-0.2,0.6-0.4,0.8-0.7c0.3-0.2,0.7-0.3,0.9-0.6c0.3-0.3,0.6-0.4,0.8-0.7c0.3-0.3,0.4-0.6,0.7-0.8c0.2-0.3,0.6-0.4,0.8-0.7
	c0.2-0.3,0.2-0.8,0.4-1.1c0.2-0.3,0.4-0.6,0.7-0.8c0.2-0.3,0.6-0.4,0.9-0.7c0.2-0.3,0.6-0.4,0.8-0.6c0.3-0.2,0.5-0.5,0.8-0.7
	c0.3-0.1,0.7-0.1,1-0.2c0.3-0.1,0.6-0.3,1-0.3c0.3,0,0.6,0.2,1,0.3c0.3,0.1,0.8-0.1,1.1,0.1c0.3,0.1,0.6,0.4,0.8,0.6
	c0.3,0.2,0.3,0.7,0.5,1c0.2,0.3,0.5,0.5,0.7,0.8c0.1,0.3,0.4,0.6,0.4,1c0.1,0.3,0.1,0.7,0.1,1c0,0.3-0.2,0.7-0.3,1
	c-0.1,0.3-0.2,0.7-0.3,1c-0.2,0.5-0.3,0.5-0.5,1c-0.2,0.5-0.3,0.4-0.6,0.9c-0.2,0.5,0,0.6-0.3,1.1c-0.2,0.5-0.5,0.4-0.7,0.8
	c-0.2,0.5,0,0.6-0.3,1.1c-0.2,0.5-0.5,0.4-0.7,0.8c-0.2,0.5-0.3,0.5-0.5,0.9c-0.2,0.5-0.3,0.5-0.5,0.9c-0.2,0.5-0.2,0.5-0.4,1
	c-0.2,0.5-0.2,0.5-0.4,1c-0.2,0.5-0.1,0.6-0.3,1c-0.2,0.5-0.3,0.4-0.6,0.9c-0.2,0.5-0.2,0.5-0.5,1c-0.2,0.5-0.2,0.5-0.4,1
	c-0.2,0.5-0.2,0.5-0.5,1c-0.2,0.5-0.4,0.4-0.6,0.9c-0.2,0.5,0,0.6-0.3,1.1c-0.2,0.5-0.3,0.5-0.5,0.9c-0.2,0.5-0.4,0.4-0.6,0.9
	c-0.2,0.5-0.3,0.4-0.6,0.9c-0.2,0.5-0.1,0.5-0.4,1c-0.2,0.5-0.3,0.5-0.5,0.9c-0.2,0.5-0.1,0.6-0.3,1c-0.2,0.5-0.4,0.4-0.6,0.9
	c-0.2,0.5-0.2,0.5-0.4,1c-0.2,0.5-0.2,0.5-0.4,1c-0.2,0.5-0.1,0.6-0.3,1c-0.2,0.5-0.3,0.4-0.6,0.9c-0.2,0.5-0.4,0.4-0.7,0.9
	c-0.2,0.5-0.2,0.5-0.4,1c-0.2,0.5-0.1,0.5-0.3,1c-0.2,0.5-0.3,0.4-0.5,0.9c-0.2,0.5-0.1,0.5-0.3,1c-0.2,0.5-0.5,0.3-0.8,0.8
	c-0.2,0.5-0.1,0.5-0.3,1c-0.2,0.5-0.4,0.4-0.6,0.9c-0.2,0.5-0.2,0.5-0.4,1c-0.2,0.5-0.1,0.5-0.4,1c-0.2,0.5-0.4,0.4-0.7,0.9
	c-0.2,0.5,0,0.6-0.2,1.1c-0.2,0.5-0.3,0.5-0.5,1c-0.2,0.5-0.2,0.5-0.5,0.9c-0.2,0.5-0.4,0.4-0.6,0.9c-0.2,0.5-0.1,0.6-0.3,1
	c-0.2,0.5-0.2,0.5-0.4,1c-0.2,0.5-0.5,0.3-0.8,0.8c-0.2,0.5,0.1,0.7-0.1,1.1c-0.2,0.5-0.4,0.4-0.7,0.9c-0.2,0.5-0.2,0.5-0.5,1
	c-0.2,0.5-0.3,0.5-0.5,0.9c-0.2,0.5-0.2,0.5-0.4,1c-0.2,0.5-0.3,0.4-0.5,0.9c-0.2,0.5-0.3,0.4-0.6,0.9c-0.2,0.5-0.1,0.5-0.4,1
	c-0.2,0.5-0.1,0.5-0.4,1c-0.2,0.5-0.5,0.3-0.7,0.8c-0.2,0.5,0,0.6-0.3,1.1c-0.2,0.5-0.3,0.4-0.5,0.9c-0.2,0.5-0.1,0.6-0.3,1
	c-0.2,0.3-0.6,0.5-0.8,0.8c-0.2,0.3-0.4,0.7-0.7,0.9c-0.3,0.2-0.7,0.2-1.1,0.3c-0.3,0.1-0.7,0.2-1,0.2c-0.4,0-0.7,0.3-1.1,0.3
	c-0.4,0-0.6-0.4-1-0.5c-0.3-0.1-0.7-0.1-1-0.3c-0.3-0.2-0.7-0.3-1-0.6c-0.3-0.3-0.2-0.7-0.4-1.1c-0.2-0.3-0.7-0.5-0.7-0.9
	c-0.1-0.3,0.2-0.7,0.3-1.1c0-0.3-0.1-0.7,0.1-1.1c0.1-0.3,0.2-0.7,0.4-1c0.2-0.5,0.1-0.6,0.3-1c0.2-0.5,0.4-0.4,0.6-0.9
	c0.2-0.5,0.1-0.6,0.3-1c0.2-0.5,0.5-0.3,0.8-0.8c0.2-0.5,0.2-0.5,0.5-1c0.2-0.5,0-0.6,0.2-1.1c0.2-0.5,0.5-0.4,0.7-0.8
	c0.2-0.5,0.3-0.4,0.6-0.9c0.2-0.5,0-0.6,0.2-1.1c0.2-0.5,0.3-0.5,0.5-0.9c0.2-0.5,0.2-0.5,0.4-1c0.2-0.5,0.3-0.5,0.5-0.9
	c0.2-0.5,0.4-0.4,0.6-0.9c0.2-0.5,0.1-0.5,0.4-1c0.2-0.5,0.4-0.4,0.6-0.9c0.2-0.5,0.2-0.5,0.5-1c0.2-0.5,0.1-0.5,0.4-1
	c0.2-0.5,0.3-0.5,0.5-0.9c0.2-0.5,0.1-0.5,0.4-1c0.2-0.5,0.2-0.5,0.4-1c0.2-0.5,0.5-0.3,0.8-0.8c0.2-0.5,0.2-0.5,0.4-1
	c0.2-0.5,0.4-0.4,0.6-0.9c0.2-0.5-0.1-0.7,0.1-1.1c0.2-0.5,0.6-0.3,0.8-0.8c0.2-0.5-0.1-0.6,0.2-1.1c0.2-0.5,0.4-0.4,0.6-0.9
	c0.2-0.5,0.3-0.4,0.6-0.9c0.2-0.5,0.2-0.5,0.5-1c0.2-0.5,0.3-0.5,0.5-0.9c0.2-0.5,0-0.6,0.2-1.1c0.2-0.5,0.4-0.4,0.6-0.9
	c0.2-0.5,0.1-0.6,0.3-1c0.2-0.5,0.6-0.3,0.8-0.8c0.2-0.5,0.3-0.5,0.5-0.9c0.2-0.4-0.1-0.9-0.4-1.1c-0.3-0.3-0.6-0.2-1,0
	c-0.3,0.2-0.7,0.1-1,0.3c-0.3,0.2-0.6,0.4-0.9,0.5c-0.3,0.1-0.7,0.2-1,0.3c-0.3,0.1-0.6,0.4-0.9,0.5c-0.3,0.1-0.7,0-1,0.1
	c-0.3,0.1-0.5,0.5-0.9,0.6c-0.3,0.1-0.8-0.1-1.1,0c-0.3,0.1-0.6,0.4-1,0.5c-0.3,0.1-0.7,0-1.1,0.1c-0.3,0.1-0.6,0.5-1,0.5
	c-0.3,0.1-0.7-0.1-1.1,0c-0.3,0.1-0.7,0.2-1,0.2c-0.4,0.1-0.7,0.3-1,0.4c-0.4,0-0.7,0.1-1.1,0.1c-0.4,0-0.7-0.2-1.1-0.2
	c-0.4,0-0.7,0.3-1,0.3c-0.4,0-0.7-0.2-1.1-0.3c-0.4,0-0.7,0-1.1,0c-0.4,0-0.7-0.1-1-0.2c-0.4,0-0.7,0-1.1,0c-0.3-0.1-0.7,0-1.1-0.1
	c-0.3-0.1-0.7-0.1-1-0.2c-0.3-0.1-0.6-0.5-0.9-0.6c-0.3-0.1-0.7-0.1-1-0.2c-0.3-0.1-0.7-0.2-1-0.3c-0.3-0.1-0.6-0.3-1-0.5
	c-0.3-0.2-0.6-0.4-0.9-0.5c-0.3-0.2-0.7-0.3-1-0.5c-0.3-0.2-0.6-0.4-0.9-0.6c-0.3-0.2-0.5-0.5-0.8-0.7c-0.3-0.2-0.4-0.7-0.6-0.9
	c-0.3-0.2-0.5-0.4-0.8-0.7c-0.3-0.3-0.7-0.3-0.9-0.6c-0.2-0.3-0.2-0.7-0.4-1c-0.2-0.3-0.4-0.6-0.6-0.9c-0.2-0.3-0.7-0.4-0.9-0.7
	c-0.2-0.3-0.2-0.7-0.4-1c-0.2-0.3-0.5-0.5-0.7-0.8c-0.2-0.3-0.1-0.7-0.2-1.1c-0.2-0.3-0.5-0.5-0.7-0.9c-0.1-0.3-0.1-0.7-0.2-1.1
	c-0.1-0.3-0.1-0.7-0.2-1.1c-0.1-0.3-0.4-0.6-0.5-1c-0.1-0.3-0.4-0.6-0.5-1c-0.1-0.3,0.1-0.8,0-1.1c-0.1-0.3-0.3-0.7-0.4-1
	c-0.1-0.3,0.2-0.7,0.1-1.1c0-0.4-0.2-0.7-0.2-1.1c0-0.4-0.3-0.7-0.3-1c0-0.4-0.1-0.7-0.1-1.1c0-0.4,0.1-0.7,0.1-1.1
	c0-0.4,0.1-0.7,0.1-1.1c0-0.4,0.1-0.7,0.1-1.1c0-0.4-0.1-0.7-0.1-1.1c0-0.4,0-0.7,0.1-1.1c0-0.4,0-0.7,0.1-1.1c0-0.4,0.2-0.7,0.2-1
	c0.1-0.3,0-0.7,0.1-1.1c0.1-0.3,0.3-0.7,0.4-1c0.1-0.3-0.1-0.7,0-1.1c0.1-0.3,0.1-0.7,0.2-1.1c0.1-0.3,0.1-0.7,0.2-1.1
	c0.1-0.3,0.3-0.7,0.4-1c0.1-0.3,0.4-0.6,0.5-1c0.1-0.3,0-0.7,0.1-1.1c0.1-0.3,0.2-0.7,0.3-1c0.1-0.3,0.4-0.6,0.6-0.9
	c0.1-0.3,0.1-0.7,0.2-1.1c0.1-0.3,0.3-0.6,0.5-1c0.1-0.3,0.2-0.7,0.4-1c0.1-0.3,0.4-0.6,0.5-0.9c0.1-0.3,0-0.8,0.1-1.1
	c0.1-0.3,0.4-0.6,0.5-0.9c0.1-0.3,0.4-0.6,0.6-0.9c0.1-0.3,0.2-0.7,0.3-1c0.2-0.3,0.4-0.6,0.6-0.9c0.2-0.3,0.2-0.7,0.3-1
	c0.2-0.3,0.3-0.7,0.4-1c0.2-0.3,0.3-0.6,0.5-1c0.2-0.3,0.5-0.5,0.7-0.8c0.2-0.3,0.4-0.6,0.5-0.9c0.2-0.3,0.4-0.6,0.5-0.9
	c0.2-0.3,0.3-0.6,0.5-0.9c0.2-0.3,0.5-0.6,0.7-0.9c0.2-0.3,0.2-0.7,0.4-1c0.2-0.3,0.4-0.6,0.5-0.9c0.2-0.3,0.4-0.6,0.6-0.9
	c0.2-0.3,0.5-0.5,0.7-0.8c0.2-0.3,0.4-0.6,0.6-0.9c0.2-0.3,0.3-0.7,0.5-1c0.2-0.3,0.5-0.5,0.7-0.8c0.2-0.3,0.3-0.7,0.5-0.9
	c0.2-0.3,0.6-0.4,0.8-0.7c0.2-0.3,0.4-0.6,0.6-0.9c0.2-0.3,0.3-0.7,0.5-1c0.2-0.3,0.5-0.5,0.7-0.8c0.2-0.3,0.4-0.6,0.6-0.9
	c0.2-0.3,0.5-0.5,0.7-0.8c0.2-0.3,0.5-0.5,0.8-0.8c0.2-0.3,0.2-0.8,0.4-1.1c0.2-0.3,0.5-0.5,0.8-0.8C29.7,61.2,29.8,60.9,30,60.6
	 M299.8,14.6c0.1,0.4,0.3,0.8,0.5,1.1c0.2,0.3,0.4,0.8,0.7,1c0.4,0.3,0.9,0.4,1.1,0.7c0.3,0.4,0.3,0.9,0.5,1.2
	c0.2,0.4,0.5,0.8,0.6,1.2c0.1,0.4,0.2,0.9,0.2,1.3c0,0.4-0.1,0.9-0.2,1.3c-0.1,0.4-0.3,0.9-0.5,1.2c-0.2,0.4-0.4,0.9-0.6,1.2
	c-0.3,0.5-0.6,0.8-0.8,1.1c-0.3,0.4-0.6,0.7-0.7,1.2c-0.2,0.4-0.2,0.9-0.2,1.4c0,0.5-0.3,1-0.1,1.4c0.1,0.4,0.3,0.9,0.6,1.3
	c0.2,0.4,0.6,0.7,1,1c0.3,0.3,0.7,0.4,1.1,0.6c0.4,0.2,0.7,0.5,1.1,0.5c0.4,0.1,0.8-0.1,1.2-0.2c0.4-0.1,0.8,0,1.2-0.2
	c0.3-0.1,0.6-0.4,0.9-0.6c0.3-0.2,0.6-0.5,0.8-0.8c0.3-0.3,0.5-0.7,0.8-1c0.2-0.3,0.3-0.8,0.5-1.2c0.2-0.4,0.6-0.6,0.8-1
	c0.2-0.4,0.3-0.8,0.5-1.2c0.2-0.4,0.4-0.7,0.6-1.2c0.1-0.4,0.3-0.8,0.4-1.2c0.1-0.4,0-0.9,0.1-1.3c0.1-0.4,0.3-0.8,0.4-1.2
	c0-0.4-0.3-0.9-0.3-1.3c0-0.4,0-0.8-0.1-1.3c0-0.4-0.1-0.8-0.1-1.2c-0.1-0.4-0.1-0.8-0.3-1.2c-0.1-0.4,0.1-0.9-0.1-1.3
	c-0.1-0.4-0.5-0.7-0.7-1.1c-0.2-0.4-0.4-0.7-0.6-1.1c-0.2-0.4-0.5-0.6-0.8-1c-0.2-0.3-0.3-0.8-0.6-1.2c-0.3-0.3-0.6-0.6-0.9-0.9
	c-0.3-0.3-0.8-0.3-1.1-0.6c-0.4-0.3-0.7-0.6-1.1-0.8C305.4,9,305,9,304.6,8.9c-0.5-0.1-0.9-0.4-1.4-0.3c-0.5,0.1-1,0.1-1.4,0.4
	c-0.4,0.2-0.6,0.8-0.9,1.1c-0.3,0.3-0.7,0.5-0.8,0.9c-0.2,0.4-0.4,0.8-0.5,1.2c-0.1,0.4-0.1,0.9-0.1,1.3
	C299.5,13.8,299.7,14.2,299.8,14.6z M277.6,80.5c-0.5-0.2-1.1-0.4-1.6-0.8c-0.5-0.3-0.9-0.7-1.3-1.2c-0.4-0.5-0.8-1-1-1.6
	c-0.3-0.6-0.4-1.2-0.5-1.8c-0.1-0.6,0-1.2,0-1.9c0-0.6,0-1.2,0.2-1.8c0.1-0.6,0.2-1.2,0.4-1.8c0.2-0.6,0.4-1.2,0.6-1.8
	c0.2-0.6,0.5-1.1,0.7-1.7c0.2-0.6,0.4-1.2,0.7-1.7c0.3-0.6,0.6-1.1,0.9-1.7c0.3-0.5,0.6-1.1,0.9-1.6c0.3-0.5,0.5-1.2,0.8-1.7
	c0.3-0.5,0.5-1.1,0.8-1.7c0.3-0.5,0.8-1,1.1-1.5c0.3-0.5,0.5-1.1,0.8-1.7c0.3-0.5,0.4-1,0.7-1.5c0.3-0.5,0.6-1,0.8-1.5
	c0.3-0.5,0.5-1,0.8-1.5c0.3-0.5,0.4-1,0.7-1.6c0.3-0.5,0.6-0.9,0.9-1.5c0.3-0.5,0.4-1.1,0.7-1.6c0.4-0.8,0.3-1.5-0.3-1.9
	c-0.5-0.4-1.4-0.5-2.1,0c-0.4,0.3-0.9,0.7-1.4,1.2c-0.4,0.4-0.9,0.8-1.4,1.2c-0.4,0.4-1,0.7-1.4,1.2c-0.4,0.4-0.7,1-1.2,1.4
	c-0.4,0.4-0.9,0.8-1.3,1.3c-0.4,0.4-1,0.8-1.4,1.2c-0.4,0.4-0.6,1.1-1,1.6c-0.4,0.4-1,0.8-1.4,1.2c-0.4,0.5-0.8,0.9-1.3,1.4
	c-0.4,0.5-0.5,1.1-1,1.6c-0.4,0.5-1,0.7-1.4,1.2c-0.4,0.5-0.6,1.1-1,1.6c-0.4,0.5-1,0.8-1.4,1.3c-0.4,0.5-0.8,1-1.2,1.5
	c-0.4,0.5-0.7,1.1-1,1.6c-0.4,0.5-0.7,1-1.1,1.5c-0.4,0.5-0.8,1-1.2,1.5c-0.4,0.5-0.7,1.1-1.1,1.6c-0.4,0.5-0.9,0.9-1.2,1.4
	c-0.4,0.5-0.6,1.1-1,1.6c-0.4,0.5-0.8,1-1.1,1.5c-0.4,0.5-0.8,1-1.2,1.5c-0.4,0.5-0.6,1.1-0.9,1.6c-0.4,0.5-0.7,1-1.1,1.5
	c-0.4,0.5-0.6,1.1-1,1.6c-0.4,0.5-0.8,1-1.2,1.5c-0.4,0.5-0.8,1-1.1,1.5c-0.4,0.6-0.6,1.2-0.9,1.6c-0.4,0.6-0.7,1.1-1,1.6
	c-0.6,1-0.9,1.6-0.9,1.6c-0.3,0.5-0.8,1-1.3,1.4c-0.5,0.3-1.1,0.5-1.7,0.7c-0.6,0.1-1.2,0.1-1.8,0c-0.6-0.1-1.1-0.4-1.7-0.8
	c-0.5-0.3-0.8-0.8-1-1.2c-0.3-0.5-0.7-0.9-0.8-1.4c-0.1-0.5-0.1-1.1,0-1.7c0.1-0.5,0.4-1,0.7-1.5c0.3-0.7,0.2-0.8,0.5-1.5
	c0.3-0.6,0.2-1.2-0.2-1.5c-0.4-0.3-1.2-0.4-1.7,0c-0.4,0.4-0.7,1-1.2,1.4c-0.4,0.4-0.9,0.8-1.4,1.2c-0.4,0.4-0.8,0.9-1.2,1.3
	c-0.5,0.4-1,0.7-1.4,1.1c-0.5,0.4-0.9,0.8-1.3,1.2c-0.5,0.4-1.1,0.6-1.6,0.9c-0.5,0.4-1,0.7-1.5,1c-0.5,0.3-0.9,0.8-1.4,1.1
	c-0.5,0.3-1,0.7-1.5,0.9c-0.5,0.3-1.2,0.4-1.7,0.6c-0.6,0.2-1.1,0.6-1.6,0.7c-0.4,0.1-1,0.4-1.8,0.5c-0.5,0.1-1.2,0.3-1.8,0.4
	c-0.6,0.1-1.2,0.1-1.8,0.1c-0.6,0-1.2-0.2-1.8-0.3c-0.6-0.1-1.2-0.2-1.8-0.4c-0.6-0.2-1.2-0.4-1.7-0.8c-0.5-0.3-0.9-0.8-1.3-1.3
	c-0.4-0.5-0.6-1.2-0.8-1.7c-0.2-0.6-0.5-1.2-0.6-1.8c-0.1-0.6,0.1-1.2,0.1-1.9c0-0.6-0.2-1.3,0-1.9c0.1-0.6,0.5-1.2,0.7-1.8
	c0.2-0.6,0.3-1.2,0.5-1.8c0.2-0.6,0.5-1.1,0.8-1.7c0.2-0.6,0.3-1.2,0.6-1.8c0.3-0.6,0.8-1,1.1-1.6c0.3-0.6,0.4-1.2,0.7-1.8
	c0.3-0.5,0.7-1,1-1.6c0.3-0.5,0.4-1.2,0.8-1.7c0.3-0.5,0.9-0.9,1.2-1.5c0.3-0.5,0.6-1.1,0.9-1.7c0.3-0.5,0.5-1.1,0.8-1.7
	c0.3-0.5,0.7-1,1-1.6c0.3-0.5,0.4-1.2,0.7-1.8c0.3-0.5,0.8-1,1.1-1.5c0.3-0.6,0.5-1.2,0.8-1.7c0.4-0.8,0-1.4-0.5-1.9
	c-0.5-0.4-1.3-0.8-2-0.3c-0.4,0.3-0.8,0.9-1.3,1.3c-0.4,0.4-1,0.6-1.5,1.1c-0.4,0.4-0.6,1-1.1,1.5c-0.4,0.4-1,0.7-1.4,1.1
	c-0.4,0.4-0.9,0.8-1.3,1.3c-0.4,0.4-0.9,0.8-1.3,1.3c-0.4,0.4-0.8,0.9-1.2,1.4c-0.4,0.4-0.7,1-1.1,1.5c-0.4,0.4-0.9,0.8-1.4,1.2
	c-0.4,0.5-0.5,1.1-0.9,1.6c-0.4,0.5-1,0.8-1.4,1.2c-0.4,0.5-0.7,1-1.1,1.5c-0.4,0.5-0.8,0.9-1.2,1.4c-0.4,0.5-0.8,0.9-1.2,1.4
	c-0.4,0.5-0.7,1.1-1.1,1.6c-0.4,0.5-0.6,1.1-1,1.6c-0.4,0.5-0.8,0.9-1.2,1.4c-0.4,0.5-0.7,1-1.1,1.5c-0.4,0.5-0.8,1-1.1,1.5
	c-0.4,0.5-0.8,1-1.1,1.5c-0.4,0.5-0.8,1-1.1,1.5c-0.4,0.5-0.8,1-1.1,1.5c-0.4,0.5-0.5,1.2-0.9,1.7c-0.4,0.5-0.8,1-1.1,1.5
	c-0.4,0.5-0.8,1-1.1,1.5c-0.4,0.5-0.6,1.1-1,1.6c-0.4,0.5-0.9,0.9-1.3,1.4c-0.4,0.6-0.4,1.3-0.7,1.8c-0.4,0.6-0.8,1.1-1.1,1.5
	c-0.6,1-1,1.6-1,1.6c-0.3,0.5-0.8,1-1.3,1.3c-0.5,0.3-1.1,0.5-1.7,0.6c-0.6,0.1-1.2,0.2-1.8,0.1c-0.6-0.1-1.2-0.4-1.7-0.8
	c-0.5-0.3-0.9-0.7-1.1-1.2c-0.3-0.5-0.6-1-0.7-1.5c-0.1-0.5,0.1-1.1,0.1-1.6c0.1-0.5,0.4-1,0.6-1.5c0.6-1.2,0.4-1.3,1-2.5
	c0.3-0.6,0.1-1.1-0.3-1.4c-0.4-0.3-1.1-0.5-1.6-0.1c-0.4,0.4-0.9,0.8-1.3,1.2c-0.4,0.4-0.8,0.9-1.2,1.3c-0.4,0.4-0.9,0.7-1.4,1.1
	c-0.5,0.4-0.9,0.8-1.4,1.1c-0.5,0.4-0.8,0.9-1.3,1.2c-0.5,0.4-1.1,0.5-1.6,0.9c-0.5,0.4-0.9,0.8-1.4,1.1c-0.5,0.3-0.9,0.7-1.4,1.1
	c-0.5,0.3-0.9,0.7-1.4,1.1c-0.5,0.3-1.1,0.4-1.6,0.8c-0.5,0.3-1,0.6-1.5,0.9c-0.5,0.3-1.1,0.6-1.6,0.9c-0.5,0.3-1.1,0.6-1.6,0.9
	c-0.6,0.3-1.1,0.5-1.6,0.8c-0.6,0.3-1,0.7-1.6,1c-0.6,0.2-1.1,0.5-1.7,0.7c-0.6,0.2-1.2,0.2-1.8,0.4c-0.6,0.2-1.2,0.3-1.8,0.4
	c-0.6,0.1-1.2,0.4-1.8,0.5c-0.6,0.1-1.2,0-1.8,0c-0.6,0-1.2-0.1-1.8-0.1c-0.6,0-1.3,0.1-1.8,0c-0.6-0.1-1.2-0.4-1.7-0.5
	c-0.6-0.2-1.1-0.6-1.6-0.9c-0.6-0.3-1.2-0.5-1.6-0.9c-0.6-0.5-1.4-0.5-2-0.1c-0.5,0.3-1.1,0.5-1.7,0.8c-0.5,0.3-0.9,0.8-1.5,1.1
	c-0.5,0.3-1.1,0.5-1.7,0.8c-0.5,0.3-0.9,0.9-1.4,1.2c-0.5,0.3-1.1,0.6-1.6,0.9c-0.5,0.3-1.1,0.5-1.7,0.8c-0.5,0.3-1.2,0.4-1.7,0.7
	c-0.6,0.3-1.1,0.5-1.7,0.8c-0.6,0.3-1.1,0.6-1.7,0.8c-0.6,0.2-1.2,0.3-1.8,0.5c-0.6,0.2-1.2,0.3-1.8,0.5c-0.6,0.2-1.1,0.5-1.7,0.6
	c-0.6,0.2-1.2,0.4-1.8,0.5c-0.6,0.1-1.2,0-1.8,0.1c-0.6,0.1-1.2,0.1-1.8,0.2c-0.6,0-1.2,0.2-1.7,0.2c-0.6,0-1.2-0.2-1.7-0.3
	c-0.6,0-1.2,0-1.7-0.1c-0.6-0.1-1.2,0-1.7-0.2c-0.6-0.2-1.3-0.4-1.9-0.7c-0.6-0.3-1.1-0.7-1.7-1c-0.6-0.3-1.1-0.7-1.6-1.1
	c-0.5-0.4-1-0.9-1.4-1.3c-0.5-0.5-0.9-1-1.2-1.5c-0.4-0.5-1-0.9-1.3-1.5c-0.3-0.6-0.3-1.3-0.5-1.9c0,0-0.2,0.1-0.2,0.1
	c-0.2-0.5-0.6-1-1.1-1.1c-0.5-0.1-1,0.1-1.5,0.5c-0.5,0.4-1,0.8-1.4,1.2c-0.5,0.4-1,0.8-1.4,1.2c-0.5,0.4-1,0.7-1.5,1.1
	c-0.5,0.4-1,0.8-1.4,1.2c-0.5,0.4-1,0.8-1.4,1.2c-0.5,0.4-0.9,1-1.3,1.3c-0.5,0.5-1.1,0.8-1.5,1.1c-0.8,0.6-1.3,1-1.5,1.1
	c-0.5,0.4-0.9,0.8-1.5,0.9c-0.6,0.2-1.2,0.4-1.8,0.3c-0.6-0.1-1.2-0.3-1.7-0.6c-0.5-0.3-0.8-0.8-1.2-1.3s-0.6-1-0.7-1.5
	c-0.2-0.6-0.5-1.1-0.5-1.7c0.1-0.6,0.3-1.2,0.6-1.7c0.3-0.5,0.6-1.1,1.1-1.4c0,0,0.5-0.4,1.4-1.2c0.4-0.3,1-0.5,1.5-0.9
	c0.4-0.3,0.7-0.9,1.2-1.4c0.4-0.4,1-0.6,1.5-1c0.4-0.4,0.8-0.8,1.3-1.2c0.4-0.4,0.8-0.8,1.3-1.2c0.4-0.4,1-0.6,1.5-1
	c0.4-0.4,0.8-0.8,1.3-1.3c0.4-0.4,1-0.7,1.5-1.1c0.4-0.4,0.9-0.8,1.3-1.2c0.4-0.4,0.8-0.9,1.3-1.3c0.4-0.4,1-0.7,1.4-1.1
	c0.4-0.4,1-0.6,1.5-1c0.4-0.4,0.7-1,1.1-1.4c0.3-0.2,0.4-0.5,0.5-0.9c0.1-0.6,0.6-1.1,0.7-1.7c0.2-0.6,0.3-1.2,0.5-1.8
	c0.2-0.6,0.4-1.2,0.5-1.8c0.2-0.6,0.4-1.2,0.6-1.7c0.2-0.6,0.3-1.2,0.5-1.8c0.2-0.6,0.6-1.1,0.8-1.7c0.2-0.6,0.2-1.3,0.4-1.8
	c0.2-0.6,0.7-1.1,0.9-1.6c0.2-0.6,0.4-1.2,0.6-1.7c0.3-0.6,0.5-1.1,0.7-1.7c0.3-0.6,0.7-1,1-1.6c0.3-0.6,0.4-1.2,0.6-1.7
	c0.3-0.5,0.8-1,1.1-1.5c0.3-0.5,0.4-1.2,0.7-1.7c0.3-0.5,0.7-1,0.9-1.6c0.3-0.5,0.6-1.1,0.9-1.6c0.3-0.5,0.4-1.2,0.7-1.7
	c0.3-0.5,0.7-1,1.1-1.5c0.3-0.5,0.6-1.1,0.9-1.6c0.3-0.5,0.5-1.1,0.9-1.6c0.3-0.5,0.6-1,1-1.6c0.3-0.5,0.7-1,1.1-1.5
	c0.3-0.5,0.6-1.1,0.9-1.6c0.3-0.5,0.6-1.1,1-1.6c0.3-0.5,0.6-1.1,0.9-1.6c0.3-0.5,0.7-1,1-1.5c0.3-0.5,0.6-1.1,1-1.6
	c0.3-0.5,0.9-0.9,1.3-1.4c0.4-0.5,0.5-1.2,0.9-1.7c0.4-0.5,0.8-0.9,1.2-1.4c0.4-0.5,0.8-1,1.2-1.5c0.4-0.5,0.7-1.1,1-1.5
	c0.4-0.5,0.8-1,1.2-1.4c0.4-0.5,0.7-1,1.1-1.5c0.4-0.5,0.8-0.9,1.2-1.4c0.4-0.5,0.7-1.1,1.1-1.5c0.4-0.5,0.9-0.9,1.3-1.3
	c0.4-0.5,1-0.8,1.4-1.2c0.5-0.4,1-0.7,1.5-1.1c0.5-0.4,0.9-0.8,1.4-1.2c0.5-0.4,0.9-0.8,1.4-1.2c0.5-0.4,1-0.7,1.5-1.1
	c0.5-0.3,1-0.8,1.5-1.1c0.6-0.3,1.2-0.4,1.8-0.6c0.6-0.2,1.1-0.5,1.7-0.7c0.6-0.2,1.2-0.2,1.8-0.3c0.6,0,1.3-0.1,1.9,0
	c0.6,0.1,1.2,0.3,1.8,0.5c0.6,0.2,1.1,0.5,1.6,0.9c0.5,0.3,0.9,0.9,1.3,1.4c0.4,0.4,1.1,0.7,1.4,1.3c0.3,0.5,0.3,1.2,0.6,1.8
	c0.2,0.6,0.6,1.1,0.7,1.7c0.1,0.6,0.1,1.2,0.1,1.9c0,0.6-0.1,1.2-0.2,1.9c0,0.6-0.1,1.2-0.3,1.8c-0.1,0.6-0.1,1.2-0.3,1.8
	c-0.1,0.6-0.3,1.2-0.5,1.8c-0.2,0.6-0.3,1.2-0.6,1.8c-0.2,0.6-0.3,1.2-0.6,1.8c-0.2,0.6-0.5,1.2-0.7,1.7c-0.3,0.6-0.7,1.1-0.9,1.6
	c-0.3,0.5-0.7,1-1,1.6c-0.3,0.5-0.6,1.1-0.9,1.6c-0.3,0.5-0.6,1.1-0.9,1.6c-0.3,0.5-0.8,0.9-1.1,1.5c-0.3,0.5-0.6,1-1,1.5
	c-0.4,0.5-0.7,1-1.1,1.5c-0.4,0.5-0.7,1-1.1,1.5c-0.4,0.5-0.8,0.9-1.2,1.4c-0.4,0.5-0.6,1.1-1,1.6c-0.4,0.5-1,0.8-1.4,1.2
	c-0.4,0.5-0.7,1-1.1,1.5c-0.4,0.5-0.8,0.9-1.2,1.4c-0.4,0.5-0.7,1-1.1,1.5c-0.4,0.5-0.8,0.9-1.2,1.4c-0.4,0.5-1,0.8-1.4,1.2
	c-0.4,0.4-0.9,0.9-1.3,1.3c-0.4,0.4-0.8,1-1.2,1.4c-0.4,0.4-0.9,0.8-1.3,1.3c-0.4,0.4-0.8,0.9-1.3,1.3c-0.4,0.4-0.9,0.8-1.4,1.2
	c-0.4,0.4-0.8,1-1.2,1.4c-0.4,0.4-0.9,0.8-1.4,1.3c-0.4,0.4-0.8,1-1.2,1.4c-0.4,0.4-0.8,0.9-1.3,1.3c-0.4,0.4-1,0.8-1.4,1.2
	c-0.4,0.4-0.8,1-1.2,1.4c-0.4,0.4-1.1,0.7-1.5,1.1c-0.4,0.4-0.8,0.9-1.3,1.3c-0.4,0.4-1,0.8-1.4,1.2c-0.4,0.4-0.8,1-1.2,1.4
	c-0.4,0.4-0.8,0.9-1.3,1.3c-0.5,0.4-1,0.7-1.5,1.1c-0.5,0.4-0.9,0.8-1.4,1.2c-0.5,0.4-0.7,1.1-1.2,1.5c-0.5,0.4-1,0.7-1.4,1.2
	c-0.4,0.5-0.8,1-1,1.6c-0.3,0.6-0.5,1.2-0.6,1.8c-0.1,0.6,0.1,1.3,0,1.9c0,0.6-0.2,1.3-0.1,1.9c0.1,0.4,0.3,0.8,0.4,1.2
	c0.2,0.6,0.4,1.2,0.8,1.6c0.4,0.5,1,0.6,1.5,0.9c0.5,0.3,1,0.5,1.6,0.7c0.6,0.2,1.1,0.4,1.8,0.5c0.6,0,1.2-0.1,1.8-0.1
	c0.6,0,1.2,0.2,1.9,0.1c0.6-0.1,1.1-0.5,1.7-0.7c0.6-0.1,1.3,0,1.9-0.2c0.6-0.2,1.1-0.5,1.7-0.7c0.6-0.2,1.1-0.6,1.6-0.8
	c0.6-0.2,1.2-0.4,1.7-0.6c0.5-0.3,1-0.7,1.6-1c0.5-0.3,1.2-0.3,1.8-0.6c0.5-0.3,0.9-0.8,1.5-1.1c0.5-0.3,1.1-0.5,1.6-0.8
	c0.5-0.3,1.1-0.6,1.6-0.9c0.5-0.3,0.9-0.8,1.4-1.2c0.5-0.3,1.1-0.6,1.6-0.9c0.5-0.3,1-0.7,1.5-1c0.5-0.3,0.6-1,0.6-1.6
	c0-0.6,0-1.2,0-1.8c0-0.6,0-1.2,0.1-1.8c0.1-0.6,0.4-1.1,0.6-1.8c0.1-0.6,0.1-1.2,0.2-1.8c0.1-0.6,0.3-1.2,0.5-1.8
	c0.2-0.6,0.4-1.1,0.6-1.7c0.2-0.6,0.4-1.1,0.6-1.7c0.2-0.6,0.3-1.2,0.5-1.8c0.2-0.6,0.6-1.1,0.9-1.6c0.3-0.5,0.4-1.1,0.7-1.7
	c0.3-0.5,0.6-1.1,0.8-1.6c0.3-0.5,0.5-1.1,0.9-1.6c0.3-0.5,0.7-1,1-1.5c0.3-0.5,0.6-1.1,0.9-1.6c0.3-0.5,0.7-1,1.1-1.5
	c0.3-0.4,0.5-1,0.9-1.6c0.3-0.5,0.8-0.9,1.2-1.4c0.3-0.5,0.7-1,1.1-1.5c0.4-0.5,0.7-1,1.1-1.5c0.4-0.5,0.7-1,1.1-1.5
	c0.4-0.5,0.8-0.9,1.2-1.3c0.4-0.4,0.9-0.8,1.3-1.2c0.4-0.4,0.8-0.9,1.3-1.3c0.5-0.4,0.9-0.8,1.4-1.2c0.5-0.4,1-0.8,1.5-1.1
	c0.5-0.3,1.1-0.6,1.6-0.9c0.5-0.3,1.1-0.5,1.7-0.7c0.6-0.2,1.1-0.5,1.7-0.6c0.6-0.2,1.2-0.5,1.8-0.6c0.6-0.1,1.2,0.1,1.8,0.2
	c0.6,0.1,1.2,0.3,1.8,0.5c0.6,0.2,1.1,0.5,1.6,0.8c0.5,0.3,1.1,0.5,1.5,0.9c0.4,0.4,0.8,0.9,1.2,1.3c0.3,0.5,0.7,1,0.9,1.5
	c0.2,0.5,0.3,1.1,0.4,1.7c0.1,0.6,0.3,1.1,0.3,1.7c0,0.6-0.1,1.2-0.1,1.8c0,0.6,0.2,1.2,0.2,1.8c-0.1,0.6-0.3,1.1-0.4,1.7
	c-0.1,0.6-0.4,1.1-0.6,1.7c-0.2,0.5-0.6,1-0.8,1.6c-0.2,0.5-0.3,1.2-0.5,1.7c-0.3,0.5-0.7,0.9-1,1.5c-0.3,0.5-0.7,0.9-1,1.4
	c-0.3,0.5-0.7,0.9-1.1,1.4c-0.3,0.5-0.5,1.1-0.9,1.6c-0.4,0.5-0.9,0.8-1.3,1.3c-0.4,0.5-0.5,1.1-0.9,1.5c-0.4,0.4-0.9,0.8-1.3,1.3
	c-0.4,0.4-0.7,0.9-1.2,1.4c-0.4,0.4-0.8,0.8-1.3,1.3c-0.4,0.4-0.7,1-1.1,1.4c-0.4,0.4-1,0.7-1.4,1.1c-0.4,0.4-0.8,0.9-1.2,1.3
	c-0.4,0.4-0.8,0.9-1.2,1.3c-0.4,0.4-0.9,0.8-1.3,1.2c-0.4,0.4-0.7,1-1.2,1.4c-0.4,0.4-0.9,0.8-1.3,1.2c-0.4,0.4-1,0.7-1.4,1.1
	c-0.5,0.4-0.6,1-0.5,1.5c0.1,0.6,0.4,1,0.8,1.3c0.4,0.3,1,0.6,1.6,0.4c0.5-0.2,1-0.5,1.6-0.7c0.5-0.2,1.1-0.4,1.6-0.7
	c0.5-0.2,1-0.6,1.5-0.9c0.5-0.3,1-0.5,1.5-0.8c0.5-0.3,1-0.6,1.6-1c0.5-0.3,1-0.7,1.5-1.1c0.5-0.3,1-0.6,1.5-1
	c0.5-0.4,0.9-0.9,1.4-1.2c0.5-0.4,1.1-0.6,1.6-1c0.5-0.4,1-0.7,1.5-1.1c0.5-0.4,0.8-1,1.2-1.4c0.5-0.4,1.1-0.6,1.6-1
	c0.5-0.4,0.8-0.9,1.3-1.3c0.5-0.4,1-0.8,1.4-1.2c0.4-0.4,0.8-0.9,1.3-1.3c0.4-0.4,0.8-0.9,1.3-1.3c0.4-0.4,1-0.7,1.4-1.1
	c0.4-0.4,0.8-1,1.2-1.4c0.4-0.4,0.9-0.8,1.4-1.2c0.4-0.4,0.8-1,1.2-1.4c0.4-0.4,0.8-1,1.2-1.4c0.4-0.5,0.7-1,1.1-1.5
	c0.4-0.5,0.9-0.8,1.3-1.3c0.4-0.5,0.9-0.8,1.3-1.3c0.4-0.5,0.7-1,1.1-1.5c0.4-0.5,0.8-1,1.2-1.4c0.4-0.5,0.9-0.9,1.3-1.3
	c0.4-0.5,0.9-0.9,1.2-1.4c0.4-0.5,0.5-1.1,0.9-1.6c0.4-0.5,0.9-0.8,1.3-1.3c0.4-0.5,0.8-1,1.1-1.4c0.4-0.5,0.7-1,1.1-1.5
	c0.4-0.5,0.7-1,1-1.5c0.4-0.5,0.7-1,1.1-1.5c0.4-0.5,0.7-1.1,1-1.5c0.4-0.5,1-0.8,1.3-1.3c0.4-0.5,0.7-1.1,1-1.5
	c0.4-0.6,0.6-1.2,0.9-1.6c0.6-0.9,1.1-1.4,1.1-1.5c0.3-0.5,0.7-1.1,1.2-1.4c0.5-0.3,1.2-0.3,1.8-0.5c0.6-0.1,1.1-0.1,1.7,0
	c0.6,0.1,1.3,0.1,1.8,0.5c0.6,0.5,1,1.2,1.3,1.8c0.3,0.7,0.6,1.4,0.6,2.1c0,1,0.9,1.4,1.6,0.8c0.5-0.4,0.9-0.9,1.3-1.4
	c0.5-0.4,1.2-0.6,1.6-1c0.5-0.4,0.9-0.9,1.4-1.3c0.5-0.4,1.1-0.6,1.7-0.9c0.5-0.4,0.9-0.9,1.4-1.3c0.6-0.3,1.2-0.4,1.8-0.7
	c0.6-0.3,1.1-0.8,1.6-1c0.6-0.2,1.3-0.3,1.8-0.4c0.6-0.2,1.2-0.3,1.8-0.3c0.6-0.1,1.2,0.1,1.9,0.1c0.7,0.1,1.3,0,1.8,0.2
	c0.6,0.2,1.2,0.5,1.7,0.7c0.6,0.4,0.9,0.9,1.3,1.3c0.5,0.5,0.8,1,1,1.5c0.3,0.5,0.7,1,0.9,1.6c0.1,0.6,0.2,1.2,0.2,1.8
	c0,0.6-0.1,1.2-0.2,1.8c-0.1,0.6-0.2,1.2-0.3,1.8c-0.1,0.6-0.5,1.1-0.7,1.6c-0.2,0.5-0.4,1.1-0.7,1.7c-0.2,0.5-0.4,1.1-0.7,1.6
	c-0.2,0.5-0.3,1.2-0.5,1.7c-0.3,0.5-0.8,0.9-1.1,1.5c-0.3,0.5-0.4,1.1-0.7,1.6c-0.3,0.5-0.5,1-0.8,1.6c-0.3,0.5-0.6,1-0.9,1.5
	c-0.3,0.5-0.4,1.1-0.7,1.7c-0.3,0.5-0.9,0.9-1.2,1.4c-0.3,0.5-0.4,1.2-0.7,1.8c-0.3,0.5-0.8,1-1.1,1.6c-0.3,0.6-0.5,1.2-0.8,1.7
	c-0.3,0.6-0.7,1.1-0.9,1.7c-0.3,0.6-0.5,1.2-0.8,1.8c-0.3,0.6-0.7,1.1-0.9,1.7c-0.4,0.8,0,1.6,0.5,2c0.5,0.5,1.2,0.6,2,0.2
	c0.5-0.3,1.1-0.5,1.6-0.9c0.5-0.3,1-0.7,1.5-1.1c0.5-0.4,0.9-0.8,1.4-1.2c0.5-0.4,1.1-0.6,1.6-1c0.5-0.4,0.9-0.8,1.4-1.2
	c0.4-0.4,0.7-1,1.2-1.4c0.4-0.4,0.9-0.8,1.3-1.3c0.4-0.4,1-0.7,1.5-1.1c0.4-0.4,0.8-1,1.2-1.4c0.4-0.4,0.7-1,1.2-1.4
	c0.4-0.4,0.9-0.8,1.4-1.3c0.4-0.4,0.8-1,1.2-1.4c0.4-0.5,0.8-1,1.2-1.4c0.4-0.5,0.9-0.8,1.3-1.3c0.4-0.5,0.7-1,1.1-1.5
	c0.4-0.5,1-0.7,1.4-1.2c0.4-0.5,0.6-1.1,1-1.5c0.4-0.5,0.8-0.9,1.2-1.4c0.4-0.5,0.7-1,1.1-1.5c0.4-0.5,0.8-0.9,1.2-1.4
	c0.4-0.5,0.9-0.9,1.3-1.3c0.4-0.5,0.8-1,1.1-1.5c0.4-0.5,0.8-1,1.1-1.4c0.4-0.5,0.9-0.9,1.2-1.4c0.4-0.5,0.8-1,1.1-1.5
	c0.4-0.5,0.7-1,1-1.5c0.4-0.5,0.8-0.9,1.2-1.4c0.4-0.5,0.7-1,1.1-1.5c0.4-0.5,0.7-1,1.1-1.5c0.4-0.5,0.6-1.1,1-1.6
	c0.4-0.5,1-0.8,1.3-1.3c0.4-0.5,0.5-1.2,0.8-1.7c0.4-0.5,0.8-1,1.2-1.4c0.4-0.5,0.9-0.8,1.4-1.1c0.5-0.3,1-0.6,1.6-0.7
	c0.6-0.1,1.2-0.1,1.8,0.1c0.6,0.1,1.2,0.3,1.7,0.7c0.6,0.5,1.1,1.1,1.4,1.6c0.3,0.7,0.1,1.4,0.1,2.1c0,1,1.2,1.4,1.9,0.7
	c0.5-0.4,1.1-0.6,1.6-1c0.5-0.4,0.9-0.9,1.4-1.3c0.5-0.4,0.9-0.9,1.4-1.3c0.5-0.4,1.1-0.6,1.6-0.9c0.5-0.4,1-0.8,1.5-1.1
	c0.6-0.3,1-0.7,1.6-1c0.6-0.3,1.3-0.3,1.8-0.5c0.6-0.2,1.2-0.5,1.8-0.6c0.6-0.2,1.2-0.2,1.9-0.2c0.6-0.1,1.2-0.1,1.9-0.1
	c0.7,0.1,1.3,0.1,1.8,0.3c0.6,0.2,1.1,0.6,1.5,0.9c0.6,0.4,1.2,0.5,1.6,0.9c0.5,0.5,0.8,1.1,1.1,1.5c0.3,0.5,0.4,1.2,0.6,1.7
	c0.1,0.6,0.3,1.2,0.3,1.8c0,0.6-0.3,1.2-0.4,1.8c-0.1,0.6,0.1,1.2-0.1,1.8c-0.1,0.6-0.4,1.1-0.6,1.7c-0.2,0.6-0.5,1.1-0.7,1.7
	c-0.2,0.5-0.3,1.2-0.5,1.8c-0.2,0.5-0.8,0.9-1.1,1.5c-0.3,0.5-0.3,1.2-0.6,1.7c-0.3,0.5-0.6,1-0.9,1.6c-0.3,0.5-0.5,1.1-0.8,1.6
	c-0.3,0.5-0.6,1.1-0.9,1.6c-0.3,0.5-0.5,1.1-0.8,1.6c-0.3,0.5-0.6,1.1-0.9,1.6c-0.3,0.5-0.7,1-1,1.6c-0.3,0.5-0.6,1.1-0.9,1.7
	c-0.3,0.6-0.5,1.2-0.8,1.7c-0.3,0.6-0.7,1.1-0.9,1.7c-0.3,0.6-0.5,1.2-0.8,1.7c-0.3,0.6-0.7,1.1-0.9,1.7c-0.3,0.6-0.2,1.2,0.1,1.7
	c0.3,0.5,0.9,1,1.5,1c0.6,0,1.2-0.1,1.6,0.1c0.5,0.2,0.9,0.7,1.3,1.1c0.4,0.4,0.8,0.7,1.1,1.3c0.3,0.6,0.2,1.2,0.2,1.9
	c0,0.6,0,1.3-0.3,1.8c-0.3,0.6-0.7,1.1-1.2,1.5c-0.5,0.4-1,0.7-1.6,0.9c-0.4,0.1-1,0.2-1.7,0.4c-0.5,0.1-1.1,0.3-1.7,0.4
	c-0.6,0.1-1.2,0.1-1.8,0.1c-0.6,0-1.2,0.1-1.8,0C278.7,80.9,278.1,80.7,277.6,80.5z M111.3,73.1c0.4,0.3,1,0.3,1.4-0.1
	c0.4-0.4,0.8-1,1.2-1.4c0.4-0.4,1.1-0.6,1.5-1.1c0.4-0.4,0.7-1.1,1.1-1.5c0.4-0.4,0.9-0.8,1.4-1.2c0.4-0.4,1-0.7,1.4-1.2
	c0.4-0.4,0.8-0.9,1.2-1.4c0.4-0.4,0.8-0.9,1.3-1.3c0.4-0.4,0.7-1,1.1-1.4c0.4-0.4,0.8-0.9,1.2-1.4c0.4-0.5,1.1-0.7,1.5-1.1
	c0.4-0.5,0.6-1.1,1-1.6c0.4-0.5,1-0.7,1.4-1.2c0.4-0.5,0.8-1,1.1-1.4c0.4-0.5,0.7-1,1.1-1.5c0.4-0.5,0.9-0.8,1.3-1.3
	c0.4-0.5,0.7-1,1-1.5c0.4-0.5,0.7-1.1,1-1.5c0.4-0.5,1-0.8,1.3-1.3c0.4-0.5,0.7-1,1-1.5c0.4-0.5,0.8-1,1.1-1.5
	c0.4-0.6,0.6-1.2,1-1.7c0.4-0.6,0.6-1.2,0.9-1.8c0.3-0.6,0.8-1.1,1.1-1.7c0.3-0.6,0.3-1.4,0.5-1.9c0.3-0.7,0.5-1.3,0.7-1.8
	c0.2-0.6,0.3-1.1,0.1-1.5c-0.2-0.5-0.5-0.9-1-1.2c-0.5-0.3-0.9-0.7-1.5-0.7c-0.5,0-0.9,0.5-1.4,0.8c-0.4,0.4-1,0.7-1.5,1.2
	c-0.4,0.4-0.9,0.8-1.4,1.3c-0.4,0.4-0.7,1-1.2,1.5c-0.4,0.4-1.1,0.7-1.5,1.2c-0.4,0.5-0.6,1.1-1,1.6c-0.4,0.5-0.9,0.9-1.3,1.4
	c-0.4,0.5-0.7,1-1.1,1.5c-0.4,0.5-0.7,1-1.1,1.5c-0.4,0.5-0.7,1.1-1,1.6c-0.4,0.5-0.7,1-1.1,1.6c-0.3,0.5-0.8,1-1.2,1.5
	c-0.3,0.5-0.6,1-1,1.5c-0.3,0.5-0.6,1.1-0.9,1.6c-0.3,0.5-0.7,1-1,1.5c-0.3,0.5-0.6,1.1-0.9,1.6c-0.3,0.5-0.7,1-1,1.5
	c-0.3,0.5-0.7,1-1,1.5c-0.3,0.5-0.8,1-1.1,1.5c-0.3,0.5-0.4,1.2-0.7,1.7c-0.3,0.5-0.8,1-1.1,1.5c-0.3,0.5-0.4,1.1-0.7,1.7
	c-0.3,0.5-0.7,1-1,1.5c-0.3,0.5-0.4,1.1-0.7,1.7c-0.3,0.5-0.6,1.1-0.9,1.6c-0.3,0.5-0.6,1.1-0.9,1.6C110.8,72.3,111,72.8,111.3,73.1
	z M150,80.4c0.4-0.4,0.8-0.9,1.2-1.4c0.4-0.5,1.1-0.7,1.5-1.2c0.4-0.5,0.6-1.1,1.1-1.6c0.4-0.5,0.9-0.9,1.3-1.3
	c0.4-0.5,0.9-0.9,1.3-1.3c0.4-0.5,0.7-1.1,1-1.6c0.4-0.5,1.1-0.8,1.4-1.2c0.4-0.5,0.6-1.2,0.9-1.6c0.4-0.5,0.8-1,1.1-1.5
	c0.4-0.6,0.7-1.1,0.9-1.6c0.4-0.7,0.6-1.3,0.8-1.9c0.3-0.8,0.4-1.4,0.4-2c0.1-0.8-0.6-1.4-1.4-1c-0.4,0.2-1,0.4-1.5,0.8
	c-0.4,0.3-0.9,0.7-1.3,1.1c-0.4,0.4-0.8,0.8-1.2,1.3c-0.4,0.4-0.8,0.8-1.2,1.2c-0.4,0.4-0.7,0.9-1.1,1.4c-0.4,0.4-0.8,0.8-1.2,1.3
	c-0.3,0.4-0.7,0.9-1.1,1.4c-0.3,0.5-0.8,0.9-1.1,1.4c-0.3,0.5-0.4,1.1-0.8,1.6c-0.3,0.5-0.8,0.9-1.1,1.4c-0.3,0.5-0.5,1.1-0.8,1.6
	c-0.3,0.5-0.7,1-1,1.5c-0.3,0.5-0.4,1.1-0.7,1.6c-0.3,0.5-0.6,1.1-0.8,1.6c-0.3,0.6-0.5,1.1-0.8,1.6c-0.4,0.9,0.6,1.5,1.3,0.8
	c0.5-0.4,0.9-0.9,1.3-1.3C149,81.2,149.5,80.8,150,80.4z M342.1,42.6c0.1-0.4,0-0.9,0-1.3c0-0.4-0.1-0.9-0.1-1.3
	c0-0.4-0.2-0.9-0.2-1.3c0-0.4,0-0.9-0.1-1.3c-0.1-0.4-0.1-0.9-0.2-1.3c-0.1-0.4-0.3-0.8-0.5-1.2c-0.2-0.4-0.2-0.9-0.4-1.3
	c-0.2-0.4-0.6-0.7-0.8-1.1c-0.2-0.4-0.5-0.7-0.7-1.1c-0.3-0.4-0.6-0.6-0.9-0.9c-0.3-0.4-0.5-0.9-0.7-1.1c-0.3-0.3-0.6-0.6-1-0.9
	c-0.4-0.3-0.9-0.3-1.2-0.5c-0.4-0.2-0.7-0.5-1.1-0.7c-0.4-0.2-0.8-0.3-1.2-0.4c-0.4-0.1-0.7-0.5-1.2-0.6c-0.4-0.1-0.9-0.1-1.3-0.1
	c-0.4-0.1-0.9,0-1.3,0c-0.4,0-0.9-0.3-1.3-0.3c-0.4,0-0.9,0.2-1.3,0.2c-0.4,0-0.9,0-1.3,0.1c-0.4,0.1-0.8,0.2-1.3,0.3
	c-0.4,0.1-0.9,0.1-1.3,0.2c-0.4,0.1-0.8,0.4-1.2,0.5c-0.4,0.2-0.8,0.3-1.2,0.5c-0.4,0.2-0.7,0.6-1.1,0.8c-0.4,0.2-0.7,0.5-1,0.8
	c-0.3,0.2-0.8,0.3-1.2,0.6c-0.3,0.3-0.6,0.6-0.9,1c-0.3,0.3-0.7,0.5-1,0.9c-0.3,0.3-0.5,0.7-0.8,1.1c-0.3,0.3-0.5,0.7-0.7,1.1
	c-0.2,0.3-0.4,0.8-0.7,1.1c-0.2,0.4-0.4,0.7-0.7,1.1c-0.2,0.4-0.5,0.7-0.7,1.1c-0.2,0.4-0.2,0.8-0.4,1.3c-0.2,0.4-0.2,0.8-0.3,1.3
	c-0.1,0.4-0.4,0.8-0.5,1.2c-0.1,0.4-0.1,0.9-0.2,1.3c-0.1,0.4-0.4,0.8-0.5,1.3c-0.1,0.4,0,0.9,0,1.3c0,0.4-0.3,0.8-0.3,1.3
	c0,0.4,0.2,0.9,0.2,1.3c0,0.4,0,0.9,0,1.3c0,0.4-0.2,0.9-0.2,1.3c0,0.4,0.3,0.9,0.3,1.3c0,0.4,0,0.9,0.1,1.3c0,0.4-0.1,0.9,0,1.3
	c0.1,0.4,0.2,0.9,0.3,1.3c0.1,0.4,0.2,0.8,0.3,1.3c0.1,0.4,0.2,0.9,0.3,1.3c0.1,0.4,0.1,0.9,0.2,1.3c0.1,0.4,0.2,0.8,0.3,1.3
	c0.1,0.4,0.4,0.8,0.6,1.2c0.1,0.4,0.3,0.8,0.5,1.2c0.1,0.4,0.2,0.9,0.3,1.3c0.1,0.4,0.1,0.9,0.3,1.3c0.1,0.4,0.4,0.8,0.6,1.2
	c0.2,0.4,0.1,0.9,0.3,1.3c0.2,0.4,0.4,0.8,0.6,1.2c0.2,0.4,0.4,0.8,0.6,1.2c0.2,0.4,0.3,0.8,0.5,1.2c0.2,0.4,0.4,0.8,0.6,1.2
	c0.2,0.4,0.4,0.8,0.5,1.2c0.1,0.4,0.2,0.8,0.4,1.2c0.1,0.4,0.2,0.8,0.4,1.2c0.1,0.4,0.2,0.9,0.3,1.3c0.1,0.4,0.3,0.8,0.4,1.2
	c0.1,0.4,0.1,0.9,0.2,1.3c0.1,0.4,0.4,0.8,0.4,1.2c0.1,0.4,0,0.9,0.1,1.3c0.1,0.4,0,0.9,0.1,1.3c0.1,0.4,0.3,0.8,0.4,1.3
	c0,0.4,0.1,0.9,0.1,1.3c0,0.4-0.3,0.9-0.3,1.3c0,0.4,0.2,0.9,0.2,1.3c0,0.4-0.2,0.9-0.3,1.3c0,0.4,0,0.9-0.1,1.3
	c-0.1,0.4,0.1,0.9,0.1,1.3c-0.1,0.4-0.4,0.8-0.5,1.2c-0.1,0.4-0.1,0.9-0.2,1.3c-0.1,0.4-0.1,0.9-0.3,1.3c-0.1,0.4-0.5,0.8-0.6,1.2
	c-0.2,0.4-0.2,0.9-0.3,1.3c-0.2,0.4-0.3,0.8-0.6,1.2c-0.2,0.4-0.5,0.7-0.8,1.1c-0.2,0.4-0.4,0.8-0.6,1.1c-0.3,0.4-0.7,0.6-0.9,0.9
	c-0.3,0.3-0.4,0.8-0.7,1.1c-0.3,0.3-0.6,0.6-0.9,0.9c-0.3,0.3-0.7,0.6-1,0.9c-0.3,0.3-0.8,0.4-1.2,0.7c-0.4,0.3-0.5,0.8-0.9,1
	c-0.4,0.2-0.9,0.2-1.3,0.5c-0.4,0.2-0.8,0.4-1.2,0.6c-0.4,0.2-0.8,0.3-1.2,0.5c-0.4,0.2-0.8,0.4-1.2,0.5c-0.4,0.1-0.8,0.3-1.2,0.4
	c-0.4,0.1-0.9,0.2-1.3,0.2c-0.4,0.1-0.8,0.3-1.3,0.3c-0.4,0.1-0.9,0-1.3,0.1c-0.4,0-0.9,0.3-1.3,0.3c-0.4,0-0.9-0.1-1.3-0.1
	c-0.4,0-0.9-0.3-1.3-0.3c-0.4-0.1-0.9-0.1-1.3-0.2c-0.4-0.1-0.9-0.1-1.3-0.2c-0.4-0.1-0.7-0.5-1.1-0.7c-0.4-0.2-0.9-0.1-1.3-0.3
	c-0.4-0.2-0.6-0.7-0.9-1c-0.3-0.3-0.6-0.6-0.9-0.9c-0.3-0.3-0.6-0.6-0.9-0.9c-0.3-0.3-0.7-0.5-1-0.9c-0.2-0.4-0.2-0.9-0.3-1.3
	c-0.2-0.4-0.5-0.7-0.6-1.2c-0.1-0.4-0.4-0.8-0.5-1.2c-0.1-0.4-0.2-0.9-0.3-1.3c-0.1-0.4-0.1-0.9-0.2-1.3c0-0.4-0.1-0.9-0.1-1.3
	c0-0.4,0.2-0.9,0.3-1.3c0-0.4-0.1-0.9-0.1-1.3c0-0.5,0.2-1,0.1-1.4c-0.1-0.5-0.4-0.9-0.6-1.3c-0.2-0.4-0.6-0.7-0.9-1
	c-0.4-0.3-0.6-0.8-1.1-1c-0.4-0.2-0.9-0.2-1.4-0.2c-0.5,0-0.9,0.1-1.4,0.2c-0.5,0.1-0.9,0.3-1.3,0.5c-0.4,0.2-0.9,0.4-1.2,0.8
	c-0.3,0.4-0.4,0.9-0.5,1.3c-0.2,0.4-0.4,0.8-0.4,1.3c0,0.4-0.1,0.9-0.1,1.3c0,0.4-0.2,0.9-0.2,1.3c0,0.4,0.1,0.9,0.1,1.3
	c0,0.4-0.1,0.9-0.1,1.3c0,0.4,0.3,0.9,0.4,1.3c0.1,0.4,0.2,0.9,0.3,1.3c0.1,0.4,0.1,0.9,0.2,1.3c0.1,0.4,0,0.9,0.1,1.3
	c0.1,0.4,0.4,0.8,0.6,1.2c0.1,0.4,0.3,0.8,0.5,1.2c0.2,0.4,0.4,0.8,0.6,1.2c0.2,0.4,0.5,0.7,0.7,1.1c0.2,0.4,0.2,0.9,0.4,1.3
	c0.2,0.4,0.6,0.7,0.9,1c0.3,0.3,0.7,0.5,1,0.9c0.3,0.3,0.4,0.8,0.8,1.1c0.3,0.3,0.7,0.6,1,0.8c0.3,0.3,0.6,0.7,0.9,1
	c0.4,0.3,0.8,0.3,1.2,0.6c0.4,0.2,0.7,0.5,1.1,0.7c0.4,0.2,0.7,0.6,1.1,0.7c0.4,0.2,0.9,0.2,1.3,0.4c0.4,0.2,0.8,0.4,1.2,0.5
	c0.4,0.1,0.8,0.3,1.3,0.4c0.4,0.1,0.9,0.1,1.3,0.1c0.4,0.1,0.9,0.2,1.3,0.3c0.4,0.1,0.9,0.1,1.3,0.1c0.4,0,0.9,0,1.3,0
	c0.4,0,0.9,0.2,1.3,0.2c0.4,0,0.9,0,1.3,0c0.4,0,0.9-0.1,1.3-0.1c0.4,0,0.9,0,1.3,0c0.4-0.1,0.8-0.3,1.3-0.4
	c0.4-0.1,0.8-0.3,1.3-0.4c0.4-0.1,0.9,0.1,1.4,0c0.4-0.1,0.9-0.3,1.3-0.4c0.4-0.1,0.7-0.6,1.1-0.8c0.4-0.2,0.9-0.1,1.3-0.3
	c0.4-0.2,0.9-0.3,1.3-0.5c0.4-0.2,0.7-0.6,1.1-0.8c0.4-0.2,0.7-0.5,1.1-0.7c0.4-0.2,0.7-0.6,1.1-0.8c0.4-0.2,0.9-0.3,1.2-0.6
	c0.4-0.3,0.6-0.7,0.9-1c0.3-0.3,0.8-0.4,1.1-0.7c0.3-0.3,0.7-0.5,1-0.8c0.3-0.3,0.6-0.6,0.9-0.9c0.3-0.3,0.5-0.7,0.8-1
	c0.3-0.3,0.4-0.8,0.7-1.2c0.3-0.3,0.7-0.5,1-0.9c0.2-0.3,0.4-0.8,0.7-1.1c0.2-0.4,0.4-0.8,0.6-1.2c0.2-0.4,0.4-0.7,0.6-1.1
	c0.2-0.4,0.6-0.7,0.8-1.1c0.2-0.4,0.4-0.8,0.5-1.2c0.2-0.4,0.3-0.8,0.4-1.2c0.2-0.4,0.3-0.8,0.4-1.2c0.1-0.4,0.2-0.8,0.3-1.3
	c0.1-0.4,0.5-0.7,0.6-1.2c0.1-0.4-0.1-0.9,0-1.3c0.1-0.4,0.2-0.8,0.3-1.3c0.1-0.4,0.4-0.8,0.4-1.3c0.1-0.4,0-0.9,0-1.3
	c0-0.4,0.2-0.9,0.3-1.3c0-0.4-0.1-0.9-0.1-1.3c0-0.4,0-0.9,0-1.3c0-0.4,0.2-0.9,0.1-1.3c0-0.4-0.3-0.9-0.3-1.3c0-0.4,0-0.9,0-1.3
	c0-0.4,0-0.9-0.1-1.3c-0.1-0.4-0.3-0.8-0.3-1.3c-0.1-0.4,0-0.9-0.1-1.3c-0.1-0.4,0.1-0.9,0-1.3c-0.1-0.4-0.4-0.8-0.5-1.2
	c-0.1-0.4-0.3-0.8-0.4-1.3c-0.1-0.4-0.2-0.8-0.3-1.3c-0.1-0.4-0.1-0.9-0.3-1.3c-0.1-0.4-0.3-0.8-0.4-1.2c-0.1-0.4-0.1-0.9-0.2-1.3
	c-0.1-0.4-0.5-0.8-0.6-1.2c-0.2-0.4-0.3-0.8-0.5-1.2c-0.2-0.4-0.2-0.9-0.4-1.3c-0.2-0.4-0.5-0.7-0.7-1.1c-0.2-0.4-0.2-0.9-0.3-1.3
	c-0.2-0.4-0.5-0.7-0.7-1.1c-0.2-0.4-0.2-0.9-0.3-1.3c-0.2-0.4-0.2-0.8-0.4-1.3c-0.1-0.4-0.3-0.8-0.4-1.2c-0.1-0.4-0.2-0.9-0.3-1.3
	c-0.1-0.4-0.3-0.8-0.4-1.2c-0.1-0.4-0.4-0.8-0.5-1.2c-0.1-0.4-0.3-0.8-0.4-1.2c-0.1-0.4,0.1-0.9,0-1.3c-0.1-0.4-0.2-0.9-0.2-1.3
	c-0.1-0.4-0.1-0.9-0.2-1.3c0-0.4-0.3-0.9-0.3-1.3c0-0.4-0.1-0.9-0.1-1.3c0-0.4,0.1-0.9,0.1-1.3c0-0.4,0-0.9,0-1.3
	c0-0.4,0.1-0.9,0.2-1.3c0.1-0.4,0.1-0.9,0.1-1.3c0.1-0.4,0.3-0.8,0.4-1.2c0.1-0.4,0.3-0.8,0.5-1.2c0.2-0.4,0.1-0.9,0.3-1.3
	c0.2-0.4,0.4-0.8,0.7-1.1c0.2-0.4,0.5-0.7,0.8-1c0.3-0.3,0.5-0.7,0.9-1c0.3-0.3,0.7-0.5,1-0.8c0.3-0.2,0.7-0.5,1-0.7
	c0.4-0.2,0.8-0.3,1.2-0.4c0.4-0.1,0.7-0.4,1.1-0.5c0.4-0.1,0.8,0,1.2,0c0.4,0,0.8,0,1.2,0.1c0.4,0.1,0.8,0.1,1.2,0.3
	c0.4,0.2,0.6,0.6,0.9,0.8c0.3,0.3,0.6,0.6,0.8,0.9c0.2,0.3,0.4,0.7,0.5,1.1c0.1,0.4,0.1,0.8,0.1,1.2c0,0.4,0,0.8,0,1.2
	c0,0.4,0.1,0.8,0,1.3c-0.1,0.4-0.3,0.8-0.4,1.2c-0.1,0.4-0.1,0.8-0.2,1.2c-0.1,0.4-0.2,0.8-0.4,1.2c-0.2,0.4-0.4,0.7-0.6,1.1
	c-0.2,0.4-0.5,0.7-0.7,1c-0.2,0.4-0.4,0.7-0.6,1.1c-0.2,0.4-0.3,0.8-0.4,1.2c-0.1,0.4,0.1,0.8,0.1,1.2c0,0.4-0.1,0.8,0,1.2
	c0.1,0.4,0.2,0.8,0.4,1.2c0.2,0.3,0.5,0.7,0.8,0.9c0.3,0.3,0.8,0.3,1.2,0.5c0.4,0.2,0.8,0.6,1.3,0.6c0.5,0.1,1,0,1.4-0.1
	c0.4-0.1,0.9-0.2,1.4-0.4c0.4-0.2,0.8-0.6,1.1-0.9c0.3-0.3,0.4-0.8,0.7-1.2c0.2-0.4,0.4-0.8,0.6-1.1c0.2-0.4,0.5-0.7,0.7-1.1
	c0.2-0.4,0.5-0.7,0.6-1.1c0.2-0.4,0.5-0.7,0.6-1.1c0.2-0.4,0.3-0.8,0.4-1.2c0.1-0.4,0.1-0.9,0.2-1.3c0.1-0.4,0.4-0.8,0.5-1.2
	c0.1-0.4-0.1-0.9,0-1.3C341.6,43.3,342,43,342.1,42.6z M89.6,140.8c0-0.3-0.3-0.5-0.6-0.4c-0.4,0.1-0.4,0.1-0.9,0.2
	c-0.4,0.1-0.4,0.1-0.9,0.2c-0.4,0.1-0.4,0-0.9,0.1c-0.4,0.1-0.4,0.1-0.9,0.2c-0.4,0.1-0.4,0-0.9,0.1c-0.4,0.1-0.4,0.2-0.8,0.2
	c-0.4,0.1-0.4,0.1-0.9,0.2c-0.4,0.1-0.4,0-0.9,0.1c-0.4,0.1-0.4,0.1-0.9,0.1c-0.4,0.1-0.4,0.1-0.9,0.2c-0.4,0.1-0.4,0.1-0.9,0.2
	c-0.4,0.1-0.5,0-0.9,0.1c-0.4,0.1-0.4,0.2-0.8,0.3c-0.2,0-0.4,0.2-0.4,0.4c0,0.4,0,0.5,0,0.9c0,0.4-0.1,0.4-0.1,0.9
	c0,0.5,0,0.5,0,0.9c0,0.4-0.1,0.4-0.1,0.9c0,0.4-0.1,0.4-0.1,0.9c0,0.4,0.1,0.5,0,0.9c0,0.5-0.1,0.4-0.1,0.9c0,0.5,0,0.4-0.1,0.9
	c0,0.4,0,0.4-0.1,0.9c0,0.5,0,0.5,0,0.9c0,0.5,0,0.5-0.1,0.9c0,0.5,0,0.5-0.1,0.9c0,0.4-0.1,0.4-0.1,0.9c0,0.5,0,0.5-0.1,0.9
	c0,0.5,0,0.5,0,0.9c0,0.5-0.1,0.4-0.1,0.9c0,0.5,0,0.5,0,0.9c0,0.3,0.2,0.5,0.5,0.4c0.5-0.1,0.5-0.1,0.9-0.1
	c0.5-0.1,0.5-0.1,0.9-0.2c0.5-0.1,0.5,0,0.9-0.1c0.2,0,0.4-0.2,0.4-0.4c0-0.5,0-0.5,0-0.9c0-0.5,0.1-0.5,0.1-0.9
	c0-0.5,0-0.5,0.1-0.9c0-0.5,0-0.5,0-0.9c0-0.5,0.1-0.5,0.1-0.9c0-0.5,0-0.5,0-0.9c0-0.2,0.2-0.3,0.4-0.3c0.4-0.1,0.4-0.1,0.9-0.2
	c0.4-0.1,0.4-0.1,0.9-0.2c0.4-0.1,0.5,0,0.9-0.1c0.4-0.1,0.4-0.2,0.9-0.3c0.4-0.1,0.4-0.1,0.9-0.2c0.4-0.1,0.5,0,0.9-0.1
	c0.4-0.1,0.4-0.1,0.9-0.1c0.4-0.1,0.4-0.1,0.9-0.2c0.2,0,0.3-0.2,0.3-0.4c0-0.4,0.1-0.4,0.1-0.8c0-0.4,0-0.4,0-0.8
	c0-0.4,0.1-0.4,0.1-0.8c0-0.3-0.3-0.5-0.6-0.5c-0.4,0.1-0.4,0-0.8,0.1c-0.4,0.1-0.4,0.1-0.8,0.2c-0.4,0.1-0.4,0-0.8,0.1
	c-0.4,0.1-0.4,0.1-0.8,0.1c-0.4,0.1-0.4,0.1-0.8,0.2c-0.4,0.1-0.4,0.1-0.8,0.2c-0.4,0.1-0.4,0-0.8,0.1c-0.4,0.1-0.4,0.2-0.8,0.2
	c-0.3,0.1-0.5-0.2-0.5-0.5c0-0.4,0-0.4,0-0.8c0-0.4,0-0.4,0-0.8c0-0.4,0-0.4,0-0.8c0-0.2,0.2-0.4,0.4-0.4c0.4-0.1,0.4-0.1,0.9-0.2
	c0.4-0.1,0.4,0,0.9-0.1c0.4-0.1,0.4-0.1,0.8-0.2c0.4-0.1,0.4-0.1,0.9-0.1c0.4-0.1,0.4-0.1,0.9-0.2c0.4-0.1,0.4-0.1,0.9-0.2
	c0.4-0.1,0.4-0.1,0.9-0.2c0.4-0.1,0.4-0.1,0.9-0.1c0.4-0.1,0.4-0.1,0.9-0.2c0.2,0,0.3-0.2,0.4-0.4c0-0.4,0.1-0.4,0.1-0.8
	c0-0.4,0-0.4,0-0.8C89.5,141.2,89.6,141.2,89.6,140.8z M115.2,150.7c0.1,0.3,0,0.5-0.3,0.5c-0.4,0.1-0.4,0.1-0.8,0.2
	c-0.4,0.1-0.4,0.1-0.8,0.1c-0.4,0.1-0.4,0.2-0.8,0.3c-0.4,0.1-0.4,0-0.8,0c-0.2,0-0.4,0-0.5-0.3c-0.1-0.5-0.1-0.5-0.3-1
	c-0.1-0.5-0.2-0.5-0.4-0.9c-0.1-0.5-0.1-0.5-0.2-1c-0.1-0.2-0.3-0.3-0.5-0.3c-0.4,0.1-0.4,0.1-0.8,0.2c-0.4,0.1-0.4,0-0.8,0
	c-0.4,0.1-0.4,0.2-0.8,0.2c-0.4,0.1-0.4,0-0.8,0.1c-0.4,0.1-0.4,0.1-0.8,0.2c-0.4,0.1-0.4,0.1-0.8,0.1c-0.1,0-0.3,0.1-0.3,0.3
	c-0.2,0.4-0.2,0.4-0.4,0.7c-0.2,0.4-0.1,0.4-0.3,0.8c-0.2,0.4-0.2,0.4-0.3,0.7c-0.2,0.4-0.1,0.4-0.3,0.8c-0.2,0.4-0.2,0.4-0.4,0.7
	c-0.1,0.1-0.1,0.3-0.3,0.3c-0.5,0.1-0.5,0.1-1,0.2c-0.5,0.1-0.5,0.1-1,0.2c-0.5,0.1-0.5,0-1,0.1c-0.4,0.1-0.7-0.3-0.5-0.6
	c0.2-0.4,0.2-0.4,0.4-0.8c0.2-0.4,0.2-0.4,0.4-0.8c0.2-0.4,0.2-0.4,0.4-0.8c0.2-0.4,0.2-0.4,0.4-0.8c0.2-0.4,0.2-0.4,0.4-0.8
	c0.2-0.4,0.1-0.4,0.3-0.9c0.2-0.4,0.3-0.4,0.4-0.8c0.2-0.4,0.1-0.4,0.3-0.9c0.2-0.4,0.2-0.4,0.4-0.8c0.2-0.4,0.2-0.4,0.4-0.8
	c0.2-0.4,0.2-0.4,0.4-0.8c0.2-0.4,0.2-0.4,0.4-0.8c0.2-0.4,0.1-0.4,0.3-0.8c0.2-0.4,0.3-0.4,0.4-0.8c0.2-0.4,0.1-0.4,0.3-0.9
	c0.2-0.4,0.2-0.4,0.4-0.8c0.2-0.4,0.2-0.4,0.4-0.8c0.2-0.4,0.2-0.4,0.3-0.8c0.2-0.4,0.2-0.4,0.4-0.8c0.2-0.4,0.2-0.4,0.4-0.8
	c0.1-0.1,0.2-0.2,0.3-0.2c0.5-0.1,0.5-0.2,0.9-0.3s0.5,0,1-0.1c0.5-0.1,0.5-0.1,1-0.2c0.2,0,0.4,0.1,0.5,0.3
	c0.1,0.4,0.1,0.4,0.3,0.8c0.2,0.4,0.2,0.4,0.4,0.8c0.1,0.4,0.1,0.4,0.3,0.8c0.1,0.4,0.2,0.4,0.3,0.8c0.1,0.4,0.1,0.4,0.2,0.9
	c0.1,0.4,0.2,0.4,0.4,0.8c0.1,0.4,0.1,0.4,0.2,0.9c0.1,0.4,0.2,0.4,0.3,0.8c0.1,0.4,0.1,0.4,0.3,0.8c0.1,0.4,0.1,0.4,0.3,0.8
	c0.1,0.4,0.1,0.4,0.2,0.8c0.1,0.4,0.2,0.4,0.3,0.8c0.1,0.4,0.2,0.4,0.4,0.8c0.1,0.4,0.1,0.4,0.3,0.8c0.1,0.4,0.2,0.4,0.3,0.8
	c0.1,0.4,0.1,0.4,0.2,0.9C115,150.3,115,150.3,115.2,150.7z M109.2,144.9c-0.2-0.5-0.2-0.5-0.3-1c-0.2-0.5-0.1-0.5-0.2-1
	c-0.1-0.3-0.3-0.6-0.4-0.9c-0.1-0.3-0.1-0.6-0.2-0.9c-0.2,0.3-0.1,0.3-0.3,0.7c-0.1,0.3-0.1,0.4-0.2,0.7c-0.1,0.3-0.1,0.3-0.3,0.7
	c-0.1,0.3-0.2,0.3-0.3,0.7c-0.1,0.3-0.2,0.3-0.3,0.7c-0.1,0.3-0.1,0.4-0.2,0.7c-0.1,0.3,0.1,0.7,0.5,0.6c0.5-0.1,0.5-0.1,1-0.2
	c0.5-0.1,0.5-0.1,1-0.2C109.1,145.4,109.2,145.1,109.2,144.9z M142.1,145.4c0.1,0.3-0.1,0.6-0.4,0.6c-0.4,0.1-0.4,0.2-0.7,0.2
	c-0.4,0.1-0.4,0.1-0.8,0.1c-0.4,0.1-0.4,0.1-0.8,0.1c-0.4,0.1-0.4,0.1-0.8,0.2c-0.2,0-0.4-0.1-0.5-0.2c-0.2-0.4-0.1-0.4-0.3-0.8
	c-0.2-0.4-0.2-0.4-0.4-0.7c-0.2-0.4-0.3-0.3-0.5-0.7c-0.2-0.4-0.1-0.4-0.3-0.8c-0.2-0.4-0.2-0.4-0.4-0.7c-0.2-0.4-0.2-0.4-0.4-0.7
	c-0.2-0.4-0.3-0.3-0.5-0.7c-0.1-0.2-0.3-0.2-0.4-0.2c-0.3,0.1-0.3,0-0.7,0.1c-0.3,0.1-0.3,0.1-0.7,0.2c-0.2,0-0.4,0.2-0.4,0.4
	c0,0.4,0,0.4,0,0.8c0,0.4,0,0.4,0,0.8c0,0.4-0.2,0.4-0.2,0.8c0,0.4,0,0.4,0,0.8c0,0.4-0.1,0.4-0.1,0.8c0,0.4,0,0.4,0,0.8
	c0,0.4-0.1,0.4-0.1,0.8c0,0.2-0.2,0.4-0.4,0.4c-0.5,0.1-0.5,0.1-0.9,0.2c-0.5,0.1-0.5,0.1-0.9,0.2c-0.5,0.1-0.5,0.1-0.9,0.2
	c-0.3,0.1-0.6-0.2-0.6-0.5c0-0.5,0.1-0.5,0.1-0.9c0-0.5,0-0.5,0-0.9c0-0.5,0-0.5,0.1-0.9c0-0.5,0.1-0.5,0.1-0.9
	c0-0.4,0.1-0.4,0.1-0.9c0-0.5,0-0.5,0-0.9c0-0.5,0-0.5,0-0.9c0-0.5,0-0.5,0.1-0.9c0-0.4,0.1-0.4,0.1-0.9c0-0.4,0.1-0.4,0.1-0.9
	c0-0.5,0.1-0.4,0.1-0.9c0-0.4,0-0.5,0-0.9c0-0.4,0.1-0.4,0.1-0.9c0-0.4-0.1-0.5,0-0.9c0-0.5,0.1-0.4,0.2-0.9s-0.1-0.5,0-0.9
	s0.1-0.4,0.1-0.9c0-0.2,0.1-0.3,0.3-0.4c0.4-0.1,0.4-0.1,0.8-0.2c0.4-0.1,0.4-0.1,0.8-0.1c0.4-0.1,0.4-0.1,0.8-0.2
	c0.4-0.1,0.4-0.1,0.8-0.2c0.4-0.1,0.4-0.1,0.8-0.2c0.4-0.1,0.4,0,0.8-0.1c0.4-0.1,0.4-0.2,0.8-0.2c0.4-0.1,0.4-0.1,0.8-0.1
	c0.3-0.1,0.6-0.2,0.9-0.2c0.3,0,0.6,0,0.9,0c0.3,0,0.6,0,0.9,0c0.3,0,0.6,0.1,0.9,0.2c0.3,0.1,0.5,0.3,0.8,0.5
	c0.3,0.2,0.5,0.3,0.7,0.6c0.2,0.2,0.3,0.5,0.4,0.8c0.1,0.3,0.1,0.6,0.2,0.9c0,0.3,0,0.6,0,0.9c0,0.3-0.1,0.6-0.1,0.9
	c-0.1,0.3-0.1,0.6-0.3,0.9c-0.1,0.3-0.2,0.6-0.4,0.8c-0.2,0.3-0.4,0.5-0.6,0.7c-0.2,0.2-0.4,0.5-0.6,0.7c-0.2,0.2-0.5,0.4-0.7,0.6
	c-0.2,0.2-0.5,0.3-0.8,0.5c-0.2,0.1-0.3,0.4-0.2,0.6c0.2,0.4,0.2,0.4,0.4,0.7c0.2,0.4,0.3,0.3,0.5,0.7c0.2,0.4,0.2,0.4,0.4,0.7
	c0.2,0.4,0.2,0.4,0.4,0.7c0.2,0.4,0.2,0.4,0.3,0.7c0.2,0.4,0.2,0.4,0.4,0.7C141.8,145.1,141.9,145.1,142.1,145.4z M139.3,135.4
	c0-0.4,0.1-0.7-0.1-1c-0.1-0.3-0.4-0.4-0.8-0.5c-0.3-0.1-0.6,0-1,0c-0.4,0.1-0.4,0-0.8,0.1c-0.4,0.1-0.4,0.2-0.8,0.2
	c-0.4,0.1-0.4,0-0.8,0.1c-0.4,0.1-0.4,0.1-0.8,0.2c-0.2,0-0.4,0.2-0.4,0.4c0,0.5,0,0.5-0.1,0.9c0,0.5,0,0.5,0,0.9
	c0,0.5,0,0.5-0.1,0.9c0,0.3,0.2,0.5,0.5,0.5c0.4-0.1,0.4-0.1,0.8-0.2c0.4-0.1,0.4-0.1,0.8-0.1c0.4-0.1,0.4,0,0.8-0.1
	c0.4-0.1,0.4-0.1,0.8-0.1c0.3-0.1,0.6-0.1,0.8-0.2c0.3-0.1,0.5-0.4,0.7-0.5c0.2-0.2,0.4-0.4,0.5-0.7
	C139.2,136,139.3,135.7,139.3,135.4z M173.7,136.2c0-0.4,0-0.4,0.1-0.9c0-0.4,0-0.5,0-0.9c0-0.5,0.1-0.4,0.1-0.9
	c0-0.4,0-0.4,0.1-0.9c0-0.5,0-0.5,0-0.9c0-0.5,0-0.5,0.1-0.9c0-0.5,0.1-0.4,0.1-0.9c0-0.5,0-0.5,0.1-0.9c0-0.4,0.1-0.4,0.1-0.9
	c0-0.5,0.1-0.4,0.1-0.9c0-0.5-0.1-0.5,0-0.9c0-0.5,0.1-0.4,0.2-0.9c0-0.5-0.1-0.5,0-0.9c0-0.3-0.2-0.5-0.5-0.4
	c-0.4,0.1-0.4,0.1-0.8,0.2c-0.4,0.1-0.4,0-0.8,0.1c-0.4,0.1-0.4,0.1-0.8,0.1c-0.4,0.1-0.4,0.1-0.8,0.1c-0.1,0-0.3,0.1-0.3,0.3
	c-0.2,0.4-0.1,0.4-0.3,0.8c-0.2,0.4-0.2,0.4-0.4,0.8c-0.2,0.4-0.1,0.4-0.3,0.8c-0.2,0.4-0.2,0.4-0.4,0.8c-0.2,0.4-0.2,0.4-0.4,0.8
	c-0.2,0.4-0.1,0.5-0.3,0.9c-0.2,0.4-0.2,0.4-0.4,0.8c-0.2,0.4-0.2,0.4-0.4,0.8c-0.2,0.4-0.2,0.4-0.4,0.8c-0.2,0.4-0.2,0.4-0.4,0.8
	c-0.2,0.4-0.2,0.4-0.3,0.8c-0.2,0.4-0.2,0.4-0.4,0.8c-0.2,0.4-0.1,0.5-0.3,0.9c-0.2,0.4-0.3,0.4-0.4,0.8c-0.2,0.4-0.7,0.4-0.8,0
	c-0.2-0.4-0.2-0.4-0.3-0.9c-0.2-0.4-0.1-0.4-0.3-0.9c-0.2-0.4-0.1-0.4-0.3-0.9c-0.2-0.4-0.2-0.4-0.3-0.9c-0.2-0.4-0.1-0.5-0.2-0.9
	c-0.2-0.4-0.2-0.4-0.3-0.9c-0.1-0.4-0.2-0.4-0.4-0.8c-0.2-0.4-0.2-0.4-0.3-0.9c-0.2-0.4-0.1-0.4-0.3-0.9c-0.2-0.4-0.2-0.4-0.3-0.9
	c-0.2-0.4-0.1-0.4-0.3-0.9c-0.1-0.2-0.3-0.3-0.5-0.3c-0.4,0.1-0.4,0.1-0.8,0.2c-0.4,0.1-0.4,0-0.8,0.1c-0.4,0.1-0.4,0.1-0.8,0.2
	c-0.4,0.1-0.4,0.1-0.8,0.1c-0.2,0-0.3,0.2-0.3,0.4c0,0.4-0.1,0.4-0.2,0.9s0,0.5-0.1,0.9s0,0.5-0.1,0.9c0,0.4,0,0.5,0,0.9
	c0,0.4-0.1,0.4-0.1,0.9c0,0.4,0,0.5,0,0.9c0,0.5-0.1,0.4-0.1,0.9c0,0.4,0,0.5,0,0.9c0,0.4-0.1,0.4-0.1,0.9c0,0.5-0.1,0.4-0.1,0.9
	c0,0.5,0,0.5,0,0.9c0,0.5,0,0.5,0,0.9c0,0.4-0.1,0.4-0.1,0.9c0,0.5,0,0.5-0.1,0.9c0,0.5,0,0.5-0.1,0.9c0,0.5-0.1,0.4-0.1,0.9
	c0,0.5,0,0.5,0,0.9c0,0.3,0.2,0.6,0.5,0.5c0.4-0.1,0.4-0.2,0.9-0.3c0.4-0.1,0.5,0,0.9-0.1s0.4-0.1,0.9-0.2c0.2,0,0.4-0.2,0.4-0.4
	c0-0.4,0-0.4,0.1-0.9s0-0.4,0.1-0.9c0-0.4,0-0.4,0-0.9c0-0.4,0.1-0.4,0.1-0.8c0-0.4,0-0.4,0.1-0.9c0-0.4,0-0.4,0.1-0.9
	c0-0.4-0.1-0.4,0-0.9c0-0.4,0.1-0.4,0.2-0.8c0-0.4,0-0.4,0-0.9c0-0.4-0.4-0.7,0-0.9c0.4-0.1,0.1,0.4,0.2,0.8
	c0.1,0.4,0.1,0.4,0.2,0.7c0.1,0.4,0.1,0.4,0.2,0.7c0,0,0,0,0,0c0.1,0.4,0.2,0.4,0.3,0.8c0.1,0.4,0.1,0.4,0.2,0.8
	c0.1,0.4,0.1,0.4,0.3,0.8c0.1,0.4,0.2,0.4,0.3,0.8c0.1,0.4,0.1,0.4,0.2,0.8c0.1,0.4,0.2,0.4,0.4,0.8c0.1,0.4,0.2,0.4,0.3,0.8
	c0.1,0.2,0.2,0.3,0.5,0.3c0.5-0.1,0.5-0.1,0.9-0.2c0.5-0.1,0.5,0,0.9-0.1c0.5-0.1,0.5,0,0.9-0.1c0.1,0,0.2-0.2,0.3-0.3
	c0.2-0.4,0.2-0.4,0.4-0.8c0.2-0.4,0.2-0.4,0.4-0.8c0.2-0.4,0.2-0.4,0.4-0.9c0.2-0.4,0.3-0.4,0.5-0.8c0.2-0.4,0.1-0.5,0.3-0.9
	c0.2-0.4,0.2-0.4,0.4-0.8c0.2-0.4,0.2-0.4,0.4-0.8c0.2-0.4,0.2-0.4,0.4-0.8c0,0,0.1,0,0.1,0c0.2-0.4,0.1-0.5,0.2-0.9
	c0.2-0.4,0.2-0.4,0.4-0.8c0.2-0.4-0.2-1,0.3-0.9c0.4,0.1,0,0.5,0,0.9c0,0.5-0.1,0.5-0.1,0.9c0,0.5-0.1,0.5-0.1,0.9
	c0,0.5-0.1,0.5-0.1,0.9c0,0.5,0,0.5,0,0.9c0,0.5,0,0.5-0.1,0.9c0,0.5,0,0.5-0.1,0.9c0,0.5,0,0.5,0,0.9c0,0.5,0,0.5-0.1,0.9
	c0,0.3,0.2,0.5,0.5,0.5c0.4-0.1,0.4-0.1,0.9-0.2c0.4-0.1,0.5,0,0.9-0.1s0.4-0.2,0.9-0.3c0.2,0,0.4-0.2,0.4-0.4c0-0.4,0-0.5,0.1-0.9
	s0-0.5,0-0.9c0-0.5,0.1-0.4,0.1-0.9C173.7,136.6,173.7,136.6,173.7,136.2z M199.5,133.6c0-0.4,0-0.4,0.1-0.8c0-0.3-0.2-0.6-0.5-0.5
	c-0.4,0.1-0.4,0.1-0.9,0.2c-0.4,0.1-0.4,0.2-0.8,0.3c-0.4,0.1-0.4,0-0.9,0.1c-0.4,0.1-0.4,0.2-0.8,0.2c-0.4,0.1-0.4,0-0.9,0.1
	c-0.4,0.1-0.4,0.1-0.9,0.2c-0.4,0.1-0.4,0.1-0.9,0.2c-0.4,0.1-0.4,0.1-0.9,0.2c-0.3,0.1-0.6-0.1-0.6-0.4c0-0.4,0.1-0.4,0.2-0.8
	c0-0.4,0-0.4,0.1-0.9s0-0.4,0-0.9c0-0.2,0.2-0.3,0.4-0.4c0.4-0.1,0.4-0.2,0.8-0.2c0.4-0.1,0.4,0,0.8-0.1c0.4-0.1,0.4-0.1,0.8-0.2
	c0.4-0.1,0.4,0,0.8-0.1c0.4-0.1,0.4-0.2,0.8-0.2c0.4-0.1,0.4,0,0.8-0.1c0.4-0.1,0.4-0.1,0.8-0.1c0.4-0.1,0.4-0.1,0.8-0.2
	c0.2,0,0.3-0.2,0.4-0.4c0-0.4,0.1-0.4,0.1-0.8c0-0.4,0-0.4,0-0.8s0-0.4,0-0.8c0-0.3-0.2-0.5-0.5-0.5c-0.4,0.1-0.4,0.1-0.9,0.2
	c-0.4,0.1-0.4,0-0.9,0.1c-0.4,0.1-0.4,0.1-0.9,0.2c-0.4,0.1-0.4,0-0.9,0.1c-0.4,0.1-0.4,0.1-0.9,0.2c-0.4,0.1-0.5,0-0.9,0.1
	c-0.4,0.1-0.4,0.1-0.9,0.2c-0.3,0.1-0.5-0.2-0.5-0.5c0-0.5,0.1-0.5,0.1-1c0-0.5,0-0.5,0.1-1c0-0.2,0.1-0.3,0.3-0.4
	c0.5-0.1,0.5-0.1,0.9-0.2c0.5-0.1,0.5-0.1,0.9-0.2c0.5-0.1,0.5-0.1,0.9-0.2c0.5-0.1,0.5-0.1,0.9-0.2c0.5-0.1,0.5-0.1,0.9-0.1
	c0.5-0.1,0.4-0.2,0.9-0.3c0.5-0.1,0.5-0.1,0.9-0.1c0.5-0.1,0.5,0,0.9-0.1c0.2,0,0.4-0.2,0.4-0.4c0-0.4-0.1-0.4,0-0.8
	c0-0.4,0.1-0.4,0.1-0.8c0-0.4,0-0.4,0-0.8c0-0.3-0.2-0.5-0.5-0.4c-0.4,0.1-0.5,0-0.9,0.1c-0.4,0.1-0.4,0.1-0.9,0.2
	c-0.4,0.1-0.4,0.1-0.9,0.2c-0.4,0.1-0.5,0-0.9,0.1c-0.4,0.1-0.4,0.2-0.9,0.3c-0.4,0.1-0.5,0-0.9,0.1c-0.4,0.1-0.4,0.1-0.9,0.2
	c-0.4,0.1-0.5,0.1-0.9,0.1c-0.4,0.1-0.4,0.2-0.9,0.3c-0.5,0.1-0.5,0.1-0.9,0.2c-0.5,0.1-0.5,0.1-0.9,0.2c-0.5,0.1-0.5,0-0.9,0.1
	c-0.2,0-0.4,0.2-0.4,0.4c0,0.4,0,0.5,0,0.9s0,0.5,0,0.9c0,0.5-0.1,0.4-0.1,0.9c0,0.4-0.1,0.4-0.1,0.9c0,0.4,0,0.5,0,0.9
	s-0.1,0.4-0.1,0.9c0,0.5,0,0.4-0.1,0.9c0,0.4,0,0.5,0,0.9c0,0.4,0,0.5-0.1,0.9c0,0.5-0.1,0.4-0.1,0.9c0,0.5,0.1,0.5,0,0.9
	c0,0.5-0.1,0.4-0.1,0.9c0,0.4,0,0.5,0,0.9c0,0.5,0,0.5-0.1,0.9c0,0.5-0.1,0.4-0.1,0.9c0,0.5-0.1,0.5-0.1,0.9c0,0.5-0.1,0.5-0.1,0.9
	c0,0.3,0.3,0.6,0.6,0.5c0.4-0.1,0.4-0.1,0.8-0.2c0.4-0.1,0.4,0,0.8-0.1c0.4-0.1,0.4-0.1,0.8-0.2c0.4-0.1,0.4-0.1,0.8-0.2
	c0.4-0.1,0.4,0,0.8-0.1c0.4-0.1,0.4-0.2,0.8-0.3c0.4-0.1,0.4-0.1,0.8-0.2c0.4-0.1,0.4-0.1,0.8-0.2c0.4-0.1,0.4-0.1,0.8-0.2
	c0.4-0.1,0.4,0,0.8-0.1c0.4-0.1,0.4-0.1,0.8-0.2c0.4-0.1,0.4,0,0.9-0.1c0.4-0.1,0.4-0.2,0.8-0.3c0.2,0,0.4-0.2,0.4-0.4
	c0-0.4,0-0.4,0-0.8C199.5,134,199.5,134,199.5,133.6z M226.2,129.7c0.1,0.3,0,0.7-0.3,0.7c-0.4,0.1-0.4,0.1-0.8,0.1
	c-0.4,0.1-0.4,0-0.8,0c-0.4,0.1-0.4,0.2-0.7,0.3c-0.4,0.1-0.4,0.1-0.8,0.1c-0.2,0-0.4-0.1-0.5-0.3c-0.2-0.4-0.2-0.4-0.4-0.7
	c-0.2-0.4-0.1-0.4-0.3-0.8c-0.2-0.4-0.3-0.3-0.5-0.7c-0.2-0.4-0.1-0.4-0.3-0.8c-0.2-0.4-0.3-0.3-0.5-0.7c-0.2-0.4-0.2-0.4-0.4-0.7
	c-0.2-0.4-0.1-0.4-0.3-0.8c-0.1-0.2-0.3-0.3-0.5-0.3c-0.3,0.1-0.3,0.2-0.6,0.2c-0.3,0.1-0.3,0-0.7,0.1c-0.2,0-0.3,0.2-0.3,0.4
	c0,0.4,0,0.4-0.1,0.8c0,0.4,0,0.4-0.1,0.8c0,0.4-0.1,0.4-0.1,0.8c0,0.4-0.1,0.4-0.1,0.8c0,0.4,0.1,0.4,0,0.8c0,0.4-0.1,0.4-0.1,0.8
	c0,0.4-0.1,0.4-0.1,0.8c0,0.2-0.1,0.4-0.3,0.4c-0.5,0.1-0.5,0.1-0.9,0.1c-0.5,0.1-0.5,0.1-0.9,0.2c-0.5,0.1-0.5,0.1-0.9,0.2
	c-0.3,0.1-0.5-0.1-0.5-0.4c0-0.5-0.1-0.5,0-0.9c0-0.5,0.2-0.4,0.2-0.9c0-0.5-0.1-0.5,0-0.9c0-0.5,0.1-0.5,0.1-0.9
	c0-0.4,0-0.4,0.1-0.9c0-0.5,0-0.5,0.1-0.9c0-0.5,0-0.5,0-0.9c0-0.5,0-0.5,0.1-0.9c0-0.4,0-0.5,0.1-0.9c0-0.5,0.1-0.4,0.1-0.9
	c0-0.5,0-0.5,0.1-0.9c0-0.4,0.1-0.4,0.1-0.9c0-0.4,0-0.5,0-0.9c0-0.4,0.1-0.4,0.1-0.9c0-0.5,0-0.5,0.1-0.9c0-0.5,0-0.5,0-0.9
	s0.1-0.4,0.1-0.9c0-0.2,0.2-0.4,0.4-0.5c0.4-0.1,0.4-0.1,0.8-0.1c0.4-0.1,0.4-0.1,0.8-0.2c0.4-0.1,0.4,0,0.8-0.1
	c0.4-0.1,0.4-0.1,0.8-0.2c0.4-0.1,0.4,0,0.8-0.1c0.4-0.1,0.4-0.1,0.8-0.2c0.4-0.1,0.4-0.2,0.8-0.2c0.4-0.1,0.4,0,0.8-0.1
	c0.3-0.1,0.6-0.1,0.9-0.1c0.3,0,0.6,0,0.9,0c0.3,0,0.6-0.1,0.9,0c0.3,0,0.6,0.1,0.9,0.2c0.3,0.1,0.6,0.2,0.8,0.4
	c0.3,0.2,0.4,0.4,0.6,0.7c0.2,0.2,0.3,0.5,0.4,0.8c0.1,0.3,0.2,0.6,0.2,0.9c0,0.3,0,0.6,0,0.9c0,0.3,0,0.6-0.1,0.9
	c-0.1,0.3-0.2,0.6-0.3,0.9c-0.1,0.3-0.2,0.6-0.4,0.8c-0.2,0.3-0.4,0.5-0.6,0.7c-0.2,0.2-0.4,0.5-0.6,0.7c-0.2,0.2-0.5,0.3-0.8,0.5
	c-0.2,0.2-0.5,0.4-0.7,0.6c-0.2,0.1-0.2,0.4-0.1,0.6c0.2,0.4,0.1,0.4,0.3,0.8c0.2,0.4,0.3,0.3,0.5,0.7c0.2,0.4,0.2,0.4,0.4,0.7
	c0.2,0.4,0.2,0.3,0.4,0.7c0.2,0.4,0.1,0.4,0.3,0.8c0.2,0.4,0.3,0.3,0.5,0.7C226.1,129.3,226,129.3,226.2,129.7z M223.5,119.6
	c0-0.4,0-0.7-0.1-1c-0.1-0.3-0.4-0.4-0.8-0.5c-0.3-0.1-0.6,0-1,0c-0.4,0.1-0.4,0.1-0.8,0.2c-0.4,0.1-0.4,0-0.8,0.1
	c-0.4,0.1-0.4,0.1-0.8,0.2c-0.4,0.1-0.4,0.1-0.8,0.2c-0.2,0-0.4,0.2-0.4,0.4c0,0.5,0,0.5,0,0.9c0,0.5,0,0.5-0.1,0.9
	c0,0.5,0,0.5,0,0.9c0,0.3,0.2,0.6,0.5,0.5c0.4-0.1,0.4-0.1,0.8-0.2c0.4-0.1,0.4,0,0.8-0.1c0.4-0.1,0.4-0.1,0.8-0.2
	c0.4-0.1,0.4-0.1,0.8-0.2c0.3-0.1,0.6-0.1,0.8-0.2c0.3-0.1,0.5-0.3,0.6-0.5c0.2-0.2,0.4-0.4,0.5-0.7
	C223.4,120.2,223.5,119.9,223.5,119.6z M253.3,119.6c0-0.3-0.1-0.6-0.2-0.9c-0.1-0.3-0.2-0.6-0.4-0.8c-0.2-0.2-0.5-0.4-0.7-0.5
	c-0.2-0.2-0.5-0.3-0.8-0.4c-0.3-0.1-0.5-0.2-0.9-0.3c-0.3-0.1-0.6-0.1-0.9-0.1c-0.3,0-0.6-0.1-0.9-0.1c-0.3,0-0.6,0.1-0.9,0.1
	c-0.3,0-0.6-0.1-0.8-0.2c-0.3,0-0.6-0.1-0.8-0.2c-0.3-0.1-0.6-0.2-0.8-0.3c-0.2-0.2-0.3-0.4-0.3-0.7c0-0.3,0.1-0.6,0.3-0.8
	c0.2-0.2,0.4-0.4,0.6-0.6c0.2-0.2,0.5-0.2,0.8-0.3c0.3-0.1,0.5-0.3,0.8-0.3c0.3-0.1,0.7-0.1,1-0.1c0.3,0,0.6,0.2,0.9,0.3
	c0.3,0.1,0.6,0.3,0.8,0.5c0.2,0.2,0.3,0.5,0.5,0.9c0.1,0.3,0.4,0.4,0.7,0.2c0.4-0.3,0.3-0.3,0.7-0.6c0.4-0.3,0.4-0.3,0.7-0.5
	c0.4-0.3,0.3-0.3,0.7-0.6c0.2-0.1,0.2-0.3,0.1-0.5c-0.1-0.3-0.1-0.6-0.3-0.8c-0.2-0.3-0.4-0.4-0.6-0.7c-0.2-0.2-0.4-0.4-0.6-0.6
	c-0.2-0.2-0.5-0.4-0.7-0.5c-0.3-0.1-0.6-0.2-0.9-0.2c-0.3-0.1-0.6,0-0.9,0c-0.3,0-0.6-0.1-0.9-0.1c-0.3,0-0.6,0.1-0.9,0.1
	c-0.3,0.1-0.6,0.1-1,0.2c-0.3,0.1-0.6,0.3-0.9,0.4c-0.3,0.1-0.6,0.3-0.9,0.4c-0.3,0.2-0.6,0.3-0.8,0.5c-0.3,0.2-0.5,0.4-0.7,0.7
	c-0.2,0.2-0.5,0.3-0.6,0.6c-0.2,0.2-0.3,0.5-0.5,0.7c-0.1,0.2-0.3,0.5-0.4,0.7c-0.1,0.3-0.2,0.5-0.2,0.8c-0.1,0.3-0.1,0.5-0.1,0.8
	c0,0.3,0,0.6,0,0.9c0,0.3,0,0.6,0.1,0.9c0.1,0.3,0.3,0.5,0.5,0.7c0.2,0.2,0.4,0.5,0.6,0.6c0.2,0.2,0.5,0.2,0.8,0.3
	c0.3,0.1,0.5,0.2,0.8,0.3c0.3,0.1,0.6,0.2,0.9,0.2c0.3,0,0.6,0,0.9,0c0.3,0,0.6,0,0.9,0c0.3,0,0.6,0.1,0.9,0.1
	c0.3,0.1,0.6,0.2,0.8,0.3c0.3,0.1,0.5,0.3,0.6,0.5c0.1,0.2,0.2,0.5,0.2,0.8c0,0.3-0.1,0.6-0.2,0.8c-0.2,0.2-0.4,0.4-0.6,0.6
	c-0.2,0.2-0.5,0.3-0.8,0.4c-0.3,0.1-0.5,0.2-0.8,0.2c-0.3,0.1-0.6,0.1-0.9,0.1c-0.3,0-0.6-0.1-0.9-0.2c-0.3-0.1-0.6-0.2-0.8-0.4
	c-0.2-0.2-0.4-0.5-0.6-0.8c-0.1-0.3-0.1-0.6-0.2-0.9c-0.1-0.3-0.5-0.4-0.7-0.2c-0.4,0.3-0.4,0.3-0.8,0.6c-0.4,0.3-0.4,0.2-0.9,0.5
	c-0.4,0.3-0.4,0.3-0.8,0.6c-0.2,0.1-0.3,0.3-0.2,0.5c0.1,0.3,0.1,0.6,0.2,0.8c0.1,0.3,0.3,0.5,0.4,0.7c0.1,0.3,0.3,0.5,0.5,0.7
	c0.2,0.2,0.4,0.4,0.6,0.6c0.2,0.2,0.5,0.3,0.7,0.4c0.2,0.1,0.5,0.3,0.8,0.4c0.3,0.1,0.5,0.1,0.8,0.1c0.3,0,0.5,0,0.8,0
	c0.3,0,0.6,0.1,0.9,0c0.3,0,0.5-0.1,0.8-0.2c0.3-0.1,0.6,0,0.9-0.1c0.3-0.1,0.6-0.2,0.8-0.3c0.3-0.1,0.5-0.2,0.8-0.3
	c0.3-0.1,0.5-0.3,0.7-0.5c0.2-0.2,0.5-0.3,0.7-0.5c0.2-0.2,0.4-0.4,0.6-0.6c0.2-0.2,0.4-0.5,0.6-0.7c0.2-0.2,0.4-0.4,0.6-0.7
	c0.2-0.3,0.3-0.5,0.4-0.8c0.1-0.3,0.2-0.6,0.3-0.9c0.1-0.3,0.1-0.6,0.1-0.9C253.3,120.2,253.3,119.9,253.3,119.6z"/>
</svg>
