<?xml version="1.0" encoding="utf-8"?>
<!-- Generator: Adobe Illustrator 18.0.0, SVG Export Plug-In . SVG Version: 6.00 Build 0)  -->
<!DOCTYPE svg PUBLIC "-//W3C//DTD SVG 1.1//EN" "http://www.w3.org/Graphics/SVG/1.1/DTD/svg11.dtd">
<svg version="1.1" id="Blue" xmlns="http://www.w3.org/2000/svg" xmlns:xlink="http://www.w3.org/1999/xlink" x="0px" y="0px"
	 viewBox="0 0 200 160" enable-background="new 0 0 200 160" xml:space="preserve">
<g>
	<rect x="27" y="59.3" fill="#231F20" width="31.3" height="100.7"/>
	<path fill="#231F20" d="M109.2,110.2c0-13.1,2.5-25.9,18.8-25.9c16.1,0,16.3,15,16.3,26.7v49h31.3v-55.2c0-27.1-5.8-48-37.5-48
		c-15.2,0-25.4,8.3-29.6,16.3h-0.4V59.3h-30V160h31.3V110.2z"/>
	<path fill="#231F20" d="M42.7,45.6c10,0,18.1-8.1,18.1-18.1S52.7,9.3,42.7,9.3c-10,0-18.2,8.1-18.2,18.1S32.6,45.6,42.7,45.6z"/>
</g>
</svg>
