<?xml version="1.0" encoding="utf-8"?>
<!-- Generator: Adobe Illustrator 18.0.0, SVG Export Plug-In . SVG Version: 6.00 Build 0)  -->
<!DOCTYPE svg PUBLIC "-//W3C//DTD SVG 1.1//EN" "http://www.w3.org/Graphics/SVG/1.1/DTD/svg11.dtd">
<svg version="1.1" id="Blue" xmlns="http://www.w3.org/2000/svg" xmlns:xlink="http://www.w3.org/1999/xlink" x="0px" y="0px"
	 viewBox="0 0 200 160" enable-background="new 0 0 200 160" xml:space="preserve">
<g>
	<path fill="#DC4E41" d="M0.1,92.8C0.6,60,30.7,31.3,63.5,32.4c15.7-0.7,30.4,6.1,42.5,15.7c-5.1,5.8-10.4,11.4-16.1,16.7
		c-14.4-10-35-12.8-49.5-1.3c-20.7,14.3-21.6,48.1-1.7,63.4c19.3,17.5,55.9,8.8,61.2-18c-12.1-0.2-24.3,0-36.4-0.4
		c0-7.2-0.1-14.4,0-21.7c20.2-0.1,40.5-0.1,60.8,0.1c1.2,17-1,35.1-11.5,49.1c-15.8,22.3-47.6,28.7-72.3,19.2
		C15.6,145.8-2,119.5,0.1,92.8z"/>
	<path fill="#DC4E41" d="M163.8,68.6c6,0,12,0,18.1,0c0,6,0.1,12.1,0.1,18.2c6,0.1,12.1,0.1,18.2,0.1c0,6,0,12.1,0,18.1
		c-6,0.1-12.1,0.1-18.2,0.2c-0.1,6.1-0.1,12.1-0.1,18.2c-6,0-12.1,0-18.1,0c-0.1-6-0.1-12.1-0.1-18.1c-6-0.1-12.1-0.1-18.2-0.2
		c0-6,0-12,0-18.1c6-0.1,12.1-0.1,18.2-0.1C163.6,80.7,163.7,74.6,163.8,68.6z"/>
</g>
</svg>
