<svg version="1.1" id="Layer_7" xmlns="http://www.w3.org/2000/svg" x="0" y="0" viewBox="0 0 230 220" xml:space="preserve"><style>.st0{fill:#67ae43}</style><path class="st0" d="M94.3 29.9c.3.5.4 1 .4 1.5s-.1 1-.4 1.5c-.3.4-.6.8-1 1.1-.3.2-.6.3-.9.3-.3.1-.7.1-1.2 0l1.8 3.1-3.3 1.9-4.4-7.5 4.6-2.7c.3-.2.5-.3.8-.4s.5-.2.8-.2h.8c.3 0 .5.1.8.3.5.2.9.6 1.2 1.1zM90.6 33c.1 0 .2-.1.3-.1l.3-.3c.1-.1.1-.2.2-.3v-.4c0-.1-.1-.3-.1-.4-.2-.3-.3-.4-.6-.5s-.4 0-.7.1l-.4.2 1 1.7zm11.4-8.9l.7 2.1-3.2 1.1.3 1 2.2-.7.7 2.1-2.2.7.3 1 3.2-1.1.7 2.1-6.7 2.2-2.8-8.2 6.8-2.3zm11.9 1.2c.1.5 0 1-.2 1.5s-.5.9-.9 1.2c-.4.3-.9.5-1.4.6-.3 0-.7 0-1-.1-.3-.1-.7-.2-1.1-.5l.4 3.6-3.7.4-1-8.6 5.3-.6h.9c.3 0 .6.1.8.2.3.1.5.2.7.3.2.1.4.3.6.5.3.4.6.9.6 1.5zm-4.7 1.4h.3c.1 0 .3-.1.4-.1.1-.1.2-.1.3-.2.1-.1.1-.2.2-.3v-.4c0-.3-.1-.5-.3-.7-.2-.1-.4-.2-.7-.2h-.4l.2 1.9zm15.4-.5c-.1.5-.2 1-.5 1.4-.3.4-.7.7-1.2 1-.5.2-1 .3-1.5.2-.3 0-.7-.1-.9-.3-.3-.2-.6-.4-.9-.7l-.4 3.6-3.8-.4.9-8.7 5.3.5c.3 0 .6.1.9.2.3.1.5.2.8.3.2.1.4.3.6.5s.3.4.5.7c.1.6.2 1.2.2 1.7zm-4.9.4c.1 0 .2.1.3.1h.4c.1 0 .2-.1.3-.2.1-.1.2-.2.2-.3.1-.1.1-.3.1-.4 0-.3 0-.5-.2-.7s-.3-.3-.6-.3h-.4l-.1 1.8zm14.5-.5l-.7 2.1-3.2-1-.3 1 2.2.7-.7 2.1-2.2-.7-.3 1 3.2 1-.7 2.1-6.8-2.1 2.6-8.3 6.9 2.1zm7.8 4.1c.5.3.9.7 1.2 1.1.3.4.5.9.5 1.4 0 .5-.1.9-.3 1.3-.2.3-.5.6-.8.8s-.7.3-1.1.4c.1.7.2 1.4 0 2.2-.1.7-.3 1.5-.7 2.3l-3.4-2c.5-1 .8-1.8.8-2.4 0-.6-.2-1-.6-1.2l-1.6 2.8-3.3-1.9 4.4-7.5 4.9 2.7zm-3.4 2c.4.2.7.3.9.3.2 0 .4-.2.5-.4.1-.2.2-.4.1-.7s-.2-.4-.5-.5l-.2-.1-.8 1.4zm-65-9.7c.5-.4 1-.7 1.6-1 .6-.3 1.1-.5 1.6-.5l.8 3.4c-.2.1-.5.2-.7.3s-.4.3-.7.5c-.3.3-.5.5-.6.7-.1.2-.1.4.1.6.1.2.3.2.6.2s.5-.2.9-.5c.2-.2.4-.4.5-.6.2-.2.3-.4.4-.6l3.3 1.5c-.2.5-.4 1-.8 1.6-.4.5-.8 1-1.3 1.4-.7.6-1.5 1-2.3 1.2-.8.2-1.6.1-2.3-.1-.7-.3-1.4-.7-1.9-1.3-.6-.7-.9-1.4-1-2.2-.1-.8 0-1.6.3-2.4.3-1 .8-1.7 1.5-2.2zM85.2 15l6.9 6.1-3.3 1.9-1.2-1-2.4 1.4.3 1.5-3.3 1.9-1.7-9 4.7-2.8zm-.4 6.2l1.2-.7-1.6-1.5.4 2.2zm9-9.9l.9-.3c.3-.1.6-.1.9-.2.3-.1.6-.1.9-.1h.8v2.9c-.4-.3-.8-.5-1.2-.6-.4-.1-.8-.1-1.2.1-.2.1-.4.2-.4.3-.1.1-.1.3 0 .4 0 .1.2.2.4.3.2.1.6.1 1 .1 1.2 0 2 .2 2.5.5.4.3.8.7.9 1.3.3.9.2 1.7-.3 2.3-.5.7-1.4 1.3-2.7 1.7-.7.2-1.3.4-2 .5-.6.1-1.3.2-2 .1l-.1-3.1c.4.3.8.5 1.3.6.5.1.9.1 1.2 0 .2-.1.3-.2.4-.3.1-.1.1-.3.1-.4-.1-.2-.2-.3-.4-.3-.2-.1-.5-.1-.9-.1-1 0-1.6-.2-2.1-.4-.4-.3-.8-.7-.9-1.2-.3-.9-.2-1.7.3-2.4.4-.7 1.3-1.3 2.6-1.7zm10.1-2.6c.6-.1 1.2-.1 1.9-.1s1.2.2 1.7.4l-1 3.3c-.2 0-.5-.1-.8 0-.3 0-.5 0-.8.1-.4.1-.7.2-.9.3-.2.1-.2.3-.2.5s.2.4.4.4c.2.1.6.1 1 0 .3 0 .5-.1.8-.2l.6-.3 2.2 3c-.4.3-.9.7-1.5.9-.6.3-1.2.5-1.8.6-.9.2-1.8.1-2.6-.1s-1.4-.7-1.9-1.3c-.5-.6-.8-1.3-1-2.1-.2-.9-.1-1.7.2-2.5.3-.8.8-1.4 1.4-1.9.7-.5 1.5-.9 2.3-1zm13.8-.8l3 8.7h-3.8l-.5-1.5h-2.8l-.5 1.5h-3.8l3-8.7h5.4zm-3.5 5.2h1.4l-.7-2.1-.7 2.1zm14.1-3.9c1 .2 1.8.6 2.3 1.1.5.5.7 1.2.5 1.9-.1.4-.2.8-.5 1-.2.3-.6.5-1 .6.4.3.7.6.8 1 .2.4.2.8.1 1.2-.1.7-.5 1.3-1.1 1.6-.6.3-1.3.4-2.2.2l-6-1.1 1.6-8.6 5.5 1.1zm-2.8 6.4h.2c.4.1.7.1.9 0 .2-.1.3-.3.4-.6.1-.6-.2-1-.9-1.2h-.3l-.3 1.8zm.6-3.3h.1c.2 0 .4.1.5.1.1 0 .3 0 .4-.1s.2-.1.2-.2.1-.2.1-.4c.1-.3 0-.5-.1-.7-.1-.2-.4-.3-.7-.3h-.2l-.3 1.6zm15 .9l-.8 2.1-3.1-1.1-.4 1 2.2.8-.8 2.1-2.2-.8-.4 1 3.1 1.1-.8 2.1-6.7-2.5 3-8.2 6.9 2.4zm5.7 2.9l-3.1 5.7 2.9 1.6-1 1.9-6.3-3.4 4.2-7.6 3.3 1.8zm7.7 5.1l-3.9 5.2 2.7 2-1.3 1.8-5.7-4.3 5.2-7 3 2.3zm10 9.3l-4.3 8.1-2.6-2.8.7-1.4-1.9-2-1.4.6-2.6-2.8 8.4-3.8 3.7 4.1zm-6.1 1l1 1 1.1-2-2.1 1z"/><linearGradient id="SVGID_1_" gradientUnits="userSpaceOnUse" x1="73.749" y1="85.807" x2="159.132" y2="85.807"><stop offset="0" stop-color="#bd9744"/><stop offset=".199" stop-color="#ebe262"/><stop offset=".411" stop-color="#debc5a"/><stop offset=".641" stop-color="#a5792b"/><stop offset=".823" stop-color="#dfbe5d"/><stop offset="1" stop-color="#a5792b"/></linearGradient><path d="M116.4 43.1c-.1 0-.2 0-.3.1h-.3c-.1 0-.2.1-.3.1-.1 0-.2-.1-.3-.1h-.3c-.1 0-.2.1-.3.1h-.9c-.1 0-.2.1-.3.1-.1 0-.2.1-.3.1-.1 0-.2-.1-.3 0h-.3c-.1 0-.2.1-.3.1h-.6c-.1 0-.2.1-.3.1-.1 0-.2.1-.3.1h-.3c-.1 0-.2.1-.3.1h-.6c-.1 0-.2.2-.3.2-.1 0-.2.1-.3.1h-1c-.1 0-.2.2-.3.2h-.6c-.1 0-.2.2-.3.2-.1 0-.2-.1-.4 0-.1 0-.2.1-.3.1-.1 0-.2.1-.3.1h-.3c-.1 0-.2.1-.3.1-.1 0-.2.1-.3.2-.1 0-.2.1-.3.1-.1 0-.2.1-.3.1-.1 0-.2 0-.3.1h-.4c-.1 0-.2.1-.3.2h-.3c-.1 0-.2.2-.3.2-.1 0-.2.1-.3.1-.1 0-.3-.1-.4 0-.1 0-.2.1-.3.2-.1 0-.2.1-.3.2h-.4c-.1 0-.2.2-.3.2-.1 0-.2 0-.3.1-.1 0-.2.2-.3.2-.1 0-.2.1-.3.1-.1 0-.2.1-.3.1-.1 0-.2.1-.3.1-.1 0-.2.2-.3.2-.1 0-.2 0-.3.1-.1 0-.2 0-.3.1-.1.1-.2.2-.3.2-.1.1-.3 0-.4 0-.1.1-.1.2-.2.3-.1.1-.2.1-.3.2-.1.1-.2.2-.3.2-.1.1-.2.1-.3.1-.1.1-.3 0-.4 0-.1.1-.2.2-.3.2-.1.1-.2.2-.3.2-.1.1-.3 0-.3.1-.1.1-.2.2-.3.2-.1.1-.2.1-.3.1-.1.1-.1.2-.2.3-.1.1-.2 0-.3.1-.1.1-.2.1-.3.2-.1.1-.2.1-.3.2-.1.1-.2.2-.3.2-.1.1-.2.1-.3.1-1.1.4-1.1.5-1.2.6-.1.1-.1.2-.2.3-.1.1-.2.1-.3.1-.1.1-.2.1-.3.2-.1.1-.2.1-.3.2-.1.1-.2.2-.3.2-.1.1-.1.2-.2.3-.1.1-.3 0-.4.1-.1.1-.1.2-.2.3-.1.1-.2.1-.3.2-.1.1-.1.2-.2.3-.1.1-.2.1-.3.2-.1.1-.1.2-.2.3-.1.1-.2.1-.3.2-.1.1-.2.1-.3.2-.1-.1-.1 0-.2.1s-.2.1-.3.2c-.1.1-.1.2-.2.3-.1.1-.1.2-.2.3 0 0-.2 0-.3.1-.1.1-.1.2-.2.3-.1.1-.2.1-.3.2-.1.1-.1.2-.2.3-.1.1-.3.1-.3.1-.1.1-.1.2-.2.3-.1.1-.2.1-.3.2-.1.1-.1.2-.2.3l-.2.2c-.1.1-.2.1-.3.2-.1.1-.1.2-.1.3-.1.1-.1.2-.2.3-.1.1-.2.1-.3.2-.1.1-.2.1-.3.2-.1.1-.1.2-.2.3-.1.1-.1.2-.2.3-.1.1-.1.2-.2.3-.1.1-.1.2-.2.3-.1.1-.2.1-.3.2-.1.1 0 .3-.1.3-.1.1-.2.1-.3.2-.1.1-.2.2-.2.3-.1.1-.2.1-.2.2-.1.1 0 .3-.1.3-.1.1-.2.1-.3.2-.1.1-.2.2-.2.3-.1.1 0 .3-.1.4-.1.1-.2.2-.2.3-.1.1-.1.2-.2.3-.1.1-.2.1-.3.2-.1.1-.1.2-.1.3-.1.1 0 .2-.1.3-.1.1-.1.2-.1.3-.1.1-.2.2-.2.3-.1.1-.1.2-.1.3-.1.1-.2.2-.2.3-.1.1-.1.2-.1.3-.1.1-.2.1-.3.2-.1.1-.1.2-.1.3-.1.1-.1.2-.2.3-.1.1-.1.2-.2.3-.1.1 0 .2-.1.3-.1.1-.1.2-.1.3-.1.1-.1.2-.1.3-.1.1-.2.2-.2.3 0 .1-.1.2-.2.3 0 .1-.1.2-.1.3v.4c0 .1-.2.2-.2.3 0 .1-.1.2-.1.3 0 .1-.2.2-.2.3v.4c0 .1-.1.2-.2.3 0 .1-.1.2-.1.3 0 .1-.1.2-.1.3 0 .1-.1.2-.1.3 0 .1-.1.2-.2.3 0 .1 0 .2-.1.3 0 .1-.1.2-.2.3v.6c0 .1-.1.2-.1.3 0 .1-.2.2-.2.3v.4c0 .1-.1.2-.1.3 0 .1-.2.2-.3.3v.4c0 .1-.1.2-.2.3 0 .1 0 .2-.1.3v.3c0 .1-.2.2-.2.3 0 .1.1.3.1.4 0 .1-.1.2-.2.3 0 .1-.1.2-.1.3 0 .1-.1.2-.1.3v.4c0 .1-.1.2-.2.3v.3c0 .1-.1.2-.1.3v.3c0 .1-.2.2-.2.3 0 .1.1.2.1.4v.3c0 .1-.2.2-.2.3v.6c0 .1-.1.2-.1.3v.6c0 .1-.1.2-.1.3v.3c0 .1-.1.2-.1.3v.3c0 .1.1.2.1.3v.3c0 .1.1.2.1.3 0 .1-.1.2-.1.3 0 .1.1.2.1.3v.3c0 .1-.2.2-.2.3v1.2c0 .1.1.2.1.3 0 .1-.1.2-.1.3 0 .1.2.2.2.3v.3c0 .1-.1.2-.1.3 0 .1.1.2.1.3v.3c0 .1.1.2.1.3v.3c0 .1-.1.2-.1.3 0 .1.2.2.2.3 0 .1-.1.2-.1.4v.3c0 .1.2.2.2.3 0 .1-.1.2-.1.4v.3c0 .1.1.2.1.3 0 .1 0 .2.1.3 0 .1.1.2.1.3v.3c0 .1.1.2.1.3 0 .1.1.2.1.3 0 .1.1.2.1.3 0 .1-.1.2 0 .4 0 .1.1.2.2.3 0 .1 0 .2.1.3 0 .1 0 .2.1.3 0 .1-.1.2 0 .4 0 .1.1.2.1.3 0 .1 0 .2.1.3 0 .1.1.2.1.3 0 .1.1.2.2.3 0 .1.1.2.1.3 0 .1 0 .2.1.3v.3c0 .1.1.2.2.3 0 .1.1.2.1.3 0 .1.1.2.1.3v.4c0 .1.1.2.1.3 0 .1.1.2.1.3 0 .1.2.2.2.3v.3c0 .1.1.2.2.3 0 .1.1.2.1.3v.3c0 .1.1.2.2.3 0 .1.1.2.2.3 0 .1.1.2.2.3 0 .1.1.2.1.3 0 .1.1.2.2.3 0 .1 0 .2.1.3 0 .1.1.2.2.3 0 .1 0 .2.1.3 0 .1.2.2.2.3 0 .1 0 .2.1.3.1.1.2.2.2.3.1.1.1.2.1.3.1.1.1.2.1.3.1.1.1.2.2.3.1.1.1.2.1.3.1.1.2.1.3.2.1.1.1.2.2.3.1.1 0 .2.1.3.1.1.2.2.2.3.1.1.1.2.2.3.1.1 0 .3 0 .4.1.1.1.2.2.3.1.1.2.1.3.2.1.1.1.2.1.3.1.1.1.2.2.3.1.1.1.2.1.3.1.1.1.2.2.3l.2.2c.1.1 0 .3.1.3.1.1.2.1.3.2.1.1.2.1.3.2.1.1.1.2.2.3.1.1 0 .3.1.4.1.1.1.2.2.3.1.1.2.1.3.2.1.1.2.2.2.3l.2.2c.1.1.1.2.2.3.1.1.1.2.2.3.1.1.2.1.3.2.1.1.1.2.2.3.1.1.2.1.3.2.1.1.1.2.2.3l.2.2c.1.1.1.2.2.3.1.1.1.2.2.3.1.1.2.2.2.3.1.1.2.1.3.2.1.1.1.2.2.3.1.1.1.2.2.3.1.1.2.1.3.2.1.1.2.1.3.2.1.1.1.2.2.3s.2.1.3.2c.1.1.1.3.2.3.1.1.2.1.3.2.1.1.2.1.3.2.1.1.1.2.2.3.1.1.2.1.3.2.1.1.2.1.3.2.1.1.1.2.2.3.1.1.2.2.3.2.1.1.2.1.3.1.1.1.1.2.2.3.1.1.2.1.3.2.1.1.2.2.3.2.1.1.2.1.3.1.1.1.1.2.2.3.1.1.3 0 .4.1.1.1.1.2.2.3.1.1.2.1.3.2l.2.2c.1.1.3 0 .3.1l.2.2c.1.1.2.1.3.2.1.1.2.1.3.2.1.1.2.1.3.2.1.1.2.1.3.2.1.1.1.2.2.3.1.1.2.1.3.2.1.1.2.1.3.2.1.1.3 0 .4.1.1.1.1.2.2.3.1.1.2.2.3.2.1.1.2 0 .3.1.1.1.2.1.3.2.1.1.2.1.3.2.1.1.3 0 .4.1.1.1.2.1.3.2.1.1.2.1.3.2.1.1.2.1.3.1.1.1.2.1.3.2.1 0 .2.1.3.1.1 0 .1.2.2.3h.4c.1 0 .2.1.3.2.1 0 .2.1.3.2.1 0 .2 0 .3.1.1 0 .2 0 .3.1.1 0 .2.1.3.2.1 0 .2.1.3.1.1 0 .2.1.3.1.1 0 .2.2.3.2h.4c.1 0 .2.1.3.1.1 0 .2.2.3.2.1 0 .2.1.3.2.1 0 .3-.1.4 0 .1 0 .2.1.3.2.1 0 .2.1.3.2.1 0 .2.1.3.1h.3c.1 0 .2.1.3.1.1 0 .2.2.3.2h.4c.1 0 .2 0 .3.1.1 0 .2.1.3.2h.4c.1 0 .2.1.3.1.1 0 .2.1.3.2.1 0 .2 0 .3.1h.6c.1 0 .2.1.3.1.1 0 .2.2.3.2.1 0 .2.1.3.1.1 0 .2 0 .3.1h.6c.1 0 .2 0 .3.1.1 0 .2 0 .3.1.1 0 .2-.1.3 0 .1 0 .2.1.3.1h.3c.1 0 .2-.1.3 0 .1 0 .2.2.3.2.1 0 .2-.1.4-.1.1 0 .2.1.3.1h.3c.1 0 .2.1.3.1.1 0 .2-.1.3-.1.1 0 .2.1.3.1.1 0 .2-.1.3-.1.1 0 .2 0 .3.1h.6c.1 0 .2.1.3.1.1 0 .2-.1.3-.1.1 0 .2.1.3.1.1 0 .2-.1.3-.1h.3c.1 0 .2.1.3.1.1 0 .2-.1.3-.1h.3c.1 0 .2-.1.3-.1h.3c.1 0 .2.1.3.1.1 0 .2-.1.3-.2.1 0 .2.1.3.1h.3c.1 0 .2-.1.3-.1h.3c.1 0 .2-.1.3-.1.1 0 .2.1.4.1.1 0 .2-.2.3-.2.1 0 .2.1.3 0h.3c.1 0 .2-.1.3-.1h.3c.1 0 .2-.1.3-.1h.6c.1 0 .2-.1.3-.1.1 0 .2-.1.3-.1.1 0 .2-.1.3-.1.1 0 .2-.1.3-.1h.3c.1 0 .2-.1.3-.2.1 0 .2 0 .3-.1.1 0 .2-.1.3-.1.1 0 .2 0 .3-.1.1 0 .2.1.4 0 .1 0 .2-.2.3-.2.1 0 .2 0 .3-.1.1 0 .2 0 .3-.1h.3c.1 0 .2-.2.3-.2.1 0 .2 0 .3-.1.1 0 .2-.1.3-.2.1 0 .2 0 .3-.1.1 0 .2-.1.3-.2h.3c.1 0 .2-.1.3-.1h.4c.1 0 .2-.2.3-.2.1 0 .2-.2.3-.2.1 0 .2-.1.3-.1.1 0 .2-.1.3-.1h.4c.1 0 .2-.1.3-.1.1 0 .2-.1.3-.1.1 0 .2-.2.3-.2.1 0 .2 0 .4-.1.1 0 .2-.1.3-.2.1 0 .2-.1.3-.2.1 0 .2 0 .3-.1.1 0 .2-.2.3-.2.1-.1.2-.2.3-.2.1-.1.2-.1.3-.2.1-.1.2-.1.3-.1.1-.1.2-.1.3-.1.1-.1.2-.1.3-.1.1-.1.2-.1.3-.1.1-.1.1-.2.2-.3.1-.1.3 0 .4-.1.1-.1.2-.2.3-.2.1-.1.2-.1.3-.2.1-.1.2-.1.3-.2.1-.1.2-.1.3-.2.1-.1.2-.1.3-.2.1-.1.1-.2.2-.3.1-.1.2 0 .3-.1.1-.1.2-.1.3-.2.1-.1.1-.2.2-.3.1-.1.3 0 .4-.1.1-.1.1-.2.2-.3.1-.1.2-.1.3-.2.1-.1.2-.2.3-.2.1-.1.2-.1.3-.2.1-.1.1-.2.2-.3.1-.1.2-.1.3-.2.1-.1.2-.1.3-.2.1-.1.1-.2.2-.3.1-.1.3 0 .3-.1.1-.1.1-.2.2-.3.1-.1.2-.1.3-.1.1-.1.2-.2.3-.2.1-.1.1-.2.2-.3s.2-.1.3-.1c.1-.1.1-.2.2-.3.1-.1.1-.2.2-.3.1-.1.2-.1.3-.2l.2-.2.2-.2c.1-.1.2-.1.3-.2.1-.1 0-.3.1-.4l.2-.2c.1-.1.3-.1.3-.1.1-.1.1-.2.2-.3s.2-.1.3-.2c.1-.1.2-.1.3-.2.1-.1.1-.2.2-.3.1-.1.2-.1.3-.2.1-.1.2-.1.3-.2.1-.1.1-.2.1-.3l.2-.2c.1-.1.2-.1.3-.2.1-.1.1-.2.2-.3.1-.1.1-.2.2-.3.1-.1.1-.2.1-.3.1-.1.2-.1.2-.2.1-.1.1-.2.2-.3.1-.1.2-.1.3-.2.1-.1 0-.3.1-.4.1-.1.2-.1.3-.2.1-.1.1-.2.2-.3.1-.1.1-.2.2-.3.1-.1.1-.2.1-.3.1-.1.2-.1.3-.2.1-.1.2-.2.2-.3.1-.1 0-.3.1-.3.1-.1.2-.1.3-.2.1-.1 0-.3.1-.4.1-.1.2-.1.3-.2.1-.1.1-.2.2-.3.1-.1.1-.2.2-.3.1-.1.1-.2.1-.3.1-.1.3-.1.3-.2.1-.1.1-.2.1-.3.1-.1 0-.2.1-.3.1-.1.2-.1.3-.2.1-.1.1-.2.1-.3.1-.1.1-.2.2-.3.1-.1.1-.2.2-.3.1-.1 0-.3 0-.4.1-.1.1-.2.1-.3.1-.1.2-.1.3-.2.1-.1.1-.2.1-.3.1-.1 0-.2.1-.3 0-.1.1-.2.2-.3 0-.1.2-.2.2-.3v-.4c0-.1.2-.2.2-.3 0-.1 0-.2.1-.3 0-.1.2-.1.3-.3 0-.1.1-.2.2-.3v-.4c0-.1.2-.2.2-.3v-.4c0-.1.1-.2.1-.3 0-.1.1-.2.1-.3 0-.1.2-.2.2-.3 0-.1-.1-.3 0-.4 0-.1.2-.2.2-.3v-.4c0-.1.1-.2.1-.3 0-.1.2-.2.2-.3 0-.1.1-.2.1-.3 0-.1-.1-.3-.1-.4 0-.1.1-.2.2-.3 0-.1.1-.2.2-.3 0-.1-.1-.3 0-.4 0-.1.2-.2.2-.3 0-.1 0-.2.1-.3v-.4c0-.1.1-.2.1-.3 0-.1 0-.2.1-.3 0-.1.1-.2.1-.3 0-.1.1-.2.1-.3v-.3c0-.1.2-.2.2-.3 0-.1-.1-.3-.1-.4 0-.1.1-.2.1-.3 0-.1 0-.2.1-.3 0-.1.1-.2.1-.3V91c0-.1.1-.2.1-.3v-.6c0-.1.1-.2.1-.3 0-.1-.1-.2-.1-.4 0-.1.1-.2.1-.3 0-.1.1-.2.1-.3 0-.1.1-.2.1-.3 0-.1-.2-.2-.1-.4 0-.1.1-.2.2-.3v-.3c0-.1-.1-.2-.1-.3v-.3c0-.1.1-.2.1-.3V86c0-.1.1-.2.1-.3v-.3c0-.1-.1-.2-.1-.3v-.3c0-.1.1-.2.1-.3 0-.1-.1-.2-.1-.3 0-.1.1-.2.1-.3v-.3c0-.1-.1-.2-.1-.3V83c0-.1-.1-.2-.1-.3 0-.1.1-.2.1-.3 0-.1-.1-.2-.1-.3v-.6c0-.1-.1-.2-.1-.3 0-.1.2-.2.1-.4 0-.1-.2-.2-.2-.3 0-.1.1-.2 0-.3v-.3c0-.1-.1-.2-.1-.3V79c0-.1 0-.2-.1-.3v-.3c0-.1-.1-.2-.2-.3v-.3c0-.1-.1-.2-.1-.3 0-.1.1-.2 0-.4 0-.1-.1-.2-.2-.3v-.3c0-.1-.2-.2-.2-.3v-.4c0-.1-.1-.2-.2-.3 0-.1 0-.2-.1-.3v-.3c0-.1-.2-.2-.2-.3 0-.1-.1-.2-.1-.3v-.4c0-.1-.1-.2-.1-.3v-.4c0-.1-.1-.2-.1-.3 0-.1 0-.2-.1-.3 0-.1-.2-.2-.2-.3 0-.1-.1-.2-.2-.3v-.4c0-.1-.1-.2-.1-.3 0-.1-.1-.2-.1-.3 0-.1 0-.2-.1-.3 0-.1-.1-.2-.1-.3 0-.1-.2-.2-.2-.3 0-.1.1-.3 0-.4 0-.1-.1-.2-.1-.3 0-.1-.1-.2-.2-.3 0-.1-.1-.2-.2-.3 0-.1-.1-.2-.1-.3 0-.1-.1-.2-.1-.3 0-.1-.2-.2-.2-.3 0-.1-.1-.2-.2-.3 0-.1-.1-.2-.2-.3v-.4c0-.1-.2-.1-.3-.2-.1-.1 0-.3 0-.4-.1-.1-.2-.2-.2-.3-.1-.1 0-.2-.1-.3-.1-.1-.2-.1-.3-.2-.1-.1-.1-.2-.2-.3-.1-.1-.1-.2-.2-.3-.1-.1 0-.3-.1-.4-.1-.1-.2-.2-.2-.3-.1-.1-.1-.2-.2-.3-.1-.1-.1-.2-.2-.3-.1-.1 0-.2-.1-.3-.1-.1-.1-.2-.2-.3-.1-.1-.2-.2-.2-.3-.1-.1-.2-.2-.2-.3-.1-.1-.1-.2-.1-.3-.1-.1-.2-.1-.3-.2-.1-.1 0-.2-.1-.3-.1-.1-.1-.2-.2-.3-.1-.1-.2-.1-.3-.2-.1-.1-.2-.1-.3-.2-.1-.1-.1-.2-.2-.3-.1-.1-.1-.2-.2-.3-.1-.1-.1-.2-.1-.3-.1-.1-.1-.2-.2-.3-.1-.1-.2-.2-.2-.3-.1-.1-.2-.1-.3-.2-.1-.1-.1-.2-.2-.3-.1-.1-.2-.1-.3-.2-.1-.1-.1-.2-.1-.3-.1-.1-.2-.1-.3-.2-.1-.1-.1-.2-.1-.3-.1-.1-.2-.1-.3-.2-.1-.1-.2-.1-.3-.2-.1-.1-.1-.2-.1-.3l-.2-.2s-.1-.2-.2-.3c-.1-.1-.2-.1-.3-.2-.1-.1-.1-.2-.2-.3-.1-.1-.2-.1-.3-.2-.1-.1-.1-.2-.2-.3-.1-.1-.1-.2-.2-.3-.1-.1-.2-.1-.3-.2-.1-.1-.2-.1-.3-.2-.1-.1-.1-.2-.2-.3-.1-.1-.1-.2-.2-.3-.1-.1-.2-.1-.3-.2-.1-.1-.1-.2-.2-.3-.1-.1-.2-.1-.3-.2-.1-.1-.2-.1-.3-.2-.1-.1-.1-.2-.2-.3-.1-.1-.2-.1-.3-.2l-.2-.2c-.1-.1-.1-.2-.2-.3-.1-.1-.2-.1-.3-.1-.1-.1-.2-.1-.3-.2l-.2-.2c-.1-.1-.1-.2-.2-.3-.1-.1-.2-.1-.3-.1l-.2-.2c-.1-.1-.2-.1-.3-.2-.1-.1-.1-.2-.2-.3-.1-.1-.2-.2-.3-.2-.1-.1-.3 0-.4-.1-.1-.1-.2-.1-.3-.2-.1-.1-.2-.1-.3-.2-.1-.1-.2-.2-.3-.2-.1-.1-.2-.1-.3-.2-.1-.1-.1-.3-.2-.3-.1-.1-.2-.1-.3-.1-.1-.1-.2-.1-.3-.2-.1-.1-.2-.1-.3-.2-.1-.1-.2-.1-.3-.1-.1-.1-.1-.2-.2-.3-.1-.1-.2-.1-.3-.1-.1-.1-.2 0-.3-.1-.1-.1-.1-.2-.2-.3-.1-.1-.2-.1-.3-.1-.1-.1-.2-.1-.3-.2-.1-.1-.3 0-.4 0-.1-.1-.2-.2-.3-.2-.1-.1-.2-.2-.3-.2-.1-.1-.2-.1-.3-.2-.1 0-.2-.1-.3-.1-.1 0-.2-.1-.3-.1-.1 0-.2-.1-.3-.1-.1 0-.2-.1-.3-.2-.1 0-.2 0-.3-.1-.1 0-.2-.1-.3-.2h-.4c-.1 0-.2-.2-.3-.2-.1 0-.2 0-.3-.1-.1 0-.2-.1-.3-.2-.1 0-.2-.1-.3-.2-.1 0-.2-.1-.3-.1-.1 0-.2-.1-.3-.1-.1 0-.2-.1-.3-.1h-.4c-.1 0-.2-.1-.3-.1-.1 0-.2-.2-.3-.2-.1 0-.2 0-.3-.1-.1 0-.2-.1-.3-.1-.1 0-.2-.1-.3-.1h-.3c-.1 0-.2 0-.3-.1-.1 0-.2-.1-.3-.1h-.3c-.1 0-.2-.1-.3-.1h-.3c-.1 0-.2-.1-.3-.1-.1 0-.2-.1-.3-.1-.1 0-.2-.1-.3-.1h-.3c-.1 0-.2-.1-.3-.1h-.6c-.1 0-.2-.1-.3-.1-.1 0-.2-.1-.3-.1-.1 0-.2.1-.4 0-.1 0-.2 0-.3-.1-.1 0-.2-.1-.3-.1h-.3c-.1 0-.2-.1-.3-.1h-.6c-.1 0-.2-.1-.3-.2h-.9c-.1 0-.2-.1-.3-.1-.1 0-.2.1-.4.1-.1 0-.2-.1-.3-.1-.1 0-.2-.1-.3-.1h-1.5c-.1 0-.2-.1-.3-.1h.4zm40.5 40.7c0 .1.1.2 0 .3 0 .1 0 .2-.1.3 0 .1 0 .3-.1.3-.1.1-.2.1-.3.2-.1.1-.2.1-.3.1-.1 0-.2.1-.3 0-.1 0-.2-.1-.3-.1-.1 0-.2-.1-.3-.2-.1-.1-.2-.1-.3-.2-.1-.1-.2-.1-.3-.1-.1-.1-.2-.1-.3-.1-.1-.1-.2-.2-.3-.2-.1-.1-.2-.1-.3-.2-.1-.1-.2-.1-.3-.1-.1-.1-.2-.1-.3-.2-.1-.1-.2-.2-.3-.2-.1-.1-.2-.1-.3-.1-.1-.1-.2-.1-.3-.1-.1-.1-.2-.2-.3-.2-.1-.1-.2-.1-.3-.1-.1-.1-.2-.2-.3-.2-.1-.1-.2-.2-.3-.2-.1-.1-.3 0-.4 0-.1-.1-.2-.1-.3-.1-.1-.1-.2-.1-.3-.2-.1-.1-.2-.2-.3-.2-.1-.1-.2-.1-.3-.2-.1-.1-.3 0-.4-.1-.1-.1-.2-.2-.3-.2-.1-.1-.2-.2-.3-.2-.1-.1-.3 0-.4 0-.1-.1-.1-.2-.2-.3-.1-.1-.2-.1-.3-.1-.1-.1-.2-.1-.3-.1-.1-.1-.2-.2-.3-.2-.1-.1-.2-.1-.3-.1-.1-.1-.2 0-.3-.1-.1-.1-.2-.1-.3-.2-.1-.1-.2-.1-.3-.1-.1-.1-.2-.1-.3-.2-.1-.1-.1-.2-.2-.3-.1-.1-.2 0-.3-.1-.1-.1-.2-.2-.3-.2h-.4c-.1 0-.2-.1-.3-.1-.1 0-.1-.2-.2-.3-.1 0-.2 0-.3-.1-.1 0-.2-.1-.3-.1s-.1-.2-.2-.3h-.4c-.1 0-.2-.1-.3-.2-.1 0-.2 0-.3-.1-.1 0-.2-.1-.3-.1-.1 0-.2-.1-.3-.2-.1 0-.2-.1-.3-.2-.1 0-.2 0-.3-.1-.1 0-.2-.1-.3-.2-.1 0-.2-.2-.3-.2-.1 0-.2 0-.3-.1-.1 0-.2-.2-.3-.2h-.4c-.1 0-.2-.1-.3-.1-.1 0-.2 0-.3-.1-.1 0-.2-.1-.3-.1-.1 0-.2-.2-.3-.2h-.7c-.1 0-.2-.2-.3-.2-.1 0-.2 0-.3-.1-.1 0-.2-.1-.3-.2h-.4c-.1 0-.2-.2-.3-.2-.1 0-.2-.1-.3-.1-.1 0-.2-.1-.3-.1-.1 0-.2 0-.3-.1-.1 0-.2-.1-.3-.1h-.6c-.1 0-.2-.1-.3-.1-.1 0-.2 0-.3-.1-.1 0-.2 0-.3-.1h-.6c-.1 0-.2-.2-.3-.2h-.3c-.1 0-.2-.1-.3-.1-.1 0-.2.1-.3.1-.1 0-.2-.1-.3-.2-.1 0-.2-.1-.3-.1-.1-.1-.2-.2-.2-.3-.1-.1 0-.2-.1-.3 0-.1-.1-.2-.1-.3 0-.1.1-.2.1-.3v-.3c0-.2-.1-.2 0-.4 0-.2.1-.1.2-.3v-.4c0-.2.1-.1.2-.3v-.3c0-.2.2-.1.2-.3v-.4c0-.2.1-.1.2-.3v-.4c0-.2.1-.2.1-.3 0-.2.1-.2.1-.3 0-.2-.1-.2 0-.4 0-.2 0-.2.1-.3 0-.2.1-.1.2-.3 0-.2.1-.2.1-.3 0-.2 0-.2.1-.3 0-.1 0-.2.1-.3.1-.1.1-.2.2-.3.1-.1.2-.2.3-.2h.4c.1-.1.1-.2.2-.3.1-.1.2 0 .3-.1.1-.1.2-.1.3-.1.1-.1.2-.1.3-.1.1-.1.1-.2.2-.3.1-.1.2-.1.3-.1.1-.1.2-.1.3-.1.1-.1.1-.2.2-.3.1-.1.2-.1.3-.1.1-.1.2-.1.3-.2.1-.1.3 0 .4-.1.1-.1.2-.2.3-.2.1-.1.1-.2.2-.3.1-.1.2-.2.3-.2.1-.1.2-.1.3-.1l.2-.2c.1-.1.2-.1.3-.1.1-.1.1-.2.2-.3.1-.1.3 0 .4-.1l.2-.2c.1-.1.2-.1.3-.2.1-.1.2-.1.3-.2.1-.1.1-.2.2-.3.1-.1.2-.1.3-.2.1-.1.2-.1.3-.2.1-.1.2-.1.3-.1.1-.1.2-.1.3-.2l.2-.2c.1-.1.1-.3.2-.3.1-.1.2-.1.3-.2.1-.1.2-.1.3-.2.1-.1.2-.1.3-.2.1-.1.1-.2.2-.3.1-.1.2-.1.3-.2l.2-.2.2-.2.2-.2c.1-.1.2-.1.3-.2.1-.1.1-.2.2-.3.1-.1.2-.1.3-.2.1-.1.1-.2.2-.3.1-.1.1-.2.2-.3l.2-.2s.2-.1.3-.2c.1-.1.1-.3.2-.3.1-.1.3-.1.4-.1.1 0 .2.1.4.2h.4c.1.1.2.2.2.3.1.1.2.1.3.2.1.1.2.1.3.2.1.1.1.2.2.3.1.1.3.1.3.2.1.1.1.2.2.3.1.1.2.2.2.3.1.1.1.2.2.3.1.1.2.1.3.2.1.1.1.2.1.3.1.1.2.1.3.2.1.1.1.2.2.3.1.1.2.1.3.2.1.1 0 .3.1.3.1.1.3.1.3.2.1.1.2.2.2.3.1.1 0 .3.1.3.1.1.2.1.3.2.1.1.1.2.2.3.1.1.1.2.2.3.1.1.1.2.2.3.1.1.2.2.2.3.1.1 0 .3.1.3.1.1.1.2.2.3.1.1.1.2.2.3.1.1.1.2.2.3.1.1.2.1.3.2.1.1.1.2.2.3.1.1.2.2.2.3.1.1 0 .2.1.3.1.1.2.1.3.2.1.1.1.2.2.3.1.1 0 .3 0 .4.1.1.1.2.2.3.1.1.1.2.2.3.1.1.1.2.1.3.1.1.1.2.2.3.1.1.2.2.2.3.1.1 0 .2.1.3 0 .1.2.1.3.2 0 .1.1.2.1.3v.4c0 .1.2.2.2.3 0 .1 0 .2.1.3 0 .1.2.2.2.3 0 .1.1.2.1.3v.4c0 .1.2.2.3.3v.4c0 .1 0 .2.1.3 0 .1.2.2.3.3v.4c0 .1 0 .2.1.3 0 .1.1.2.2.3 0 .1.1.2.1.3 0 .1.1.2.1.3 0 .1 0 .2.1.3 0 .1.1.2.1.3 0 .1.1.2.1.3 0 .1.1.2.2.3 0 .1-.1.3 0 .4 0 .1.2.2.2.3 0 .1 0 .2.1.3 0 .1 0 .2.1.3 0 .1-.1.2 0 .4 0 .1.1.2.1.3 0 .1 0 .2.1.3 0 .1.1.2.1.3 0 .1.1.2.1.3 0 .1.1.2.1.3v.6c0 .1.1.2.1.3 0 .1 0 .2.1.3 0 .1 0 .2.1.3 0 .1-.1.2 0 .4v.6c0 .1.1.2.1.3 0 .1-.1.2 0 .3 0 .1.1.2.1.3 0 .1 0 .2.1.3 0 .1-.1.2-.1.3 0 .1.1.2.1.3 0 .1.1.2.1.3 0 .1.1.2.1.3-1 .3-1.1.4-1.1.5zm-60 24.6h-.4c-.1 0-.2 0-.3-.1h-.4c0-.1.1-.3.1-.4v-.4c0-.1-.1-.2-.1-.3v-.3c0-.1 0-.2-.1-.4 0-.1-.1-.2-.1-.3-.1-.1-.2-.2-.2-.3-.1-.1-.2-.2-.3-.2-.1-.1-.1-.2-.2-.3l-.3-.3c-.1-.1-.2-.1-.3-.1-.1-.1-.2-.1-.3-.2-.1 0-.2-.1-.3-.2-.1 0-.2 0-.3-.1 0-.1 0-.1.1-.2 0-.1.2-.1.3-.1.1 0 .2-.1.3 0 .1 0 .2.1.3.2.1 0 .2.1.3.1.1 0 .3-.1.4 0 .1 0 .2 0 .3.1.1 0 .2.1.3.1.1 0 .2.2.3.2.1 0 .2.1.3.1h.4c.1 0 .2.1.3.2.1 0 .2.1.3.1.1 0 .3-.1.4-.1.1 0 .2.2.3.2.1 0 .2 0 .3.1h.3c.1 0 .2.1.3.1.1 0 .2 0 .3.1h.4c.1 0 .2.1.3.1.1 0 .2 0 .3.1s.2.1.3.1c.1 0 .2.2.3.2h.4c.1.1.2.2.2.3.1.1.3.1.3.2.1.1.1.2.2.4 0 .1-.1.3-.1.4 0 .1.1.2.1.3v.3c0 .1-.1.2-.1.3 0 .1.1.2.1.3v.3c0 .1.1.2.1.3v.9c0 .1.1.2.1.3 0 .1-.1.2-.1.3 0 .1-.1.2-.1.3 0 .1.1.2.1.3 0 .1-.1.2-.1.3 0 .1.1.2.1.3v.9c0 .1-.1.2-.1.3 0 .1.1.2.1.3 0 .1.1.2.1.3 0 .1-.1.2-.1.3v.3c0 .1-.1.2-.1.3 0 .1.1.2.1.3 0 .1-.1.2-.1.3v.9c0 .1-.1.2-.1.3v.3c0 .1.1.2.1.3 0 .1-.1.2-.1.3v1.2c0 .1-.2.2-.2.3v.3c0 .1-.1.2-.1.3 0 .1.1.2.1.3s-.1.2-.1.3v.3c0 .1-.1.2-.1.3-.1.1-.2.1-.3.2-.1.1-.1.2-.2.3-.1.1-.2 0-.3.1-.1 0-.2.1-.3.2-.1 0-.2.2-.3.2-.1 0-.2-.1-.3-.1h-.3c-.1 0-.2-.2-.3-.2-.1 0-.2 0-.3-.1-.1-.1-.1-.2-.3-.3-.1-.1-.2 0-.3-.1-.1-.1-.2-.2-.3-.2-.1-.1-.2 0-.3-.1-.1-.1-.2-.1-.3-.2-.1-.1-.2-.1-.3-.2-.1-.1-.3 0-.4-.1-.1-.1-.2-.1-.3-.1l-.3-.3c-.1-.1-.2-.2-.3-.2-.1-.1-.2-.1-.3-.2-.1-.1-.2-.1-.3-.1-.1-.1-.2-.1-.3-.2-.1-.1-.2-.1-.3-.2-.1-.1-.1-.2-.2-.3-.1-.1-.3 0-.4-.1s-.1-.2-.2-.3c-.1-.1-.2-.2-.2-.3-.1-.1 0-.2 0-.3 0-.1-.1-.3 0-.4.1-.1.2-.1.3-.2.1-.1.2-.1.3-.2.1-.1.1-.2.2-.3s.2-.1.3-.2c.1-.1.2-.1.3-.2.1-.1.2 0 .3-.1.1-.1.1-.2.2-.2.1-.1.1-.2.2-.3.1-.1.1-.2.2-.2.1-.1.2-.1.3-.2.1-.1.1-.2.2-.3.1-.1.2-.1.3-.2.1-.1.1-.2.2-.3.1-.1.3-.1.3-.1s.1-.2.2-.3l.2-.2c.1-.1.1-.2.2-.3.1-.1.1-.2.1-.3.1-.1.1-.2.2-.3.1-.1.1-.2.2-.3.1-.1.2-.1.2-.2.1-.1.1-.2.2-.3 0-.1.1-.2.1-.3 0-.1-.1-.3 0-.4 0-.1.1-.2.1-.3 0-.1.1-.2.1-.3 0-.1.1-.2.1-.3 0-.1-.1-.2-.1-.3v-.3c0-.1-.1-.2-.1-.3 0-.1-.1-.2-.1-.3 0-.1-.1-.2-.1-.3-.1-.1 0-.2-.1-.3-.1-.1-.2-.2-.2-.3-.1-.1-.1-.2-.2-.3-.1-.1-.2-.1-.3-.2-.1-.1-.2-.1-.3-.1-.1-.1-.2-.1-.3-.2-.1 1.2-.2 1-.3 1zm19.5-40.2h-.6c-.1 0-.2.1-.3.1-.1 0-.2-.1-.3-.1h-.6c-.1 0-.2-.1-.3-.1-.1 0-.2-.1-.3-.1h-.9c-.1 0-.2-.1-.3-.1-.1 0-.2-.1-.3-.1h-.3c-.1 0-.2-.1-.3-.1-.1 0-.2-.1-.3-.1h-.6c-.1 0-.2-.1-.3-.1h-.3c-.1 0-.2-.1-.3-.1-.1 0-.2-.1-.3-.1-.1 0-.3.1-.4.1-.1 0-.2 0-.3-.1-.1 0-.2-.1-.3-.1-.1 0-.2-.2-.3-.2-.1 0-.2-.1-.3-.1h-.4c-.1 0-.2-.1-.3-.2-.1 0-.2-.1-.3-.2-.1 0-.3.1-.4 0-.1 0-.2-.2-.3-.2-.1 0-.2-.1-.3-.1-.1 0-.2 0-.3-.1-.1 0-.2-.1-.3-.2-.1 0-.2-.1-.3-.1-.1 0-.2 0-.3-.1-.1 0-.2-.1-.3-.1-.1 0-.2-.1-.3-.1-.1 0-.2-.1-.3-.2-.1 0-.2-.2-.3-.2-.1 0-.2 0-.3-.1-.1 0-.2-.2-.3-.2h-.4c-.1-.1-.2-.1-.3-.1-.1-.1-.1-.2-.2-.3-.1-.1-.2 0-.3-.1-.1-.1-.2-.1-.3-.1-.1-.1-.1-.2-.2-.3-.1-.1-.3 0-.3-.1-.1-.1-.2-.2-.3-.2-.1-.1-.2-.1-.3-.1-.1-.1-.2-.1-.3-.2-.1-.1-.2-.1-.3-.2-.1-.1-.2-.1-.3-.2-.1-.1-.2-.1-.3-.1-.1-.1-.2-.2-.3-.2l-.2-.2c-.1-.1-.2-.1-.3-.1-.1-.1-.1-.2-.2-.3-.1-.1-.3 0-.3-.1-.1-.1-.2-.1-.3-.2-.1-.1-.2-.1-.3-.2-.1-.1-.2-.2-.3-.2-.1-.1-.1-.2-.2-.3-.1-.1-.2-.1-.3-.1-.1-.1-.2-.1-.3-.1-.1-.1-.1-.2-.2-.3-.1-.1-.2-.1-.3-.2-.1-.1-.1-.2-.2-.3-.1-.1-.2-.1-.3-.1-.1-.1-.1-.2-.2-.3l-.2-.2c-.1-.1-.2-.2-.3-.2-.1-.1-.2-.1-.3-.2-.1-.1-.1-.2-.2-.3-.1-.1-.2-.1-.3-.2-.1-.1-.2-.1-.3-.2-.1-.1-.1-.2-.2-.3l-.2-.2-.2-.2c-.1-.1-.2-.1-.3-.2-.1-.1-.2-.1-.3-.2-.1-.1-.1-.3-.1-.3-.1-.1-.2-.1-.3-.2-.1-.1-.1-.2-.2-.3-.1-.1-.2-.1-.3-.2-.1-.1-.1-.2-.1-.3 0-.1-.1-.2-.1-.3v-.3c0-.1.1-.2.2-.3 0-.1 0-.2.1-.3.1-.1.2-.1.3-.2.1-.1.1-.2.2-.3.1-.1.1-.2.2-.3.1-.1.2-.1.3-.1.1-.1.1-.2.2-.3.1-.1.2-.1.3-.1.1-.1.1-.2.2-.3.1-.1.3 0 .4-.1.1-.1.1-.2.2-.3.1-.1.2-.1.3-.1.1-.1.1-.2.2-.3.1-.1.2-.1.3-.2.1-.1.2-.1.3-.2.1-.1.1-.2.2-.3.1-.1.2-.2.3-.2.1-.1.2 0 .3-.1.1-.1.2-.1.3-.1.1-.1.2-.1.3-.2.1-.1.2-.2.3-.2.1-.1.2-.1.3-.2.1-.1.2-.1.3-.2.1-.1.3 0 .4-.1.1-.1.1-.2.2-.3.1-.1.2 0 .3-.1.1-.1.2-.1.3-.1.1-.1.2-.1.3-.1.1-.1.1-.2.2-.3.1-.1.2 0 .3-.1.1-.1.2-.1.3-.1.1 0 .1-.2.3-.3.1 0 .2-.1.3-.1.1 0 .2-.1.3-.2h.4c.1 0 .2-.1.3-.2.1 0 .2-.2.3-.2.1 0 .2-.1.3-.2.1 0 .2 0 .3-.1.1 0 .2-.1.3-.2.1 0 .2 0 .3-.1.1 0 .2-.1.3-.2s.3.1.4 0c.1 0 .2-.1.3-.1h.3c.1 0 .2.1.3.1.1.1.2 0 .3.1.1.1.2.2.2.3.1.1.1.2.1.3v.4c0 .1 0 .2.1.3 0 .1.1.2.1.3 0 .1.2.2.2.3v.3c0 .1.1.2.1.3 0 .1 0 .2.1.3 0 .1.2.2.2.3 0 .1.1.2.1.3 0 .1.1.2.2.3 0 .1.1.2.2.3.1.1.1.2.2.3.1.1 0 .2.1.3.1.1.1.2.2.3.1.1.1.2.1.3.1.1.2.1.3.2.1.1.2.1.3.2.1.1.1.2.2.3.1.1 0 .3.1.3.1.1.2.1.3.2.1.1.1.2.2.3.1.1 0 .3.1.4.1.1.2.1.3.1.1.1.1.2.2.3.1.1.2.1.3.2.1.1.2.1.3.1.1.1.1.2.2.3.1.1.3 0 .4 0 .1 0 .2.2.3.2.1 0 .2.1.3.1.1 0 .2.1.3.1.1 0 .2-.1.4 0 .1 0 .2.1.3.1h.8c.1 0 .2-.1.3-.1.1 0 .2.1.4.1.1 0 .2-.2.3-.2.1 0 .2 0 .3-.1.1 0 .2.1.4.1.1 0 .2-.1.3-.1.1 0 .2 0 .4-.1h.4c.1 0 .2-.1.4-.1.1 0 .2-.1.4-.1.1 0 .2.1.4.1h1.1c.1 0 .2-.1.3-.1h.6c.1 0 .2.1.3.1.1 0 .2-.1.4 0 .1 0 .2 0 .3.1.1 0 .2.2.3.2.1 0 .2 0 .3.1h.3c.1 0 .2 0 .3.1h.3c.1 0 .2-.1.3-.1.1 0 .2.1.3.1.1 0 .2-.1.3-.2h.3c.1 0 .2.1.3.1.1 0 .2-.1.3-.2h.3c.1 0 .2-.1.3-.2.1 0 .2-.1.3-.1.1 0 .2 0 .3-.1.1-.1.1-.2.2-.3.1-.1.3 0 .4-.1.1-.1.2-.1.3-.2.1-.1.1-.3.2-.3.1-.1.3 0 .3-.1.1-.1.2-.1.3-.2.1-.1.1-.2.2-.3.1-.1.2-.2.2-.3.1-.1.1-.2.2-.3l.2-.2c.1-.1.1-.2.2-.3.1-.1.1-.2.2-.3.1-.1.1-.2.1-.3.1-.1.2-.1.3-.2.1-.1 0-.2.1-.3.1-.1.1-.2.2-.3.1-.1.1-.2.2-.3 0-.1.2-.2.2-.3 0-.1.1-.2.1-.3 0-.1.1-.2.1-.3 0-.1.1-.2.1-.3v-.3c0-.1 0-.2.1-.3 0-.1.1-.2.1-.3 0-.1.1-.2.2-.3v-.3c0-.1.1-.2.1-.3 0-.1.1-.2.1-.3 0-.1.1-.2.2-.3.1-.1.1-.2.2-.2l.2-.2c.1-.1.2-.2.3-.2.1 0 .2 0 .3.1h.3c.1 0 .2.1.3.1.1 0 .2.2.3.2.1 0 .2 0 .3.1.1 0 .2 0 .3.1.1 0 .2 0 .3.1.1 0 .2.1.3.2.1 0 .2.1.3.1.1 0 .2.2.3.2.1 0 .2.1.3.1.1 0 .2.1.3.2h.4c.1 0 .2.2.3.2.1 0 .2 0 .4.1.1 0 .2.1.3.2.1.1.2.1.3.2.1.1.2.1.3.2.1.1.2.1.3.2.1.1.3 0 .4.1.1.1.2.1.3.1.1.1.2.2.3.2.1.1.2 0 .3.1.1.1.2.1.3.2.1.1.1.2.2.3.1.1.2.1.3.2.1.1.3 0 .4.1.1.1.2.2.3.2.1.1.2.1.3.2.1.1.2.2.3.2.1.1.2.1.3.2.1.1.2.1.3.1.1.1.1.2.2.3.1.1.3 0 .3.1.1.1.2.1.3.1.1.1.2.2.3.2.1.1.1.2.2.3.1.1.2.1.3.2.1.1.2.1.3.1.1.1.2.1.3.2.1.1.2.1.3.2.1.1.2.2.3.2.1.1.1.2.2.3.1.1.2.1.3.2.1.1.1.2.2.3.1.1.2.2.2.3v.6c0 .1-.1.2-.1.3 0 .1-.1.2-.2.2l-.2.2c-.1.1-.1.2-.2.3-.1.1-.2.1-.3.2-.1.1-.2.1-.3.2-.1.1-.1.2-.2.3-.1.1-.1.2-.2.3-.1.1-.2.1-.3.2-.1.1-.1.2-.2.3-.1.1-.3.1-.3.1l-.2.2c-.1.1-.1.2-.2.3-.1.1-.2.1-.3.2-.1.1-.1.2-.2.3-.1.1-.2.2-.3.2-.1.1-.2.1-.3.2-.1.1-.2.1-.3.2-.1.1-.1.2-.2.3-.1.1-.3 0-.3.1-.1.1-.1.2-.2.3-.1.1-.2.1-.3.2-.1.1-.1.2-.2.3-.1.1-.2 0-.3.1-.1.1-.1.2-.2.3-.1.1-.2.1-.3.1-.1.1-.2.1-.3.2-.1.1-.2.1-.3.2-.1.1-.1.2-.2.3-.1.1-.2.1-.3.1-.1.1-.2.1-.3.2-.1.1-.2.1-.3.2-.1.1-.2.1-.3.2-.1.1-.2.1-.3.2-.1.1-.2 0-.3.1-.1.1-.2.1-.3.2-.1.1-.2.1-.3.2-.1.1-.1.2-.2.3-.1.1-.3 0-.4.1-.1.1-.2.1-.3.1-.1.1-.2.2-.3.2-.1.1-.2.1-.3.1-.1.1-.2.1-.3.1-.1.1-.1.2-.2.3-.1.1-.2.1-.3.1-.1 0-.2.1-.3.1-.1 0-.2.1-.3.2-.1 0-.2.1-.3.1-.1 0-.2.1-.3.2h-.4c-.1 0-.2.2-.3.2-.1 0-.2 0-.3.1-.1 0-.2 0-.3.1-.1 0-.2.1-.3.2-.1 0-.2.1-.3.2-.1 0-.2 0-.3.1-.1 0-.2.1-.3.1-.1 0-.2.1-.3.1h-.4c-.1 0-.2.2-.3.2-.1 0-.2.1-.3.1h-.7c-.1 0-.2.2-.3.2h-.6c-.1 0-.2.1-.3.1-.1 0-.2.1-.3.1-.1 0-.2 0-.3.1-.1 0-.2-.1-.4 0-.1 0-.2.1-.3.2-.1 0-.2.1-.3.1h-.3c-.1 0-.2.1-.3.1h-.6c-.1 0-.2 0-.3.1-.1 0-.2.1-.3.1-.1 0-.2.1-.3.1h-.3c-.1 0-.2-.1-.3-.1h-.6c-.1 0-.2.1-.3.1h-.9c-.1 0-.2.1-.3.1-1.5.5-1.6.3-1.8.3zm0 2.2c.1 0 .2 0 .3-.1h.3c.1 0 .2-.1.3-.1.1 0 .2.1.3.1h.3c.1 0 .2-.1.3-.1h.9c.1 0 .2-.1.3-.1.1 0 .2-.1.3-.1h.6c.1 0 .2-.1.3-.1h.6c.1 0 .2-.1.3-.1.1 0 .2-.1.3-.1h.3c.1 0 .2-.1.3-.1h.6c.1 0 .2-.2.3-.2.1 0 .2-.1.3-.1.1 0 .2 0 .3-.1h.7c.1 0 .2-.2.3-.2h.6c.1 0 .2-.2.3-.2h.4c.1 0 .2-.1.3-.1.1 0 .2-.1.3-.2.1 0 .2 0 .3-.1.1 0 .2-.1.3-.1.1 0 .2-.2.3-.2s.3 0 .4-.1c0 .2 0 .2-.1.3 0 .2-.1.2-.1.3 0 .2-.2.1-.2.3v.3c0 .2-.1.1-.2.3 0 .2.1.2 0 .4 0 .2 0 .2-.1.3 0 .2-.2.1-.2.3v.6c0 .2-.2.1-.2.3 0 .2.1.2 0 .4 0 .2-.1.1-.1.3v.3c0 .2 0 .2-.1.3 0 .2-.1.2-.1.3 0 .2-.1.2-.1.3v.3c0 .2-.1.1-.1.3 0 .2-.1.1-.2.3v.3c0 .1-.2.2-.2.3v.4c0 .1-.1.2-.1.3 0 .1-.1.2-.1.3-.1.1-.1.2-.2.3-.1.1-.2.1-.3.2-.1.1-.1.2-.1.3-.1.1-.1.2-.2.3-.1.1-.2.1-.3.2-.1.1-.1.2-.2.3-.1.1-.2.1-.3.2-.1.1-.1.2-.2.3-.1.1-.2 0-.3.1-.1.1-.2.1-.3.1-.1 0-.2.1-.3.1-.1 0-.2.1-.3.1h-.3c-.1 0-.2.1-.3.1-.2 0-.1.1-.3.1h-.3c-.2 0-.2 0-.3.1-.2 0-.2 0-.3.1-.2 0-.2.1-.3.1-.1 0-.2.1-.3.1-.1 0-.3-.1-.4-.1-.1 0-.2.1-.3.1h-.3c-.1 0-.2.1-.3.2-.1 0-.2-.1-.4-.1-.1 0-.2.1-.3.1h-.3c-.1 0-.2-.1-.3-.1-.1 0-.2.1-.3.1-.1 0-.2-.1-.3-.1s-.2.1-.3 0c-.1 0-.2.1-.4.1s-.2-.1-.3-.1c-.1 0-.2.1-.4.1-.1 0-.2-.1-.3-.1h-.4c-.1 0-.2-.2-.3-.2h-.4c-.1 0-.2-.1-.3-.2h-.4c-.1 0-.2-.1-.3-.1-.1 0-.2-.1-.3-.1-.2 0-.2.1-.4 0-.2 0-.2 0-.3-.1-.2 0-.1-.1-.3-.2-.2 0-.2-.1-.3-.1-.2 0-.2-.1-.3-.1h-.4c-.2 0-.2 0-.3-.1-.1 0-.2 0-.3-.1-.1 0-.2-.2-.3-.2h-.4c-.1 0-.2-.2-.3-.2-.1-.1-.2-.1-.3-.2-.1-.1-.2-.2-.3-.2-.1-.1-.3 0-.4-.1-.1-.1-.1-.2-.2-.3-.1-.1-.1-.2-.2-.3-.1-.1-.3-.1-.3-.2-.1-.1-.1-.2-.2-.3-.1-.1-.2-.2-.2-.3-.1-.1 0-.3-.1-.4-.1-.1-.2-.2-.2-.3l-.3-.3c-.1-.1-.1-.2-.2-.3 0-.1 0-.2-.1-.3 0-.1-.1-.2-.2-.3v-.4c0-.1-.1-.2-.2-.3 0-.1.1-.3.1-.4 0-.1-.1-.2-.1-.3 0-.1 0-.2-.1-.3 0-.1 0-.2-.1-.3 0-.1-.1-.2-.2-.3 0-.1-.1-.2-.1-.3s-.1-.2-.1-.3v-.8c0-.1-.1-.2-.1-.3 0-.1-.2-.2-.2-.3v-.4c0-.1 0-.2-.1-.3v-.3h.3c.1 0 .2.1.3.1.1 0 .2.1.3.1.1 0 .2.1.3.1.1 0 .2.1.3.1.1 0 .2.1.3.2.1 0 .2 0 .3.1.1 0 .2.1.3.1h.6c.1 0 .2 0 .3.1.1 0 .2.2.3.2.1 0 .2-.1.4-.1.1 0 .2.1.3.1.1 0 .2.2.3.2.1 0 .2-.1.3 0 .1 0 .2.1.3.1h.6c.1 0 .2.1.3.1.1 0 .2-.1.4-.1.1 0 .2.1.3.1h.3c.1 0 .2.1.3.1.1 0 .2-.1.3-.1.1 0 .2.1.3.1h.3c.1 0 .2.1.3.1.1 0 .2-.1.3-.1.1 0 .2.1.3.1.1 0 .2-.1.3-.1h.3c.1 0 1.3.6 1.4.6zm12.3 17v.9c-.1.2-.2.2-.2.2s-.1 0-.3-.1c-.1-.1-.2-.1-.3-.2l-.3-.3c-.1-.1-.1-.2-.2-.3l-.2-.2c-.1-.1-.2-.1-.3-.2-.1-.1-.2-.1-.3-.2-.1-.1-.1-.2-.2-.3-.1-.1-.1-.2-.2-.3-.1-.1-.2-.1-.3-.2-.1-.1-.1-.2-.2-.3-.1-.1-.1-.2-.2-.3-.1-.1-.2-.1-.3-.2-.1-.1-.2-.1-.3-.2-.1-.1-.1-.2-.2-.3-.1-.1-.2-.1-.3-.2-.1-.1-.1-.2-.2-.3s-.1-.2-.2-.3c-.1-.1-.3-.1-.3-.1s-.2-.1-.3-.2c-.1-.1-.1-.2-.2-.3-.1-.1-.1-.2-.2-.3-.1-.1-.1-.2-.2-.3-.1-.1-.2-.1-.3-.2-.1-.1-.1-.2-.2-.3-.1-.1-.1-.2-.2-.3-.1-.1-.3-.1-.3-.1s-.1-.2-.2-.3l-.2-.2c-.1-.1-.2-.1-.3-.2-.1-.1-.1-.2 0-.3 0-.1.1-.2.2-.2s.2-.1.4-.2c.1 0 .2 0 .4-.1.2 0 .2 0 .3-.1h.3c.2 0 .2.1.3 0 .2 0 .1-.1.3-.2s.2 0 .3 0c.1 0 .2-.2.3-.2.1 0 .2-.1.3-.1.1 0 .3.1.4 0 .1 0 .2-.1.3-.2.1 0 .2-.1.3-.2h.4c.1-.1.1-.2.2-.3.1-.1.2-.1.3-.1.1-.1.1-.2.2-.3.1-.1.2-.1.3-.2.1-.1.2-.1.3-.2.1-.1.2-.1.3-.2.1-.1.1-.2.2-.3.1-.1.2-.1.3-.2.1-.1.2-.1.3-.2.1-.1.1-.2.1-.3.1-.1.2-.1.3-.2.1-.1 0-.3.1-.4.1-.1.1-.2.2-.3.1-.1.1-.2.1-.3h.3c.1 0 .2.1.2.2.1.1.2.1.2.2s.1.2.1.3c0 .1-.1.2-.1.3 0 .1.1.2.1.3 0 .1 0 .2-.1.3 0 .1.1.2.1.3 0 .1-.1.2-.1.3v.9c0 .1-.1.2-.1.3 0 .1.1.2 0 .3 0 .1.1.2.1.3 0 .1-.1.2-.1.3v1.2c0 .1-.1.2-.2.3v.3c0 .1-.1.2-.1.3 0 .1.1.2.1.3 0 .1-.1.2-.1.3v.6c0 .1-.1.2-.1.3 0 .1.1.2.1.3 0 .1-.1.2-.1.3v.3c0 .1.1.2.1.3 0 .1-.1.2-.1.3-.2 1.8-.3 1.9-.3 2zM105 75.7h.4c.1.1.2.1.3.3.1.1.2.2.3.2.1.1.1.2.1.3.1.1.1.2.2.3.1.1.2.2.3.2.1.1.1.2.2.3.1.1.1.2.2.3l.2.2c.1.1.2.1.3.2.1.1.2.1.3.2.1.1.1.2.2.3.1.1.2.2.3.2.1.1.2.1.3.1.1.1.2.1.3.2.1.1.2.2.3.2.1.1.2.1.3.1.1 0 .2 0 .3.1.1 0 .2.1.3.2.1 0 .2 0 .3.1.1 0 .2.1.3.2.2 0 .1.1.3.1.2 0 .2-.1.4-.1s.2 0 .3.1c.2 0 .2.1.3.1.2 0 .1.1.3.2.1 0 .1.1.1.2s.1.2 0 .3c-.1.1-.2.1-.3.2-.1.1-.2.1-.3.2-.1.1-.1.3-.2.3-.1.1-.2.1-.3.1-.1.1-.2.2-.3.2-.1.1-.1.2-.2.3-.1.1-.2.1-.3.2-.1.1-.2.2-.3.2-.1.1-.1.2-.2.3-.1.1-.2.1-.3.2-.1.1-.2.2-.3.2-.1.1-.2.1-.3.2-.1.1-.3.1-.3.1-.1.1-.1.2-.2.3-.1.1-.2.1-.3.1-.1.1-.1.3-.2.3-.1.1-.2.1-.3.2-.1.1-.3 0-.4.1-.1.1-.1.2-.2.3-.1.1-.2.2-.3.2-.1.1-.3 0-.4.1-.1.1-.1.2-.2.3-.1.1-.2.1-.3.2-.1 0-.1.2-.2.2l-.2.2c-.1.1-.2.1-.3.2-.1.1-.3.2-.4.2 0 0-.2 0-.2-.2v-.6c0-.1-.1-.2-.1-.3 0-.1.1-.2.1-.3 0-.1-.1-.2-.1-.3v-.3c0-.1-.1-.2-.1-.3v-.3c0-.1.1-.2.1-.3 0-.1-.1-.2-.1-.3 0-.1-.1-.2-.1-.3 0-.1.1-.2.1-.3 0-.1-.1-.2-.1-.3V82c0-.1-.1-.2-.1-.3 0-.1.1-.2.1-.3v-.6c0-.1-.1-.2-.1-.3v-.3c0-.1-.1-.2-.1-.3 0-.1-.1-.2-.1-.3 0-.1.1-.2 0-.3v-.9c0-.1-.1-.2-.1-.3 0-.1.1-.2.1-.3 0-.1-.1-.2-.1-.3v-.3c0-.1-.1-.2-.1-.3 0-.1.1-.2.2-.3.1-.1.2-.2.3-.2h.3c.1-.8.2-.7.3-.7zm-4.7.5c.1 0 .2-.1.3-.1.1 0 .2 0 .3.1.1 0 .3 0 .3.1.1.1.1.2.2.3.1.1.1.2.2.3.1.1.1.2.2.3v1.1c0 .1.1.2.1.3 0 .1.1.2.1.3 0 .1-.1.2 0 .4v.4c0 .1.1.2.1.3v.8c0 .1.1.2.1.3 0 .1.1.2.1.3v.4c0 .1.1.2.1.3v.8c0 .1.2.2.2.3 0 .1.1.2.1.3v.4c0 .1-.1.2-.1.4v.4c0 .1.1.2.1.3v.8c0 .1.2.2.2.3 0 .1-.1.2-.1.4 0 .1.1.2.1.3 0 .1.1.2.2.3 0 .1 0 .2.1.3.1.1.1.2.2.3.1.1.2.1.3.2.1.1.1.2.2.2.1.1.2.1.3.2.1.1.2.1.3.2.1 0 .2.2.3.2.1 0 .2-.1.3-.1.1 0 .2.1.4.1.1 0 .2-.2.3-.2.1 0 .2-.1.3-.1.1-.1.3 0 .4 0 .1-.1.2-.2.2-.3.1-.1.2-.2.3-.2.1-.1.3-.1.4-.1.1-.1.1-.2.2-.3.1-.1.2-.1.3-.2.1-.1.1-.2.2-.3.1-.1.2-.1.3-.2.1-.1.2-.1.3-.2.1-.1.2-.1.3-.2.1-.1.1-.2.2-.3.1-.1.2-.1.3-.2.1-.1.2-.1.3-.2.1-.1.1-.2.2-.3.1-.1.3 0 .3-.1.1-.1.1-.2.2-.3.1-.1.2-.1.3-.2.1-.1.1-.2.2-.3.1-.1.2-.1.3-.2.1-.1.3 0 .3-.1.1-.1.1-.2.2-.3.1-.1.1-.2.2-.3s.2-.1.3-.1c.1-.1.1-.2.2-.3.1-.1.2-.1.3-.2.1-.1.1-.2.2-.3.1-.1.2-.1.3-.1.1-.1.2-.1.3-.2.1-.1.2-.1.3-.2l.2-.2c.1-.1.2-.1.3-.2.1-.1.1-.2.2-.3.1-.1.1-.2.2-.3.1-.1.2-.1.3-.2h.4v.6c0 .1-.1.2-.2.3v.3c0 .1-.1.2-.1.3 0 .1.1.2.1.3 0 .1-.1.2-.1.3v.6c0 .1-.1.2-.1.3 0 .1.1.2.1.3 0 .1-.1.2-.1.3v.3c0 .1.1.2.1.4 0 .1-.1.2-.1.3 0 .1.1.2.1.4 0 .1-.1.2-.1.3 0 .1.1.2 0 .3 0 .1-.2.2-.2.3 0 .1.1.2 0 .3 0 .1-.1.2-.1.3 0 .1.1.2 0 .3 0 .1 0 .2-.1.3 0 .1-.1.2-.1.3 0 .1.1.2.1.4v.3c0 .1-.1.2-.1.3 0 .1-.1.2-.1.3v1.2c0 .1-.1.2-.2.3 0 .1.1.2.1.4 0 .1-.1.2-.2.3-.1.1-.2.1-.3.2h-.3v.1c-.1 0-.2-.1-.3-.1-.1 0-.2-.1-.3-.1-.1 0-.2.1-.4.1h-.6c-.1 0-.2-.1-.4-.1-.1 0-.2.1-.3.1-.1 0-.2.1-.3.1-.1 0-.2.1-.3.1h-.4c-.1 0-.2.1-.3.1h-.4c-.1 0-.2.1-.3.2-.1 0-.3-.1-.4 0-.1 0-.2.1-.3.2-.1 0-.2.1-.3.1-.1.1-.2.1-.3.1-.1 0-.1.2-.2.2h-.6c-.1 0-.2-.2-.3-.2-.1 0-.2-.1-.3-.1h-.3c-.1 0-.2.1-.3.1-.1 0-.2-.1-.3-.1h-.6c-.1 0-.2.2-.3.2h-.3c-.1 0-.2.1-.3.1-.1 0-.2.1-.3.1-.1 0-.2.1-.3.1-.1.1-.2 0-.3.1l-.2-.2c-.1-.1-.1-.2-.1-.3-.1-.1-.2-.1-.2-.2-.1-.1-.2-.2-.2-.3-.1-.1-.1-.2-.2-.3-.1-.1 0-.3 0-.4 0-.1-.2-.2-.2-.3 0-.1-.1-.2-.1-.3 0-.1.1-.3.1-.4 0-.1-.2-.2-.2-.3 0-.1.1-.2.1-.3v-.6c0-.1.2-.2.2-.3V89c0-.1.2-.2.2-.2.1-.1.1-.2.2-.3.1-.1.2-.2.2-.3 0-.1-.1-.2-.1-.4 0-.1 0-.3-.1-.4-.1-.1-.2-.1-.3-.2-.1-.1-.1-.2-.2-.2-.1-.1-.2-.1-.3-.1-.1 0-.2-.2-.3-.1-.1 0-.2.2-.3.3l-.2.2c-.1.1-.2.1-.3.2-.1.1 0 .2-.1.3 0 .1-.1.2-.1.3 0 .1-.1.2-.1.3 0 .1-.1.2-.1.3v.3c0 .1-.2.2-.2.3 0 .1 0 .2-.1.3 0 .1-.1.2-.1.3v.3c0 .1.1.2.1.3v.3c0 .1.1.2.2.3v.3c0 .1.2.2.2.3 0 .1.1.2.1.3 0 .1-.1.3 0 .4 0 .1.1.2.1.3.1.1.1.2.2.3.1.1.1.2.2.3.1.1.1.2.2.3.1.1.2.1.3.2.1.1.1.2.1.3.1.1.3.1.3.2.1.1.1.2.2.3l-.3.3c-.1.1 0 .3-.1.4-.1.1-.2.2-.2.3 0 .1 0 .2-.1.4 0 .1-.1.2-.1.3 0 .1-.1.2-.1.3-.1 0-.2.1-.3 0-.1 0-.2-.2-.3-.2-.1 0-.2-.1-.3-.1-.1 0-.3.1-.4.1s-.2-.2-.3-.2c-.1 0-.2-.1-.3-.1h-.9c-.1 0-.2-.1-.3-.2-.1-.1-.2-.1-.2-.2-.1-.1-.1-.2-.2-.3-.1-.1-.2-.1-.3-.2-.1-.1-.1-.3-.1-.3-.1-.1-.2-.1-.3-.2-.1-.1-.2-.2-.3-.2-.1-.1-.2-.2-.3-.2-.1-.1-.1-.2-.2-.3-.1-.1-.2-.1-.3-.1-.1-.1-.2-.1-.3-.2-.1 0-.2-.1-.3-.1h-1c-.1 0-.2-.1-.3-.1-.1 0-.2.1-.3.1h-.9c-.1 0-.2 0-.3.1-.1 0-.2.1-.3.1-.1 0-.2.2-.3.2-.1 0-.2 0-.3.1-.1 0-.2.1-.3.2-.1 0-.2.1-.3.2-.1.1-.2 0-.3.1-.1.1-.2.1-.3.2l-.2.2c-.1.1-.1.2-.2.2-.1.1-.2.1-.3.2-.1.1-.1.2-.2.2-.1.1-.2.1-.3.2-.1.1-.1.2-.2.3-.1.1-.2.1-.2.2-.1.1 0 .3-.1.4-.1.1-.2.2-.2.3v.4c0 .1-.1.2-.1.3 0 .1-.1.2-.1.3v.6l-.3.3c-.1.1-.1.1-.2.1-.1.1-.2 0-.3.1-.1.1-.2.2-.3.2-.1.1-.2.1-.3.2h-.4c-.1 0-.2.1-.3.2-.1 0-.1.2-.3.3-.1 0-.2 0-.3.1-.1 0-.2.1-.3.1-.1 0-.2 0-.3.1-.1 0-.2.1-.3.1-.1 0-.2.1-.3.2h-.4c-.1 0-.2.2-.3.2-.1 0-.2.1-.3.2-.1 0-.2.1-.3.1s-.3-.1-.4 0c-.1 0-.2.1-.3.1s-.2.2-.3.2c-.1 0-.2.1-.3.1h-.3c-.1 0-.2 0-.3-.1-.1 0-.2-.1-.3-.2-.1 0-.2 0-.3-.1-.1-.1-.1-.2-.2-.3-.1-.1-.2-.1-.3-.2-.1-.1-.1-.2-.1-.3 0-.1-.1-.2-.2-.3 0-.1-.1-.2-.1-.3 0-.1 0-.2-.1-.3 0-.1-.1-.2-.1-.3 0-.1-.2-.2-.2-.3v-.4c0-.1 0-.2-.1-.3 0-.1-.1-.2-.2-.3 0-.1-.1-.2-.2-.3v-.4c0-.1-.1-.2-.2-.3 0-.1.1-.3 0-.4 0-.1-.1-.2-.1-.3 0-.1-.1-.2-.2-.3 0-.1 0-.2-.1-.3 0-.1-.1-.2-.1-.3 0-.1-.1-.2-.1-.3v-.3c0-.1 0-.2-.1-.3 0-.1-.2-.2-.2-.3 0-.1.1-.2 0-.4 0-.1-.1-.2-.1-.3 0-.1 0-.2-.1-.3 0-.1-.1-.2-.2-.3 0-.1.1-.2 0-.4 0-.1-.2-.2-.2-.3v-.3c0-.1 0-.2-.1-.3v-.3c0-.1-.2-.2-.2-.3v-.9c0-.1-.1-.2-.1-.3 0-.1 0-.2-.1-.3 0-.1.1-.2.1-.3v-.6c0-.1-.2-.2-.2-.3s.1-.2.1-.3c0-.1.1-.2.1-.3 0-.1-.1-.2 0-.4 0-.1.1-.2.1-.3 0-.1.1-.2.1-.3v-.4c.1-.1.1-.2.2-.3.1-.1.2-.2.2-.3.1-.1.1-.2.2-.3l.2-.2c.1-.1.1-.2.2-.3.1-.1.3-.1.3-.1.1-.1.1-.2.2-.3.1-.1.2-.1.3-.2.1-.1.2-.1.3-.2.1-.1.1-.2.2-.3.1-.1.1-.2.2-.3.1-.1.2-.1.3-.2l.2-.2.2-.2c.1-.1.2-.1.3-.2.1-.1.1-.2.2-.3.1-.1.2-.2.3-.2.1-.1.2-.1.3-.1.1-.1.2-.1.3-.2.1-.1.1-.2.2-.3.1-.1.2-.1.3-.2.1-.1.2-.1.3-.2.1-.1.2-.1.3-.2l.2-.2s.2-.1.3-.2c.1-.1.3 0 .3-.1-.5.9-.5.7-.4.7.1-.1.2-.1.3-.2.1-.1.2 0 .3-.1.1-.1.2-.2.3-.2.1-.1.2 0 .3-.1.1 0 .2 0 .3-.1.1 0 .2-.1.3-.2.1 0 .2-.1.3-.2.1 0 .2-.2.3-.2.1 0 .2-.1.3-.1h.4c.1 0 .2-.1.3-.1.1 0 .2-.1.3-.1.1 0 .2-.1.3-.2.1 0 .2-.1.3-.1.1 0 .2-.1.3-.1.1 0 .2-.1.3-.1.1 0 .2-.2.3-.2h.3c.1 0 .2-.1.3-.1.1 0 .2-.1.3-.2.1 0 .3.1.4 0 .1 0 .2-.2.3-.2h.4c.1 0 .2-.1.3-.2h.4c.1 0 .2-.1.3-.2s.2 0 .3 0c.1 0 .2-.1.3-.2.1 0 .2 0 .3-.1.1 0 .2-.1.3-.1.1 0 .2-.1.3-.1h.3c.1 0 .2-.1.3-.1h.3c.1 0 .2-.2.3-.2.1 0 .2 0 .3-.1.1 0 .2.1.4 0 .1 0 .2-.2.3-.2h.3c.1 0 .2-.1.3-.1.1 0 .2-.1.3-.1s.2.1.4 0c.1 0 .2-.2.3-.2.1 0 .2.1.4.1h.3c.1 0 .2-.1.3-.1h.3c.1 0 .2-.1.3-.1s.2.1.4.1c.1 0 .2-.2.3-.2.1 0 .2.1.4 0h.3c.5.1.6.1.7.1zM94.1 102c0-.2.1-.3.2-.4.1-.1.1-.2.2-.3.1-.1.2-.1.3-.2.1-.1.2-.1.3-.2l.2-.2c.1-.1.2-.1.3-.2.1-.1.2-.1.3-.1.1-.1.2-.1.3-.1.1 0 .2-.1.3-.2.1 0 .2-.1.3-.2h.7c.1 0 .2-.1.3-.1h.3c.1 0 .2 0 .3.1h.6c.1 0 .2.1.3.1.1 0 .2 0 .3.1.1 0 .2.1.3.2.1 0 .2.1.3.2h.4c.1.1.2.1.3.2 0 .1.1.3.1.4v.4c0 .1.1.2.1.3.1.1.2.1.3.2.1.1.1.2.2.3.1.1.1.2.2.3.1.1.3.1.3.2.1.1.1.2.2.3.1.1.2.1.3.2.1.1.2.1.3.2.1.1.1.2.2.3.1.1.2.1.3.2.1.1.2.1.3.1.1.1.2.1.3.2.1.1.2.1.3.2l.3.3c-.1 0-.3-.1-.4-.1h-.4c-.1 0-.2-.1-.3-.1-.1 0-.3.1-.4.1-.1 0-.2 0-.3-.1-.1 0-.2-.2-.3-.2h-.7c-.1 0-.2-.2-.3-.2-.1 0-.2.1-.4 0-.1 0-.2-.1-.3-.1h-.4c-.1 0-.2-.1-.3-.1-.1 0-.2-.1-.3-.1-.1 0-.2-.1-.3-.1h-.4c-.1 0-.2-.1-.3-.1-.1 0-.2-.1-.3-.1h-.4c-.1 0-.2-.2-.3-.2-.1 0-.3.1-.4 0-.1 0-.2-.1-.3-.1h-.3c-.1 0-.2-.1-.3-.1-.1 0-.2-.2-.3-.2h-.8c-.1 0-.2-.2-.3-.2h-.3c-.1 0-.2-.1-.3-.1h-.4c.2-.5.1-.6 0-.7zm-4.4-2.6c0-.1.1-.1.1-.2s.1-.2.1-.2c.1-.1 0-.2.1-.3.1-.1.2-.1.3-.2.1-.1.2-.1.3-.2.1-.1.1-.2.2-.2.1-.1.2-.1.3-.1.1-.1.2-.1.3-.1.1-.1.2-.1.3-.2.1 0 .2-.2.3-.2.1 0 .2-.1.3-.2h.7c.1 0 .2-.1.3-.1h.3c.1 0 .2.1.3.1.1 0 .2 0 .3.1.1 0 .2 0 .3.1.1.1.2.2.3.2.1.1.2.1.3.2.1.1.1.2.2.3l.2.2c-.1 0-.1.2-.2.2s-.2.1-.3.2c-.1 0-.2.1-.3.1-.1.1-.2 0-.3.1-.1.1-.2.1-.3.1-.1.1-.1.2-.2.3-.1.1-.2.1-.3.2-.1.1-.2.1-.3.2-.1.1-.1.3-.1.3-.1.1-.2.1-.3.2-.1-.1-.2-.1-.3-.2-.1-.1-.2-.1-.3-.1-.1 0-.2-.1-.3-.2-.1 0-.2-.1-.3-.1h-.3c-.1 0-.2 0-.3-.1h-.6c-.1 0-.2-.1-.3-.1-.2-.2-.3-.2-.5-.1zm18.7-2.1c.1.1.2.1.3.2.1.1.1.2.2.3.1.1.2.1.3.2.1.1.1.2.1.3.1.1.1.2.2.3.1.1.2.2.2.3.1.1.1.2.1.3.1.1.1.2.1.3.1.1.1.2.2.3.1.1.2.2.2.3.1.1.2.2.2.3 0 .1 0 .2.1.3 0 .1.1.2.1.3 0 .1.2.2.2.3 0 .1.1.2.1.3 0 .1 0 .2.1.3 0 .1.1.2.1.3 0 .1.1.2.2.3v.3c0 .1.1.2.1.3v.6c0 .1.2.2.2.3v.3c0 .1-.1.2-.1.3-.1.2-.2.2-.3.2-.1.1-.2.1-.3.1-.1 0-.2.2-.3.2-.1 0-.2-.1-.3-.1-.1 0-.2-.1-.3-.1-.1 0-.2.1-.4.1-.1 0-.2-.2-.3-.2-.1 0-.2-.1-.3-.1-.1 0-.2 0-.3-.1-.1 0-.2-.1-.3-.2-.1 0-.2-.1-.3-.1-.1 0-.2 0-.3-.1-.1-.1-.2-.1-.3-.2-.1-.1-.2-.1-.3-.2-.1-.1-.2-.1-.3-.2-.1-.1-.1-.2-.2-.3-.1-.1-.2 0-.3-.1-.1-.1-.1-.2-.2-.3-.1-.1-.3 0-.4-.1-.1-.1-.2-.1-.3-.2-.1-.1-.1-.3-.2-.3-.1-.1-.2-.1-.3-.1-.1-.1-.2-.1-.3-.2-.1-.1-.1-.2-.2-.3-.1-.1-.2-.1-.3-.1-.1-.1-.1-.2-.2-.3-.1-.1-.2-.1-.3-.2-.1-.1-.2-.2-.2-.3-.1-.1-.1-.2-.2-.3-.1-.1-.1-.2-.1-.3 0-.1-.2-.2-.2-.3v-.6c0-.1-.1-.2-.1-.3 0-.1.1-.2.2-.3 0-.1-.1-.2-.1-.3 0-.1.1-.2.1-.3 0-.1 0-.2.1-.3 0-.1.1-.2.2-.3.1-.1.2-.1.3-.2.1-.1.1-.2.1-.3.1-.1.1-.2.2-.3l.1.1c.1-.1.2-.2.2-.3.1-.1.2-.1.3-.1.1 0 .2-.2.3-.2h1.5c.1 0 .2.1.3.1h.4c.1 0 .2 0 .4.1.1 0 .2.2.3.2.1.1.2.1.3.2.1.1.2.1.3.2-.2.1-.2.2-.1.3zm1.6-1.5s-.1.1 0 0c0 0 .1 0 .2-.1.1 0 .2-.2.3-.2h.3c.1 0 .2 0 .3-.1.1 0 .2-.1.3-.1h.9c.1 0 .2-.1.3-.1.1 0 .2-.1.3-.1.1 0 .2.1.3.1.1 0 .2 0 .3.1h.3c.1 0 .2.1.3.1.1 0 .2.1.3.1.1 0 .2 0 .3.1.1 0 .2 0 .3.1.1 0 .2.2.3.2.1 0 .2.1.3.1.1.1.2.2.3.2l.2.2c.1.1.3 0 .4.1.1.1.2.1.3.2.1.1.2.2.2.3.1.1.1.2.2.3.1.1.1.2.2.3.1.1.2.1.3.2.1.1.1.2.1.3.1.1.1.3.2.4-.1 0-.1.1-.3.1-.1 0-.2-.1-.3-.1-.1 0-.2 0-.3.1-.1 0-.2.1-.3.1h-.3c-.1 0-.2.1-.3.1-.1 0-.2.1-.3.2-.1 0-.2.1-.3.1-.1 0-.2.1-.3.1-.1 0-.2.1-.3.1h-.4c-.1 0-.2.2-.3.2-.1.1-.2 0-.3.1-.1.1-.1.2-.2.3-.1.1-.2.1-.3.2-.1.1-.3 0-.4.1-.1.1-.1.2-.2.3l-.3.3v-.4c0-.1-.2-.2-.2-.3 0-.1 0-.2-.1-.3 0-.1-.2-.2-.2-.3 0-.1-.1-.2-.1-.3-.1-.1-.1-.2-.1-.3-.1-.1-.1-.2-.1-.3-.1-.1-.2-.2-.2-.3-.1-.1-.1-.2-.1-.3-.1-.1-.1-.2-.1-.3l-.2-.2c-.1-.1 0-.3-.1-.3-.1-.1-.2-.1-.3-.2-.1-.1-.1-.2-.2-.3l-.2-.2c-.1-.1-.1-.2-.2-.3-.2-.1-.2-.3-.2-.4zm-22 6.6l.2-.2c.1-.1.2-.1.3-.2.1-.1.2-.2.3-.2.1 0 .2 0 .3-.1.1 0 .2-.1.3-.1.1 0 .2-.1.3-.2.1 0 .2 0 .3-.1h1.4c.1 0 .2.2.3.2.1.1.2.2.2.3.1.1.2.2.2.3v.3c0 .1-.1.2-.1.3 0 .1 0 .2-.1.3 0 .1 0 .2-.1.3-.1.1-.2.1-.3.2-.1.1-.1.2-.2.3-.1.1-.2.1-.3.2-.1.1-.2.1-.3.2-.1.1-.1.2-.2.3-.1.1-.2.1-.3.2-.1.1-.2.1-.3.1-.1.1-.2 0-.3.1-.1.1-.2.1-.3.1-.1.1-.1.2-.3.3-.1.1-.2.1-.3.1-.1.1-.2.1-.3.1-.1.1-.1.2-.2.3h-.4c-.1 0-.2.1-.3.2-.1 0-.2.1-.3.2-.1 0-.2 0-.3.1-.1 0-.2.1-.3.1-.1 0-.2.2-.3.2-.1 0-.2.1-.3.1-.1 0-.2.1-.3.1-.1 0-.2 0-.3.1H85c-.1 0-.2.1-.3.2h-.4c-.1 0-.2.2-.3.2-.1 0-.2.1-.3.1s-.3-.1-.4-.1c-.1 0-.2.1-.3.1h-.4c-.1 0-.2-.2-.3-.3-.1-.1-.3 0-.3-.1-.1-.1-.1-.2-.2-.3-.1-.1-.2-.1-.2-.2-.1-.1-.1-.2-.1-.3s-.1-.2-.1-.3-.1-.2-.1-.3c-.1-.1-.2-.2-.2-.4 0-.1.1-.2.2-.3.1-.1.2-.1.3-.1.1 0 .2-.1.3-.2s.3.1.4 0c.1 0 .2-.2.3-.2.1 0 .2-.1.3-.1s.2-.1.3-.2.2-.1.3-.1c.1 0 .3.1.4 0 .1 0 .2-.2.3-.2.1 0 .2-.2.3-.2h.4c.1 0 .2-.1.3-.2.1 0 .2 0 .3-.1.1 0 .2-.2.3-.2.1 0 .2 0 .3-.1.1 0 .2-.1.3-.1.1 0 .2-.1.3-.1.1 0 .2-.1.3-.2.1 0 .2 0 .3-.1.1 0 .2-.1.3-.2s.2-.2.3-.2c-.1.2 0 .3.1.3zm3 4.2c.1-.1.2-.2.3-.2.1 0 .2-.1.3-.1.1 0 .2-.1.3-.1.1 0 .2.1.3.1.1 0 .2.1.3.1.1 0 .2 0 .3.1.1 0 .2.1.3.2.1 0 .2.1.3.2.1.1.1.2.2.3.1.1.2.2.2.3 0 .1.1.2.1.4 0 .1-.1.2-.1.4 0 .1-.1.2-.2.3-.1.1-.1.2-.2.3-.1.1-.2.1-.3.2-.1.1-.2.1-.3.2-.1.1-.2.2-.3.2-.1.1-.2.2-.2.3-.1.1-.2.1-.3.1-.1.1-.2.2-.3.2-.1.1-.2.1-.3.1-.1.1-.2.1-.3.1-.1.1-.1.2-.2.3-.1.1-.2.1-.3.2-.1.1-.2.1-.3.1-.1.1-.2 0-.3.1-.1.1-.2.1-.3.1l-.3.3c-.1.1-.2 0-.3.1-.1 0-.2.1-.3.1-.1 0-.1.2-.3.3h-.4c-.1 0-.2.1-.3.1-.1 0-.2.1-.3.2-.1 0-.2 0-.3.1-.1 0-.2.1-.3.1-.1 0-.2.1-.3.1-.1 0-.2 0-.4-.1-.1 0-.2-.1-.3-.1-.1-.1-.2-.1-.3-.2-.1-.1-.1-.2-.2-.3-.1-.1-.2-.1-.3-.2-.1-.1-.1-.2-.1-.3-.1-.1-.3-.1-.3-.2-.1-.1-.1-.2-.2-.3-.1-.1 0-.3-.1-.4-.1-.1-.2-.1-.3-.2-.1-.1-.2-.2-.2-.3 0-.1.2-.2.2-.3.1-.1.1-.2.2-.3h.3c.1 0 .2-.1.3-.2.1 0 .2-.1.3-.1.1 0 .2 0 .3-.1.1 0 .2-.1.3-.1.1 0 .2-.1.3-.2.1 0 .2 0 .3-.1s.2 0 .3-.1c.1 0 .2-.2.3-.2h.4c.1 0 .2-.2.3-.2.1 0 .2-.1.3-.1.1 0 .2-.1.3-.2.1 0 .2-.1.3-.1h.4c.1 0 .2-.2.3-.2.1-.1.2-.2.3-.2.1-.1.3 0 .4-.1.1-.1.2-.2.3-.2.1-.1.2-.1.3-.1s.3-.1.4-.2zm14.4.4h.7c.1 0 .2-.1.4 0 .1 0 .2.1.3.1.1 0 .2 0 .3.1h.4c.1 0 .2.1.3.1.1 0 .2.1.3.1h1.1c.1 0 .2.1.3.1.1 0 .2.1.3.1h.4c.1 0 .2.1.3.1s.2.1.3.1h.7c.1.1.2.2.2.3.1.1.2.2.2.3v.3c0 .1-.1.2-.1.3 0 .1.1.2.1.4v.3c0 .1-.1.2-.1.3 0 .1-.1.2-.1.3 0 .1-.1.2-.1.3 0 .1.1.2.1.4 0 .1-.1.2-.1.3 0 .1-.1.2-.1.3 0 .1.1.2.1.4 0 .1-.1.2-.1.3v.6c0 .1-.1.2-.1.3v.3c0 .1.1.2.1.3v.6c0 .1 0 .2-.1.3 0 .1-.1.2-.1.3 0 .1.1.2.1.3 0 .1-.1.2-.1.3 0 .1.1.2.1.4v.3c0 .1-.2.2-.2.3 0 .1.1.2 0 .3v.3c0 .1-.2.2-.2.3 0 .1.1.2.1.4 0 .1-.1.2-.1.3 0 .1.1.2.1.3v.9c0 .1.1.2.1.3 0 .1-.1.2-.1.3 0 .1-.1.2-.1.3 0 .1.1.2.1.3 0 .1-.1.2-.1.3 0 .1.1.2.1.3v.9c0 .1-.1.2-.1.3 0 .1.1.2.1.3 0 .1.1.2.1.3 0 .1-.1.2-.2.3 0 .1 0 .2-.1.3 0 .1-.1.2-.2.3-.1.1-.1.2-.2.3-.1.1-.2.1-.3.1-.1 0-.2.1-.3.1h-.6c-.1 0-.2-.1-.3-.1h-.8c-.1 0-.2-.1-.3-.1-.1 0-.2-.1-.3-.1-.1 0-.2 0-.3-.1-.1 0-.2 0-.3-.1h-.4c-.1 0-.2-.2-.3-.2h-.4c-.1 0-.2-.1-.3-.1h-.4c-.1 0-.2-.1-.3-.2-.1 0-.2 0-.3-.1-.1-.1-.2-.1-.3-.2-.1-.1-.1-.2-.1-.3-.1-.1-.2-.1-.2-.3v-.3c0-.1-.1-.2-.1-.3 0-.1-.1-.2-.1-.4 0-.1.1-.2.1-.3 0-.1-.1-.2-.1-.3 0-.1.1-.2.1-.3 0-.1-.1-.2 0-.3 0-.1.1-.2.2-.3 0-.1-.1-.2-.1-.3 0-.1.1-.2.1-.3 0-.1-.1-.2-.1-.3v-.3c0-.1.1-.2.1-.3 0-.1-.1-.2-.1-.3v-.3c0-.1.1-.2.1-.3 0-.1.1-.2.1-.3v-.3c0-.1-.1-.2 0-.3v-.6c0-.1.1-.2.1-.3 0-.1-.1-.2-.1-.3 0-.1.1-.2.1-.3v-.3c0-.1.1-.2.1-.3 0-.1-.1-.2-.1-.3 0-.1.1-.2.1-.3v-.3c0-.1-.1-.2-.1-.3v-.6c0-.1.1-.2.1-.3v-.3c0-.1-.1-.2-.1-.3v-.3c0-.1.1-.2.1-.3v-.3c0-.1.1-.2.1-.3 0-.1-.1-.2-.1-.3 0-.1.2-.2.2-.3v-.9c0-.1-.1-.2-.1-.3v-.6c0-.1.2-.2.2-.3.1-.1.2-.1.2-.2.1-.1.1-.1.3-.2.1 0 .2-.2.3-.2-.3-.6-.2-.5-.1-.4zm7.8-1.3v.1c0-.1.1-.2.1-.3v-.3c0-.1.1-.2.1-.3 0-.1 0-.2.1-.3v-1.2c0-.1 0-.2-.1-.4 0-.1-.1-.2-.1-.4.1-.1.1-.2.2-.3.1-.1.2-.1.3-.2.1-.1.2-.1.3-.2.1-.1.1-.2.2-.3.1-.1.2-.1.3-.2.1-.1.2-.1.3-.1.1-.1.2-.1.3-.2.1-.1.2-.2.3-.2.1 0 .2 0 .4-.1.1 0 .2-.1.3-.2h.8c.1 0 .2-.2.3-.2.1 0 .2-.1.3-.1h.3c.1 0 .2.1.3.1h.3c.1 0 .2-.1.3-.1.1 0 .2.1.3.1.1 0 .2.1.3.1.1 0 .3-.1.4-.1.1 0 .2.2.3.2.1 0 .2.1.3.1.1 0 .2 0 .3.1.1.1.2.2.3.2.1.1.2.1.3.2.1.1.2.1.3.2l.3.3c0 .1 0 .3-.1.4 0 .1-.1.2-.1.3 0 .1-.2.2-.2.3 0 .1.1.2 0 .3 0 .1-.1.2-.1.3 0 .1.1.2.1.3v.3c0 .1-.1.2-.1.4 0 .1.1.2.1.3 0 .1.1.2.1.3 0 .1-.1.3 0 .4 0 .1.2.2.2.3h-.4c-.1 0-.2.1-.3.1h-.9c-.1 0-.2.1-.3.1-.1 0-.2-.1-.3 0-.1 0-.2-.1-.3-.1-.1 0-.2.1-.3.1-.1 0-.2-.1-.3-.1-.1 0-.2.1-.3.1h-.9c-.1 0-.2-.1-.3-.1-.1 0-.2.1-.3.1-.1 0-.2.1-.3.1-.1 0-.2-.1-.3-.1h-.3c-.1 0-.2-.1-.3-.1-.1 0-.2.1-.3.1-.1 0-.2-.1-.3-.1h-1.9zm17.8-4.9c-.1.1-.1.2-.2.3-.1.1-.1.2-.2.3-.1.1-.1.2-.2.3-.1.1-.2.1-.3.2-.1.1-.2.1-.2.2-.1.1-.1.2-.2.3-.1.1-.2.1-.3.2-.1.1-.2.1-.3.2-.1.1-.2.1-.3.2-.1.1-.1.2-.2.3-.1.1-.1.2-.2.3-.1.1-.2.1-.3.1-.1.1-.2.1-.3.2-.1.1-.1.2-.2.3-.1.1-.2.1-.3.2-.1.1-.2.1-.3.1-.1.1-.2.2-.3.2-.1.1-.2.2-.3.2-.1.1-.2.1-.3.1-.1.1-.2.1-.3.2-.1 0-.2 0-.3.1-.1 0-.2 0-.3.1-.1 0-.2.2-.3.2-.1 0-.2.1-.3.1h-.3c-.2 0-.2-.2-.3-.2-.1-.1-.1-.2-.2-.3 0-.1-.2-.2-.2-.3v-.6c0-.1-.1-.2-.1-.3 0-.1.1-.2.1-.3v-.6c0-.1.1-.2.1-.3 0-.1 0-.2.1-.3v-.3c0-.1.1-.2.1-.3 0-.1.1-.2.1-.3 0-.1.1-.2.1-.3 0-.1.2-.2.2-.3v-.3c0-.1.2-.2.2-.3 0-.1-.1-.3 0-.4 0-.1.1-.2.1-.3 0-.1.2-.2.3-.3 0-.1 0-.2.1-.3 0-.1.1-.2.1-.3.1-.1.2-.1.3-.2.1-.1 0-.3.1-.3.1-.1.2-.2.2-.3.1-.1.1-.2.1-.3.1-.1.1-.2.2-.3l.2-.2c.1-.1.2-.1.3-.2.1-.1.1-.2.2-.3.1-.1.2-.1.3-.1.1 0 .2 0 .3-.1.1 0 .2-.1.3-.2.1 0 .2.1.3.1.1 0 .2-.1.3-.1h.6c.1 0 .2.1.3.1.1 0 .2.2.3.2.1 0 .3 0 .4.1.1.1.3.1.3.1l-.1.1c.1.1.2.1.3.2.1.1.1.2.2.3.1.1.2.1.3.2.1.1 0 .3.1.4 0 .1.1.2.1.3 0 .1.1.2.1.3 0 .1.1.2.1.3v.4c0 .1.1.2 0 .4v.4c0 .1-.1.2-.1.3 0 .1-.1.2-.1.3 0 .1-.1.2-.1.3.3-.3.2-.3.1-.2zm1.8 1.2c.1-.1.1-.2.1-.3.1-.1.1-.2.2-.3 0-.1 0-.2.1-.4 0-.1.2-.2.2-.3 0-.1.1-.2.1-.3.1 0 .2-.1.3-.1h.4c.1 0 .2.1.4.1.1 0 .2 0 .4.1h.4c.1 0 .3 0 .4.1.1 0 .2.2.3.2.1.1.2.1.3.2.1.1.2.1.3.2.1.1.1.2.2.3.1.1.1.2.2.3.1.1.2.1.2.2.1.1.2.1.2.2.1.1.1.2.1.3.1.1.1.2.2.2.1.1.1.1.1.3h-.3c-.1 0-.2.2-.3.3-.1 0-.2.1-.3.1s-.2 0-.3.1h-.3c-.1 0-.2 0-.3.1-.1 0-.2.2-.3.2h-.6c-.1 0-.2.2-.3.2h-.4c-.1 0-.2.1-.3.1-.1 0-.2.1-.3.1h-.3c-.1 0-.2.1-.3.1-.1 0-.2.1-.3.2-.1 0-.2 0-.3.1-.1 0-.2.1-.3.1h-.3c-.1 0-.2-.1-.4 0-.1 0-.2.1-.3.1h-.3c-.1 0-.2.2-.3.2-.1 0-.2 0-.3.1-.1 0-.2-.1-.3 0l.2-.2c.1-.1.1-.2.2-.2.1-.1.3 0 .3-.1.1-.1.1-.2.2-.3.1-.1.2-.1.3-.2.1-.1.1-.2.2-.3l.2-.2c.1-.1.2-.1.3-.2l.2-.2c.1-.1.1-.2.2-.3.1-.1.2-.1.3-.2.1-.1.2-.1.3-.2-.5-.3-.3-.4-.3-.5zm8-1.5c-.1.1-.1.2-.1.3 0 .1-.1.2-.1.3v.4c0 .1-.1.2-.1.3-.1.1-.3.1-.4.2-.1.1-.3.2-.4.2-.1-.1-.1-.2-.2-.3-.1-.2-.1-.2-.2-.3-.1-.1-.1-.2-.2-.3l-.3-.3-.3-.3c-.1-.1-.1-.2-.2-.3-.1-.1-.1-.2-.2-.3-.1-.1-.2-.1-.3-.2-.1-.1-.1-.2-.2-.3l-.3-.3c-.1-.1-.2-.1-.3-.2-.1-.1-.3-.1-.4-.2 0-.1.2-.2.2-.3.1-.1.1-.2.1-.3.1-.1.2-.2.2-.3.1-.1.2-.2.2-.3.1-.1 0-.3.1-.4.1-.1.1-.2.2-.3.1-.1.2-.2.3-.2.1-.1.3-.1.4-.2.1-.1.3-.1.4-.1.1 0 .2-.2.3-.2h.6c.1 0 .2-.2.3-.2.1 0 .2.1.4.1h.8c.1 0 .2.1.4.1.1 0 .2 0 .4.1h.4c.1 0 .2.1.3.2.1.1.2.1.3.2.1.1.2.2.2.3.1.1.1.3.1.3.1.1.2.1.3.3.1.1 0 .2.1.4 0 .1.2.2.2.3 0 .1.1.3.1.4l-.2-.1c-.1 0-.2.1-.3.1-.1 0-.2.1-.3.1-.1 0-.3-.1-.4 0-.1 0-.2.2-.3.2-.1 0-.2 0-.3.1l-.2.2c-.1.1-.2.1-.3.2-.1.1-.2.1-.3.2-.1.1-.2.1-.2.2-.1.1-.1.2-.1.3 0 .1-.2.1-.2.2zm-8.8 7.6v.6c0 .1.1.2.1.3 0 .1-.1.2-.1.3v.9c0 .1 0 .2-.1.3v.3c0 .1.1.2.1.3 0 .1.1.2.1.3 0 .1-.1.2-.1.3v.3c0 .1.1.2.1.3v.3c0 .1-.1.2-.1.3v.3c0 .1.1.2.1.3s-.1.2-.1.3v.3c0 .1-.1.2-.1.3 0 .1-.1.2-.1.3 0 .1.1.2.1.3v.6c0 .1-.1.2-.1.3 0 .1 0 .2-.1.3 0 .1.1.2.1.3 0 .1-.1.2-.1.3 0 .1-.1.2-.1.3 0 .1.1.2.1.3 0 .1-.1.2-.1.3v.6c0 .1-.1.2-.1.3v.3c0 .1.1.2.1.3v.9c0 .1-.1.2-.1.3 0 .1.1.2 0 .3 0 .1-.1.2-.2.3v.4c-.1.1-.1.2-.2.3-.1.1-.3.1-.3.1-.1.1-.1.2-.2.2-.1.1-.2.1-.3.2-.1 0-.3-.1-.4 0-.1 0-.2.2-.3.2-.1 0-.2 0-.3.1-.1 0-.2.1-.3.2-.1 0-.2.1-.3.1-.1 0-.2 0-.3.1-.1 0-.2 0-.3.1-.1 0-.2.1-.3.2h-.7c-.1 0-.2.1-.3.2-.1 0-.3-.1-.4 0-.1 0-.2.2-.3.2-.1 0-.2.1-.3.1-.1 0-.2.1-.3.1-.1 0-.2 0-.3.1-.1 0-.3-.1-.4-.1-.1 0-.2.1-.3.1-.1 0-.3.1-.4 0-.1 0-.2-.2-.3-.2-.1-.1-.2-.1-.3-.2-.1-.1-.1-.2-.2-.3-.1-.1-.2-.1-.3-.3v-1.3c0-.1.1-.2.1-.3v-.3c0-.1-.1-.2 0-.3 0-.1.1-.2.1-.3v-1.2c0-.1.1-.2.2-.3v-.3c0-.1.1-.2.1-.3 0-.1-.1-.2-.1-.3 0-.1.1-.2.1-.3v-.6c0-.1.1-.2.1-.3 0-.1-.1-.2-.1-.3 0-.1.1-.2.1-.3v-.3c0-.1-.1-.2-.1-.3 0-.1.1-.2.1-.3 0-.1-.1-.2-.1-.3 0-.1.1-.2.1-.3 0-.1-.1-.2-.1-.3 0-.1.1-.2.1-.3 0-.1-.1-.2-.1-.3 0-.1.1-.2.1-.3 0-.1-.1-.2-.1-.3v-.3c0-.1.1-.2.1-.3 0-.1-.1-.2-.1-.3v-.3c0-.1.1-.2.1-.3 0-.1.1-.2.1-.3v-.3c0-.1-.1-.2-.1-.3v-.6c0-.1.1-.2.1-.3 0-.1-.1-.2-.1-.3 0-.1.1-.2.1-.3v-.3c0-.1.1-.2.1-.3v-.4c.1-.1.2-.2.3-.2.1-.1.2-.1.3-.2.1-.1.1-.2.3-.3h.4c.1 0 .2 0 .3-.1.1 0 .2.1.4.1.1 0 .2-.1.3-.1.1 0 .2-.1.3-.1.1 0 .2-.1.3-.1h.4c.1 0 .2-.1.3-.1h.4c.1 0 .2-.1.3-.1.1 0 .3.1.4.1.1 0 .2-.1.3-.1h.6c.1 0 .2-.1.3-.1.1 0 .2-.1.3-.1.1 0 .2 0 .3-.1.1 0 .2.1.4 0h.3c.1 0 .2 0 .3.1.1 0 .3 0 .4.1.1.1.1.2.2.3.1.1.1.2.1.3v.5zm3.1-2.1c.1 0 .2-.1.3-.1.1 0 .2-.1.3-.1.1 0 .2-.2.3-.2h.4c.1 0 .2-.1.3-.1.1 0 .2-.1.3-.2.1 0 .2 0 .3-.1.2-.1.2.1.2.2-.1.1-.1.2-.2.3-.1.1 0 .2-.1.3 0 .1 0 .2-.1.3 0 .1-.1.2-.2.3 0 .1-.1.2-.1.3v1.1c0 .1.1.2.1.3 0 .1.1.2.1.3h-.4c-.1 0-.2.1-.3.1-.1 0-.2 0-.3.1-.1.1-.2.1-.3.1-.1.1-.1.3-.2.3-.1.1-.1.2-.2.3-.1.1-.1.2-.2.3-.1.1-.2.2-.2.3 0 .1-.1.2-.2.3 0 .1.1.3 0 .4 0 .1-.1.2-.1.3 0 .1-.1.2 0 .4 0 .1.2.2.2.3 0 .1-.1.2 0 .3 0 .1.1.2.1.3 0 .1.1.2.2.3 0 .1 0 .2.1.3 0 .1.1.2.2.3.1.1.2.1.2.2.1.1.1.2.2.3.1.1.1.2.2.3.1.1.1.2.2.3.1.1.1.2.1.3.1.1.2.1.3.2.1.1.1.2.2.3.1.1.3.1.3.1.1.1.2.1.2.2.1.1.1.3.1.3.1.1.2.1.3.2.1.1.2.1.3.2.1.1.1.2.2.3.1.1.2.1.3.1.1.1.1.2.2.2.1.1.2.1.3.1l.2.2.2.2c.1.1.2.1.3.2.1.1 0 .2.1.3 0 .1-.1.2-.1.3 0 .1 0 .2-.1.3-.1.1-.2.1-.3.1-.1.1-.1.2-.2.3-.1.1-.2.1-.3.2-.1.1-.2.2-.3.2-.1.1-.2.1-.3.2-.1.1-.3 0-.4.1-.1.1-.1.2-.2.3-.1.1-.2.2-.2.3-.1.1-.3 0-.4.1-.1.1-.2.2-.3.2-.1.1-.2.1-.3.1-.1.1-.1.2-.2.3-.1.1-.2 0-.3.1-.1.1-.2.1-.3.2-.1.1-.2.1-.3.2-.1.1-.2.1-.3.2s-.2 0-.3.1-.2.2-.3.2c-.1.1-.2.2-.4.1-.1 0-.2-.1-.3-.2-.1-.1-.2-.2-.2-.3-.1-.1-.1-.2-.1-.4v-.6c0-.1.1-.2.1-.3v-.3c0-.1.1-.2.1-.3 0-.1-.1-.2-.1-.3 0-.1.1-.2.1-.3v-.6c0-.1.1-.2.1-.3s-.1-.2-.1-.3c0-.1.1-.2.1-.3 0-.1-.1-.2 0-.3 0-.1-.1-.2-.1-.3 0-.1.1-.2.1-.3 0-.1-.1-.2-.1-.3 0-.1.1-.2.1-.3s-.1-.2-.1-.3.1-.2.1-.3c0-.1-.1-.2-.1-.3 0-.1.1-.2.1-.3 0-.1-.1-.2-.1-.3v-.3c0-.1 0-.2.1-.3 0-.1-.1-.2-.1-.3v-.3c0-.1.1-.2.1-.3 0-.1.1-.2.1-.3v-.3c0-.1-.1-.2-.1-.3v-.6c0-.1.1-.2.1-.3 0-.1-.1-.2-.1-.3s.1-.2.1-.3v-.3c0-.1.1-.2.1-.3 0-.1-.1-.2-.1-.3 0-.1.1-.2.1-.3v-.3c0-.1-.1-.2-.1-.3v-.7c0-.1.2-.2.2-.3.1-.1.1-.2.2-.3.1-.1.1-.2.2-.3.4-1.2.6-1.1.7-1.1zm5.9 10.1c-.1-.1-.2-.1-.3-.2-.1-.1-.1-.1-.3-.2-.1-.1-.2-.1-.3-.1-.1-.1-.1-.2-.2-.3-.1-.1-.2-.1-.3-.2-.1-.1-.2-.1-.3-.2-.1-.1-.1-.2-.2-.2-.1-.1-.1-.2-.2-.3l-.2-.2c-.1-.1-.2-.1-.3-.2-.1-.1-.2-.1-.3-.2-.1-.1-.1-.2-.2-.3-.1-.1-.1-.2-.2-.3-.1-.1-.2-.1-.3-.2-.1-.1-.1-.2-.2-.3-.1-.1-.1-.2-.1-.3-.1-.1-.1-.2-.2-.3 0-.1-.1-.2-.2-.3v-.7c0-.1.2-.2.3-.3.1-.1.2 0 .3-.1.1 0 .2-.2.4-.2h.4c.1 0 .2 0 .4.1.2 0 .2.1.2.1s-.1-.1-.1-.2c.1.1.1.2.2.3.1.1.1.2.2.3.1.1.3 0 .4.1.1.1.1.2.2.3.1.1.2.1.3.2.1.1.2.1.3.2.1.1.1.2.2.3.1.1.2.1.3.2.1.1.2.1.3.1.1.1.2.1.3.2.1.1.2.1.3.2.1.1.2.1.3.2.1.1.1.2.2.3.1.1.2.1.3.1.1.1.1.2.2.3.1.1.3 0 .4.1.1.1.2.1.3.2.1.1.1.2.2.3.1.1.2.1.3.1.1.1.2.1.3.2.1.1 0 .2 0 .4 0 .1.1.2.1.3 0 .1-.1.2-.2.3-.1.1-.1.2-.2.3-.1.1-.2.1-.2.2-.1.1-.2.1-.3.2-.1.1-.2.1-.3.2-.1.1-.1.2-.2.2-.1.1-.2 0-.3.1h-.3c-.1 0-.2.1-.3 0-.1 0-.2-.2-.3-.2-.1 0-.2 0-.3-.1-.1-.2-.1-.4-.3-.5zm-1.6-7.7c-.1-.1-.2-.2-.3-.2-.1-.1-.1-.2-.1-.3 0-.1-.1-.2-.1-.4 0-.1.1-.2.1-.3 0-.1.1-.2.1-.3.1-.1.1-.2.1-.3l.3-.3c.1-.1.2-.1.3-.2.1-.1.2-.1.3-.2.1 0 .2-.2.3-.2.1 0 .2-.1.3-.2h.6c.1 0 .2-.1.3-.1.1 0 .2.1.3.1l.3.3c.1.1.2.1.3.2.1.1.2.1.3.2l.2.2c.1.1.2.1.3.2l.2.2c.1.1.2.2.3.2.1.1.3 0 .4.1.1.1.2.1.3.1.1.1.2.1.3.2.1.1.1.2.2.2.1.1.2.1.3.2.1.1.3 0 .3.1.1.1.2.2.3.2.1.1.2.1.3.2h.4c.1 0 .2.2.3.2.1 0 .2.1.3.1.1 0 .2 0 .3.1.1 0 .2.1.3.2.1 0 .2.1.3.1h.3c.1 0 .2.1.3.2.1.1.2.2.2.3v.4c0 .1-.2.2-.2.3-.1.1-.1.2-.2.3-.1.1-.2.1-.3.2-.1.1 0 .3-.1.4-.1.1-.1.2-.2.3-.1.1-.3.1-.3.2-.1.1-.1.2-.2.3-.1.1-.1.2-.2.3-.1.1-.3.1-.3.2-.1.1-.1.2-.2.3-.1.1-.2.1-.3.1-.1 0-.2.1-.3.2h-.3c-.1 0-.2-.1-.3-.1-.1 0-.2-.1-.3-.2-.1-.1-.2 0-.3-.1-.1-.1-.2-.2-.3-.2l-.2-.2c-.1-.1-.2-.1-.3-.1-.1-.1-.1-.2-.2-.3-.1-.1-.3 0-.3-.1-.1-.1-.2-.1-.3-.2-.1-.1-.2-.1-.3-.1-.1-.1-.2-.1-.3-.2-.1-.1-.1-.2-.2-.3-.1-.1-.2-.1-.3-.1-.1-.1-.2-.1-.3-.1-.1-.1-.1-.2-.2-.3-.1-.1-.2-.1-.3-.2-.1-.1-.1-.2-.2-.2-.1-.1-.2-.1-.3-.1-.1-.1-.1-.2-.2-.3l-.2-.2-.2-.2c-.1-.1-.2-.1-.3-.2-.1-.1-.1-.2-.2-.3-.3-.2-.4-.3-.4-.3zm4.6-4c-.1-.1-.2-.1-.3-.1-.1-.1-.2-.1-.3-.2-.1-.1-.2-.1-.3-.1-.1-.1-.1-.2-.2-.3-.1-.1-.1-.2-.2-.3-.1-.1-.2-.2-.2-.3 0-.1 0-.2-.1-.3v-.9c0-.1 0-.2.1-.3.1-.1.2-.1.3-.2.1-.1.2-.1.3-.2.1-.1.1-.2.2-.2s.2-.1.3-.1h1c.1 0 .2.1.3.2.1 0 .2.1.3.1.1 0 .2.2.3.2.1 0 .2.1.3.2.1.1.3 0 .4 0 .1.1.2.1.3.1.1 0 .2.1.3.2.1 0 .2.2.3.2.1 0 .2.1.3.2h.4c.1 0 .2.2.3.2.1 0 .2.1.3.2h.4c.1 0 .2.2.3.2.1 0 .2.1.3.1s.2 0 .3.1c.1 0 .2.1.3.2.1 0 .2.1.3.1.1 0 .2 0 .4.1s.2.1.3.1c.1 0 .2.1.3.1.1 0 .2.1.3.2.1 0 .1.2.2.3.1.1.2.1.3.2.1.1 0 .2 0 .3 0 .1.2.2.1.3 0 .1-.1.2-.1.3-.1.1-.2.1-.3.2-.1.1 0 .2-.1.3-.1.1-.1.2-.1.3-.1.1-.2.1-.3.2-.1.1 0 .2-.1.3l-.2.2c-.1.1-.1.2-.2.3-.1.1-.2.1-.3.2-.1 0-.2 0-.3.1h-.6c-.1 0-.2-.1-.3-.2-.1 0-.2-.1-.3-.2h-.3c-.1 0-.2-.2-.3-.2h-.4c-.1 0-.2-.1-.3-.1-.1 0-.2 0-.3-.1-.1 0-.2-.1-.3-.2-.1 0-.1-.2-.2-.3-.1-.1-.2 0-.3-.1-.1-.1-.2 0-.3-.1-.1-.1-.1-.2-.2-.3-.1-.1-.2-.1-.3-.1-.1-.1-.2-.2-.3-.2-.1-.1-.2 0-.3-.1-.1-.1-.1-.2-.2-.3-.1-.1-.2-.1-.3-.2-.1-.1-.2-.1-.3-.2-.3.1-.3 0-.4-.1zm-6-11.8c.1-.1.1-.3.1-.4v-.4c0-.1-.2-.2-.2-.3-.1-.1-.1-.2-.2-.3-.1-.1-.2-.1-.3-.2h-.3c-.1 0-.2-.1-.3-.1-.1 0-.2-.1-.3-.1h-.3c-.1 0-.2.1-.3.1-.1 0-.2.1-.3.1-.1 0-.2-.1-.3 0h-.3c-.1 0-.2.1-.3.1-.1 0-.2 0-.3.1-.1 0-.2 0-.3.1-.1 0-.2.1-.3.2-.1.1-.2.2-.3.2-.1.1-.2.1-.3.1-.1.1-.2.2-.3.2-.1.1-.2.1-.3.1-.1.1-.2.1-.3.2-.1.1-.1.3-.2.3-.1.1-.1.2-.2.3-.1.1-.2.1-.3.2-.1.1-.2.1-.3.2-.1.1-.2.1-.3.2-.1.1-.1.3-.1.3-.1.1-.2.1-.2.2-.1 0-.2-.1-.3-.2-.1 0-.2.1-.4.1-.1 0-.2-.2-.3-.2h-.6c-.1 0-.2-.1-.3-.1h-.3c-.1 0-.2.1-.3.1h-.3c-.1 0-.2 0-.3.1-.1 0-.2 0-.3.1h-.4c-.1 0-.2.2-.3.2-.1 0-.2 0-.3.1-.1.1-.1.2-.2.3-.1.1-.2.1-.3.2-.1.1-.3 0-.3.1-.1.1-.1.2-.2.3-.1.1-.1.2-.2.3-.1.1-.2.1-.3.2-.1.1 0 .2-.1.3 0 .1-.1.1-.2.3-.1.1 0 .2-.1.3-.1.1-.1.2-.2.3-.1.1-.1.2-.2.3 0 .1-.1.2-.2.3 0 .1 0 .2-.1.4 0 .1-.1.2-.2.3 0 .1-.2.2-.2.3 0 .1 0 .2-.1.4 0 .1-.2.2-.2.3-.1.1-.1.3-.2.3h-.4c-.1-.1-.2-.1-.4-.1-.1-.1-.2-.1-.3-.2l-.3-.3c-.1 0-.3 0-.3-.1-.1-.1-.3-.1-.3-.2-.1-.1 0-.3-.1-.4 0-.1-.1-.2-.2-.3 0-.1 0-.2-.1-.3l-.2-.2c-.1-.2-.1-.3-.1-.3-.1-.1-.1-.2-.2-.3-.1-.1-.1-.2-.2-.3-.1-.1-.2-.2-.2-.3-.1-.1-.1-.2-.2-.3-.1-.1-.2-.1-.3-.2-.1-.1-.2-.1-.3-.2-.1-.1-.1-.2-.2-.3-.1-.1-.2-.1-.3-.2-.1-.1-.2-.1-.3-.2-.1-.1-.2-.1-.3-.2-.1-.1-.2-.1-.3-.1-.1-.1-.1-.2-.2-.3-.1-.1-.2-.1-.3-.2-.1-.1 0-.2 0-.3 0-.1-.1-.2-.1-.4 0-.1.1-.2.1-.3v-.6c0-.1.1-.2.1-.3 0-.1-.1-.2 0-.4 0-.1.1-.2.1-.3V91c0-.1-.1-.2-.1-.4 0-.1.1-.2.1-.3 0-.1-.1-.2-.1-.4 0-.1.1-.2.1-.3 0-.1-.1-.2 0-.3 0-.1.2-.2.2-.3s-.1-.2 0-.3c0-.1.1-.2.1-.3 0-.1-.1-.2 0-.3v-.3c0-.1.1-.2.1-.3 0-.1-.1-.2-.1-.4v-.3c0-.1.1-.2.1-.3 0-.1.1-.2.1-.3V85c0-.1.1-.2.1-.3 0-.1-.1-.2-.1-.4 0-.1.1-.2.1-.3 0-.1 0-.2.1-.3 0-.1.1-.2.1-.3 0-.1-.1-.2-.1-.3 0-.1.1-.2.1-.3 0-.1 0-.2.1-.3 0-.1-.1-.2-.1-.3 0-.1.2-.2.3-.1.1.1.2.1.3.2.1.1.1.2.2.3.1.1.2.1.3.2.1.1.2.1.3.2.1.1.2.1.3.2.1.1.1.2.2.3.1.1.2.1.3.2.1.1.1.2.2.3.1.1.2.1.3.2.1.1.1.3.1.3.1.1.2.1.3.2.1.1.1.2.2.3l.2.2s.2.1.3.2l.2.2.2.2c.1.1.1.2.2.3.1.1.1.2.2.3.1.1.2.1.3.2.1.1.3.1.3.1.1.1.1.2.2.3l.2.2c.1.1.1.2.2.3.1.1.2.1.3.1.1.1.1.2.2.3.1.1.2.1.3.2l.2.2.2.2c.1.1.1.2.2.3s.2.1.3.2.1.2.2.3c.1.1.2.1.3.2.1.1.2.1.3.2l.2.2c.1.1.1.2.2.3.1.1.2 0 .3.1.1.1.2.1.3.2.1.1.1.3.2.3.1.1.2 0 .3.1.1 0 .2.2.3.2.1 0 .2 0 .3.1.1 0 .2-.1.3-.1.1 0 .2.1.4.1.1 0 .2-.2.3-.2.1 0 .3 0 .4-.1.1-.1.2-.1.3-.2.1-.1.2-.1.3-.2.1-.1.1-.2.1-.3l.3-.3c.1-.1 0-.2.1-.4 0-.1.1-.2.1-.3v-.4c0-.1.2-.2.2-.3 0-.1-.1-.3-.1-.4v-.3c0-.1.1-.2.1-.3 0-.1-.1-.2-.1-.3V86c0-.1.1-.2.1-.3v-.3c0-.1.1-.2.1-.3v-.3c0-.1-.1-.2-.1-.3v-.3c0-.1-.1-.2-.1-.3 0-.1.1-.2.1-.3 0-.1-.1-.2-.1-.3V83c0-.1.2-.2.2-.3v-1.2c0-.1-.1-.2-.1-.3 0-.1.1-.2.1-.3 0-.1-.1-.2-.1-.3v-.3c0-.1.1-.2.1-.3 0-.1-.1-.2-.1-.3 0-.1.1-.2.1-.3 0-.1 0-.3.1-.4.1-.1.1-.2.2-.3.1-.1.2-.1.3-.2.1-.1.1-.2.3-.3.1 0 .3.1.4.1.1 0 .2 0 .3.1.1 0 .3-.1.4-.1.1 0 .2.2.3.2.1 0 .2.1.3.1h.3c.1 0 .2.1.3.1.1 0 .2 0 .3.1.1 0 .2.1.3.1.1 0 .2 0 .3.1.1 0 .2 0 .3.1h.3c.1 0 .2.2.3.2h.4c.1 0 .2.1.3.1.1 0 .2.1.3.1.1 0 .2.2.3.2.1 0 .2.1.3.1.1 0 .2.1.3.1.1 0 .2.1.3.1.1 0 .2 0 .3.1.1 0 .2 0 .3.1.1 0 .2.1.3.2.1 0 .2.2.3.2.1 0 .2 0 .3.1.1 0 .2.1.3.1.1 0 .2.1.3.1.1 0 .2.2.3.2.1 0 .2.1.3.2.1 0 .2.1.3.1.1 0 .2 0 .3.1.1 0 .2.2.3.2.1 0 .2.1.3.1.1 0 .2.1.3.1.1 0 .2.2.3.2.1.1.2.1.3.1.1.1.2.1.3.1.1.1.2.1.3.1.1.1.2.1.3.2.1.1.2.1.3.1.1.1.2.2.3.2.1.1.2.1.3.1.1.1.2.2.3.2.1.1.3 0 .4.1.1.1.2.2.3.2.1.1.2 0 .3.1.1.1.2.1.3.2.1.1.2.1.3.2.1.1.2.1.3.2.1.1.2.1.3.2.1.1.3 0 .4.1.1.1.2.1.3.1.1.1.2.2.3.2.1.1.2 0 .3.1.1.1.2.1.3.2.1.1.1.2.2.3.1.1.2.1.3.1.1.1.3 0 .4 0 .1.1.2.2.3.2.1.1.2.1.3.2.1.1.2.2.3.2.1.1.2.1.3.2.1.1.2.1.3.1.1.1.1.2.2.3.1.1.3 0 .4.1.1.1.2.1.3.1.1.1.2.1.3.2.1.1.1.2.2.3.1.1.2.1.3.2.1.1.2 0 .3.1.1.1.2.1.3.2.1.1.2.1.3.2.1.1.2.1.3.2.1.1.2.2.3.2s.2.1.3.1c.1.1.2.2.3.2.1.1.2.1.3.2.1.1.1.2.2.3.1.1.2.2.2.3.1.1.1.2.1.3.1.1.1.2.1.3 0 .1.1.2.1.3 0 .1.1.2.1.3 0 .1-.1.2-.1.3 0 .1 0 .2-.1.3 0 .1.1.2 0 .3v.3c0 .1-.1.2-.1.3v.3c0 .1-.2.2-.2.3v.6c0 .1-.1.2-.1.3v.3c0 .1 0 .2-.1.3 0 .1-.1.2-.1.3 0 .1-.1.2-.1.3 0 .1.1.2 0 .4 0 .1-.2.2-.2.3v.3c0 .1-.1.2-.1.3v.4c0 .1-.2.2-.2.3 0 .1.1.3 0 .4 0 .1-.1.2-.2.3 0 .1-.1.2-.1.3 0 .1-.1.2-.1.3 0 .1.1.3 0 .4 0 .1-.1.2-.2.3 0 .1-.1.2-.1.3 0 .1-.1.2-.1.3 0 .1 0 .2-.1.3 0 .1-.1.2-.1.3 0 .1-.2.2-.2.3 0 .1-.1.2-.1.3 0 .1-.1.2-.1.3 0 .1.1.3 0 .4 0 .1-.2.2-.2.3 0 .1-.2.2-.2.3-.1.1-.1.2-.2.3-.1.1-.2.1-.3.2-.1.1-.2.1-.3.1-.1 0-.2.2-.3.2h-.4c-.1 0-.2-.1-.3-.1-.1 0-.2 0-.3-.1-.1 0-.2-.1-.3-.1-.1 0-.2 0-.3-.1-.1 0-.2-.2-.3-.3h-.4c-.1 0-.2-.1-.3-.2-.1 0-.2-.1-.3-.2-.1 0-.2 0-.3-.1-.1 0-.2 0-.3-.1-.1 0-.2-.1-.3-.2-.1 0-.2-.1-.3-.1-.1 0-.2-.1-.3-.1-.1 0-.2-.2-.3-.2h-.4c-.1 0-.2-.1-.3-.1-.1 0-.2-.2-.3-.2-.1-.1-.2-.2-.3-.2-.1-.1-.3 0-.5-.1-.1 0-.2-.2-.2-.3-.1-.1-.1-.2-.1-.3v-.3c0-.1-.1-.2-.1-.3 0-.1 0-.2-.1-.3 0-.1.1-.2 0-.4 0-.1-.2-.2-.2-.3 0-.1-.1-.2-.2-.3-.1-.1 0-.2-.1-.3-.1-.1-.2-.1-.3-.2-.1-.1-.1-.2-.1-.3-.1-.1-.1-.2-.2-.3l-.2-.2c-.1-.1-.2-.1-.3-.2-.1-.1-.2-.1-.3-.1-.1-.1-.2-.1-.3-.2-.1-.1-.1-.2-.2-.3-.1 0-.2-.1-.3-.2-.1 0-.2-.1-.3-.1h-.3c-.1 0-.2 0-.3-.1-.1 0-.2 0-.3-.1-.1 0-.2 0-.3-.1-.1 0-.2.1-.3.1-.1 0-.2-.1-.3-.1h-.3c-.1 0-.2.1-.3.1-.1 0-.2-.1-.3-.1-.1 0-.2.1-.3.1-.1 0-.2-.1-.3-.1-.1 0-.2.1-.3.1h-.3c-.1 0-.2.2-.3.2-.1 0-.3 0-.4.1-.1.1-.2.2-.3.2-.1.1-.2.1-.3.2-.1.1-.2.1-.3.2-.1.1-.2.1-.2.2-.1.1-.2.1-.3.2-.1.1-.1.2-.2.3-.1.1-.2.1-.3.2-.1.1 0 .3-.1.4-.1.1-.1.2-.2.3-.1.1-.2.1-.3.2-.1.1 0 .3 0 .4-.1.1-.1.2-.2.3-.1.1 0 .2-.1.3 0 .1-.1.2-.2.3-.1 0-.2-.1-.3-.1-.1 0-.2.1-.3.1-.1 0-.2-.1-.3-.1h-.2c0-.1-.1-.2-.1-.3v-.3c0-.1-.1-.2-.2-.3 0-.1.1-.3 0-.4 0-.1-.2-.2-.3-.3 0-.1 0-.2-.1-.4-.1-.1-.1-.2-.1-.3-.1-.1-.2-.2-.3-.2-.1-.1-.1-.2-.2-.3-.1-.1-.2-.2-.3-.2.1-.1.2-.2.3-.2.1-.1.2-.1.3-.2.1-.1.1-.2.2-.2.1-.1.1-.2.2-.3l.2-.2.2-.2c.1-.1.2-.1.3-.2.1-.1.1-.2.2-.3.1-.1.2-.1.3-.2.1-.1.2-.1.3-.2.1 0 .2-.1.3-.1.1 0 .2.1.4.1.1 0 .2-.1.3-.1.1 0 .2 0 .3.1.1 0 .2.1.3.1.1 0 .2.1.3.2h.6c.1 0 .1-.2.2-.2.1-.1.2-.1.2-.2.8-1.2.9-1.2.9-1.3zm-12.5-46.3c.1 0 .2 0 .3.1.1.1.2.1.3.2.1.1.2.1.3.3V48c0 .1-.1.2-.1.3 0 .1-.1.2-.1.3 0 .1-.1.2-.1.3v.6c0 .1-.1.2-.2.3 0 .1-.1.2-.1.3 0 .1 0 .2-.1.3 0 .1-.1.2-.2.3 0 .1-.1.2-.2.3-.1.1-.1.2-.1.3-.1.1-.1.2-.1.3-.1.1-.2.2-.2.3-.1.1-.1.2-.2.3-.1.1-.2.1-.3.2-.1.1-.2.1-.3.2-.1.1 0 .3-.1.4-.1.1-.1.2-.2.3-.1.1-.2.1-.3.2-.1.1-.2.1-.3.1-.1.1-.2.1-.3.2-.1.1-.1.2-.2.3-.1.1-.2.1-.3.1-.1 0-.2 0-.3.1-.1 0-.2.2-.3.2-.1 0-.2-.1-.4-.1h-.3c-.1 0-.2.1-.4 0-.1 0-.2-.1-.3-.1h-.4c-.1 0-.2.1-.4 0-.1 0-.2 0-.4-.1h-.4c-.1 0-.2-.1-.3-.1-.1 0-.2-.2-.3-.2h-.3c-.1 0-.2-.1-.3-.1-.1 0-.2.1-.3.1h-.3c-.1 0-.2-.2-.3-.2-.1 0-.2.1-.3.1h-.3c-.1 0-.2-.1-.4-.1-.1 0-.2.1-.3.1h-.4c-.1 0-.2.1-.3.1h-.9c-.1 0-.2.1-.3.1h-.6c-.1 0-.2.1-.3.1-.1 0-.2-.1-.3-.1-.1 0-.2.1-.3.1h-.6c-.1 0-.2-.1-.3-.1-.1 0-.2-.2-.3-.2-.1 0-.2 0-.3-.1-.1-.1-.2 0-.3-.1-.1-.1-.1-.2-.2-.3-.1-.1-.2-.1-.3-.2-.1-.1-.1-.2-.2-.3-.1-.1-.2-.1-.3-.2-.1-.1-.1-.2-.2-.3-.1-.1-.1-.2-.2-.3-.1-.1-.1-.2-.2-.3-.1-.1-.2-.2-.2-.3-.1-.1-.1-.2-.1-.3-.1-.1-.2-.2-.2-.3-.1-.1-.2-.2-.2-.3-.1-.1 0-.2-.1-.3 0-.1-.1-.2-.1-.3 0-.1-.1-.2-.1-.3 0-.1-.1-.2-.1-.3 0-.1-.1-.2-.2-.3 0-.1.1-.3 0-.4 0-.1-.1-.2-.2-.3 0-.1 0-.2-.1-.3 0-.1-.2-.2-.2-.3v-.3c0-.1-.1-.2-.1-.3v-.4c0-.1.1-.2.2-.3 0-.1 0-.2.1-.3.1-.1.2-.1.3-.1.1-.1.2-.2.3-.2.1 0 .2-.2.3-.2h.4c.1 0 .2-.1.3-.2h.4c.1 0 .2-.1.3-.1.1 0 .2.1.4.1.1 0 .2-.1.3-.1h.3c.1 0 .2-.1.3-.1h.6c.1 0 .2-.2.3-.2.1 0 .2-.1.3-.1.1 0 .2.1.3 0h.6c.1 0 .2-.1.3-.1.1 0 .2-.1.3-.1.1 0 .2-.1.3-.1.1 0 .2.1.3.1.1 0 .2-.1.3-.2.1 0 .2.1.3.1h.6c.1 0 .2-.1.3-.1.1 0 .2.1.3.1h.3c.1 0 .2-.1.3-.1h.6c.1 0 .2.1.3.1h.3c.1 0 .2-.1.3-.1h.3c.1 0 .2.1.3.1h.3c.1 0 .2.1.3.1.1 0 .2-.1.3 0 .1 0 .2.2.3.2h.3c.1 0 .2 0 .3.1h.3c.1 0 .2-.1.3-.1h.6c.1 0 .2.1.3.1.1 0 .2.1.3.1h.3c.1 0 .2-.1.4-.1.1 0 .2.1.3.1.1 0 .2.1.3.1.1 0 .2.1.3.1.1 0 .2-.1.4-.1.1 0 .2.1.3.1.1 0 .2 0 .3.1s.8.9.9.9zM89 57.5c.1.1.2.1.3.2l.2.2c.1.1.2.1.3.2.1.1.1.2.2.3.1.1.2.2.2.3.1.1.2.1.3.2.1.1.1.2.2.3.1.1.1.2.2.3l.2.2c.1.1.2.1.3.2.1.1.2.1.3.2.1.1.1.2.2.3l.2.2c.1.1.2.1.3.2.1.1.1.2.2.2.1.1.1.2.2.3.1.1.2.1.3.2.1.1.2.1.3.2.1.1.1.2.2.3.1.1.2.1.3.2.1.1.1.2.2.3.1.1.1.2.2.3.1.1.3 0 .4.1.1.1.2.1.3.2.1.1.2.2.3.2.1.1.1.2.2.3.1.1.2.2.3.2.1.1.3 0 .3.1l.2.2c.1.1.2.2.3.2.1.1.3 0 .4.1.1.1.1.2.2.3.1.1.2.1.3.2.1.1.2.1.3.1.1.1.2.2.3.2.1.1.2.1.3.2.1.1.2 0 .3.1.1.1.2.1.3.2.1.1.2.1.3.2.1.1.2.1.3.2.1.1.1.2.2.3.1.1.2 0 .3.1.1.1.2.2.3.2.1.1.3 0 .4 0 .1.1.2.1.3.1.1.1.1.2.2.3.1 0 .2 0 .3.1.1 0 .2.1.3.1.1 0 .1.2.3.3h.4c.1 0 .2.2.3.2.1.1.2.1.3.2.1.1.1.2.1.4v.3c0 .1 0 .2.1.3 0 .1.1.2.1.3v.6c0 .1.1.2.1.3s-.1.2-.1.3c0 .1.2.2.2.3 0 .1 0 .2.1.3s.1.2.1.3 0 .2.1.3-.1.2-.1.4c0 .1.1.2.2.3 0 .1.1.2.1.3 0 .1-.1.2-.2.3 0 .1 0 .2-.1.3-.1.1-.2.1-.3.2-.1.1-.1.2-.2.3h-1c-.1 0-.2.1-.3.1h-.3c-.1 0-.2.1-.3.1-.1 0-.2.1-.3.1h-.9c-.1 0-.2.1-.3.1-.1 0-.2.1-.3.1-.1 0-.2-.1-.4-.1s-.2.1-.3.1h-.3c-.1 0-.2.1-.3.2h-.3c-.1 0-.2.1-.3.1-.1 0-.2 0-.3.1-.1 0-.2-.1-.4 0-.1 0-.2.1-.3.1-.1 0-.2-.1-.4 0-.1 0-.2.1-.3.1-.1 0-.2.2-.3.2-.1 0-.2-.1-.4 0-.1 0-.2.1-.3.2s-.2-.1-.4 0c-.1 0-.2.1-.3.1-.1 0-.2-.1-.4-.1-.1 0-.2.1-.3.1h-.4c-.1 0-.2.1-.3.2s-.2 0-.3.1h-.3c-.1 0-.2.2-.3.2-.1 0-.2.1-.3.1h-.7c-.1 0-.2.1-.3.1s-.2.1-.3.2c-.1 0-.2.1-.3.1-.1 0-.2.1-.3.1h-.4c-.1 0-.2.2-.3.2h-.3c-.1 0-.2 0-.3.1h-.3c-.1 0-.2.2-.3.2h-.3c-.1 0-.2 0-.3.1-.1 0-.2.2-.3.2-.1 0-.2 0-.3.1-.1 0-.2.1-.3.1h-.4c-.1 0-.2.1-.3.2-.1 0-.2.2-.3.2-.1 0-.2.1-.3.2-.1 0-.2 0-.3.1-.1 0-.2.1-.3.2-.1 0-.2 0-.3.1-.1 0-.2.2-.3.2h-.4c-.1.1-.2.1-.3.2-.1.1-.2.1-.3.1-.1.1-.2.1-.3.2-.1.1-.2.2-.3.2-.1.1-.2.1-.3.2-.1.1-.2.1-.3.2-.1.1-.2 0-.3.1-.1.1-.2.1-.3.2-.1.1-.2.1-.3.2-.1.1-.1.2-.2.3-.1.1-.2.1-.3.1-.1.1-.2.1-.3.2-.1.1-.2.1-.3.2-.1.1-.1.2-.2.3-.1.1-.2.1-.3.2-.1.1-.2.2-.3.2-.1.1-.2.1-.3.2-.1.1-.2.1-.3.2-.1.1-.2.1-.3.2-.1.1-.2.2-.3.2-.1.1-.2 0-.3 0-.1 0-.2.1-.3.1-.1 0-.3 0-.4-.1-.1-.1-.2-.1-.3-.2-.1-.1-.1-.3-.1-.4-.1-.1-.2-.2-.2-.3v-.4c0-.1.2-.2.2-.3 0-.1-.1-.2-.1-.4 0-.1.1-.2.1-.3v-.6c0-.1.1-.2.2-.3 0-.1-.1-.2-.1-.4 0-.1.1-.2.1-.3 0-.1 0-.2.1-.3 0-.1.1-.2.1-.3 0-.1-.1-.2 0-.4 0-.1.1-.2.2-.3v-.3c0-.1.1-.2.1-.3v-.4c0-.1.2-.2.2-.3 0-.1-.1-.3-.1-.4 0-.1 0-.2.1-.3 0-.1.2-.2.2-.3v-.4c0-.1.1-.2.1-.3 0-.1.1-.2.1-.3 0-.1 0-.2.1-.3 0-.1 0-.2.1-.3 0-.1.2-.2.2-.3 0-.1.1-.2.1-.3 0-.1.1-.2.2-.3 0-.1.1-.2.1-.3v-.4c0-.1.1-.2.1-.3 0-.1 0-.2.1-.3 0-.1.2-.2.2-.3v-.4c0-.1.1-.2.1-.3 0-.1.2-.1.3-.2 0-.1.1-.2.1-.3 0-.1.1-.2.1-.3 0-.1.1-.2.2-.3 0-.1.1-.2.1-.3 0-.1 0-.2.1-.3 0-.1.2-.2.2-.3.1-.1 0-.3 0-.4.1-.1.1-.2.2-.3l.3-.3c.1-.1 0-.2.1-.3.1-.1.2-.2.2-.3.1-.1 0-.2.1-.3.1-.1.1-.2.2-.3l.2-.2c.1-.1 0-.3 0-.4.1-.1.2-.1.3-.2.1-.1.1-.2.2-.3.1-.1 0-.3 0-.4.1-.1.2-.1.3-.2.1-.1.2-.2.2-.3.1-.1.1-.2.1-.3.1-.1.1-.2.2-.3.1-.1.1-.2.2-.3.1-.1.2-.2.2-.3.1-.1.1-.2.2-.3.1-.1.1-.2.2-.3.1-.1.1-.2.2-.3.1-.1.2-.1.3-.2.1-.1.1-.2.1-.3.1-.1.1-.2.2-.3.1-.1.2-.2.2-.3.1-.1.2-.1.3-.2.1-.1.1-.2.2-.3.1-.1.2-.2.2-.3.1-.1.1-.2.2-.3.1-.1.1-.2.2-.3.1-.1.1-.2.2-.3l.2-.2c.1-.1.2-.1.3-.2.1-.1.1-.2.2-.3l.2-.2.2-.2c.1-.1.2-.1.3-.2.1-.1.2-.1.3-.2.1-.1.2-.2.3-.2.1-.1.2-.2.3-.2.1 0 .2.1.4.1.1 0 .2 0 .4.1 0-.2 0-.1.1 0zm-.7 57.4c-.1-.1-.2-.1-.2-.2s-.1-.2 0-.3c0-.1 0-.3.1-.3.1-.1.2-.1.3-.1.1 0 .2-.1.3-.1.1 0 .2-.1.3-.2.1 0 .2-.1.3-.1.1 0 .2-.1.3-.1.1 0 .2-.1.3-.1.1 0 .2-.2.3-.2.1-.1.2-.2.3-.2.1-.1.2 0 .3-.1.1-.1.2-.1.3-.1.1-.1.2-.2.3-.2.1-.1.2-.1.3-.1.1-.1.2-.1.3-.1.1-.1.2-.1.3-.2.1-.1.2-.2.3-.2.1-.1.2-.1.3-.1.1-.1.2-.2.3-.2.1-.1.2-.1.3-.1.1-.1.2-.1.3-.2.1-.1.1-.3.2-.3l.2-.2c.1-.1.2-.1.3-.2.1 0 .3.1.4 0h.3c.1 0 .2-.1.3-.1.1 0 .2.1.3.1.1 0 .2.1.3.1.1 0 .3 0 .4.1.1.1.1.2.1.3.1.1.1.2.1.3 0 .1.1.2.1.3 0 .1 0 .2-.1.3 0 .1 0 .2-.1.4v.4c0 .1-.1.2-.2.3-.1.1-.1.2-.2.3-.1.1-.2.2-.2.3-.1.1-.2.1-.3.2-.1.1-.1.2-.2.3-.1.1-.2.1-.3.2-.1.1-.1.3-.1.3l-.2.2c-.1.1-.3.1-.3.1-.1.1-.1.2-.2.3-.1.1-.1.2-.2.3-.1.1-.3 0-.3.1-.1.1-.1.2-.2.3-.1.1-.2.1-.3.2-.1.1-.1.2-.2.3-.1.1-.2.1-.3.2-.1.1-.2.1-.3.2s-.2.1-.3.2c-.1.1-.2.2-.3.2-.1.1-.2.1-.3.1h-.3c-.1 0-.2.1-.3.1-.1 0-.2-.2-.3-.2h-.4c-.1-.1-.2-.1-.3-.2-.1-.1-.2-.1-.3-.2l-.2-.2c-.1-.1-.1-.3-.2-.3s-.2-.1-.3-.2c-.1-.1-.2-.1-.3-.2-.1-.1-.1-.2-.2-.3-.1-.1-.2-.1-.3-.2 0-.4 0-.6-.1-.7zm24.6 9.9v-.6c0-.1-.1-.2-.1-.3 0-.1.1-.2.1-.3v-.6c0-.1 0-.2.1-.3 0-.1.1-.2.1-.3v-.3c0-.1-.1-.2-.1-.3 0-.1-.1-.2-.1-.3 0-.1.1-.2.1-.3v-.3c0-.1-.1-.2-.1-.3 0-.1 0-.2.1-.3 0-.1.1-.2.1-.3v-.6c0-.1.1-.2.1-.3v-.3c0-.1.1-.2.1-.3 0-.1.1-.2.1-.3 0-.1-.1-.2-.1-.4v-.3c0-.1 0-.2.1-.3 0-.1.1-.2.1-.3 0-.1.1-.2.1-.3 0-.1-.1-.2-.1-.4 0-.1.1-.2.1-.3 0-.1.1-.2.1-.3 0-.1-.1-.2-.1-.4 0-.1.1-.2.1-.3v-.6c0-.1.1-.2.1-.3v-.3c0-.1-.1-.2 0-.4v-.6c0-.1.1-.2.1-.3 0-.1.1-.2.2-.3 0-.1-.1-.2 0-.4 0-.1.1-.2.1-.3 0-.1-.1-.2-.1-.4v-.3c0-.1.2-.2.2-.3v-.3c0-.1.1-.2.1-.3.1-.1.2-.1.3-.1.1-.1.1-.2.2-.3.1 0 .2 0 .3-.1.1 0 .2-.1.3-.1h.9c.1 0 .2-.1.3-.1.1 0 .2.1.3.1.1 0 .2.1.3.1.1 0 .2-.1.3-.1.1 0 .2.1.3.1s.2-.1.3-.1h.3c.1 0 .2-.1.3-.1h.3c.1 0 .2.1.3.1s.2-.1.3-.1c.1 0 .2-.1.3-.1.1 0 .2.1.3.1.1 0 .2 0 .3.1l.2.2c.1.1.2.1.3.2.1.1 0 .2 0 .3v.9c0 .1-.1.2-.1.3 0 .1.1.2.1.3 0 .1.1.2.1.3 0 .1-.1.2-.1.3v.9c0 .1.1.2 0 .3 0 .1-.1.2-.1.3 0 .1.1.2 0 .3 0 .1-.1.2-.1.3 0 .1.1.2.1.3 0 .1-.1.2-.1.3v.6c0 .1-.1.2-.1.3 0 .1.1.2.1.3 0 .1-.1.2-.1.3v.3c0 .1.1.2.1.3 0 .1-.1.2-.1.3 0 .1.1.2.1.3 0 .1-.1.2-.1.3 0 .1.1.2.1.3 0 .1-.1.2-.1.3 0 .1.1.2.1.3 0 .1-.1.2-.1.3 0 .1.1.2.1.3v.3c0 .1-.1.2-.1.3 0 .1.1.2.1.3v.3c0 .1-.1.2-.1.3 0 .1-.1.2-.1.3v1.2c0 .1-.1.2-.1.3 0 .1.1.2.1.3 0 .1-.1.2-.1.3 0 .1 0 .2-.1.3 0 .1-.1.2-.1.3s.1.2.1.3c0 .1-.1.2-.1.3 0 .1-.1.2-.2.3-.1.1 0 .3-.1.4-.1.1-.2.1-.3.2-.1.1-.2.1-.3.2-.1 0-.2-.1-.4 0-.1 0-.2.1-.3.1-.1 0-.2.1-.3.1-.1 0-.2 0-.3.1-.1 0-.2-.1-.3 0-.1 0-.2.1-.3.1-.1 0-.2-.1-.3-.1-.1 0-.2.1-.3.1-.1 0-.2-.1-.3-.1h-1.1c-.1 0-.2.1-.4.1h-.8c-.1 0-.2-.1-.4-.1-.1 0-.2-.1-.3-.1-.1 0-.2 0-.3-.1-.1-.1-.3 0-.4-.1-.1-.1-.1-.2-.2-.3-.1-.1-.1-.2-.2-.3v-.3c.3.5.3.4.3.3zm7.3-35.3c0 .2-.1.2-.2.4 0 .3-.3.6-.7.5h-.4c-.3 0-.6-.4-.6-.8v-.4c0-.3.4-.6.7-.5.2 0 .2.1.4.1.5.1.8.3.8.7zm-4.1-14.1c-.1-.1-.1-.2-.1-.3 0-.1-.1-.2-.1-.3v-.3c0-.2 0-.1.1-.3 0-.1 0-.1.1-.3 0-.1.1-.3.2-.4.1-.1.2-.1.4-.1h.6c.1 0 .2.1.3.1h.6c.1 0 .2-.1.3-.1h.8c.1 0 .2-.1.3-.1.1 0 .2-.1.3-.1.1 0 .2-.1.3-.1s.2-.1.3-.1c.1 0 .2-.1.3-.1s.2-.1.3-.1c.1 0 .2 0 .4-.1.1 0 .2-.2.3-.3.1 0 .2 0 .3-.1.1-.1.3 0 .4 0 .1 0 .2.1.3.2l.2.2c.1.1.2.1.2.2.1.1-.1.2 0 .3.1.1.1.2.1.3 0 .1-.1.2-.1.3l-.2.2c-.1 0-.2.1-.3.2-.1 0-.2.1-.3.2-.1 0-.2.1-.3.2-.1 0-.2.1-.3.1-.1 0-.2 0-.3.1-.1 0-.2.1-.3.1-.1 0-.2 0-.3.1-.1 0-.2.1-.3.1-.1 0-.3-.1-.4-.1-.1 0-.2.2-.3.2h-.3c-.1 0-.2.1-.3.1h-.6c-.1 0-.2.1-.3.1s-.2-.1-.3-.1h-.6c-.1 0-.2.1-.3.1-.1 0-.2-.2-.3-.2h-.3c-.3.2-.4.2-.5.2z" fill="url(#SVGID_1_)"/><path class="st0" d="M18.5 138.4c.2-.2.4-.3.6-.5.2-.2.4-.3.5-.5.2-.2.3-.4.5-.6.2-.2.2-.4.4-.6.2-.2.3-.4.5-.5.2-.2.3-.4.5-.6l.5-.5c.2-.2.4-.3.6-.5l.5-.5c.2-.2.3-.4.4-.6l.5-.5c.2-.2.3-.4.4-.6.2-.2.3-.4.5-.5.2-.2.3-.4.5-.5.2-.2.4-.3.5-.5.2-.2.4-.3.5-.5.2-.2.3-.4.5-.5.2-.2.3-.4.5-.5.2-.2.5-.2.6-.4.2-.2.3-.4.5-.6.2-.2.4-.3.6-.4.2-.2.4-.3.5-.5.2-.2.2-.5.4-.6.2-.2.5-.2.6-.4.2-.2.3-.4.5-.6.2-.2.3-.4.4-.6.2-.2.5-.2.7-.3.2-.2.3-.4.5-.5.2-.2.5-.2.6-.3.2-.2.3-.4.5-.6.2-.1.4-.2.6-.4.2-.1.3-.4.5-.5.2-.1.4-.2.6-.4.2-.1.4-.3.6-.4.2-.1.3-.5.5-.6.2-.1.4-.3.6-.4.2-.1.5-.2.7-.3.2-.1.5-.2.7-.3.2-.1.3-.4.5-.6.2-.1.5-.1.7-.2.2-.1.3-.4.5-.5.2-.1.5-.1.7-.2.2-.1.3-.4.5-.5.2-.1.4-.3.6-.4.2-.1.5-.1.7-.2.2-.1.3-.4.6-.5.2-.1.5-.1.7-.2l.6-.3.6-.3c.2-.1.5-.2.7-.2l.6-.3c.2-.1.4-.4.6-.5.2-.1.5 0 .7-.1.2-.1.4-.2.7-.3.2-.1.5 0 .7-.1.2-.1.4-.3.6-.3.2-.1.5-.1.7-.2.2-.1.4-.3.6-.3.2-.1.5.1.7 0 .2-.1.4-.2.7-.3.2-.1.5-.1.7-.1.2 0 .5.1.7 0 .2 0 .5-.1.7-.1.2 0 .5 0 .7-.1.2 0 .5-.1.7-.1.2 0 .5 0 .7-.1.2 0 .5-.2.7-.2.2 0 .5 0 .7.1.2 0 .5.2.7.2h.7c.2 0 .5.1.7.1.2 0 .5-.1.7 0 .2.1.5.2.7.2.2.1.4.3.6.4.2.1.5.1.7.2.2.1.4.3.6.4.2.1.5.1.7.2.2.1.4.3.6.4.2.1.4.3.6.5.2.1.3.3.5.5s.5.2.6.4l.5.5c.2.2.1.5.3.7.1.2.4.3.5.5.1.2.2.4.4.6.1.2.3.4.4.6.1.2.1.5.2.7.1.2.2.4.3.7.1.2.1.5.1.7.1.2 0 .5 0 .7 0 .2.3.4.3.7 0 .2-.1.5-.1.7 0 .2.2.5.2.7v.7c0 .2-.1.5-.1.7 0 .2-.1.5-.1.7 0 .2 0 .5-.1.7 0 .2 0 .5-.1.7 0 .2-.2.4-.3.7-.1.2.1.5 0 .8-.1.2-.3.4-.3.7-.1.2 0 .5-.1.7-.1.2-.1.5-.2.7-.1.2-.3.4-.4.6-.1.2-.1.5-.2.7-.1.2-.4.4-.5.6-.1.2-.1.5-.2.7-.1.2-.1.5-.3.7-.1.2-.2.4-.3.7-.1.2-.3.4-.4.6-.1.2-.2.4-.3.7-.1.2-.4.3-.5.5-.1.2-.2.4-.4.6l-.3.6c-.1.2-.2.4-.4.6-.1.2-.3.4-.4.6-.1.2-.3.4-.4.6-.1.2-.1.5-.3.7-.1.2-.4.3-.5.5-.1.2-.2.4-.4.6-.1.2-.3.4-.4.6-.1.2-.3.4-.5.5-.1.2-.3.3-.5.5s-.3.4-.4.5c-.2.2-.3.4-.4.6-.2.2-.3.4-.5.5l-.5.5c-.2.2-.3.4-.4.6-.2.2-.4.3-.5.5-.2.2-.4.3-.5.5-.2.2-.3.4-.5.5-.2.2-.4.3-.5.5-.2.2-.4.3-.5.5-.2.2-.4.2-.6.4-.2.1-.4.3-.6.4-.2.1-.3.4-.5.5-.2.1-.4.3-.6.4-.2.1-.4.2-.6.4-.2.1-.4.3-.6.4-.2.1-.5.1-.7.2-.2.1-.3.3-.5.5-.2.1-.4.3-.6.4l-.6.3-.6.3-.6.3c-.2.1-.4.3-.6.4l-.6.3c-.2.1-.5 0-.7.1-.2.1-.4.3-.6.4l-.6.3-.6.3c-.2.1-.4.2-.7.3l-.6.3c-.2.1-.4.2-.7.3-.2.1-.5 0-.7.1l-.6.3c-.3.1-.5.2-.7.3-.4.1-.7 0-.7 0-.2 0-.4 0-.7-.1-.2 0-.4.1-.7 0-.2-.1-.4-.1-.6-.2-.2-.1-.4-.2-.5-.4-.2-.1-.4-.2-.5-.4l-.3-.6c-.1-.2-.1-.4-.1-.7 0-.2-.1-.4-.1-.6 0-.2-.2-.5-.1-.7l.3-.6c.1-.2.3-.4.4-.5.1-.2.3-.3.5-.5.2-.1.3-.3.5-.4.2-.1.4-.2.6-.2 0 0 .2-.2.6-.3.2-.1.4-.1.7-.2.2-.1.4-.1.7-.2.2-.1.4-.1.7-.2.2-.1.4-.3.6-.4.2-.1.4-.1.7-.2.2-.1.5 0 .7-.1.2-.1.3-.4.5-.5.2-.1.5 0 .7-.1l.6-.3.6-.3c.2-.1.3-.4.5-.5.2-.1.5 0 .7-.1.2-.1.3-.3.6-.5l.6-.3c.2-.1.4-.3.6-.4.2-.1.3-.4.5-.5.2-.1.4-.3.6-.4.2-.1.5-.2.7-.3.2-.1.3-.4.4-.6.2-.1.3-.4.5-.5.2-.1.4-.2.6-.4l.5-.5c.2-.2.4-.2.6-.4.2-.2.3-.4.4-.6l.5-.5c.2-.2.3-.4.5-.5.2-.2.4-.3.6-.4.2-.2.3-.4.4-.6.2-.2.2-.4.4-.6.1-.2.4-.3.5-.5.1-.2.3-.3.5-.5.1-.2.2-.5.3-.7.1-.2.3-.4.5-.6.1-.2.2-.4.4-.6.1-.2.4-.3.6-.5.1-.2.3-.4.4-.6l.3-.6.3-.6c.1-.2.2-.4.4-.6.1-.2.4-.4.5-.6.1-.2.2-.4.3-.7l.3-.6.3-.6c.1-.2.2-.5.3-.7.1-.2 0-.5.1-.8.1-.2.4-.4.5-.6.1-.2 0-.5.1-.7.1-.2.3-.4.3-.7.1-.2.1-.5.1-.7.1-.2.1-.5.1-.7 0-.2.1-.5.1-.7 0-.2.1-.5.1-.7 0-.2-.1-.5-.1-.7 0-.2 0-.5-.1-.7 0-.2-.2-.5-.2-.7-.1-.2 0-.5-.1-.7-.1-.2-.2-.5-.3-.7-.1-.2-.3-.4-.5-.6-.2-.2-.4-.2-.6-.4-.2-.1-.3-.4-.5-.5-.2-.1-.5 0-.7-.1-.2-.1-.4-.3-.6-.4-.2-.1-.5 0-.7-.1-.2 0-.5.1-.7 0-.2 0-.4-.3-.7-.3-.2 0-.5.2-.7.2h-.7c-.2 0-.5.1-.7.1-.2 0-.5-.1-.7-.1-.2 0-.4.2-.7.2h-.7c-.2.1-.4.2-.7.2-.2.1-.4.2-.7.2-.2.1-.4.2-.7.2-.2.1-.4.2-.7.3-.2.1-.5.1-.7.2-.2.1-.4.3-.6.4-.2.1-.5.1-.7.1-.2.1-.5.1-.7.1l-.6.3c-.2.1-.4.3-.6.5l-.6.3-.6.3c-.2.1-.5.1-.7.3-.2.1-.4.3-.6.4-.2.1-.4.3-.6.4-.2.1-.4.2-.7.3-.2.1-.4.3-.6.4-.2.1-.4.3-.6.4-.2.1-.4.3-.6.4-.2.1-.4.3-.6.4-.2.1-.5.1-.7.3-.2.1-.4.3-.6.4-.2.1-.3.4-.5.5-.2.1-.4.2-.6.4-.2.1-.3.4-.5.5-.2.1-.4.2-.6.4-.2.1-.4.3-.6.4-.2.1-.4.3-.5.5l-.5.5c-.2.2-.4.3-.6.4-.2.2-.3.4-.5.5-.2.2-.5.2-.7.3-.2.2-.2.5-.4.7-.2.2-.4.3-.5.5l-.5.5c-.2.2-.5.2-.7.3-.2.2-.2.5-.4.7-.2.2-.5.2-.7.3l-.5.5c-.2.2-.3.4-.5.5-.2.2-.4.3-.5.5-.2.2-.2.4-.4.6-.2.2-.4.3-.6.4l-.5.5c-.2.2-.3.4-.5.5-.2.2-.2.5-.3.7-.2.2-.4.3-.6.5l-.5.5c-.2.2-.4.3-.5.5-.2.2-.2.5-.4.6-.2.2-.4.3-.5.5l-.5.5c-.2.2-.3.4-.5.6-.2.2-.3.4-.4.6-.2.2-.3.4-.4.6-.1.2-.4.3-.5.5-.1.2-.2.5-.3.7-.1.2-.2.4-.4.6-.1.2-.4.3-.5.5-.1.2-.2.4-.4.6-.1.2-.4.3-.5.5-.1.2-.2.5-.3.7-.1.2-.3.4-.4.6-.1.2-.3.4-.4.6-.1.2-.2.4-.4.6-.1.2-.3.4-.4.6-.1.2-.3.3-.5.5-.1.2-.2.4-.4.6-.1.2-.3.4-.4.6-.1.2-.3.4-.5.6-.1.2-.2.5-.3.7-.1.2-.3.4-.4.6l-.3.6-.3.6c-.1.2-.1.5-.3.7-.1.2-.4.3-.5.5-.1.2-.2.4-.3.7-.1.2-.1.5-.2.7-.1.2-.1.5-.2.7-.1.2-.4.4-.5.6-.1.2-.1.5-.2.7-.1.2-.2.5-.2.7-.1.2-.1.5-.2.7l-.3.6c-.1.2-.4.4-.5.6-.1.2-.1.5-.2.7-.1.2-.1.5-.2.7-.1.2-.2.4-.3.7-.1.2-.1.5-.2.7-.1.2 0 .5 0 .7-.1.2-.3.4-.3.6-.1.2 0 .5 0 .7-.1.2-.1.5-.1.7 0 .2-.2.4-.3.7 0 .2-.2.5-.2.7v2.1c0 .2-.2.5-.2.7 0 .2.1.5.1.7 0 .2-.1.5-.1.7 0 .2.2.5.2.7 0 .2-.1.5-.1.7 0 .2.1.5.2.7 0 .2.2.5.2.7.1.2.1.5.1.7.1.2.2.4.3.7l.3.6c.1.2.3.4.4.6.1.2 0 .5.2.7.1.2.4.3.5.5.2.2.3.4.4.6.2.2.5.2.6.4l.5.5c.2.1.4.3.6.4.2.1.5.1.7.2.2.1.4.3.6.4.2.1.4.2.7.3.2.1.5.1.7.2.2 0 .5-.1.7-.1h.7c.2 0 .5.2.7.2.2 0 .5-.1.7-.1.2 0 .5-.1.7-.2.2 0 .4-.2.7-.2.2-.1.4-.1.7-.2.2-.1.5 0 .7-.1.2-.1.5-.1.7-.2.2-.1.4-.4.6-.4.2-.1.5 0 .7-.1.2-.1.4-.4.6-.5.2-.1.5-.1.7-.2.2-.1.4-.3.6-.4.2-.1.5-.1.7-.2.2-.1.3-.3.5-.5l.6-.3c.2-.1.4-.3.6-.4.2-.1.5-.1.7-.2.2-.1.4-.3.6-.4.2-.1.3-.4.5-.6.2-.1.4-.2.6-.4.2-.1.4-.3.6-.4.2-.1.4-.3.6-.5.2-.2.3-.4.5-.6.2-.2.4-.3.6-.4.2-.2.3-.4.5-.5.2-.2.4-.3.6-.5.2-.2.4-.2.6-.4.2-.2.4-.3.6-.5.2-.2.3-.4.5-.6.2-.2.4-.3.5-.5.2-.2.1-.5.3-.7.2-.2.3-.4.5-.5.2-.2.4-.3.6-.4.1-.2.4-.2.6-.4.2-.1.3-.4.5-.4.2-.1.4-.1.7-.1.2 0 .4-.2.6-.2.2 0 .4.2.6.2.2.1.5 0 .7.1.2.1.4.3.5.4.2.1.2.5.3.6.1.2.3.3.4.5l.3.6c0 .2.1.5.1.7 0 .2-.1.5-.2.7-.1.2-.1.4-.2.7-.2.3-.2.3-.3.6l-.4.6c-.2.3 0 .4-.2.7-.2.3-.3.2-.5.6-.2.3 0 .4-.2.7-.2.3-.3.2-.5.6-.2.3-.2.3-.3.6-.2.3-.2.3-.3.6-.2.3-.1.3-.3.7-.2.3-.1.3-.3.7-.2.3 0 .4-.2.7l-.4.6c-.2.3-.1.3-.3.6-.2.3-.1.3-.3.7-.2.3-.2.3-.3.6-.2.3-.3.3-.4.6-.2.3 0 .4-.2.7-.2.3-.2.3-.3.6-.2.3-.3.3-.4.6l-.4.6c-.2.3-.1.4-.3.7-.2.3-.2.3-.3.6-.2.3-.1.4-.2.7-.2.3-.3.3-.4.6-.2.3-.1.3-.3.7-.2.3-.1.3-.3.6-.2.3-.1.4-.2.7l-.4.6c-.2.3-.3.3-.4.6-.2.3-.1.3-.3.7-.2.3-.1.4-.2.7l-.4.6c-.2.3-.1.4-.2.7-.2.3-.4.2-.5.5-.2.3-.1.4-.2.7-.2.3-.3.3-.4.6-.2.3-.1.3-.3.7-.2.3-.1.3-.3.7-.2.3-.3.3-.4.6-.2.3 0 .4-.1.7-.2.3-.2.3-.3.6-.2.3-.2.3-.3.6-.2.3-.3.3-.4.6-.2.3 0 .4-.2.7-.2.3-.1.3-.3.6-.2.3-.4.2-.5.5-.2.3.1.4-.1.7-.2.3-.3.3-.4.6-.2.3-.1.3-.3.6-.2.3-.2.3-.3.6-.2.3-.1.3-.3.7l-.4.6-.4.6c-.2.3-.1.4-.2.7-.2.3-.1.4-.2.7-.2.3-.3.2-.5.5s0 .4-.2.7l-.4.6c-.2.3-.1.4-.2.7-.1.2-.4.3-.5.5-.2.2-.2.5-.4.6-.2.1-.5.1-.7.2-.2.1-.4.1-.7.2-.2 0-.5.2-.7.2-.2 0-.4-.3-.7-.4-.2-.1-.5-.1-.7-.2-.2-.1-.5-.2-.6-.4-.2-.2-.1-.5-.2-.7-.1-.2-.4-.3-.5-.6 0-.2.2-.5.2-.7v-.7c.1-.2.2-.4.3-.7.2-.3.1-.4.2-.7.2-.3.3-.3.4-.6.2-.3 0-.4.2-.7.2-.3.4-.2.5-.5.2-.3.1-.3.3-.6.2-.3 0-.4.1-.7.2-.3.3-.2.5-.6l.4-.6c.2-.3 0-.4.1-.7.2-.3.2-.3.3-.6.2-.3.1-.3.3-.7l.4-.6c.2-.3.3-.3.4-.6.2-.3.1-.3.3-.7.2-.3.3-.3.4-.6.2-.3.1-.3.3-.6.2-.3.1-.4.2-.7.2-.3.2-.3.3-.6.2-.3.1-.4.2-.7.2-.3.1-.3.3-.7.2-.3.4-.2.5-.5.2-.3.1-.3.3-.7l.4-.6c.2-.3-.1-.4.1-.8.2-.3.4-.2.5-.5.2-.3 0-.4.1-.7l.4-.6.4-.6c.2-.3.2-.3.3-.6.2-.3.2-.3.3-.6.2-.3 0-.4.1-.7.2-.3.3-.3.4-.6.2-.3 0-.4.2-.7.2-.3.4-.2.5-.5.2-.3.2-.3.3-.6.1-.3-.1-.6-.3-.8-.2-.2-.4-.2-.6 0-.2.1-.5.1-.7.2-.2.1-.4.3-.6.4-.2.1-.4.1-.7.2-.2.1-.4.3-.6.4-.2.1-.5 0-.7.1-.2.1-.4.3-.6.4-.2.1-.5-.1-.7 0l-.6.3c-.2.1-.5 0-.7.1-.2.1-.4.3-.6.4-.2.1-.5-.1-.7 0-.2 0-.5.1-.7.2-.2 0-.4.2-.7.2-.2 0-.5.1-.7.1-.2 0-.5-.2-.7-.2-.2 0-.5.2-.7.2-.2 0-.5-.2-.7-.2h-.7c-.2 0-.5-.1-.7-.1h-.7c-.2 0-.5 0-.7-.1-.2-.1-.5-.1-.7-.2-.2-.1-.4-.3-.6-.4-.2-.1-.5 0-.7-.1-.2-.1-.5-.1-.7-.2l-.6-.3c-.2-.1-.4-.2-.6-.4l-.6-.3c-.2-.1-.4-.2-.6-.4-.2-.1-.4-.3-.5-.5-.2-.1-.2-.4-.4-.6-.2-.2-.4-.3-.5-.5-.2-.2-.5-.2-.6-.4-.2-.2-.1-.5-.3-.7-.1-.2-.3-.4-.4-.6-.1-.2-.4-.3-.6-.5-.1-.2-.2-.5-.3-.7-.1-.2-.3-.4-.4-.6-.1-.2-.1-.5-.2-.7-.1-.2-.4-.4-.5-.6-.1-.2-.1-.5-.2-.7-.1-.2-.1-.5-.1-.7l-.3-.6c-.1-.2-.3-.4-.3-.7-.1-.2.1-.5 0-.7 0-.2-.2-.4-.3-.7 0-.2.1-.5.1-.7 0-.2-.1-.5-.1-.7 0-.2-.2-.5-.2-.7 0-.2-.1-.5-.1-.7 0-.2.1-.5.1-.7 0-.2.1-.5.1-.7v-.7c0-.2-.1-.5 0-.7 0-.2 0-.5.1-.7 0-.2 0-.5.1-.7 0-.2.1-.5.2-.7 0-.2 0-.5.1-.7 0-.2.2-.4.2-.7 0-.2-.1-.5 0-.7 0-.2.1-.5.1-.7.1-.2.1-.5.1-.7.1-.2.2-.4.2-.7.1-.2.2-.4.3-.7.1-.2 0-.5.1-.7.1-.2.2-.5.2-.7.1-.2.3-.4.4-.6.1-.2.1-.5.1-.7l.3-.6c.1-.2.1-.4.2-.7.1-.2.3-.4.3-.6.1-.2 0-.5.1-.7.1-.2.3-.4.3-.6.1-.2.3-.4.4-.6.1-.2.1-.5.2-.7.1-.2.3-.4.4-.6.1-.2.1-.5.2-.7l.3-.6.3-.6c.1-.2.3-.4.5-.6.1-.2.2-.4.4-.6.1-.2.2-.4.4-.6l.3-.6c.1-.2.3-.4.4-.6.1-.2.1-.5.2-.7.1-.2.2-.4.4-.6.1-.2.3-.4.4-.6.1-.2.3-.4.4-.6.1-.2.2-.4.4-.6l.3-.6c.1-.2.3-.3.5-.5l.3-.6c.1-.2.4-.3.6-.5.1-.2.2-.4.4-.6.1-.2.2-.5.3-.7.1-.2.3-.3.5-.5.1-.2.3-.4.4-.6.1-.2.3-.4.5-.5.1-.2.4-.3.5-.5.1-.2.1-.5.3-.7.2-.2.4-.3.5-.5.1-.7.2-.9.3-1.1m179.6-30.6c.1.3.2.5.4.7.2.2.3.5.5.7.2.2.6.3.8.5.2.2.2.6.3.8.1.3.3.5.4.8.1.3.1.6.1.9 0 .3 0 .6-.1.9-.1.3-.2.6-.3.8-.1.3-.2.6-.4.8-.2.3-.4.5-.5.7-.2.2-.4.5-.5.8-.1.3-.1.6-.1.9 0 .3-.2.6-.1.9.1.3.2.6.4.9.2.3.4.5.7.7.2.2.5.3.7.4.2.1.5.3.8.4.3 0 .6-.1.8-.1.3 0 .6 0 .8-.1.2-.1.4-.3.6-.4.2-.1.4-.3.5-.5.2-.2.3-.4.5-.7.2-.2.2-.5.4-.8.1-.2.4-.4.5-.7.1-.2.2-.5.3-.8.1-.3.3-.5.4-.8.1-.3.2-.5.3-.8.1-.3 0-.6.1-.9.1-.3.2-.5.3-.8 0-.3-.2-.6-.2-.9v-.8c0-.3 0-.5-.1-.8 0-.3-.1-.5-.2-.8-.1-.3.1-.6 0-.9-.1-.3-.4-.5-.5-.7-.1-.3-.2-.5-.4-.7-.1-.2-.3-.4-.5-.7-.2-.2-.2-.6-.4-.8l-.6-.6c-.2-.2-.5-.2-.8-.4-.2-.2-.4-.4-.7-.5-.3-.1-.6-.2-.9-.2-.3 0-.6-.2-.9-.2-.3.1-.7.1-.9.2-.3.1-.4.5-.6.7l-.6.6c-.1.2-.3.5-.3.8-.1.3-.1.6-.1.8-.2.2 0 .4.1.7zm-14.8 43.8c-.4-.1-.7-.3-1.1-.5-.3-.2-.6-.5-.9-.8-.3-.3-.5-.7-.7-1-.2-.4-.2-.8-.3-1.2-.1-.4 0-.8 0-1.2 0-.4 0-.8.1-1.2.1-.4.1-.8.3-1.2.1-.4.2-.8.4-1.2.1-.4.3-.8.5-1.2.2-.4.3-.8.5-1.2.2-.4.4-.7.6-1.1.2-.4.4-.7.6-1.1.2-.4.3-.8.5-1.1.2-.4.3-.8.5-1.1.2-.4.5-.6.7-1 .2-.4.4-.7.6-1.1.2-.3.3-.7.5-1 .2-.3.4-.6.6-1 .2-.3.3-.7.5-1 .2-.3.3-.7.5-1 .2-.3.4-.6.6-1 .2-.3.3-.7.4-1 .2-.5.2-1-.2-1.3-.3-.3-.9-.4-1.4 0-.3.2-.6.5-1 .8-.3.2-.6.5-.9.8-.3.3-.6.5-1 .8-.3.3-.5.6-.8 1l-.9.9c-.3.3-.6.5-.9.8-.3.3-.4.7-.7 1.1-.3.3-.7.5-.9.8-.3.3-.6.6-.8.9-.3.3-.4.8-.6 1.1-.3.3-.7.5-.9.8-.3.3-.4.7-.6 1.1-.3.3-.6.5-.9.9-.3.3-.5.6-.8 1-.3.3-.4.7-.7 1-.3.3-.5.7-.7 1-.3.3-.5.6-.8 1-.3.3-.5.7-.7 1-.2.3-.6.6-.8.9-.2.3-.4.7-.6 1.1-.2.3-.5.7-.7 1-.2.3-.6.6-.8 1-.2.3-.4.7-.6 1.1-.2.3-.5.7-.7 1-.2.4-.4.7-.6 1.1-.2.4-.5.7-.8 1-.2.4-.5.7-.8 1-.2.4-.4.8-.6 1.1-.3.4-.5.8-.7 1-.4.7-.6 1.1-.6 1.1-.2.4-.5.7-.8.9-.3.2-.8.4-1.2.4-.4.1-.8.1-1.2 0-.4-.1-.8-.3-1.1-.5-.3-.2-.5-.5-.7-.8-.2-.3-.5-.6-.5-1-.1-.3-.1-.7 0-1.1 0-.4.3-.7.5-1 .2-.5.1-.5.3-1 .2-.4.1-.8-.2-1-.3-.2-.8-.3-1.1 0-.3.3-.5.7-.8.9-.3.3-.6.5-.9.8-.3.3-.5.6-.8.9-.3.3-.7.5-1 .7-.3.3-.6.6-.9.8-.3.2-.7.4-1 .6-.3.2-.7.4-1 .7-.3.2-.6.5-1 .7-.4.2-.7.4-1 .6-.4.2-.8.2-1.1.4-.4.2-.7.4-1.1.5-.3.1-.7.2-1.2.4l-1.2.3c-.4.1-.8 0-1.2 0-.4 0-.8-.1-1.2-.2-.4-.1-.8-.1-1.2-.3-.4-.1-.8-.3-1.1-.5-.3-.2-.6-.5-.9-.9-.3-.3-.4-.8-.5-1.1-.2-.4-.3-.8-.4-1.2-.1-.4.1-.8.1-1.3 0-.4-.1-.8 0-1.3.1-.4.3-.8.4-1.2l.3-1.2c.1-.4.3-.8.5-1.2.2-.4.2-.8.4-1.2.2-.4.5-.7.7-1.1.2-.4.2-.8.4-1.2.2-.4.5-.7.7-1.1.2-.4.3-.8.5-1.2.2-.4.6-.6.8-1 .2-.4.4-.8.6-1.1.2-.3.3-.7.6-1.1.2-.4.5-.7.7-1.1.2-.4.3-.8.5-1.2.2-.4.5-.7.7-1 .2-.4.3-.8.5-1.1.3-.5 0-1-.4-1.2-.4-.3-.9-.5-1.3-.2-.3.2-.5.6-.8.9-.3.2-.7.4-1 .7-.3.3-.4.7-.7 1-.3.3-.7.5-.9.8-.3.3-.6.5-.9.8-.3.3-.6.5-.9.8-.3.3-.5.6-.8.9-.3.3-.4.7-.7 1-.3.3-.6.5-.9.8-.3.3-.4.7-.6 1.1-.3.3-.6.5-.9.8-.3.3-.4.7-.7 1-.2.3-.6.6-.8.9-.2.3-.5.6-.8.9-.3.3-.5.7-.7 1-.3.3-.4.7-.7 1.1-.3.3-.6.6-.8 1-.3.3-.5.7-.7 1-.2.3-.5.7-.8 1-.2.3-.5.7-.7 1-.2.3-.5.7-.8 1-.2.3-.5.7-.8 1-.2.3-.4.8-.6 1.1-.2.4-.5.7-.8 1-.2.4-.5.7-.7 1-.2.4-.4.7-.6 1.1-.2.4-.6.6-.8.9-.2.4-.3.9-.5 1.2-.3.4-.5.7-.7 1-.4.7-.6 1-.7 1.1-.2.4-.6.6-.9.9-.3.2-.7.3-1.1.4-.4.1-.8.2-1.2.1-.4-.1-.8-.3-1.1-.5-.3-.2-.6-.5-.8-.8-.2-.3-.4-.6-.5-1-.1-.3 0-.7.1-1.1 0-.4.2-.7.4-1 .4-.8.3-.9.7-1.7.2-.4.1-.7-.2-1-.3-.2-.7-.3-1.1 0-.3.3-.6.5-.9.8-.3.3-.5.6-.8.8-.3.3-.6.5-.9.7-.3.3-.6.5-.9.8-.3.2-.5.6-.9.8-.3.2-.7.3-1 .6-.3.2-.6.5-.9.8-.3.2-.6.5-.9.7-.3.2-.6.5-.9.7-.3.2-.7.3-1.1.5-.3.2-.7.4-1 .6-.4.2-.7.4-1 .6-.4.2-.7.4-1.1.6-.4.2-.7.3-1.1.5-.4.2-.7.5-1 .6-.4.2-.8.3-1.1.4-.4.1-.8.1-1.2.2l-1.2.3c-.4.1-.8.3-1.2.3-.4.1-.8 0-1.2 0-.4 0-.8 0-1.2-.1-.4 0-.8.1-1.2 0-.4-.1-.8-.2-1.2-.4-.4-.2-.7-.4-1.1-.6-.4-.2-.8-.4-1.1-.6-.4-.4-.9-.4-1.4-.1-.3.2-.8.3-1.1.6-.3.2-.6.5-1 .8-.3.2-.8.3-1.1.5-.4.2-.6.6-1 .8-.4.2-.7.4-1.1.6-.4.2-.7.3-1.1.5-.4.2-.8.3-1.1.5-.4.2-.7.3-1.1.5-.4.2-.7.4-1.1.5-.4.2-.8.2-1.2.4l-1.2.3c-.4.1-.8.3-1.1.4-.4.1-.8.3-1.2.3-.4.1-.8 0-1.2.1-.4.1-.8.1-1.2.1-.4 0-.8.2-1.1.2-.4 0-.8-.1-1.1-.2-.4 0-.8 0-1.2-.1-.4-.1-.8 0-1.2-.1-.4-.1-.8-.3-1.2-.4-.4-.2-.8-.5-1.1-.7-.4-.2-.7-.5-1.1-.7-.3-.3-.6-.6-1-.9-.3-.3-.6-.6-.8-1-.3-.4-.6-.6-.8-1-.2-.4-.2-.9-.3-1.3h-.1c-.1-.4-.4-.6-.7-.7-.3-.1-.7.1-1 .3-.3.3-.6.5-.9.8-.3.3-.6.5-.9.8-.3.3-.7.5-1 .7-.3.3-.6.5-.9.8-.3.3-.6.6-.9.8l-.9.9c-.4.3-.7.5-1 .7-.5.4-.9.7-1 .7-.3.3-.6.5-1 .6-.4.1-.8.2-1.2.2-.4 0-.8-.2-1.1-.4-.3-.2-.6-.5-.8-.9-.3-.3-.4-.7-.5-1-.1-.4-.4-.7-.3-1.1 0-.4.2-.8.4-1.1.2-.3.4-.7.7-1 0 0 .3-.3.9-.8.3-.2.7-.3 1-.6.3-.2.5-.6.8-.9.3-.2.7-.4 1-.7.3-.2.6-.5.9-.8.3-.3.6-.6.9-.8.3-.3.7-.4 1-.7.3-.3.6-.6.9-.8.3-.3.7-.4 1-.7.3-.3.6-.5.9-.8.3-.3.5-.6.8-.9.3-.3.6-.5.9-.7.3-.3.7-.4 1-.7.3-.3.4-.7.7-1 .2-.2.3-.3.3-.6.1-.4.4-.7.5-1.1l.3-1.2c.1-.4.2-.8.4-1.2.1-.4.3-.8.4-1.2l.3-1.2c.1-.4.4-.7.6-1.1.2-.4.1-.8.3-1.2.2-.4.4-.7.6-1.1.2-.4.2-.8.4-1.2.2-.4.3-.8.5-1.1.2-.4.5-.7.7-1 .2-.4.2-.8.4-1.2.2-.4.5-.6.7-1 .2-.4.3-.8.5-1.2.2-.4.4-.7.6-1.1.2-.4.4-.7.6-1.1.2-.4.3-.8.5-1.1.2-.4.5-.7.7-1 .2-.4.4-.7.6-1.1.2-.4.4-.7.6-1.1.2-.4.4-.7.6-1 .2-.4.5-.7.7-1 .2-.3.4-.7.6-1.1.2-.3.4-.7.6-1 .2-.3.4-.7.6-1.1.2-.3.5-.7.7-1 .2-.3.4-.7.6-1 .2-.3.6-.6.8-.9.2-.3.3-.8.6-1.1.2-.3.6-.6.8-.9.2-.3.5-.6.8-1 .3-.3.4-.7.7-1 .3-.3.5-.6.8-1 .3-.3.5-.7.8-1 .3-.3.6-.6.8-.9.3-.3.5-.7.7-1l.9-.9c.3-.3.6-.5.9-.8.3-.3.7-.5 1-.7.3-.3.6-.6.9-.8.3-.3.6-.6.9-.8.3-.2.7-.5 1-.7.4-.2.7-.5 1-.7.4-.2.8-.3 1.2-.4.4-.2.8-.4 1.1-.5.4-.1.8-.2 1.2-.2.4 0 .8-.1 1.2 0l1.2.3c.4.1.7.4 1.1.6.4.2.6.6.9.9.3.3.7.5.9.9.2.3.2.8.4 1.2.1.4.4.7.5 1.2.1.4 0 .8.1 1.3 0 .4-.1.8-.1 1.2 0 .4-.1.8-.2 1.2-.1.4-.1.8-.2 1.2l-.3 1.2c-.1.4-.2.8-.4 1.2-.1.4-.2.8-.4 1.2-.2.4-.3.8-.5 1.2-.2.4-.4.7-.6 1.1-.2.4-.5.7-.7 1.1-.2.4-.4.7-.6 1.1-.2.4-.4.7-.6 1.1-.2.3-.5.6-.7 1-.2.3-.4.7-.7 1-.2.3-.5.7-.7 1-.2.3-.5.7-.7 1-.2.3-.6.6-.8.9-.3.3-.4.7-.7 1-.3.3-.7.5-.9.8-.3.3-.5.7-.7 1-.3.3-.5.6-.8.9-.3.3-.5.7-.8 1-.3.3-.6.6-.8.9-.3.3-.6.5-.9.8l-.9.9c-.3.3-.5.6-.8.9-.3.3-.6.6-.9.8-.3.3-.6.6-.8.9-.3.3-.6.5-.9.8-.3.3-.5.6-.8.9-.3.3-.6.5-.9.8-.3.3-.5.6-.8.9-.3.3-.6.6-.8.9-.3.3-.6.5-.9.8-.3.3-.5.6-.8.9-.3.3-.7.4-1 .7-.3.3-.5.6-.8.9-.3.3-.6.5-.9.8-.3.3-.5.6-.8.9l-.9.9c-.3.3-.7.4-1 .7-.3.3-.6.6-.9.8-.3.3-.5.7-.8 1-.3.3-.7.5-.9.8-.2.3-.5.7-.7 1.1-.2.4-.3.8-.4 1.2-.1.4 0 .8 0 1.3 0 .4-.2.8-.1 1.3.1.3.2.5.3.8.1.4.3.8.5 1.1.2.3.7.4 1 .6.3.2.6.3 1.1.5.4.1.7.3 1.2.3.4 0 .8-.1 1.2-.1.4 0 .8.1 1.2.1.4-.1.7-.4 1.2-.5.4-.1.8 0 1.2-.1.4-.1.7-.3 1.1-.5.4-.1.7-.4 1.1-.6.4-.2.8-.2 1.2-.4.4-.2.7-.5 1-.7.4-.2.8-.2 1.2-.4.4-.2.6-.5 1-.7.3-.2.7-.3 1.1-.6.3-.2.7-.4 1.1-.6.3-.2.6-.5 1-.8.3-.2.7-.4 1.1-.6.3-.2.7-.4 1-.7.3-.2.4-.7.4-1v-1.2c0-.4 0-.8.1-1.2.1-.4.3-.8.4-1.2.1-.4 0-.8.1-1.2l.3-1.2c.1-.4.3-.8.4-1.2.1-.4.3-.8.4-1.1l.3-1.2c.2-.4.4-.7.6-1.1.2-.4.3-.8.5-1.1.2-.4.4-.7.6-1.1.2-.4.4-.7.6-1.1.2-.3.5-.7.7-1 .2-.3.4-.7.6-1.1.2-.3.5-.6.7-1 .2-.3.4-.7.6-1 .2-.3.5-.6.8-.9.2-.3.5-.6.7-1 .2-.3.5-.6.7-1 .3-.3.5-.7.7-1 .3-.3.5-.6.8-.9.3-.3.6-.5.9-.8.3-.3.5-.6.9-.9.3-.3.6-.6.9-.8.3-.3.6-.5 1-.7.3-.2.7-.4 1.1-.6.4-.2.8-.3 1.1-.5.4-.2.7-.3 1.1-.4.4-.1.8-.3 1.2-.4.4 0 .8.1 1.2.1.4 0 .8.2 1.2.3.4.1.7.3 1.1.5.3.2.7.3 1 .6.3.3.5.6.8.9.2.3.5.6.6 1 .2.4.2.8.3 1.1.1.4.2.7.2 1.1 0 .4-.1.8-.1 1.2 0 .4.2.8.1 1.2l-.3 1.2c-.1.4-.3.7-.4 1.1-.1.4-.4.7-.5 1-.2.4-.2.8-.4 1.1-.2.3-.5.6-.7 1-.2.3-.5.6-.7 1-.2.3-.5.6-.7 1-.2.3-.3.7-.6 1-.2.3-.6.5-.8.9-.2.3-.4.7-.6 1-.3.3-.6.5-.8.8-.3.3-.5.6-.8.9-.3.3-.6.6-.8.9-.3.3-.5.7-.7 1-.3.3-.7.4-1 .7-.3.3-.5.6-.8.9-.3.3-.5.6-.8.9-.3.3-.6.5-.9.8-.3.3-.5.6-.8.9-.3.3-.6.6-.9.8-.3.3-.6.5-.9.7-.3.3-.4.6-.4 1s.2.7.5.9c.3.2.6.4 1 .2.3-.1.7-.3 1.1-.5.3-.1.7-.3 1.1-.4.3-.2.6-.4 1-.6.3-.2.7-.4 1-.6.3-.2.7-.4 1-.6.3-.2.7-.5 1-.7.3-.2.7-.4 1-.7.3-.2.6-.6.9-.8.3-.2.7-.4 1-.6.3-.2.7-.5 1-.7.3-.3.5-.7.8-.9.3-.3.7-.4 1.1-.6l.9-.9c.3-.3.6-.5.9-.8l.9-.9c.3-.3.5-.6.8-.9.3-.3.7-.5 1-.8.3-.3.5-.6.8-.9.3-.3.6-.5.9-.8.3-.3.5-.6.8-.9.3-.3.5-.6.8-.9.3-.3.5-.7.7-1 .3-.3.6-.5.9-.8.3-.3.6-.5.9-.9.3-.3.4-.7.7-1 .3-.3.5-.6.8-.9.3-.3.6-.6.8-.9.3-.3.6-.6.8-.9.3-.3.4-.8.6-1.1l.9-.9c.3-.3.5-.6.7-1 .3-.3.5-.7.7-1 .3-.3.4-.7.7-1 .2-.3.5-.7.7-1 .2-.3.4-.7.7-1 .3-.3.7-.6.9-.9.3-.4.5-.7.7-1 .3-.4.4-.8.6-1.1.4-.6.7-.9.7-1 .2-.3.4-.7.8-.9.3-.2.8-.2 1.2-.3.4-.1.8-.1 1.2 0 .4.1.8.1 1.2.3.4.3.7.8.8 1.2.2.5.4.9.4 1.4 0 .6.6 1 1.1.5l.9-.9c.3-.3.8-.4 1.1-.7.3-.3.6-.6.9-.8.3-.3.8-.4 1.1-.6.4-.2.6-.6.9-.8.4-.2.8-.3 1.2-.4.4-.2.7-.5 1.1-.7.4-.2.8-.2 1.2-.3.4-.1.8-.2 1.2-.2.4 0 .8 0 1.2.1.4 0 .8 0 1.2.1.4.1.8.3 1.1.5.4.2.6.6.8.9.3.4.5.7.7 1 .2.4.5.7.6 1 .1.4.2.8.2 1.2 0 .4-.1.8-.1 1.2-.1.4-.1.8-.2 1.2-.1.4-.4.7-.5 1.1-.1.4-.3.7-.4 1.1-.1.4-.3.7-.5 1.1-.2.4-.2.8-.4 1.2-.2.3-.5.6-.7 1-.2.3-.3.7-.5 1.1-.2.3-.4.7-.6 1.1-.2.3-.4.7-.6 1-.2.3-.2.8-.4 1.1-.2.3-.6.6-.8.9-.2.3-.2.8-.5 1.2-.2.4-.6.7-.8 1-.2.4-.4.8-.6 1.1-.2.4-.4.7-.6 1.1-.2.4-.3.8-.5 1.2-.2.4-.4.7-.6 1.1-.2.5 0 1 .3 1.4.4.3.8.4 1.3.1.3-.2.7-.3 1.1-.6.3-.2.6-.5 1-.7.3-.2.6-.6.9-.8.3-.3.7-.4 1.1-.6.3-.3.6-.5.9-.8.3-.3.5-.7.8-1l.9-.9c.3-.3.7-.5 1-.8.3-.3.5-.6.8-.9.3-.3.5-.7.8-1 .3-.3.6-.5.9-.8.3-.3.5-.6.8-1 .3-.3.5-.6.8-.9.3-.3.6-.5.9-.9.3-.3.5-.7.7-1 .3-.3.7-.5 1-.8.3-.3.4-.7.7-1 .3-.3.6-.6.8-.9.3-.3.5-.7.7-1 .3-.3.5-.6.8-.9l.9-.9c.3-.3.5-.7.8-1 .3-.3.5-.6.8-1 .3-.3.6-.6.8-.9.3-.3.5-.7.8-1 .3-.3.4-.7.7-1 .3-.3.6-.6.8-.9.3-.3.5-.7.7-1 .2-.3.5-.7.7-1 .2-.3.4-.7.7-1 .2-.3.6-.6.9-.9.2-.3.3-.8.6-1.1.2-.3.5-.6.8-1 .2-.3.6-.5.9-.7.3-.2.7-.4 1.1-.5.4-.1.8-.1 1.2 0 .4.1.8.2 1.1.4.4.3.7.7.9 1.1.2.4.1.9.1 1.4 0 .6.8.9 1.3.5.3-.3.8-.4 1.1-.7.3-.3.6-.6.9-.8.3-.3.6-.6.9-.8.3-.3.8-.4 1.1-.6.4-.2.7-.5 1-.8.4-.2.7-.5 1.1-.7.4-.2.8-.2 1.2-.3.4-.2.8-.3 1.2-.4.4-.1.8-.1 1.2-.2.4 0 .8-.1 1.2 0 .4 0 .8.1 1.2.2.4.1.7.4 1 .6.4.2.8.3 1.1.6.3.4.6.7.7 1 .2.4.3.8.4 1.2.1.4.2.8.2 1.2 0 .4-.2.8-.2 1.2-.1.4.1.8 0 1.2-.1.4-.3.7-.4 1.1-.1.4-.3.7-.5 1.1l-.3 1.2c-.2.4-.5.6-.7 1-.2.4-.2.8-.4 1.2-.2.4-.4.7-.6 1-.2.3-.3.7-.5 1.1-.2.3-.4.7-.6 1.1-.2.3-.3.7-.5 1.1-.2.3-.4.7-.6 1.1-.2.3-.5.7-.7 1.1-.2.4-.4.7-.6 1.1-.2.4-.3.8-.5 1.2-.2.4-.4.7-.6 1.1-.2.4-.3.8-.5 1.2-.2.4-.4.7-.6 1.1-.2.4-.1.8.1 1.1.2.3.6.6 1 .7.4 0 .8-.1 1.1.1.3.1.6.5.8.7.3.3.6.5.7.8.2.4.1.8.1 1.2 0 .4 0 .9-.2 1.2-.2.4-.5.7-.8 1-.3.3-.7.5-1.1.6-.3.1-.7.1-1.2.3-.4.1-.7.2-1.2.2-.4.1-.8.1-1.2.1H185c-1 .4-1.4.3-1.7.1zm-110.7-4.9c.2.2.6.2.9-.1.3-.3.5-.6.8-.9.3-.3.7-.4 1-.7.3-.3.4-.7.7-1 .3-.3.6-.5.9-.8.3-.3.7-.5.9-.8.3-.3.5-.6.8-.9.3-.3.6-.6.8-.9.3-.3.5-.7.8-1 .3-.3.5-.6.8-.9.3-.3.7-.5 1-.8.3-.3.4-.7.7-1 .3-.3.7-.5 1-.8.3-.3.5-.6.8-1 .3-.3.5-.7.7-1l.9-.9c.3-.3.4-.7.7-1 .3-.3.4-.7.7-1 .3-.3.7-.5.9-.9.2-.3.4-.7.7-1 .2-.3.5-.7.7-1l.6-1.2.6-1.2c.2-.4.5-.7.7-1.1.2-.4.2-.9.3-1.3.2-.4.3-.8.5-1.2.1-.4.2-.7.1-1-.1-.4-.4-.6-.7-.8-.3-.2-.6-.5-1-.5-.3 0-.6.3-.9.6-.3.2-.7.5-1 .8-.3.3-.6.5-.9.8-.3.3-.5.7-.8 1-.3.3-.7.4-1 .8-.3.3-.4.7-.7 1.1-.3.3-.6.6-.8.9-.3.3-.5.7-.8 1-.2.3-.5.7-.8 1-.2.3-.4.7-.7 1.1-.2.3-.5.7-.7 1-.2.3-.5.6-.8 1-.2.3-.4.7-.6 1-.2.3-.4.7-.6 1.1-.2.3-.5.7-.7 1-.2.3-.4.7-.6 1.1-.2.3-.5.6-.7 1-.2.3-.4.7-.7 1-.2.3-.5.6-.7 1-.2.3-.3.8-.5 1.1-.2.4-.5.6-.7 1-.2.4-.3.8-.5 1.1-.2.4-.5.7-.7 1-.2.4-.3.8-.5 1.1-.2.4-.4.7-.6 1.1-.2.4-.4.7-.6 1.1 0 .4.1.7.3.9zm25.7 4.9c.3-.3.5-.6.8-.9.3-.3.7-.5 1-.8.3-.3.4-.7.7-1l.9-.9c.3-.3.6-.6.8-.9.3-.3.4-.7.7-1 .3-.3.7-.5.9-.8.3-.3.4-.8.6-1.1.3-.4.5-.7.8-1 .2-.4.4-.7.6-1.1.2-.4.4-.9.6-1.2.2-.5.2-1 .3-1.3.1-.6-.4-.9-.9-.7-.3.2-.7.3-1 .5-.3.2-.6.5-.9.7-.3.2-.5.6-.8.8-.3.3-.6.5-.8.8-.2.3-.5.6-.7.9-.2.3-.5.5-.8.9-.2.3-.5.6-.7.9-.2.3-.5.6-.7.9-.2.3-.3.7-.5 1.1-.2.3-.5.6-.7.9-.2.3-.3.7-.5 1.1-.2.3-.5.6-.7 1-.2.4-.3.8-.5 1.1-.2.4-.4.7-.5 1.1-.2.4-.3.7-.5 1.1-.3.6.4 1 .8.6l.9-.9c.2-.3.6-.5.8-.8zm127.9-25.2v-1.8c0-.3-.1-.6-.1-.8v-.9c-.1-.3-.1-.6-.1-.8-.1-.3-.2-.5-.3-.8-.1-.3-.1-.6-.2-.8-.1-.3-.4-.5-.5-.7-.2-.3-.3-.5-.5-.7-.2-.3-.4-.4-.6-.6-.2-.3-.3-.6-.5-.7-.2-.2-.4-.4-.7-.6-.2-.2-.6-.2-.8-.3-.2-.1-.5-.3-.7-.5-.3-.1-.5-.2-.8-.3-.3-.1-.5-.4-.8-.4-.3-.1-.6 0-.9-.1h-.9c-.3 0-.6-.2-.9-.2-.3 0-.6.1-.9.1-.3 0-.6 0-.9.1-.3 0-.6.2-.8.2-.3.1-.6 0-.9.1-.3.1-.5.3-.8.4-.3.1-.6.2-.8.3-.3.1-.5.4-.7.5-.2.1-.5.3-.7.5-.2.1-.5.2-.8.4l-.6.6c-.2.2-.5.4-.7.6-.2.2-.3.5-.5.7-.2.2-.3.5-.5.7-.2.2-.3.5-.4.8-.1.2-.3.5-.4.8-.1.3-.3.5-.4.8-.1.3-.1.6-.3.8-.1.3-.1.6-.2.8-.1.3-.2.5-.3.8-.1.3-.1.6-.2.9-.1.3-.3.5-.3.8v.9c0 .3-.2.6-.2.9 0 .3.1.6.1.9v.9c0 .3-.2.6-.2.9 0 .3.2.6.2.9v1.8c0 .3.1.6.2.9 0 .3.2.6.2.9.1.3.1.6.2.9.1.3.1.6.1.9.1.3.1.6.2.9.1.3.3.5.4.8.1.3.2.5.3.8.1.3.1.6.2.8.1.3.1.6.2.9.1.3.3.5.4.8.1.3.1.6.2.9.1.3.3.5.4.8.1.3.2.5.4.8.1.3.2.5.3.8.1.3.3.5.4.8.1.3.2.5.3.8.1.3.2.6.2.8.1.3.2.6.2.8.1.3.1.6.2.8.1.3.2.5.3.8.1.3.1.6.1.9.1.3.2.5.3.8.1.3 0 .6 0 .9 0 .3 0 .6.1.9 0 .3.2.6.2.8 0 .3 0 .6.1.9 0 .3-.2.6-.2.9 0 .3.1.6.1.9 0 .3-.2.6-.2.9v.9c0 .3.1.6 0 .9 0 .3-.3.5-.3.8-.1.3-.1.6-.2.8-.1.3-.1.6-.2.9-.1.3-.3.5-.4.8-.1.3-.1.6-.2.8-.1.3-.2.5-.4.8-.1.3-.4.5-.5.7-.2.2-.3.5-.4.8l-.6.6c-.2.2-.3.5-.5.7l-.6.6c-.2.2-.4.4-.7.6-.2.2-.5.3-.8.5-.2.2-.4.5-.6.7-.2.2-.6.2-.8.3-.3.1-.5.3-.8.4-.3.1-.5.2-.8.3-.3.1-.5.2-.8.3-.3.1-.5.2-.8.3-.3.1-.6.1-.9.2-.3.1-.6.2-.8.2h-.9c-.3 0-.6.2-.9.2-.3 0-.6-.1-.9-.1-.3 0-.6-.2-.9-.2-.3 0-.6-.1-.9-.2-.3-.1-.6-.1-.9-.2-.3-.1-.5-.3-.8-.5-.3-.1-.6-.1-.9-.2-.2-.2-.4-.5-.6-.7l-.6-.6-.6-.6c-.2-.2-.5-.4-.6-.6-.1-.2-.1-.6-.2-.9-.1-.3-.3-.5-.4-.8-.1-.3-.2-.5-.3-.8-.1-.3-.1-.6-.2-.9 0-.3-.1-.6-.1-.9v-.9c0-.3.2-.6.2-.9 0-.3-.1-.6-.1-.9 0-.3.1-.6.1-.9-.1-.3-.3-.6-.4-.8-.2-.3-.4-.5-.6-.7-.2-.2-.4-.5-.7-.6-.3-.1-.6-.1-.9-.2-.3 0-.6.1-.9.2l-.9.3c-.3.2-.6.3-.8.5-.2.2-.2.6-.4.9-.1.3-.3.6-.3.9 0 .3-.1.6-.1.9 0 .3-.1.6-.1.9 0 .3.1.6.1.9 0 .3-.1.6 0 .9 0 .3.2.6.3.9 0 .3.1.6.2.9.1.3.1.6.1.9.1.3 0 .6.1.9.1.3.3.5.4.8.1.3.2.6.3.8.1.3.3.5.4.8.1.3.3.5.5.7.1.3.1.6.3.9.2.2.4.5.6.7.2.2.5.4.7.6.2.2.3.5.5.7.2.2.5.4.7.6.2.2.4.5.6.6.2.2.6.2.8.4.2.2.5.3.7.5.3.1.5.4.7.5.3.1.6.1.9.3.3.1.5.2.8.3.3.1.6.2.8.3.3.1.6 0 .9.1.3.1.6.2.9.2.3 0 .6.1.9.1h.9c.3 0 .6.1.9.1h.9c.3 0 .6 0 .9-.1h.9c.3 0 .6-.2.9-.3.3-.1.6-.2.9-.2.3-.1.6.1.9 0 .3-.1.6-.2.8-.3.3-.1.5-.4.8-.5.3-.1.6-.1.9-.2.3-.1.6-.2.8-.3.3-.1.5-.4.7-.5.3-.1.5-.3.7-.5.3-.2.5-.4.7-.5.2-.2.6-.2.8-.4.2-.2.4-.5.6-.7.2-.2.5-.3.8-.5.2-.2.5-.4.7-.6l.6-.6c.2-.2.3-.5.5-.7.2-.2.2-.5.4-.8.2-.2.5-.4.6-.6.2-.2.3-.5.4-.8.2-.2.3-.5.4-.8.1-.2.3-.5.4-.8.1-.3.4-.4.5-.7.1-.3.2-.5.4-.8.1-.3.2-.5.3-.8.1-.3.2-.5.3-.8.1-.3.1-.6.2-.8.1-.3.4-.5.4-.8.1-.3 0-.6 0-.9.1-.3.1-.6.2-.9.1-.3.2-.5.3-.8v-.9c0-.3.2-.6.2-.9 0-.3-.1-.6-.1-.9v-.9c0-.3.1-.6.1-.9 0-.3-.2-.6-.2-.9v-.9c0-.3 0-.6-.1-.9 0-.3-.2-.6-.2-.8 0-.3 0-.6-.1-.9-.1-.3 0-.6 0-.9-.1-.3-.2-.5-.3-.8-.1-.3-.2-.6-.2-.8-.1-.3-.1-.6-.2-.8-.1-.3-.1-.6-.2-.9-.1-.3-.2-.5-.3-.8-.1-.3-.1-.6-.2-.9-.1-.3-.3-.5-.4-.8-.1-.3-.2-.5-.3-.8-.1-.3-.1-.6-.3-.8-.1-.3-.3-.5-.4-.8-.1-.3-.1-.6-.2-.9-.1-.3-.3-.5-.5-.8-.1-.3-.1-.6-.2-.8-.1-.3-.2-.6-.3-.8-.1-.3-.2-.5-.3-.8-.1-.3-.1-.6-.2-.8-.1-.3-.2-.6-.2-.8-.1-.3-.3-.5-.3-.8-.1-.3-.2-.5-.3-.8-.1-.3.1-.6 0-.9-.1-.3-.1-.6-.2-.9 0-.3-.1-.6-.1-.9 0-.3-.2-.6-.2-.8 0-.3-.1-.6-.1-.9 0-.3.1-.6.1-.9v-.9c0-.3.1-.6.1-.9 0-.3 0-.6.1-.9.1-.3.2-.5.3-.8.1-.3.2-.5.3-.8.1-.3.1-.6.2-.8.1-.3.3-.5.4-.7.2-.3.3-.5.5-.7.2-.2.4-.5.6-.6.2-.2.5-.4.7-.5.2-.2.4-.3.7-.4.2-.1.5-.2.8-.3.3-.1.5-.3.8-.3h.8c.3 0 .6 0 .8.1.3.1.6.1.8.2.2.1.4.4.6.6.2.2.4.4.5.6.1.2.3.5.3.7.1.3.1.5.1.8v1.6c0 .3-.2.5-.3.8-.1.3 0 .6-.1.8-.1.3-.1.5-.2.8-.1.3-.2.5-.4.8-.1.2-.4.4-.5.7-.1.2-.2.5-.4.7-.1.2-.2.5-.3.8-.1.3.1.6.1.8 0 .3-.1.6 0 .8.1.3.1.6.3.8.1.2.3.4.6.6.2.2.5.2.8.3.3.1.5.4.8.4.3 0 .6 0 .9-.1.3-.1.6-.1.9-.3.3-.1.5-.4.7-.6.2-.2.3-.5.4-.8.1-.3.3-.5.4-.8.1-.3.3-.5.4-.7.1-.3.3-.5.4-.7.1-.3.3-.5.4-.8.1-.3.2-.5.3-.8.1-.3.1-.6.2-.8.1-.3.3-.5.3-.8.1-.3-.1-.6 0-.9.6-.4.8-.6.9-.9zm-168 65.4c0-.2-.2-.3-.4-.3-.3.1-.3.1-.6.1-.3.1-.3.1-.6.1-.3.1-.3 0-.6.1s-.3.1-.6.1c-.3.1-.3 0-.6.1l-.6.2c-.3.1-.3.1-.6.1-.3.1-.3 0-.6.1s-.3 0-.6.1-.3.1-.6.1c-.3.1-.3.1-.6.1-.3.1-.3 0-.6.1l-.6.2c-.1 0-.3.1-.3.2v.6c0 .3-.1.3-.1.6v.6c0 .3-.1.3-.1.6s0 .3-.1.6v.6c0 .3-.1.3-.1.6v.6c0 .3 0 .3-.1.6v1.8c0 .3-.1.3-.1.6s0 .3-.1.6v.6c0 .3-.1.3-.1.6v.6c0 .2.1.3.3.3.3-.1.3 0 .6-.1s.3-.1.6-.1c.3-.1.3 0 .6-.1.1 0 .3-.1.3-.3v-.6c0-.3.1-.3.1-.6v-1.2c0-.3.1-.3.1-.6v-.6c0-.1.1-.2.3-.2.3-.1.3-.1.6-.1.3-.1.3-.1.6-.1.3-.1.3 0 .6-.1l.6-.2c.3-.1.3-.1.6-.1.3-.1.3 0 .6-.1s.3 0 .6-.1.3-.1.6-.1c.1 0 .2-.2.2-.3 0-.3.1-.2.1-.5v-.5c0-.3.1-.2.1-.5 0-.2-.2-.4-.4-.3-.3.1-.3 0-.6.1s-.3.1-.5.1c-.3.1-.3 0-.6.1s-.3 0-.5.1c-.3.1-.3.1-.5.1-.3.1-.3.1-.5.1-.3.1-.3 0-.6.1s-.3.1-.5.2c-.2 0-.3-.1-.3-.3v-1.8c0-.1.1-.3.3-.3.3-.1.3-.1.6-.1.3-.1.3 0 .6-.1s.3-.1.6-.1c.3-.1.3 0 .6-.1s.3-.1.6-.1c.3-.1.3-.1.6-.1.3-.1.3-.1.6-.1.3-.1.3 0 .6-.1s.3-.1.6-.1c.1 0 .2-.1.2-.3 0-.3.1-.3.1-.5v-.5c.1-.6.2-.6.2-.8zm17 6.6c.1.2 0 .3-.2.4-.3 0-.3.1-.5.1-.3 0-.3 0-.5.1-.3 0-.2.1-.5.2H73c-.2 0-.3 0-.3-.2l-.2-.6-.2-.6-.2-.6c0-.1-.2-.2-.4-.2-.3.1-.3.1-.5.1h-.6c-.3.1-.3.1-.5.2-.3.1-.3 0-.6.1s-.3.1-.5.1c-.3.1-.3 0-.5.1-.1 0-.2.1-.2.2-.1.3-.1.2-.2.5s-.1.3-.2.5-.1.2-.2.5c-.1.2-.1.3-.2.5s-.1.2-.2.5c0 .1-.1.2-.2.2-.3.1-.3.1-.7.1-.3.1-.3.1-.6.1-.3.1-.3 0-.7.1-.2 0-.4-.2-.3-.4.1-.3.2-.3.3-.5l.2-.6.2-.6c.1-.3.1-.3.3-.5.1-.3.1-.3.2-.5l.2-.6c.1-.3.2-.3.3-.5l.2-.6.2-.6c.1-.3.1-.3.2-.5.1-.3.2-.3.3-.5.1-.3.1-.3.2-.5l.2-.6c.1-.3.2-.3.3-.5l.2-.6c.1-.3.1-.3.3-.5.1-.3.1-.3.2-.5l.2-.6.2-.6c.1-.3.2-.3.3-.5 0-.1.1-.1.2-.2l.6-.2c.3-.1.3 0 .6-.1s.3 0 .6-.1c.1 0 .3 0 .3.2l.2.6c.1.3.1.3.2.5l.2.6c.1.3.1.3.2.5l.2.6c.1.3.2.3.3.5.1.3 0 .3.1.6s.1.3.2.5l.2.6.2.6.2.6c.1.3.1.3.2.5.1.3.2.3.2.5l.2.6c.1.3.1.3.2.5.1.3 0 .3.1.6.2.1.2.1.3.4zm-4-3.9l-.2-.6c-.1-.3 0-.3-.1-.7-.1-.2-.2-.4-.2-.6-.1-.2-.1-.4-.1-.6-.2.2-.1.2-.2.4s-.1.2-.2.5c-.1.2-.1.2-.2.5l-.2.4c-.1.2-.1.2-.2.5-.1.2 0 .3-.1.5s.1.4.3.4c.3-.1.3 0 .6-.1s.3-.1.6-.1c.1-.2.2-.4.2-.5zm21.9.3c.1.2 0 .4-.2.4-.3 0-.2.1-.5.2-.3 0-.3 0-.5.1-.3 0-.3 0-.5.1-.3 0-.2.1-.5.1-.1 0-.3 0-.4-.2-.1-.2-.1-.3-.2-.5s-.1-.3-.3-.5c-.1-.2-.2-.2-.3-.5-.1-.2-.1-.3-.2-.5s-.1-.3-.2-.5-.1-.2-.3-.5c-.1-.2-.2-.2-.3-.5-.1-.1-.2-.2-.3-.1H88c-.2 0-.2.1-.4.1-.1 0-.2.1-.3.2v1c0 .3-.1.3-.1.5v.5c0 .3 0 .3-.1.5v.5c0 .3 0 .3-.1.5 0 .1-.1.2-.2.3-.3.1-.3.1-.6.1-.3.1-.3 0-.6.1s-.3.1-.6.1c-.2 0-.4-.1-.4-.3 0-.3 0-.3.1-.6v-1.2c0-.3 0-.3.1-.6 0-.3.1-.3.1-.6v-1.8c0-.3 0-.3.1-.6 0-.3.1-.3.1-.6s.1-.3.1-.6v-.6c0-.3 0-.3.1-.6v-.6c0-.3.1-.3.1-.6v-.6c0-.3.1-.3.1-.6 0-.1.1-.2.2-.2.3-.1.3-.1.6-.1.3-.1.3 0 .6-.1s.3-.1.6-.1c.3-.1.3-.1.5-.1.3-.1.3 0 .6-.1s.3 0 .6-.1.3-.1.5-.2c.3-.1.3 0 .6-.1.2 0 .4-.1.6-.1h1.2c.2 0 .4.1.6.1.2.1.4.2.5.3.2.1.4.2.5.4.1.2.2.4.2.5.1.2.1.4.1.6v.6c0 .2 0 .4-.1.6 0 .2-.1.4-.2.6l-.3.6c-.1.2-.2.3-.4.5-.1.2-.3.3-.4.5-.1.1-.3.3-.5.4-.2.1-.3.2-.5.3-.1.1-.2.3-.1.4.1.2.1.3.3.5.1.2.2.2.3.5.1.2.1.2.3.5.1.2.1.2.3.5.1.2.1.3.2.5s.1.2.3.5c-.3.6-.2.6-.1.8zm-1.9-6.6c0-.3 0-.5-.1-.6-.1-.2-.3-.3-.5-.3H90c-.3.1-.3 0-.6.1s-.3.1-.5.2c-.3.1-.3 0-.6.1s-.3.1-.5.1c-.1 0-.2.1-.2.3v1.8c0 .2.1.3.3.3.3 0 .3-.1.5-.1.3 0 .3 0 .5-.1.3 0 .3 0 .5-.1.3 0 .3 0 .5-.1.2 0 .4-.1.5-.2.2-.1.3-.2.4-.4.1-.1.2-.3.3-.5.1-.2.1-.3.1-.5zm23 .5c0-.3 0-.3.1-.6v-.6c0-.3 0-.3.1-.6 0-.3 0-.3.1-.6v-1.2c0-.3 0-.3.1-.6v-.6c0-.3 0-.3.1-.6 0-.3.1-.3.1-.6v-.6c0-.3.1-.3.1-.6v-.6c0-.2-.1-.3-.3-.3-.3.1-.3.1-.5.1-.3.1-.3 0-.5.1-.3.1-.3 0-.5.1-.3.1-.3 0-.5.1-.1 0-.2.1-.2.2l-.2.6c-.1.3-.2.3-.3.5l-.2.6c-.1.3-.1.3-.2.5-.1.3-.1.3-.3.5l-.2.6c-.1.3-.1.3-.2.5-.1.3-.1.3-.2.5-.1.3-.1.3-.2.5-.1.3-.2.3-.3.5l-.2.6c-.1.3-.2.3-.3.5l-.2.6c-.1.3-.2.3-.3.5-.1.3-.5.2-.5 0l-.2-.6-.2-.6-.2-.6-.2-.6-.2-.6-.2-.6-.2-.6-.2-.6-.2-.6-.2-.6-.2-.6c0-.1-.2-.2-.3-.2-.3.1-.3.1-.5.1-.3.1-.3 0-.6.1s-.3.1-.5.1c-.3.1-.3 0-.5.1-.1 0-.2.2-.2.3 0 .3-.1.3-.1.6v1.8c0 .3-.1.3-.1.6v.6c0 .3-.1.3-.1.6v.6c0 .3-.1.3-.1.6s0 .3-.1.6v1.2c0 .3 0 .3-.1.6v1.2c0 .3-.1.3-.1.6v.6c0 .2.2.4.4.4l.6-.2c.3-.1.3 0 .6-.1s.3-.1.6-.1c.1 0 .3-.1.3-.3v-1.8c0-.3.1-.3.1-.6v-.6c0-.3 0-.3.1-.6 0-.3-.1-.3 0-.6 0-.3.1-.3.1-.6v-.6c0-.3-.2-.5 0-.6.2-.1.1.3.1.5.1.3.1.2.2.5s.1.2.2.5.1.3.2.5c.1.3 0 .3.1.5.1.3.1.3.2.5.1.3.1.3.2.5.1.3.1.3.2.5.1.3.2.2.2.5.1.3.1.3.2.5.1.1.2.2.3.2.3-.1.3-.1.6-.1.3-.1.3 0 .6-.1s.3 0 .6-.1c.1 0 .1-.1.2-.2l.2-.6c.1-.3.1-.3.3-.6l.2-.6c.1-.3.2-.2.3-.5l.2-.6c.1-.3.1-.3.3-.6.1-.3.1-.3.3-.6.1-.3.1-.3.3-.6l.2-.6c.1-.3.2-.3.3-.6.1-.3-.1-.6.2-.6.3.1 0 .3 0 .6s0 .3-.1.6c0 .3-.1.3-.1.6s0 .3-.1.6v.6c0 .3 0 .3-.1.6v1.8c0 .2.2.4.4.3.3-.1.3-.1.6-.1.3-.1.3 0 .6-.1l.6-.2c.1 0 .3-.1.3-.2v-1.2c0-.3.1-.3.1-.6-.8 1-.9 1-.8.7zm17.1-1.7v-.5c0-.2-.2-.4-.3-.4-.3.1-.3.1-.6.1l-.6.2c-.3.1-.3 0-.6.1l-.6.2c-.3.1-.3 0-.6.1s-.3.1-.6.1c-.3.1-.3 0-.6.1s-.3 0-.6.1c-.2 0-.4-.1-.4-.3 0-.3.1-.3.1-.6V185c0-.1.1-.2.3-.2.3-.1.3-.1.5-.2.3-.1.3 0 .6-.1s.3-.1.5-.1c.3-.1.3 0 .6-.1s.3-.1.5-.2c.3-.1.3 0 .6-.1s.3 0 .6-.1.3-.1.5-.1c.1 0 .2-.1.2-.2 0-.3 0-.2.1-.5v-1c0-.2-.1-.3-.3-.3-.3.1-.3.1-.6.1-.3.1-.3 0-.6.1s-.3.1-.6.1c-.3.1-.3 0-.6.1l-.6.2c-.3.1-.3 0-.6.1s-.3.1-.6.1c-.2 0-.4-.1-.3-.3 0-.3 0-.3.1-.7v-.7c0-.1.1-.2.2-.3.3-.1.3-.1.6-.1.3-.1.3-.1.6-.1.3-.1.3-.1.6-.1.3-.1.3 0 .6-.1s.3 0 .6-.1l.6-.2c.3-.1.3 0 .6-.1s.3 0 .6-.1c.1 0 .3-.2.3-.3v-.5c0-.3 0-.3.1-.5s0-.3 0-.5-.1-.3-.3-.3c-.3.1-.3 0-.6.1s-.3.1-.6.1c-.3.1-.3.1-.6.1-.3.1-.3 0-.6.1l-.6.2c-.3.1-.3 0-.6.1s-.3.1-.6.1c-.3.1-.3 0-.6.1l-.6.2c-.3.1-.3.1-.6.1-.3.1-.3.1-.6.1-.3.1-.3 0-.6.1-.1 0-.3.1-.3.3v1.2c0 .3 0 .3-.1.6 0 .3 0 .3-.1.6v.6c0 .3-.1.3-.1.6s0 .3-.1.6v1.2c0 .3-.1.3-.1.6v.6c0 .3 0 .3-.1.6v1.2c0 .3-.1.3-.1.6s0 .3-.1.6c0 .3 0 .3-.1.6 0 .2.2.4.4.3.3-.1.3-.1.5-.1.3-.1.3 0 .6-.1s.3-.1.5-.1c.3-.1.3-.1.6-.1.3-.1.3 0 .6-.1s.3-.1.5-.2c.3-.1.3-.1.6-.1.3-.1.3 0 .6-.1s.3-.1.6-.1c.3-.1.3 0 .6-.1s.3-.1.6-.1c.3-.1.3 0 .6-.1s.3-.1.5-.2c.1 0 .3-.1.3-.2v-.5c.3-.4.3-.4.3-.6zm17.8-2.6c.1.2 0 .4-.2.5-.3 0-.3 0-.5.1h-.5c-.3 0-.2.1-.5.2-.3 0-.3 0-.5.1-.1 0-.3-.1-.3-.2-.1-.2-.1-.2-.3-.5-.1-.2-.1-.3-.2-.5s-.2-.2-.3-.5c-.1-.2-.1-.3-.2-.5s-.2-.2-.3-.5c-.1-.2-.1-.2-.3-.5-.1-.2-.1-.3-.2-.5-.1-.1-.2-.2-.3-.2-.2 0-.2.1-.4.1h-.4c-.1 0-.2.2-.2.3 0 .3 0 .3-.1.5v.5c0 .3 0 .3-.1.5 0 .3-.1.3-.1.5v.5c0 .3 0 .3-.1.5 0 .3-.1.3-.1.5 0 .1-.1.2-.2.3-.3.1-.3 0-.6.1s-.3.1-.6.1c-.3.1-.3.1-.6.1-.2 0-.3-.1-.3-.3v-.6c0-.3.1-.3.1-.6v-.6c0-.3 0-.3.1-.6 0-.3 0-.3.1-.6v-1.2c0-.3 0-.3.1-.6v-.6c0-.3 0-.3.1-.6v-.6c0-.3 0-.3.1-.6v-.6c0-.3 0-.3.1-.6 0-.3 0-.3.1-.6v-.6c0-.3.1-.3.1-.6 0-.1.1-.3.2-.3.3-.1.3 0 .6-.1s.3-.1.6-.1c.3-.1.3 0 .6-.1s.3-.1.6-.1c.3-.1.3 0 .6-.1s.3-.1.5-.1c.3-.1.3-.1.5-.2.3-.1.3 0 .6-.1.2 0 .4-.1.6-.1h1.2c.2 0 .4.1.6.1.2.1.4.2.5.3.2.1.3.3.4.5.1.2.2.3.3.5.1.2.1.4.1.6v1.2c0 .2-.1.4-.2.6l-.3.6c-.1.2-.3.3-.4.5-.1.2-.2.3-.4.5-.1.1-.3.2-.5.4-.2.1-.3.3-.5.4-.1.1-.2.2-.1.4s.1.3.2.5.2.2.3.5c.1.2.1.3.2.5s.2.2.3.5c.1.2.1.3.2.5s.2.2.3.5c-.2.4-.2.4-.1.7zm-1.8-6.7c0-.3 0-.5-.1-.6-.1-.2-.3-.3-.5-.3h-.6c-.3.1-.3 0-.6.1s-.3 0-.6 0c-.3.1-.3.1-.5.1-.3.1-.3.1-.5.1-.1 0-.3.2-.3.3v.6c0 .3 0 .3-.1.6v.6c0 .2.1.4.3.3.3 0 .2-.1.5-.1h.5c.3 0 .2-.1.5-.1s.2-.1.5-.1c.2 0 .4-.1.5-.1.2-.1.3-.2.4-.4.1-.1.3-.3.3-.4.2-.2.3-.4.3-.6zm19.8 0c0-.2 0-.4-.1-.6-.1-.2-.1-.4-.3-.5-.1-.2-.3-.2-.5-.4-.2-.1-.3-.2-.5-.2-.2-.1-.4-.1-.6-.2-.2 0-.4 0-.6-.1-.2 0-.4-.1-.6-.1-.2 0-.4.1-.6 0-.2 0-.4-.1-.6-.1-.2 0-.4-.1-.6-.1-.2-.1-.4-.1-.5-.2-.2-.1-.2-.3-.2-.5s.1-.4.2-.5l.4-.4c.1-.1.3-.1.5-.2s.3-.2.5-.2.5-.1.6-.1c.2 0 .4.1.6.2.2.1.4.2.5.4l.3.6c.1.2.3.2.4.1.2-.2.2-.2.5-.4.2-.2.2-.2.5-.3.2-.2.2-.2.5-.4.1-.1.1-.2.1-.3-.1-.2-.1-.4-.2-.6-.1-.2-.3-.3-.4-.4-.1-.2-.3-.3-.4-.4-.2-.1-.3-.2-.5-.3-.2-.1-.4-.1-.6-.2h-.6c-.2 0-.4-.1-.6 0-.2 0-.4.1-.6.1-.2 0-.4.1-.6.1l-.6.3-.6.3-.6.3c-.2.1-.3.3-.5.4-.1.1-.3.2-.4.4-.1.1-.2.3-.3.5-.1.2-.2.3-.3.5-.1.2-.1.4-.1.5 0 .2-.1.4-.1.6v.6c0 .2 0 .4.1.6.1.2.2.3.3.5.1.2.2.3.4.4.2.1.3.2.5.2.2.1.4.1.6.2.2 0 .4.1.6.1h1.2c.2 0 .4 0 .6.1.2 0 .4.1.5.2.2.1.3.2.4.4.1.2.2.3.1.5 0 .2 0 .4-.2.6-.1.2-.3.3-.4.4-.1.1-.3.2-.5.3-.2.1-.4.1-.6.2-.2 0-.4.1-.6.1-.2 0-.4 0-.6-.1-.2-.1-.4-.2-.5-.3-.1-.1-.3-.3-.4-.5-.1-.2-.1-.4-.1-.6-.1-.2-.3-.3-.5-.2-.3.2-.3.2-.5.4-.3.2-.3.1-.6.3-.3.2-.3.2-.5.4-.1.1-.2.2-.2.3 0 .2.1.4.2.5.1.2.2.3.3.5.1.2.2.3.3.5.1.1.2.3.4.4.1.1.3.2.5.3.2.1.3.2.5.2s.4.1.6.1h1.2c.2 0 .4-.1.6-.1.2 0 .4 0 .6-.1.2-.1.4-.1.5-.2.2-.1.4-.1.5-.2.2-.1.3-.2.5-.3.2-.1.3-.2.5-.3s.3-.3.4-.4c.1-.2.3-.3.4-.5.1-.2.3-.3.4-.5.1-.2.2-.4.3-.5.1-.2.1-.4.2-.6v-.6c.1-.6.1-.8.1-.9z"/></svg>