<svg xmlns="http://www.w3.org/2000/svg" viewBox="0 0 200 160"><path d="M154.3 25.4c-14.4-14.4-33.6-22.3-54-22.3-42 0-76.2 34.2-76.2 76.2 0 13.4 3.5 26.6 10.2 38.1l-10.8 39.5 40.4-10.6c11.1 6.1 23.7 9.3 36.4 9.3 42 0 76.2-34.2 76.2-76.2.1-20.4-7.8-39.6-22.2-54zm-54 117.3c-11.4 0-22.6-3.1-32.3-8.8l-2.3-1.4-24 6.3 6.4-23.4-1.5-2.4c-6.3-10.1-9.7-21.8-9.7-33.7 0-34.9 28.4-63.4 63.4-63.4 16.9 0 32.8 6.6 44.8 18.6 12 12 18.6 27.9 18.5 44.8.1 35-28.3 63.4-63.3 63.4zm34.8-47.4c-1.9-1-11.3-5.6-13-6.2-1.7-.6-3-1-4.3 1-1.3 1.9-4.9 6.2-6 7.5-1.1 1.3-2.2 1.4-4.1.5-1.9-1-8-3-15.3-9.5-5.7-5.1-9.5-11.3-10.6-13.2-1.1-1.9-.1-2.9.8-3.9.9-.9 1.9-2.2 2.9-3.3 1-1.1 1.3-1.9 1.9-3.2.6-1.3.3-2.4-.2-3.3-.5-1-4.3-10.3-5.9-14.1-1.5-3.7-3.1-3.2-4.3-3.3-1.1-.1-2.4-.1-3.7-.1-1.3 0-3.3.5-5.1 2.4-1.7 1.9-6.7 6.5-6.7 15.9s6.8 18.4 7.8 19.7c1 1.3 13.4 20.5 32.5 28.8 4.5 2 8.1 3.1 10.9 4 4.6 1.5 8.7 1.2 12 .8 3.7-.5 11.3-4.6 12.9-9.1 1.6-4.5 1.6-8.3 1.1-9.1-.4-.9-1.7-1.4-3.6-2.3z" fill-rule="evenodd" clip-rule="evenodd" fill="#25d366"/></svg>